M48
;Layer_Color=9474304
;FILE_FORMAT=4:4
METRIC,LZ
;TYPE=PLATED
T1F00S00C0.3000
T2F00S00C1.0200
%
T01
X001625Y000455
X0018Y00078
X002Y00073
X0021Y000555
X002575Y00058
X002525Y00048
X002575Y00093
X002475Y000955
X002075Y00118
X00195Y00197
X00206Y0024
X00216
X00226
X00236
X00246
Y0025
X0026Y00252
X0026Y00299
Y00315
Y00335
X0027Y00345
X0031Y00352
X0036
X0041
X00385Y00302
X0036Y00252
X00336Y00255
X00322Y00255
X0031Y00252
X00306Y00283
Y00297
X00241Y00287
X00228Y00295
X0022Y003
X00212Y00305
X00204Y0031
X00196Y00315
X001675Y00372
X00161Y00247
X00315Y0022
X0031Y00152
X00306Y00135
Y00123
X0031Y00111
X003135Y000915
X00335Y00102
X00346Y00103
X003635Y00078
X0036Y00052
X0031
X0041
X00405Y0012
X0041Y00152
X0036
X003575Y001825
X00376Y001975
X0041Y00252
X00148Y00247
X0011Y00252
X0006
X0001
Y00152
X0002Y001425
X0011Y00152
Y000905
X00085Y00102
X00153Y00098
X001525Y000205
X0006Y00052
X0001
X00085Y00202
X00155Y00208
Y00189
X00152Y00322999
X001525Y00367
X00092Y00323
X0001Y00352
X00035Y00402
X00065Y00427
X001125Y00427
X00125Y00457
X000975Y004745
X0012Y005395
Y005495
Y005595
Y005695
Y005795
Y005895
Y005995
X0013
X0014
X0015
Y005895
Y005795
X0014
Y005895
X0013
Y005795
Y005695
X0014
Y005595
X0013
Y005495
X0014
X0015
Y005595
Y005395
X0014
X0013
X00143Y00521
X0011Y00552
X0006
X0001
X00035Y00502
X0001Y00452
X001475Y004045
X00145Y00742
X0013
X00115
X001
X00085
X0007
X00055
X0005Y00752
Y00767
Y00782
X00055Y00792
X0007
X00085
X001
X00115
X0013
X00145
X0016
X00175
X0019
X00205
X0022
X00235
X0025
X00265
X0028
X00295
X0031
X00325
X0034
X00355
X0037
X00385
Y00742
X0037
X00355
X0034
X00325
X0031
X00295
X0028
X00265
X0025
X00235
X0022
X00205
X0019
X00175
X0016
X0022Y00692
Y00677
Y00662
Y00647
Y00632
Y00617
X002175Y005845
X002075
X001975
X002275
X002375
X002475
X002575
Y005745
X002475
X002375
X002275
Y005645
Y005545
X002175
X002075
Y005445
X002175
X002275
X002375
X002475
Y005345
X002375
X002275
X002175
X002175Y005245
X002075
X002075Y005345
X001975Y005245
Y005145
Y005045
Y004945
X002175Y004945
X002275Y004945
Y005245
X0026Y005245
Y005145
X0028Y005095
X0029
Y005195
Y005295
X003
Y005395
X0031
Y005295
X0032
Y005395
Y005495
Y005595
Y005695
Y005795
Y005895
Y005995
X0031
X003
X0029
X0028
X0027
X0028Y005895
X0029
X003
X0031
X0031Y005795
X003
X0029
Y005695
X003
X0031
Y005595
X003
Y005495
X0031
Y005195
X003
Y005095
X0031
X0032
Y005195
Y004995
Y004895
X0031
Y004995
X003
Y004895
X0029
Y004995
X0028
Y004895
Y004795
X0029
X003
X0031
X0032
X0031Y00452
X0029Y004495
Y004595
Y004695
X0028
Y004595
Y004495
X0027
Y004595
X0026Y004495
Y004395
X002475Y004395
Y004495
Y004595
X0025Y004295
X002375Y004095
X002275Y004095
X002175Y004095
X002075
X001975
Y004395
X002175Y00452
X001755Y00459
X001645
Y0047
X001755
X002625Y00487
X002475Y005545
X002375
Y005645
X002475
X0016Y005795
Y005895
Y005995
X00235Y00692
X0025
X00265
X0028
X00295
X0031
X00325
X0034
X00355
X0037
X00385
X004Y00694
Y00709
Y00724
Y00739
X0041Y00552
X0036
X00335Y00502
X00385
X0036Y00452
X0041
X00385Y00402
X00335
X0034Y00842
X00325
X0031
X00295
X0028
X00265
X0025
X00235
X0022
X00205
X0019
X00175
X0016
X00355
X0037
X00385
X004Y00839
Y00824
Y00809
Y00794
X00145Y00842
X0013
X00115
X001
X00085
X0007
X00055
T02
X000286Y00106
X00054
X00038Y001925
Y002179
Y002433
Y002687
Y002941
Y003195
X00087Y002947
Y002693
M30
