*
%LPD*%
%LNS2-LP_APPLIC_BOARD_VERS2.TOP*%
%FSLAX24Y24*%
%MOIN*%
%AD*%
%ADD10R,0.038X0.032*%
%ADD11R,0.022X0.022*%
%ADD12R,0.032X0.038*%
%ADD17C,0.064*%
%ADD21R,0.01X0.02*%
%ADD22R,0.1063X0.1063*%
%ADD23R,0.02X0.01*%
%ADD25C,0.015*%
%ADD26C,0.065*%
%ADD27C,0.001*%
%ADD28C,0.02*%
%ADD29C,0.01*%
%ADD30C,0.006*%
%ADD31C,0.008*%
%ADD48O,0.0787X0.0618*%
%ADD49R,0.0787X0.0618*%
%ADD50R,0.05X0.2*%
%ADD51R,0.03X0.15*%
%ADD52R,0.04X0.048*%
%ADD53O,0.025X0.094*%
%ADD54R,0.025X0.094*%
%ADD55R,0.033X0.03*%
G54D27*
%SRX1Y1I0.0J0.0*%
G1X16339Y28956D2*
G1X16339Y29436D1*
G1X17487Y28167D2*
G1X17396Y28167D1*
G1X17487Y28176D2*
G1X17387Y28176D1*
G1X17487Y28464D2*
G1X17099Y28464D1*
G1X17487Y28482D2*
G1X17081Y28482D1*
G1X17487Y28500D2*
G1X17063Y28500D1*
G1X17487Y28518D2*
G1X17045Y28518D1*
G1X17487Y28536D2*
G1X17027Y28536D1*
G1X17487Y28554D2*
G1X17009Y28554D1*
G1X17487Y28572D2*
G1X16991Y28572D1*
G1X17487Y28590D2*
G1X16973Y28590D1*
G1X17487Y28608D2*
G1X16955Y28608D1*
G1X17487Y28626D2*
G1X16937Y28626D1*
G1X17484Y28644D2*
G1X16919Y28644D1*
G1X17466Y28662D2*
G1X16901Y28662D1*
G1X17448Y28680D2*
G1X16883Y28680D1*
G1X17430Y28698D2*
G1X16865Y28698D1*
G1X17412Y28716D2*
G1X16847Y28716D1*
G1X17394Y28734D2*
G1X16829Y28734D1*
G1X17376Y28752D2*
G1X16811Y28752D1*
G1X17358Y28770D2*
G1X16793Y28770D1*
G1X17340Y28788D2*
G1X16775Y28788D1*
G1X17286Y28842D2*
G1X16727Y28842D1*
G1X15781Y28956D2*
G1X15781Y29436D1*
G1X17487Y28194D2*
G1X17369Y28194D1*
G1X17487Y28203D2*
G1X17360Y28203D1*
G1X17487Y28212D2*
G1X17351Y28212D1*
G1X17487Y28230D2*
G1X17333Y28230D1*
G1X16727Y28881D2*
G1X16682Y28881D1*
G1X17487Y28257D2*
G1X17306Y28257D1*
G1X16690Y28881D2*
G1X16690Y29436D1*
G1X16636Y28927D2*
G1X16636Y29436D1*
G1X16618Y28945D2*
G1X16618Y29436D1*
G1X16600Y28956D2*
G1X16600Y29436D1*
G1X16582Y28956D2*
G1X16582Y29436D1*
G1X16564Y28956D2*
G1X16564Y29436D1*
G1X16546Y28956D2*
G1X16546Y29436D1*
G1X16528Y28956D2*
G1X16528Y29436D1*
G1X16510Y28956D2*
G1X16510Y29436D1*
G1X17487Y28320D2*
G1X17243Y28320D1*
G1X17487Y28329D2*
G1X17234Y28329D1*
G1X17487Y28338D2*
G1X17225Y28338D1*
G1X17487Y28347D2*
G1X17216Y28347D1*
G1X16483Y28956D2*
G1X16483Y29436D1*
G1X16465Y28956D2*
G1X16465Y29436D1*
G1X16447Y28956D2*
G1X16447Y29436D1*
G1X16429Y28956D2*
G1X16429Y29436D1*
G1X16411Y28956D2*
G1X16411Y29436D1*
G1X17487Y28076D2*
G1X16727Y28836D1*
G1X16348Y28956D2*
G1X16348Y29436D1*
G1X16366Y28956D2*
G1X16366Y29436D1*
G1X16384Y28956D2*
G1X16384Y29436D1*
G1X16402Y28956D2*
G1X16402Y29436D1*
G1X16420Y28956D2*
G1X16420Y29436D1*
G1X16438Y28956D2*
G1X16438Y29436D1*
G1X16456Y28956D2*
G1X16456Y29436D1*
G1X17487Y28311D2*
G1X17252Y28311D1*
G1X16789Y28774D2*
G1X16789Y29339D1*
G1X17268Y28860D2*
G1X16727Y28860D1*
G1X16276Y28956D2*
G1X16276Y29436D1*
G1X16798Y28765D2*
G1X16798Y29330D1*
G1X16807Y28756D2*
G1X16807Y29321D1*
G1X16816Y28747D2*
G1X16816Y29312D1*
G1X14296Y28956D2*
G1X14296Y29436D1*
G1X16474Y28956D2*
G1X16474Y29436D1*
G1X17487Y28446D2*
G1X17117Y28446D1*
G1X17077Y28486D2*
G1X17077Y29051D1*
G1X17295Y28833D2*
G1X16730Y28833D1*
G1X17304Y28824D2*
G1X16739Y28824D1*
G1X16213Y28956D2*
G1X16213Y29436D1*
G1X16492Y28956D2*
G1X16492Y29436D1*
G1X15331Y28956D2*
G1X15331Y29436D1*
G1X16375Y28956D2*
G1X16375Y29436D1*
G1X16393Y28956D2*
G1X16393Y29436D1*
G1X16672Y28891D2*
G1X16672Y29436D1*
G1X17487Y28185D2*
G1X17378Y28185D1*
G1X17259Y28869D2*
G1X16727Y28869D1*
G1X17487Y28239D2*
G1X17324Y28239D1*
G1X15322Y28956D2*
G1X15322Y29436D1*
G1X17277Y28851D2*
G1X16727Y28851D1*
G1X16654Y28909D2*
G1X16654Y29436D1*
G1X16645Y28918D2*
G1X16645Y29436D1*
G1X14287Y28956D2*
G1X14287Y29436D1*
G1X16607Y28956D2*
G1X14287Y28956D1*
G1X17487Y28076D2*
G1X17487Y28641D1*
G1X16692Y29436D1*
G1X14287Y29436D1*
G1X17487Y28086D2*
G1X17477Y28086D1*
G1X17487Y28095D2*
G1X17468Y28095D1*
G1X17487Y28104D2*
G1X17459Y28104D1*
G1X17487Y28113D2*
G1X17450Y28113D1*
G1X17487Y28122D2*
G1X17441Y28122D1*
G1X17487Y28131D2*
G1X17432Y28131D1*
G1X17487Y28140D2*
G1X17423Y28140D1*
G1X17487Y28149D2*
G1X17414Y28149D1*
G1X17487Y28158D2*
G1X17405Y28158D1*
G1X17487Y28221D2*
G1X17342Y28221D1*
G1X17487Y28248D2*
G1X17315Y28248D1*
G1X17487Y28266D2*
G1X17297Y28266D1*
G1X17487Y28275D2*
G1X17288Y28275D1*
G1X17487Y28284D2*
G1X17279Y28284D1*
G1X17487Y28293D2*
G1X17270Y28293D1*
G1X17487Y28419D2*
G1X17144Y28419D1*
G1X17487Y28428D2*
G1X17135Y28428D1*
G1X16357Y28956D2*
G1X16357Y29436D1*
G1X16682Y28881D2*
G1X16607Y28956D1*
G1X17487Y28455D2*
G1X17108Y28455D1*
G1X17487Y28473D2*
G1X17090Y28473D1*
G1X17487Y28491D2*
G1X17072Y28491D1*
G1X17487Y28509D2*
G1X17054Y28509D1*
G1X17487Y28527D2*
G1X17036Y28527D1*
G1X17487Y28545D2*
G1X17018Y28545D1*
G1X17487Y28563D2*
G1X17000Y28563D1*
G1X17487Y28581D2*
G1X16982Y28581D1*
G1X17487Y28599D2*
G1X16964Y28599D1*
G1X17487Y28617D2*
G1X16946Y28617D1*
G1X17487Y28635D2*
G1X16928Y28635D1*
G1X17475Y28653D2*
G1X16910Y28653D1*
G1X17457Y28671D2*
G1X16892Y28671D1*
G1X17439Y28689D2*
G1X16874Y28689D1*
G1X17421Y28707D2*
G1X16856Y28707D1*
G1X17403Y28725D2*
G1X16838Y28725D1*
G1X17385Y28743D2*
G1X16820Y28743D1*
G1X17367Y28761D2*
G1X16802Y28761D1*
G1X17349Y28779D2*
G1X16784Y28779D1*
G1X17331Y28797D2*
G1X16766Y28797D1*
G1X17313Y28815D2*
G1X16748Y28815D1*
G1X17322Y28806D2*
G1X16757Y28806D1*
G1X17239Y28324D2*
G1X17239Y28889D1*
G1X17250Y28878D2*
G1X16685Y28878D1*
G1X17241Y28887D2*
G1X16676Y28887D1*
G1X17232Y28896D2*
G1X16667Y28896D1*
G1X17223Y28905D2*
G1X16658Y28905D1*
G1X17214Y28914D2*
G1X16649Y28914D1*
G1X17205Y28923D2*
G1X16640Y28923D1*
G1X17196Y28932D2*
G1X16631Y28932D1*
G1X17187Y28941D2*
G1X16622Y28941D1*
G1X17178Y28950D2*
G1X16613Y28950D1*
G1X17169Y28959D2*
G1X14287Y28959D1*
G1X17160Y28968D2*
G1X14287Y28968D1*
G1X17151Y28977D2*
G1X14287Y28977D1*
G1X17142Y28986D2*
G1X14287Y28986D1*
G1X17133Y28995D2*
G1X14287Y28995D1*
G1X17124Y29004D2*
G1X14287Y29004D1*
G1X17115Y29013D2*
G1X14287Y29013D1*
G1X17106Y29022D2*
G1X14287Y29022D1*
G1X17097Y29031D2*
G1X14287Y29031D1*
G1X17088Y29040D2*
G1X14287Y29040D1*
G1X17079Y29049D2*
G1X14287Y29049D1*
G1X17070Y29058D2*
G1X14287Y29058D1*
G1X17061Y29067D2*
G1X14287Y29067D1*
G1X17052Y29076D2*
G1X14287Y29076D1*
G1X17043Y29085D2*
G1X14287Y29085D1*
G1X17034Y29094D2*
G1X14287Y29094D1*
G1X17025Y29103D2*
G1X14287Y29103D1*
G1X17016Y29112D2*
G1X14287Y29112D1*
G1X17007Y29121D2*
G1X14287Y29121D1*
G1X16998Y29130D2*
G1X14287Y29130D1*
G1X16989Y29139D2*
G1X14287Y29139D1*
G1X16980Y29148D2*
G1X14287Y29148D1*
G1X16971Y29157D2*
G1X14287Y29157D1*
G1X16962Y29166D2*
G1X14287Y29166D1*
G1X16953Y29175D2*
G1X14287Y29175D1*
G1X16944Y29184D2*
G1X14287Y29184D1*
G1X16935Y29193D2*
G1X14287Y29193D1*
G1X16926Y29202D2*
G1X14287Y29202D1*
G1X16917Y29211D2*
G1X14287Y29211D1*
G1X16908Y29220D2*
G1X14287Y29220D1*
G1X16899Y29229D2*
G1X14287Y29229D1*
G1X16890Y29238D2*
G1X14287Y29238D1*
G1X16881Y29247D2*
G1X14287Y29247D1*
G1X16872Y29256D2*
G1X14287Y29256D1*
G1X16863Y29265D2*
G1X14287Y29265D1*
G1X16854Y29274D2*
G1X14287Y29274D1*
G1X16845Y29283D2*
G1X14287Y29283D1*
G1X16836Y29292D2*
G1X14287Y29292D1*
G1X16827Y29301D2*
G1X14287Y29301D1*
G1X16818Y29310D2*
G1X14287Y29310D1*
G1X16809Y29319D2*
G1X14287Y29319D1*
G1X16800Y29328D2*
G1X14287Y29328D1*
G1X16791Y29337D2*
G1X14287Y29337D1*
G1X16782Y29346D2*
G1X14287Y29346D1*
G1X16773Y29355D2*
G1X14287Y29355D1*
G1X16764Y29364D2*
G1X14287Y29364D1*
G1X16755Y29373D2*
G1X14287Y29373D1*
G1X16746Y29382D2*
G1X14287Y29382D1*
G1X16737Y29391D2*
G1X14287Y29391D1*
G1X16728Y29400D2*
G1X14287Y29400D1*
G1X16719Y29409D2*
G1X14287Y29409D1*
G1X16710Y29418D2*
G1X14287Y29418D1*
G1X16726Y28837D2*
G1X16726Y29402D1*
G1X17473Y28090D2*
G1X17473Y28655D1*
G1X17464Y28099D2*
G1X17464Y28664D1*
G1X17455Y28108D2*
G1X17455Y28673D1*
G1X17446Y28117D2*
G1X17446Y28682D1*
G1X17437Y28126D2*
G1X17437Y28691D1*
G1X17428Y28135D2*
G1X17428Y28700D1*
G1X17419Y28144D2*
G1X17419Y28709D1*
G1X17410Y28153D2*
G1X17410Y28718D1*
G1X17401Y28162D2*
G1X17401Y28727D1*
G1X17392Y28171D2*
G1X17392Y28736D1*
G1X17383Y28180D2*
G1X17383Y28745D1*
G1X17374Y28189D2*
G1X17374Y28754D1*
G1X17365Y28198D2*
G1X17365Y28763D1*
G1X17356Y28207D2*
G1X17356Y28772D1*
G1X17347Y28216D2*
G1X17347Y28781D1*
G1X17338Y28225D2*
G1X17338Y28790D1*
G1X17329Y28234D2*
G1X17329Y28799D1*
G1X17320Y28243D2*
G1X17320Y28808D1*
G1X16627Y28936D2*
G1X16627Y29436D1*
G1X16609Y28954D2*
G1X16609Y29436D1*
G1X16591Y28956D2*
G1X16591Y29436D1*
G1X16573Y28956D2*
G1X16573Y29436D1*
G1X16555Y28956D2*
G1X16555Y29436D1*
G1X16537Y28956D2*
G1X16537Y29436D1*
G1X16519Y28956D2*
G1X16519Y29436D1*
G1X16501Y28956D2*
G1X16501Y29436D1*
G1X17311Y28252D2*
G1X17311Y28817D1*
G1X17230Y28333D2*
G1X17230Y28898D1*
G1X17221Y28342D2*
G1X17221Y28907D1*
G1X17212Y28351D2*
G1X17212Y28916D1*
G1X17203Y28360D2*
G1X17203Y28925D1*
G1X17194Y28369D2*
G1X17194Y28934D1*
G1X17185Y28378D2*
G1X17185Y28943D1*
G1X17176Y28387D2*
G1X17176Y28952D1*
G1X17167Y28396D2*
G1X17167Y28961D1*
G1X17158Y28405D2*
G1X17158Y28970D1*
G1X17149Y28414D2*
G1X17149Y28979D1*
G1X17140Y28423D2*
G1X17140Y28988D1*
G1X17131Y28432D2*
G1X17131Y28997D1*
G1X17122Y28441D2*
G1X17122Y29006D1*
G1X17113Y28450D2*
G1X17113Y29015D1*
G1X17104Y28459D2*
G1X17104Y29024D1*
G1X17095Y28468D2*
G1X17095Y29033D1*
G1X17086Y28477D2*
G1X17086Y29042D1*
G1X17487Y28302D2*
G1X17261Y28302D1*
G1X17068Y28495D2*
G1X17068Y29060D1*
G1X17059Y28504D2*
G1X17059Y29069D1*
G1X17050Y28513D2*
G1X17050Y29078D1*
G1X17041Y28522D2*
G1X17041Y29087D1*
G1X17032Y28531D2*
G1X17032Y29096D1*
G1X17023Y28540D2*
G1X17023Y29105D1*
G1X17014Y28549D2*
G1X17014Y29114D1*
G1X16942Y28621D2*
G1X16942Y29186D1*
G1X16996Y28567D2*
G1X16996Y29132D1*
G1X16987Y28576D2*
G1X16987Y29141D1*
G1X16978Y28585D2*
G1X16978Y29150D1*
G1X16969Y28594D2*
G1X16969Y29159D1*
G1X17005Y28558D2*
G1X17005Y29123D1*
G1X16951Y28612D2*
G1X16951Y29177D1*
G1X16933Y28630D2*
G1X16933Y29195D1*
G1X16924Y28639D2*
G1X16924Y29204D1*
G1X16915Y28648D2*
G1X16915Y29213D1*
G1X16906Y28657D2*
G1X16906Y29222D1*
G1X16897Y28666D2*
G1X16897Y29231D1*
G1X16888Y28675D2*
G1X16888Y29240D1*
G1X16879Y28684D2*
G1X16879Y29249D1*
G1X16870Y28693D2*
G1X16870Y29258D1*
G1X16861Y28702D2*
G1X16861Y29267D1*
G1X16852Y28711D2*
G1X16852Y29276D1*
G1X16843Y28720D2*
G1X16843Y29285D1*
G1X16834Y28729D2*
G1X16834Y29294D1*
G1X16825Y28738D2*
G1X16825Y29303D1*
G1X16960Y28603D2*
G1X16960Y29168D1*
G1X16330Y28956D2*
G1X16330Y29436D1*
G1X16321Y28956D2*
G1X16321Y29436D1*
G1X16312Y28956D2*
G1X16312Y29436D1*
G1X16303Y28956D2*
G1X16303Y29436D1*
G1X16294Y28956D2*
G1X16294Y29436D1*
G1X16285Y28956D2*
G1X16285Y29436D1*
G1X16717Y28881D2*
G1X16717Y29411D1*
G1X16708Y28881D2*
G1X16708Y29420D1*
G1X16699Y28881D2*
G1X16699Y29429D1*
G1X16681Y28882D2*
G1X16681Y29436D1*
G1X16663Y28900D2*
G1X16663Y29436D1*
G1X16727Y28836D2*
G1X16727Y28881D1*
G1X17302Y28261D2*
G1X17302Y28826D1*
G1X17293Y28270D2*
G1X17293Y28835D1*
G1X17284Y28279D2*
G1X17284Y28844D1*
G1X17275Y28288D2*
G1X17275Y28853D1*
G1X17266Y28297D2*
G1X17266Y28862D1*
G1X17257Y28306D2*
G1X17257Y28871D1*
G1X17248Y28315D2*
G1X17248Y28880D1*
G1X17487Y28356D2*
G1X17207Y28356D1*
G1X17487Y28365D2*
G1X17198Y28365D1*
G1X17487Y28374D2*
G1X17189Y28374D1*
G1X17487Y28383D2*
G1X17180Y28383D1*
G1X17487Y28392D2*
G1X17171Y28392D1*
G1X17487Y28401D2*
G1X17162Y28401D1*
G1X17487Y28410D2*
G1X17153Y28410D1*
G1X16780Y28783D2*
G1X16780Y29348D1*
G1X16771Y28792D2*
G1X16771Y29357D1*
G1X16762Y28801D2*
G1X16762Y29366D1*
G1X16753Y28810D2*
G1X16753Y29375D1*
G1X16744Y28819D2*
G1X16744Y29384D1*
G1X16735Y28828D2*
G1X16735Y29393D1*
G1X16267Y28956D2*
G1X16267Y29436D1*
G1X16258Y28956D2*
G1X16258Y29436D1*
G1X16249Y28956D2*
G1X16249Y29436D1*
G1X16240Y28956D2*
G1X16240Y29436D1*
G1X16231Y28956D2*
G1X16231Y29436D1*
G1X16222Y28956D2*
G1X16222Y29436D1*
G1X16204Y28956D2*
G1X16204Y29436D1*
G1X16195Y28956D2*
G1X16195Y29436D1*
G1X16186Y28956D2*
G1X16186Y29436D1*
G1X16177Y28956D2*
G1X16177Y29436D1*
G1X16168Y28956D2*
G1X16168Y29436D1*
G1X16159Y28956D2*
G1X16159Y29436D1*
G1X16150Y28956D2*
G1X16150Y29436D1*
G1X16141Y28956D2*
G1X16141Y29436D1*
G1X16132Y28956D2*
G1X16132Y29436D1*
G1X16123Y28956D2*
G1X16123Y29436D1*
G1X16114Y28956D2*
G1X16114Y29436D1*
G1X16105Y28956D2*
G1X16105Y29436D1*
G1X16096Y28956D2*
G1X16096Y29436D1*
G1X16087Y28956D2*
G1X16087Y29436D1*
G1X16078Y28956D2*
G1X16078Y29436D1*
G1X16069Y28956D2*
G1X16069Y29436D1*
G1X16060Y28956D2*
G1X16060Y29436D1*
G1X16051Y28956D2*
G1X16051Y29436D1*
G1X16042Y28956D2*
G1X16042Y29436D1*
G1X16033Y28956D2*
G1X16033Y29436D1*
G1X16024Y28956D2*
G1X16024Y29436D1*
G1X16015Y28956D2*
G1X16015Y29436D1*
G1X16006Y28956D2*
G1X16006Y29436D1*
G1X15997Y28956D2*
G1X15997Y29436D1*
G1X15988Y28956D2*
G1X15988Y29436D1*
G1X15979Y28956D2*
G1X15979Y29436D1*
G1X15970Y28956D2*
G1X15970Y29436D1*
G1X15961Y28956D2*
G1X15961Y29436D1*
G1X15952Y28956D2*
G1X15952Y29436D1*
G1X15943Y28956D2*
G1X15943Y29436D1*
G1X15934Y28956D2*
G1X15934Y29436D1*
G1X15925Y28956D2*
G1X15925Y29436D1*
G1X15916Y28956D2*
G1X15916Y29436D1*
G1X15907Y28956D2*
G1X15907Y29436D1*
G1X15898Y28956D2*
G1X15898Y29436D1*
G1X15889Y28956D2*
G1X15889Y29436D1*
G1X15880Y28956D2*
G1X15880Y29436D1*
G1X15871Y28956D2*
G1X15871Y29436D1*
G1X15862Y28956D2*
G1X15862Y29436D1*
G1X15853Y28956D2*
G1X15853Y29436D1*
G1X15844Y28956D2*
G1X15844Y29436D1*
G1X15835Y28956D2*
G1X15835Y29436D1*
G1X15826Y28956D2*
G1X15826Y29436D1*
G1X15817Y28956D2*
G1X15817Y29436D1*
G1X15808Y28956D2*
G1X15808Y29436D1*
G1X15799Y28956D2*
G1X15799Y29436D1*
G1X15790Y28956D2*
G1X15790Y29436D1*
G1X17487Y28437D2*
G1X17126Y28437D1*
G1X15772Y28956D2*
G1X15772Y29436D1*
G1X15763Y28956D2*
G1X15763Y29436D1*
G1X15754Y28956D2*
G1X15754Y29436D1*
G1X15745Y28956D2*
G1X15745Y29436D1*
G1X15736Y28956D2*
G1X15736Y29436D1*
G1X15727Y28956D2*
G1X15727Y29436D1*
G1X15718Y28956D2*
G1X15718Y29436D1*
G1X15709Y28956D2*
G1X15709Y29436D1*
G1X15700Y28956D2*
G1X15700Y29436D1*
G1X15691Y28956D2*
G1X15691Y29436D1*
G1X15682Y28956D2*
G1X15682Y29436D1*
G1X15673Y28956D2*
G1X15673Y29436D1*
G1X15664Y28956D2*
G1X15664Y29436D1*
G1X15655Y28956D2*
G1X15655Y29436D1*
G1X15646Y28956D2*
G1X15646Y29436D1*
G1X15637Y28956D2*
G1X15637Y29436D1*
G1X15628Y28956D2*
G1X15628Y29436D1*
G1X15619Y28956D2*
G1X15619Y29436D1*
G1X15610Y28956D2*
G1X15610Y29436D1*
G1X15601Y28956D2*
G1X15601Y29436D1*
G1X15592Y28956D2*
G1X15592Y29436D1*
G1X15583Y28956D2*
G1X15583Y29436D1*
G1X15574Y28956D2*
G1X15574Y29436D1*
G1X15565Y28956D2*
G1X15565Y29436D1*
G1X15556Y28956D2*
G1X15556Y29436D1*
G1X15547Y28956D2*
G1X15547Y29436D1*
G1X15538Y28956D2*
G1X15538Y29436D1*
G1X15529Y28956D2*
G1X15529Y29436D1*
G1X15520Y28956D2*
G1X15520Y29436D1*
G1X15511Y28956D2*
G1X15511Y29436D1*
G1X15502Y28956D2*
G1X15502Y29436D1*
G1X15493Y28956D2*
G1X15493Y29436D1*
G1X15484Y28956D2*
G1X15484Y29436D1*
G1X15475Y28956D2*
G1X15475Y29436D1*
G1X15466Y28956D2*
G1X15466Y29436D1*
G1X15457Y28956D2*
G1X15457Y29436D1*
G1X15448Y28956D2*
G1X15448Y29436D1*
G1X15439Y28956D2*
G1X15439Y29436D1*
G1X15430Y28956D2*
G1X15430Y29436D1*
G1X15421Y28956D2*
G1X15421Y29436D1*
G1X15412Y28956D2*
G1X15412Y29436D1*
G1X15403Y28956D2*
G1X15403Y29436D1*
G1X15394Y28956D2*
G1X15394Y29436D1*
G1X15385Y28956D2*
G1X15385Y29436D1*
G1X15376Y28956D2*
G1X15376Y29436D1*
G1X15367Y28956D2*
G1X15367Y29436D1*
G1X15358Y28956D2*
G1X15358Y29436D1*
G1X15349Y28956D2*
G1X15349Y29436D1*
G1X15340Y28956D2*
G1X15340Y29436D1*
G1X15313Y28956D2*
G1X15313Y29436D1*
G1X15304Y28956D2*
G1X15304Y29436D1*
G1X15295Y28956D2*
G1X15295Y29436D1*
G1X15286Y28956D2*
G1X15286Y29436D1*
G1X15277Y28956D2*
G1X15277Y29436D1*
G1X15268Y28956D2*
G1X15268Y29436D1*
G1X15259Y28956D2*
G1X15259Y29436D1*
G1X15250Y28956D2*
G1X15250Y29436D1*
G1X15241Y28956D2*
G1X15241Y29436D1*
G1X15232Y28956D2*
G1X15232Y29436D1*
G1X15223Y28956D2*
G1X15223Y29436D1*
G1X15214Y28956D2*
G1X15214Y29436D1*
G1X15205Y28956D2*
G1X15205Y29436D1*
G1X15196Y28956D2*
G1X15196Y29436D1*
G1X15187Y28956D2*
G1X15187Y29436D1*
G1X15178Y28956D2*
G1X15178Y29436D1*
G1X15169Y28956D2*
G1X15169Y29436D1*
G1X15160Y28956D2*
G1X15160Y29436D1*
G1X15151Y28956D2*
G1X15151Y29436D1*
G1X15142Y28956D2*
G1X15142Y29436D1*
G1X15133Y28956D2*
G1X15133Y29436D1*
G1X15124Y28956D2*
G1X15124Y29436D1*
G1X15115Y28956D2*
G1X15115Y29436D1*
G1X15106Y28956D2*
G1X15106Y29436D1*
G1X15097Y28956D2*
G1X15097Y29436D1*
G1X15088Y28956D2*
G1X15088Y29436D1*
G1X15079Y28956D2*
G1X15079Y29436D1*
G1X15070Y28956D2*
G1X15070Y29436D1*
G1X15061Y28956D2*
G1X15061Y29436D1*
G1X15052Y28956D2*
G1X15052Y29436D1*
G1X15043Y28956D2*
G1X15043Y29436D1*
G1X15034Y28956D2*
G1X15034Y29436D1*
G1X15025Y28956D2*
G1X15025Y29436D1*
G1X15016Y28956D2*
G1X15016Y29436D1*
G1X15007Y28956D2*
G1X15007Y29436D1*
G1X14998Y28956D2*
G1X14998Y29436D1*
G1X14989Y28956D2*
G1X14989Y29436D1*
G1X14980Y28956D2*
G1X14980Y29436D1*
G1X14971Y28956D2*
G1X14971Y29436D1*
G1X14962Y28956D2*
G1X14962Y29436D1*
G1X14953Y28956D2*
G1X14953Y29436D1*
G1X14944Y28956D2*
G1X14944Y29436D1*
G1X14935Y28956D2*
G1X14935Y29436D1*
G1X14926Y28956D2*
G1X14926Y29436D1*
G1X14917Y28956D2*
G1X14917Y29436D1*
G1X14908Y28956D2*
G1X14908Y29436D1*
G1X14899Y28956D2*
G1X14899Y29436D1*
G1X14890Y28956D2*
G1X14890Y29436D1*
G1X14881Y28956D2*
G1X14881Y29436D1*
G1X14872Y28956D2*
G1X14872Y29436D1*
G1X14863Y28956D2*
G1X14863Y29436D1*
G1X14854Y28956D2*
G1X14854Y29436D1*
G1X14845Y28956D2*
G1X14845Y29436D1*
G1X14836Y28956D2*
G1X14836Y29436D1*
G1X14827Y28956D2*
G1X14827Y29436D1*
G1X14818Y28956D2*
G1X14818Y29436D1*
G1X14809Y28956D2*
G1X14809Y29436D1*
G1X14800Y28956D2*
G1X14800Y29436D1*
G1X14791Y28956D2*
G1X14791Y29436D1*
G1X14782Y28956D2*
G1X14782Y29436D1*
G1X14773Y28956D2*
G1X14773Y29436D1*
G1X14764Y28956D2*
G1X14764Y29436D1*
G1X14755Y28956D2*
G1X14755Y29436D1*
G1X14746Y28956D2*
G1X14746Y29436D1*
G1X14737Y28956D2*
G1X14737Y29436D1*
G1X14728Y28956D2*
G1X14728Y29436D1*
G1X14719Y28956D2*
G1X14719Y29436D1*
G1X14710Y28956D2*
G1X14710Y29436D1*
G1X14701Y28956D2*
G1X14701Y29436D1*
G1X14692Y28956D2*
G1X14692Y29436D1*
G1X14683Y28956D2*
G1X14683Y29436D1*
G1X14674Y28956D2*
G1X14674Y29436D1*
G1X14665Y28956D2*
G1X14665Y29436D1*
G1X14656Y28956D2*
G1X14656Y29436D1*
G1X14647Y28956D2*
G1X14647Y29436D1*
G1X14638Y28956D2*
G1X14638Y29436D1*
G1X14629Y28956D2*
G1X14629Y29436D1*
G1X14620Y28956D2*
G1X14620Y29436D1*
G1X14611Y28956D2*
G1X14611Y29436D1*
G1X14602Y28956D2*
G1X14602Y29436D1*
G1X14593Y28956D2*
G1X14593Y29436D1*
G1X14584Y28956D2*
G1X14584Y29436D1*
G1X14575Y28956D2*
G1X14575Y29436D1*
G1X14566Y28956D2*
G1X14566Y29436D1*
G1X14557Y28956D2*
G1X14557Y29436D1*
G1X14548Y28956D2*
G1X14548Y29436D1*
G1X14539Y28956D2*
G1X14539Y29436D1*
G1X14530Y28956D2*
G1X14530Y29436D1*
G1X14521Y28956D2*
G1X14521Y29436D1*
G1X14512Y28956D2*
G1X14512Y29436D1*
G1X14503Y28956D2*
G1X14503Y29436D1*
G1X14494Y28956D2*
G1X14494Y29436D1*
G1X14485Y28956D2*
G1X14485Y29436D1*
G1X14476Y28956D2*
G1X14476Y29436D1*
G1X14467Y28956D2*
G1X14467Y29436D1*
G1X14458Y28956D2*
G1X14458Y29436D1*
G1X14449Y28956D2*
G1X14449Y29436D1*
G1X14440Y28956D2*
G1X14440Y29436D1*
G1X14431Y28956D2*
G1X14431Y29436D1*
G1X14422Y28956D2*
G1X14422Y29436D1*
G1X14413Y28956D2*
G1X14413Y29436D1*
G1X14404Y28956D2*
G1X14404Y29436D1*
G1X14395Y28956D2*
G1X14395Y29436D1*
G1X14386Y28956D2*
G1X14386Y29436D1*
G1X14377Y28956D2*
G1X14377Y29436D1*
G1X14368Y28956D2*
G1X14368Y29436D1*
G1X14359Y28956D2*
G1X14359Y29436D1*
G1X14350Y28956D2*
G1X14350Y29436D1*
G1X14341Y28956D2*
G1X14341Y29436D1*
G1X14332Y28956D2*
G1X14332Y29436D1*
G1X14323Y28956D2*
G1X14323Y29436D1*
G1X14314Y28956D2*
G1X14314Y29436D1*
G1X14305Y28956D2*
G1X14305Y29436D1*
G1X16701Y29427D2*
G1X14287Y29427D1*
G1X14392Y29215D2*
G1X12437Y29215D1*
G1X14392Y29224D2*
G1X12437Y29224D1*
G1X14392Y29233D2*
G1X12437Y29233D1*
G1X14392Y29242D2*
G1X12437Y29242D1*
G1X14392Y29251D2*
G1X12437Y29251D1*
G1X14392Y29260D2*
G1X12437Y29260D1*
G1X14392Y29269D2*
G1X12437Y29269D1*
G1X14392Y29278D2*
G1X12437Y29278D1*
G1X14392Y29287D2*
G1X12437Y29287D1*
G1X14392Y29296D2*
G1X12437Y29296D1*
G1X14392Y29305D2*
G1X12437Y29305D1*
G1X14392Y29314D2*
G1X12437Y29314D1*
G1X14392Y29323D2*
G1X12437Y29323D1*
G1X14392Y29332D2*
G1X12437Y29332D1*
G1X14392Y29341D2*
G1X12437Y29341D1*
G1X14392Y29350D2*
G1X12437Y29350D1*
G1X14392Y29359D2*
G1X12437Y29359D1*
G1X14392Y29368D2*
G1X12437Y29368D1*
G1X14392Y29377D2*
G1X12437Y29377D1*
G1X14392Y29386D2*
G1X12437Y29386D1*
G1X14392Y29395D2*
G1X12437Y29395D1*
G1X14392Y29404D2*
G1X12437Y29404D1*
G1X14392Y29413D2*
G1X12437Y29413D1*
G1X14392Y25426D2*
G1X12437Y25426D1*
G1X18458Y17376D2*
G1X18458Y22621D1*
G1X17189Y17376D2*
G1X17189Y20506D1*
G1X18899Y17376D2*
G1X18899Y22621D1*
G1X14984Y20976D2*
G1X14984Y22621D1*
G1X13292Y21736D2*
G1X12437Y21736D1*
G1X15335Y20976D2*
G1X15335Y22621D1*
G1X17207Y17376D2*
G1X17207Y20506D1*
G1X18907Y20521D2*
G1X17542Y20521D1*
G1X18539Y17376D2*
G1X18539Y22621D1*
G1X14392Y26722D2*
G1X12437Y26722D1*
G1X18674Y17376D2*
G1X18674Y22621D1*
G1X13292Y22159D2*
G1X12437Y22159D1*
G1X13792Y24391D2*
G1X12437Y24391D1*
G1X17783Y22603D2*
G1X17783Y22621D1*
G1X18845Y17376D2*
G1X18845Y22621D1*
G1X17297Y17376D2*
G1X17297Y20506D1*
G1X13931Y24828D2*
G1X13931Y29431D1*
G1X17144Y17376D2*
G1X17144Y20506D1*
G1X14392Y26794D2*
G1X12437Y26794D1*
G1X14392Y26695D2*
G1X12437Y26695D1*
G1X17882Y22479D2*
G1X17882Y22621D1*
G1X13292Y22168D2*
G1X12437Y22168D1*
G1X14392Y26749D2*
G1X12437Y26749D1*
G1X13732Y23437D2*
G1X12437Y23437D1*
G1X16091Y20976D2*
G1X16091Y22621D1*
G1X18611Y17376D2*
G1X18611Y22621D1*
G1X16433Y22605D2*
G1X16433Y22621D1*
G1X13888Y20917D2*
G1X12437Y20917D1*
G1X16424Y22596D2*
G1X16424Y22621D1*
G1X16289Y21781D2*
G1X16289Y22621D1*
G1X16280Y21781D2*
G1X16280Y22621D1*
G1X16271Y21781D2*
G1X16271Y22621D1*
G1X16262Y21781D2*
G1X16262Y22621D1*
G1X16235Y20976D2*
G1X16235Y22621D1*
G1X16226Y20976D2*
G1X16226Y22621D1*
G1X16217Y20976D2*
G1X16217Y22621D1*
G1X16208Y20976D2*
G1X16208Y22621D1*
G1X16199Y20976D2*
G1X16199Y22621D1*
G1X16316Y22447D2*
G1X14202Y22447D1*
G1X16181Y20976D2*
G1X16181Y22621D1*
G1X18907Y19153D2*
G1X15932Y19153D1*
G1X14392Y25786D2*
G1X12437Y25786D1*
G1X13732Y23284D2*
G1X12437Y23284D1*
G1X14392Y27964D2*
G1X12437Y27964D1*
G1X14392Y27973D2*
G1X12437Y27973D1*
G1X14392Y28396D2*
G1X12437Y28396D1*
G1X14392Y28864D2*
G1X12437Y28864D1*
G1X14392Y27820D2*
G1X12437Y27820D1*
G1X14392Y27181D2*
G1X12437Y27181D1*
G1X13792Y24571D2*
G1X12437Y24571D1*
G1X13732Y23158D2*
G1X12437Y23158D1*
G1X13732Y23014D2*
G1X12437Y23014D1*
G1X13792Y24247D2*
G1X12437Y24247D1*
G1X13792Y24256D2*
G1X12437Y24256D1*
G1X14228Y24976D2*
G1X14228Y29431D1*
G1X14392Y26632D2*
G1X12437Y26632D1*
G1X13982Y24877D2*
G1X12437Y24877D1*
G1X14392Y26911D2*
G1X12437Y26911D1*
G1X13904Y24801D2*
G1X13904Y29431D1*
G1X14037Y24958D2*
G1X12437Y24958D1*
G1X14392Y29422D2*
G1X12437Y29422D1*
G1X13732Y23464D2*
G1X12437Y23464D1*
G1X13792Y24409D2*
G1X12437Y24409D1*
G1X13859Y24756D2*
G1X13859Y29431D1*
G1X13732Y23473D2*
G1X12437Y23473D1*
G1X14138Y24976D2*
G1X14138Y29431D1*
G1X13732Y23482D2*
G1X12437Y23482D1*
G1X14075Y24976D2*
G1X14075Y29431D1*
G1X14120Y24976D2*
G1X14120Y29431D1*
G1X13850Y24747D2*
G1X13850Y29431D1*
G1X13732Y23491D2*
G1X12437Y23491D1*
G1X13792Y24418D2*
G1X12437Y24418D1*
G1X14579Y20916D2*
G1X14579Y22621D1*
G1X14588Y20916D2*
G1X14588Y22621D1*
G1X14525Y20916D2*
G1X14525Y22621D1*
G1X13792Y24544D2*
G1X12437Y24544D1*
G1X13792Y24067D2*
G1X12437Y24067D1*
G1X13792Y24022D2*
G1X12437Y24022D1*
G1X13817Y24706D2*
G1X12437Y24706D1*
G1X13792Y24535D2*
G1X12437Y24535D1*
G1X14174Y24976D2*
G1X14174Y29431D1*
G1X14093Y24976D2*
G1X14093Y29431D1*
G1X13732Y23455D2*
G1X12437Y23455D1*
G1X13292Y22042D2*
G1X12437Y22042D1*
G1X13778Y23926D2*
G1X13778Y29431D1*
G1X13769Y23926D2*
G1X13769Y29431D1*
G1X16312Y22186D2*
G1X14202Y22186D1*
G1X13733Y22521D2*
G1X13733Y29431D1*
G1X13724Y22521D2*
G1X13724Y29431D1*
G1X13715Y22521D2*
G1X13715Y29431D1*
G1X13706Y22521D2*
G1X13706Y29431D1*
G1X13697Y22521D2*
G1X13697Y29431D1*
G1X13688Y22521D2*
G1X13688Y29431D1*
G1X13679Y22521D2*
G1X13679Y29431D1*
G1X13670Y22521D2*
G1X13670Y29431D1*
G1X13661Y22521D2*
G1X13661Y29431D1*
G1X13652Y22521D2*
G1X13652Y29431D1*
G1X13643Y22521D2*
G1X13643Y29431D1*
G1X13634Y22521D2*
G1X13634Y29431D1*
G1X13625Y22521D2*
G1X13625Y29431D1*
G1X13616Y22521D2*
G1X13616Y29431D1*
G1X13607Y22521D2*
G1X13607Y29431D1*
G1X13598Y22521D2*
G1X13598Y29431D1*
G1X13589Y22521D2*
G1X13589Y29431D1*
G1X13580Y22521D2*
G1X13580Y29431D1*
G1X13571Y22521D2*
G1X13571Y29431D1*
G1X13562Y22521D2*
G1X13562Y29431D1*
G1X13553Y22521D2*
G1X13553Y29431D1*
G1X13544Y22521D2*
G1X13544Y29431D1*
G1X13535Y22521D2*
G1X13535Y29431D1*
G1X13526Y22521D2*
G1X13526Y29431D1*
G1X13517Y22521D2*
G1X13517Y29431D1*
G1X13508Y22521D2*
G1X13508Y29431D1*
G1X13499Y22521D2*
G1X13499Y29431D1*
G1X13490Y22521D2*
G1X13490Y29431D1*
G1X13481Y22521D2*
G1X13481Y29431D1*
G1X13472Y22521D2*
G1X13472Y29431D1*
G1X13463Y22521D2*
G1X13463Y29431D1*
G1X13454Y22521D2*
G1X13454Y29431D1*
G1X13445Y22521D2*
G1X13445Y29431D1*
G1X13436Y22521D2*
G1X13436Y29431D1*
G1X13427Y22521D2*
G1X13427Y29431D1*
G1X13418Y22521D2*
G1X13418Y29431D1*
G1X13409Y22521D2*
G1X13409Y29431D1*
G1X13400Y22521D2*
G1X13400Y29431D1*
G1X13391Y22521D2*
G1X13391Y29431D1*
G1X13382Y22521D2*
G1X13382Y29431D1*
G1X13373Y22521D2*
G1X13373Y29431D1*
G1X13364Y22521D2*
G1X13364Y29431D1*
G1X13355Y22521D2*
G1X13355Y29431D1*
G1X13346Y22521D2*
G1X13346Y29431D1*
G1X13337Y22521D2*
G1X13337Y29431D1*
G1X13328Y22521D2*
G1X13328Y29431D1*
G1X13319Y22521D2*
G1X13319Y29431D1*
G1X13301Y22521D2*
G1X13301Y29431D1*
G1X13292Y17376D2*
G1X13292Y29431D1*
G1X13283Y17376D2*
G1X13283Y29431D1*
G1X13274Y17376D2*
G1X13274Y29431D1*
G1X13265Y17376D2*
G1X13265Y29431D1*
G1X13256Y17376D2*
G1X13256Y29431D1*
G1X13247Y17376D2*
G1X13247Y29431D1*
G1X13238Y17376D2*
G1X13238Y29431D1*
G1X13229Y17376D2*
G1X13229Y29431D1*
G1X13220Y17376D2*
G1X13220Y29431D1*
G1X13211Y17376D2*
G1X13211Y29431D1*
G1X13202Y17376D2*
G1X13202Y29431D1*
G1X13193Y17376D2*
G1X13193Y29431D1*
G1X13184Y17376D2*
G1X13184Y29431D1*
G1X13175Y17376D2*
G1X13175Y29431D1*
G1X13166Y17376D2*
G1X13166Y29431D1*
G1X13157Y17376D2*
G1X13157Y29431D1*
G1X13148Y17376D2*
G1X13148Y29431D1*
G1X13139Y17376D2*
G1X13139Y29431D1*
G1X13130Y17376D2*
G1X13130Y29431D1*
G1X13121Y17376D2*
G1X13121Y29431D1*
G1X13112Y17376D2*
G1X13112Y29431D1*
G1X13103Y17376D2*
G1X13103Y29431D1*
G1X13094Y17376D2*
G1X13094Y29431D1*
G1X13085Y17376D2*
G1X13085Y29431D1*
G1X13076Y17376D2*
G1X13076Y29431D1*
G1X13067Y17376D2*
G1X13067Y29431D1*
G1X13058Y17376D2*
G1X13058Y29431D1*
G1X13049Y17376D2*
G1X13049Y29431D1*
G1X13040Y17376D2*
G1X13040Y29431D1*
G1X13031Y17376D2*
G1X13031Y29431D1*
G1X13022Y17376D2*
G1X13022Y29431D1*
G1X13013Y17376D2*
G1X13013Y29431D1*
G1X13004Y17376D2*
G1X13004Y29431D1*
G1X12995Y17376D2*
G1X12995Y29431D1*
G1X12986Y17376D2*
G1X12986Y29431D1*
G1X12977Y17376D2*
G1X12977Y29431D1*
G1X12968Y17376D2*
G1X12968Y29431D1*
G1X12959Y17376D2*
G1X12959Y29431D1*
G1X12950Y17376D2*
G1X12950Y29431D1*
G1X12941Y17376D2*
G1X12941Y29431D1*
G1X12932Y17376D2*
G1X12932Y29431D1*
G1X12923Y17376D2*
G1X12923Y29431D1*
G1X12914Y17376D2*
G1X12914Y29431D1*
G1X12905Y17376D2*
G1X12905Y29431D1*
G1X12896Y17376D2*
G1X12896Y29431D1*
G1X12887Y17376D2*
G1X12887Y29431D1*
G1X12878Y17376D2*
G1X12878Y29431D1*
G1X12869Y17376D2*
G1X12869Y29431D1*
G1X12860Y17376D2*
G1X12860Y29431D1*
G1X12851Y17376D2*
G1X12851Y29431D1*
G1X12842Y17376D2*
G1X12842Y29431D1*
G1X12833Y17376D2*
G1X12833Y29431D1*
G1X12824Y17376D2*
G1X12824Y29431D1*
G1X12815Y17376D2*
G1X12815Y29431D1*
G1X12806Y17376D2*
G1X12806Y29431D1*
G1X12797Y17376D2*
G1X12797Y29431D1*
G1X12788Y17376D2*
G1X12788Y29431D1*
G1X12779Y17376D2*
G1X12779Y29431D1*
G1X12770Y17376D2*
G1X12770Y29431D1*
G1X12761Y17376D2*
G1X12761Y29431D1*
G1X12752Y17376D2*
G1X12752Y29431D1*
G1X12743Y17376D2*
G1X12743Y29431D1*
G1X12734Y17376D2*
G1X12734Y29431D1*
G1X12725Y17376D2*
G1X12725Y29431D1*
G1X12716Y17376D2*
G1X12716Y29431D1*
G1X12707Y17376D2*
G1X12707Y29431D1*
G1X12698Y17376D2*
G1X12698Y29431D1*
G1X12689Y17376D2*
G1X12689Y29431D1*
G1X12680Y17376D2*
G1X12680Y29431D1*
G1X12671Y17376D2*
G1X12671Y29431D1*
G1X12662Y17376D2*
G1X12662Y29431D1*
G1X12653Y17376D2*
G1X12653Y29431D1*
G1X12644Y17376D2*
G1X12644Y29431D1*
G1X12635Y17376D2*
G1X12635Y29431D1*
G1X12626Y17376D2*
G1X12626Y29431D1*
G1X12617Y17376D2*
G1X12617Y29431D1*
G1X12608Y17376D2*
G1X12608Y29431D1*
G1X12599Y17376D2*
G1X12599Y29431D1*
G1X12590Y17376D2*
G1X12590Y29431D1*
G1X12581Y17376D2*
G1X12581Y29431D1*
G1X12572Y17376D2*
G1X12572Y29431D1*
G1X12563Y17376D2*
G1X12563Y29431D1*
G1X12554Y17376D2*
G1X12554Y29431D1*
G1X12545Y17376D2*
G1X12545Y29431D1*
G1X12536Y17376D2*
G1X12536Y29431D1*
G1X12527Y17376D2*
G1X12527Y29431D1*
G1X12518Y17376D2*
G1X12518Y29431D1*
G1X12509Y17376D2*
G1X12509Y29431D1*
G1X12500Y17376D2*
G1X12500Y29431D1*
G1X12491Y17376D2*
G1X12491Y29431D1*
G1X12482Y17376D2*
G1X12482Y29431D1*
G1X12473Y17376D2*
G1X12473Y29431D1*
G1X12464Y17376D2*
G1X12464Y29431D1*
G1X12455Y17376D2*
G1X12455Y29431D1*
G1X13792Y22566D2*
G1X13732Y22566D1*
G1X14113Y20692D2*
G1X12437Y20692D1*
G1X13292Y22078D2*
G1X12437Y22078D1*
G1X14202Y22566D2*
G1X14202Y22621D1*
G1X17801Y22585D2*
G1X17801Y22621D1*
G1X14273Y21028D2*
G1X14273Y22621D1*
G1X13732Y22627D2*
G1X12437Y22627D1*
G1X13732Y22636D2*
G1X12437Y22636D1*
G1X13732Y22645D2*
G1X12437Y22645D1*
G1X15308Y17376D2*
G1X15308Y20506D1*
G1X14264Y21037D2*
G1X14264Y22621D1*
G1X13292Y22267D2*
G1X12437Y22267D1*
G1X13732Y22888D2*
G1X12437Y22888D1*
G1X14309Y17376D2*
G1X14309Y20566D1*
G1X18907Y19909D2*
G1X15932Y19909D1*
G1X18907Y19918D2*
G1X15932Y19918D1*
G1X14516Y20916D2*
G1X14516Y22621D1*
G1X13732Y23059D2*
G1X12437Y23059D1*
G1X13732Y23068D2*
G1X12437Y23068D1*
G1X13732Y23077D2*
G1X12437Y23077D1*
G1X14507Y17376D2*
G1X14507Y20566D1*
G1X14507Y20916D2*
G1X14507Y22621D1*
G1X13732Y23104D2*
G1X12437Y23104D1*
G1X14345Y17376D2*
G1X14345Y20566D1*
G1X14381Y20920D2*
G1X14381Y22621D1*
G1X14336Y17376D2*
G1X14336Y20566D1*
G1X14372Y20929D2*
G1X14372Y22621D1*
G1X14363Y20938D2*
G1X14363Y22621D1*
G1X14354Y20947D2*
G1X14354Y22621D1*
G1X14444Y20916D2*
G1X14444Y22621D1*
G1X15425Y20976D2*
G1X15425Y22621D1*
G1X15407Y20976D2*
G1X15407Y22621D1*
G1X15389Y20976D2*
G1X15389Y22621D1*
G1X15659Y20976D2*
G1X15659Y22621D1*
G1X15641Y20976D2*
G1X15641Y22621D1*
G1X15623Y20976D2*
G1X15623Y22621D1*
G1X15551Y20976D2*
G1X15551Y22621D1*
G1X13732Y21277D2*
G1X12437Y21277D1*
G1X13292Y22096D2*
G1X12437Y22096D1*
G1X13841Y24738D2*
G1X13841Y29431D1*
G1X13823Y24716D2*
G1X13823Y29431D1*
G1X17432Y17376D2*
G1X17432Y20506D1*
G1X13732Y23347D2*
G1X12437Y23347D1*
G1X13886Y24783D2*
G1X13886Y29431D1*
G1X18907Y19972D2*
G1X15932Y19972D1*
G1X13732Y23036D2*
G1X13732Y23456D1*
G1X13792Y24526D2*
G1X12437Y24526D1*
G1X14030Y24905D2*
G1X14030Y29431D1*
G1X13845Y24742D2*
G1X12437Y24742D1*
G1X13899Y24796D2*
G1X12437Y24796D1*
G1X13926Y24823D2*
G1X12437Y24823D1*
G1X14028Y24904D2*
G1X12437Y24904D1*
G1X13908Y24805D2*
G1X12437Y24805D1*
G1X13792Y23926D2*
G1X13732Y23926D1*
G1X14392Y26740D2*
G1X12437Y26740D1*
G1X14392Y27127D2*
G1X12437Y27127D1*
G1X14392Y27028D2*
G1X12437Y27028D1*
G1X14192Y24976D2*
G1X14192Y29431D1*
G1X13732Y23500D2*
G1X12437Y23500D1*
G1X14392Y26713D2*
G1X12437Y26713D1*
G1X13985Y24880D2*
G1X13985Y29431D1*
G1X13967Y24864D2*
G1X13967Y29431D1*
G1X14392Y24976D2*
G1X14392Y29431D1*
G1X13804Y24679D2*
G1X12437Y24679D1*
G1X13807Y24688D2*
G1X12437Y24688D1*
G1X13812Y24697D2*
G1X12437Y24697D1*
G1X13792Y24517D2*
G1X12437Y24517D1*
G1X13792Y24004D2*
G1X12437Y24004D1*
G1X14039Y24908D2*
G1X14039Y29431D1*
G1X14543Y20916D2*
G1X14543Y22621D1*
G1X13792Y24562D2*
G1X12437Y24562D1*
G1X14552Y20916D2*
G1X14552Y22621D1*
G1X14921Y20976D2*
G1X14921Y22621D1*
G1X13792Y24580D2*
G1X12437Y24580D1*
G1X13792Y24589D2*
G1X12437Y24589D1*
G1X13792Y24598D2*
G1X12437Y24598D1*
G1X13792Y24607D2*
G1X12437Y24607D1*
G1X13792Y24616D2*
G1X12437Y24616D1*
G1X14597Y20916D2*
G1X14597Y22621D1*
G1X14606Y20916D2*
G1X14606Y22621D1*
G1X13794Y24643D2*
G1X12437Y24643D1*
G1X13796Y24652D2*
G1X12437Y24652D1*
G1X13798Y24661D2*
G1X12437Y24661D1*
G1X13732Y23644D2*
G1X12437Y23644D1*
G1X13792Y23932D2*
G1X12437Y23932D1*
G1X13823Y24715D2*
G1X12437Y24715D1*
G1X13829Y24724D2*
G1X12437Y24724D1*
G1X13792Y23923D2*
G1X12437Y23923D1*
G1X13792Y24112D2*
G1X12437Y24112D1*
G1X13792Y24076D2*
G1X12437Y24076D1*
G1X18907Y22222D2*
G1X17892Y22222D1*
G1X14392Y24985D2*
G1X12437Y24985D1*
G1X14392Y24994D2*
G1X12437Y24994D1*
G1X14392Y25003D2*
G1X12437Y25003D1*
G1X14392Y25012D2*
G1X12437Y25012D1*
G1X14392Y25021D2*
G1X12437Y25021D1*
G1X14392Y25030D2*
G1X12437Y25030D1*
G1X14392Y25039D2*
G1X12437Y25039D1*
G1X14392Y25048D2*
G1X12437Y25048D1*
G1X14392Y25057D2*
G1X12437Y25057D1*
G1X14392Y25066D2*
G1X12437Y25066D1*
G1X14392Y25075D2*
G1X12437Y25075D1*
G1X14392Y25084D2*
G1X12437Y25084D1*
G1X14392Y25093D2*
G1X12437Y25093D1*
G1X14392Y25102D2*
G1X12437Y25102D1*
G1X14392Y25111D2*
G1X12437Y25111D1*
G1X14392Y25120D2*
G1X12437Y25120D1*
G1X14392Y25129D2*
G1X12437Y25129D1*
G1X14392Y25138D2*
G1X12437Y25138D1*
G1X14392Y25147D2*
G1X12437Y25147D1*
G1X14392Y25156D2*
G1X12437Y25156D1*
G1X14392Y25165D2*
G1X12437Y25165D1*
G1X14392Y25174D2*
G1X12437Y25174D1*
G1X14392Y25183D2*
G1X12437Y25183D1*
G1X14392Y25192D2*
G1X12437Y25192D1*
G1X14392Y25201D2*
G1X12437Y25201D1*
G1X14392Y25210D2*
G1X12437Y25210D1*
G1X14392Y25219D2*
G1X12437Y25219D1*
G1X14392Y25228D2*
G1X12437Y25228D1*
G1X14392Y25237D2*
G1X12437Y25237D1*
G1X14392Y25246D2*
G1X12437Y25246D1*
G1X14392Y25255D2*
G1X12437Y25255D1*
G1X14392Y25264D2*
G1X12437Y25264D1*
G1X14392Y25273D2*
G1X12437Y25273D1*
G1X14392Y25282D2*
G1X12437Y25282D1*
G1X14392Y25291D2*
G1X12437Y25291D1*
G1X14392Y25300D2*
G1X12437Y25300D1*
G1X14392Y25309D2*
G1X12437Y25309D1*
G1X14392Y25318D2*
G1X12437Y25318D1*
G1X14392Y25327D2*
G1X12437Y25327D1*
G1X14392Y27712D2*
G1X12437Y27712D1*
G1X14392Y25363D2*
G1X12437Y25363D1*
G1X14392Y25372D2*
G1X12437Y25372D1*
G1X14392Y25390D2*
G1X12437Y25390D1*
G1X14392Y25399D2*
G1X12437Y25399D1*
G1X14392Y26317D2*
G1X12437Y26317D1*
G1X14392Y25453D2*
G1X12437Y25453D1*
G1X14392Y25345D2*
G1X12437Y25345D1*
G1X14392Y25471D2*
G1X12437Y25471D1*
G1X14392Y25480D2*
G1X12437Y25480D1*
G1X14392Y25489D2*
G1X12437Y25489D1*
G1X14392Y25498D2*
G1X12437Y25498D1*
G1X14392Y25507D2*
G1X12437Y25507D1*
G1X14392Y25516D2*
G1X12437Y25516D1*
G1X14392Y25525D2*
G1X12437Y25525D1*
G1X14392Y25534D2*
G1X12437Y25534D1*
G1X14392Y25543D2*
G1X12437Y25543D1*
G1X14392Y25552D2*
G1X12437Y25552D1*
G1X14392Y25561D2*
G1X12437Y25561D1*
G1X14392Y25570D2*
G1X12437Y25570D1*
G1X14392Y25579D2*
G1X12437Y25579D1*
G1X14392Y25588D2*
G1X12437Y25588D1*
G1X14392Y25597D2*
G1X12437Y25597D1*
G1X14392Y25606D2*
G1X12437Y25606D1*
G1X14392Y25615D2*
G1X12437Y25615D1*
G1X14392Y25624D2*
G1X12437Y25624D1*
G1X14392Y25633D2*
G1X12437Y25633D1*
G1X14392Y25642D2*
G1X12437Y25642D1*
G1X14392Y25651D2*
G1X12437Y25651D1*
G1X14392Y25660D2*
G1X12437Y25660D1*
G1X14392Y25669D2*
G1X12437Y25669D1*
G1X14392Y25678D2*
G1X12437Y25678D1*
G1X14392Y25687D2*
G1X12437Y25687D1*
G1X14392Y25696D2*
G1X12437Y25696D1*
G1X14392Y25705D2*
G1X12437Y25705D1*
G1X14392Y25714D2*
G1X12437Y25714D1*
G1X14392Y25723D2*
G1X12437Y25723D1*
G1X14392Y25732D2*
G1X12437Y25732D1*
G1X14392Y25741D2*
G1X12437Y25741D1*
G1X14392Y25750D2*
G1X12437Y25750D1*
G1X14392Y25759D2*
G1X12437Y25759D1*
G1X14392Y25768D2*
G1X12437Y25768D1*
G1X14392Y25777D2*
G1X12437Y25777D1*
G1X14392Y25795D2*
G1X12437Y25795D1*
G1X14392Y25813D2*
G1X12437Y25813D1*
G1X14392Y25822D2*
G1X12437Y25822D1*
G1X14392Y25831D2*
G1X12437Y25831D1*
G1X14392Y25840D2*
G1X12437Y25840D1*
G1X14392Y25849D2*
G1X12437Y25849D1*
G1X14392Y25858D2*
G1X12437Y25858D1*
G1X14392Y25867D2*
G1X12437Y25867D1*
G1X14392Y25876D2*
G1X12437Y25876D1*
G1X14392Y25885D2*
G1X12437Y25885D1*
G1X14392Y25894D2*
G1X12437Y25894D1*
G1X14392Y25903D2*
G1X12437Y25903D1*
G1X14392Y25912D2*
G1X12437Y25912D1*
G1X14392Y25921D2*
G1X12437Y25921D1*
G1X14392Y25930D2*
G1X12437Y25930D1*
G1X14392Y25939D2*
G1X12437Y25939D1*
G1X14392Y25948D2*
G1X12437Y25948D1*
G1X14392Y25957D2*
G1X12437Y25957D1*
G1X14392Y25966D2*
G1X12437Y25966D1*
G1X14392Y25975D2*
G1X12437Y25975D1*
G1X14392Y25984D2*
G1X12437Y25984D1*
G1X14392Y25993D2*
G1X12437Y25993D1*
G1X14392Y26002D2*
G1X12437Y26002D1*
G1X14392Y26011D2*
G1X12437Y26011D1*
G1X14392Y26020D2*
G1X12437Y26020D1*
G1X14392Y26029D2*
G1X12437Y26029D1*
G1X14392Y26038D2*
G1X12437Y26038D1*
G1X14392Y26047D2*
G1X12437Y26047D1*
G1X14392Y26056D2*
G1X12437Y26056D1*
G1X14392Y26065D2*
G1X12437Y26065D1*
G1X14392Y26074D2*
G1X12437Y26074D1*
G1X14392Y26083D2*
G1X12437Y26083D1*
G1X14392Y26092D2*
G1X12437Y26092D1*
G1X14392Y26101D2*
G1X12437Y26101D1*
G1X14392Y26110D2*
G1X12437Y26110D1*
G1X14392Y26119D2*
G1X12437Y26119D1*
G1X14392Y26128D2*
G1X12437Y26128D1*
G1X14392Y26137D2*
G1X12437Y26137D1*
G1X14392Y26146D2*
G1X12437Y26146D1*
G1X16252Y21583D2*
G1X14142Y21583D1*
G1X17954Y17376D2*
G1X17954Y22621D1*
G1X14392Y26758D2*
G1X12437Y26758D1*
G1X14392Y26191D2*
G1X12437Y26191D1*
G1X14392Y26767D2*
G1X12437Y26767D1*
G1X14392Y26227D2*
G1X12437Y26227D1*
G1X14392Y26236D2*
G1X12437Y26236D1*
G1X14392Y26245D2*
G1X12437Y26245D1*
G1X14392Y26254D2*
G1X12437Y26254D1*
G1X14392Y26263D2*
G1X12437Y26263D1*
G1X14392Y26281D2*
G1X12437Y26281D1*
G1X14392Y26290D2*
G1X12437Y26290D1*
G1X14392Y26299D2*
G1X12437Y26299D1*
G1X14392Y26308D2*
G1X12437Y26308D1*
G1X14392Y27019D2*
G1X12437Y27019D1*
G1X14392Y26173D2*
G1X12437Y26173D1*
G1X14392Y26353D2*
G1X12437Y26353D1*
G1X14392Y26362D2*
G1X12437Y26362D1*
G1X14392Y26371D2*
G1X12437Y26371D1*
G1X14392Y26380D2*
G1X12437Y26380D1*
G1X14392Y26389D2*
G1X12437Y26389D1*
G1X14392Y26398D2*
G1X12437Y26398D1*
G1X14392Y26407D2*
G1X12437Y26407D1*
G1X14392Y26416D2*
G1X12437Y26416D1*
G1X14392Y26425D2*
G1X12437Y26425D1*
G1X14392Y26434D2*
G1X12437Y26434D1*
G1X14392Y26443D2*
G1X12437Y26443D1*
G1X14392Y26452D2*
G1X12437Y26452D1*
G1X14392Y26461D2*
G1X12437Y26461D1*
G1X14392Y26470D2*
G1X12437Y26470D1*
G1X14392Y26479D2*
G1X12437Y26479D1*
G1X14392Y26488D2*
G1X12437Y26488D1*
G1X14392Y26497D2*
G1X12437Y26497D1*
G1X14392Y26506D2*
G1X12437Y26506D1*
G1X14392Y26515D2*
G1X12437Y26515D1*
G1X14392Y26524D2*
G1X12437Y26524D1*
G1X14392Y26533D2*
G1X12437Y26533D1*
G1X14392Y26542D2*
G1X12437Y26542D1*
G1X14392Y26551D2*
G1X12437Y26551D1*
G1X14392Y26560D2*
G1X12437Y26560D1*
G1X14392Y26569D2*
G1X12437Y26569D1*
G1X14392Y26578D2*
G1X12437Y26578D1*
G1X18907Y19630D2*
G1X15932Y19630D1*
G1X16388Y20976D2*
G1X16388Y21311D1*
G1X13792Y24454D2*
G1X12437Y24454D1*
G1X14392Y26659D2*
G1X12437Y26659D1*
G1X14392Y26677D2*
G1X12437Y26677D1*
G1X14392Y26686D2*
G1X12437Y26686D1*
G1X14392Y26704D2*
G1X12437Y26704D1*
G1X14003Y24892D2*
G1X14003Y29431D1*
G1X13792Y24499D2*
G1X12437Y24499D1*
G1X13792Y24175D2*
G1X12437Y24175D1*
G1X14392Y26200D2*
G1X12437Y26200D1*
G1X14392Y25417D2*
G1X12437Y25417D1*
G1X13962Y24859D2*
G1X12437Y24859D1*
G1X13792Y23968D2*
G1X12437Y23968D1*
G1X14392Y27082D2*
G1X12437Y27082D1*
G1X14392Y26326D2*
G1X12437Y26326D1*
G1X14392Y26956D2*
G1X12437Y26956D1*
G1X14392Y26965D2*
G1X12437Y26965D1*
G1X13792Y23977D2*
G1X12437Y23977D1*
G1X13913Y24810D2*
G1X13913Y29431D1*
G1X14392Y27208D2*
G1X12437Y27208D1*
G1X14392Y26947D2*
G1X12437Y26947D1*
G1X14392Y26983D2*
G1X12437Y26983D1*
G1X13792Y24274D2*
G1X12437Y24274D1*
G1X14392Y27802D2*
G1X12437Y27802D1*
G1X14392Y26596D2*
G1X12437Y26596D1*
G1X14588Y17376D2*
G1X14588Y20566D1*
G1X14392Y27055D2*
G1X12437Y27055D1*
G1X14392Y27226D2*
G1X12437Y27226D1*
G1X14392Y27235D2*
G1X12437Y27235D1*
G1X14392Y27244D2*
G1X12437Y27244D1*
G1X14392Y27253D2*
G1X12437Y27253D1*
G1X14392Y27262D2*
G1X12437Y27262D1*
G1X14392Y27757D2*
G1X12437Y27757D1*
G1X14392Y27298D2*
G1X12437Y27298D1*
G1X14392Y27307D2*
G1X12437Y27307D1*
G1X14392Y27316D2*
G1X12437Y27316D1*
G1X14392Y27334D2*
G1X12437Y27334D1*
G1X14392Y27343D2*
G1X12437Y27343D1*
G1X14392Y27352D2*
G1X12437Y27352D1*
G1X14392Y27361D2*
G1X12437Y27361D1*
G1X14392Y27370D2*
G1X12437Y27370D1*
G1X14392Y27388D2*
G1X12437Y27388D1*
G1X14392Y27379D2*
G1X12437Y27379D1*
G1X14392Y27397D2*
G1X12437Y27397D1*
G1X14392Y27406D2*
G1X12437Y27406D1*
G1X14392Y27415D2*
G1X12437Y27415D1*
G1X14392Y27424D2*
G1X12437Y27424D1*
G1X14392Y27433D2*
G1X12437Y27433D1*
G1X14392Y27478D2*
G1X12437Y27478D1*
G1X14392Y27487D2*
G1X12437Y27487D1*
G1X14392Y27496D2*
G1X12437Y27496D1*
G1X14392Y27505D2*
G1X12437Y27505D1*
G1X14392Y27100D2*
G1X12437Y27100D1*
G1X14392Y27532D2*
G1X12437Y27532D1*
G1X14392Y27541D2*
G1X12437Y27541D1*
G1X14392Y27550D2*
G1X12437Y27550D1*
G1X14392Y27559D2*
G1X12437Y27559D1*
G1X14392Y27568D2*
G1X12437Y27568D1*
G1X14392Y27577D2*
G1X12437Y27577D1*
G1X14392Y27586D2*
G1X12437Y27586D1*
G1X14392Y27595D2*
G1X12437Y27595D1*
G1X14392Y27604D2*
G1X12437Y27604D1*
G1X14392Y27613D2*
G1X12437Y27613D1*
G1X14392Y27622D2*
G1X12437Y27622D1*
G1X14392Y27631D2*
G1X12437Y27631D1*
G1X14392Y27640D2*
G1X12437Y27640D1*
G1X14392Y27649D2*
G1X12437Y27649D1*
G1X14392Y27658D2*
G1X12437Y27658D1*
G1X14392Y27667D2*
G1X12437Y27667D1*
G1X14392Y27676D2*
G1X12437Y27676D1*
G1X14392Y27694D2*
G1X12437Y27694D1*
G1X14392Y27703D2*
G1X12437Y27703D1*
G1X14392Y26272D2*
G1X12437Y26272D1*
G1X14392Y27721D2*
G1X12437Y27721D1*
G1X14392Y27730D2*
G1X12437Y27730D1*
G1X14392Y27739D2*
G1X12437Y27739D1*
G1X14392Y27766D2*
G1X12437Y27766D1*
G1X14392Y27163D2*
G1X12437Y27163D1*
G1X14392Y27523D2*
G1X12437Y27523D1*
G1X14392Y27838D2*
G1X12437Y27838D1*
G1X14392Y27847D2*
G1X12437Y27847D1*
G1X14392Y27856D2*
G1X12437Y27856D1*
G1X14392Y27865D2*
G1X12437Y27865D1*
G1X14392Y27874D2*
G1X12437Y27874D1*
G1X14392Y27883D2*
G1X12437Y27883D1*
G1X14392Y27892D2*
G1X12437Y27892D1*
G1X14392Y27901D2*
G1X12437Y27901D1*
G1X14392Y27910D2*
G1X12437Y27910D1*
G1X14392Y27919D2*
G1X12437Y27919D1*
G1X14392Y27928D2*
G1X12437Y27928D1*
G1X14392Y27937D2*
G1X12437Y27937D1*
G1X18907Y19144D2*
G1X15932Y19144D1*
G1X14392Y27946D2*
G1X12437Y27946D1*
G1X14392Y27955D2*
G1X12437Y27955D1*
G1X14392Y27991D2*
G1X12437Y27991D1*
G1X14392Y28000D2*
G1X12437Y28000D1*
G1X14392Y28009D2*
G1X12437Y28009D1*
G1X14392Y28018D2*
G1X12437Y28018D1*
G1X14392Y28027D2*
G1X12437Y28027D1*
G1X14392Y28036D2*
G1X12437Y28036D1*
G1X14392Y28045D2*
G1X12437Y28045D1*
G1X14392Y28054D2*
G1X12437Y28054D1*
G1X14392Y28063D2*
G1X12437Y28063D1*
G1X14392Y28072D2*
G1X12437Y28072D1*
G1X14392Y28090D2*
G1X12437Y28090D1*
G1X14392Y28099D2*
G1X12437Y28099D1*
G1X14392Y28108D2*
G1X12437Y28108D1*
G1X14392Y28117D2*
G1X12437Y28117D1*
G1X14392Y28126D2*
G1X12437Y28126D1*
G1X14392Y28135D2*
G1X12437Y28135D1*
G1X14392Y28144D2*
G1X12437Y28144D1*
G1X14392Y28153D2*
G1X12437Y28153D1*
G1X14392Y28162D2*
G1X12437Y28162D1*
G1X14392Y28171D2*
G1X12437Y28171D1*
G1X14392Y28180D2*
G1X12437Y28180D1*
G1X14392Y28189D2*
G1X12437Y28189D1*
G1X14392Y28198D2*
G1X12437Y28198D1*
G1X14392Y28207D2*
G1X12437Y28207D1*
G1X14392Y28216D2*
G1X12437Y28216D1*
G1X14392Y28225D2*
G1X12437Y28225D1*
G1X14392Y28234D2*
G1X12437Y28234D1*
G1X14392Y28243D2*
G1X12437Y28243D1*
G1X14392Y28252D2*
G1X12437Y28252D1*
G1X14392Y28261D2*
G1X12437Y28261D1*
G1X14392Y28270D2*
G1X12437Y28270D1*
G1X14392Y28279D2*
G1X12437Y28279D1*
G1X14392Y28288D2*
G1X12437Y28288D1*
G1X14392Y28297D2*
G1X12437Y28297D1*
G1X14392Y28306D2*
G1X12437Y28306D1*
G1X14392Y28315D2*
G1X12437Y28315D1*
G1X14392Y28324D2*
G1X12437Y28324D1*
G1X14392Y28333D2*
G1X12437Y28333D1*
G1X14392Y28342D2*
G1X12437Y28342D1*
G1X14392Y28351D2*
G1X12437Y28351D1*
G1X14392Y28360D2*
G1X12437Y28360D1*
G1X14392Y28369D2*
G1X12437Y28369D1*
G1X14392Y28378D2*
G1X12437Y28378D1*
G1X14392Y28387D2*
G1X12437Y28387D1*
G1X14392Y28414D2*
G1X12437Y28414D1*
G1X14392Y28423D2*
G1X12437Y28423D1*
G1X14392Y28432D2*
G1X12437Y28432D1*
G1X14392Y28441D2*
G1X12437Y28441D1*
G1X14392Y28450D2*
G1X12437Y28450D1*
G1X14392Y28459D2*
G1X12437Y28459D1*
G1X14392Y28468D2*
G1X12437Y28468D1*
G1X14392Y28477D2*
G1X12437Y28477D1*
G1X14392Y28486D2*
G1X12437Y28486D1*
G1X14392Y28495D2*
G1X12437Y28495D1*
G1X14392Y28504D2*
G1X12437Y28504D1*
G1X14392Y28513D2*
G1X12437Y28513D1*
G1X14392Y28522D2*
G1X12437Y28522D1*
G1X14392Y28531D2*
G1X12437Y28531D1*
G1X14392Y28540D2*
G1X12437Y28540D1*
G1X14392Y28549D2*
G1X12437Y28549D1*
G1X14392Y28558D2*
G1X12437Y28558D1*
G1X14392Y28567D2*
G1X12437Y28567D1*
G1X14392Y28576D2*
G1X12437Y28576D1*
G1X14392Y28585D2*
G1X12437Y28585D1*
G1X14392Y28594D2*
G1X12437Y28594D1*
G1X14392Y28603D2*
G1X12437Y28603D1*
G1X14392Y28612D2*
G1X12437Y28612D1*
G1X14392Y28621D2*
G1X12437Y28621D1*
G1X14392Y28639D2*
G1X12437Y28639D1*
G1X14392Y28648D2*
G1X12437Y28648D1*
G1X14392Y28657D2*
G1X12437Y28657D1*
G1X14392Y28666D2*
G1X12437Y28666D1*
G1X14392Y28675D2*
G1X12437Y28675D1*
G1X14392Y28684D2*
G1X12437Y28684D1*
G1X14392Y28693D2*
G1X12437Y28693D1*
G1X14392Y28702D2*
G1X12437Y28702D1*
G1X14392Y28711D2*
G1X12437Y28711D1*
G1X14392Y28720D2*
G1X12437Y28720D1*
G1X14392Y28729D2*
G1X12437Y28729D1*
G1X14392Y28738D2*
G1X12437Y28738D1*
G1X14392Y28747D2*
G1X12437Y28747D1*
G1X14392Y28756D2*
G1X12437Y28756D1*
G1X14392Y28765D2*
G1X12437Y28765D1*
G1X14392Y28774D2*
G1X12437Y28774D1*
G1X14392Y28783D2*
G1X12437Y28783D1*
G1X14392Y28792D2*
G1X12437Y28792D1*
G1X14392Y28801D2*
G1X12437Y28801D1*
G1X14392Y28810D2*
G1X12437Y28810D1*
G1X14392Y28819D2*
G1X12437Y28819D1*
G1X14392Y28828D2*
G1X12437Y28828D1*
G1X14392Y28837D2*
G1X12437Y28837D1*
G1X14392Y28846D2*
G1X12437Y28846D1*
G1X14392Y28873D2*
G1X12437Y28873D1*
G1X14392Y28882D2*
G1X12437Y28882D1*
G1X14392Y28891D2*
G1X12437Y28891D1*
G1X14392Y28900D2*
G1X12437Y28900D1*
G1X14392Y28909D2*
G1X12437Y28909D1*
G1X14392Y28918D2*
G1X12437Y28918D1*
G1X14392Y28927D2*
G1X12437Y28927D1*
G1X14392Y28936D2*
G1X12437Y28936D1*
G1X14392Y28945D2*
G1X12437Y28945D1*
G1X14392Y28954D2*
G1X12437Y28954D1*
G1X14392Y28963D2*
G1X12437Y28963D1*
G1X14392Y28972D2*
G1X12437Y28972D1*
G1X14392Y28981D2*
G1X12437Y28981D1*
G1X14392Y28990D2*
G1X12437Y28990D1*
G1X14392Y28999D2*
G1X12437Y28999D1*
G1X14392Y29008D2*
G1X12437Y29008D1*
G1X14392Y29017D2*
G1X12437Y29017D1*
G1X14392Y29026D2*
G1X12437Y29026D1*
G1X14392Y29035D2*
G1X12437Y29035D1*
G1X14392Y29044D2*
G1X12437Y29044D1*
G1X14392Y29053D2*
G1X12437Y29053D1*
G1X14392Y29062D2*
G1X12437Y29062D1*
G1X14392Y29071D2*
G1X12437Y29071D1*
G1X14392Y29080D2*
G1X12437Y29080D1*
G1X14392Y29089D2*
G1X12437Y29089D1*
G1X14392Y29098D2*
G1X12437Y29098D1*
G1X14392Y29107D2*
G1X12437Y29107D1*
G1X14392Y29116D2*
G1X12437Y29116D1*
G1X14392Y29125D2*
G1X12437Y29125D1*
G1X14392Y29134D2*
G1X12437Y29134D1*
G1X14392Y29143D2*
G1X12437Y29143D1*
G1X14392Y29152D2*
G1X12437Y29152D1*
G1X14392Y29161D2*
G1X12437Y29161D1*
G1X14392Y29170D2*
G1X12437Y29170D1*
G1X14392Y29179D2*
G1X12437Y29179D1*
G1X14392Y29188D2*
G1X12437Y29188D1*
G1X14392Y29197D2*
G1X12437Y29197D1*
G1X14392Y29206D2*
G1X12437Y29206D1*
G1X17504Y17376D2*
G1X17504Y20506D1*
G1X16307Y21781D2*
G1X16307Y22621D1*
G1X13732Y22789D2*
G1X12437Y22789D1*
G1X17081Y17376D2*
G1X17081Y20506D1*
G1X13792Y24436D2*
G1X12437Y24436D1*
G1X14392Y27010D2*
G1X12437Y27010D1*
G1X14392Y26902D2*
G1X12437Y26902D1*
G1X17324Y17376D2*
G1X17324Y20506D1*
G1X13796Y24653D2*
G1X13796Y29431D1*
G1X13792Y24400D2*
G1X12437Y24400D1*
G1X14993Y20976D2*
G1X14993Y22621D1*
G1X14202Y21106D2*
G1X14202Y21576D1*
G1X14202Y21631D2*
G1X14142Y21631D1*
G1X13732Y21106D2*
G1X13732Y21576D1*
G1X18907Y19990D2*
G1X15932Y19990D1*
G1X15452Y20976D2*
G1X15452Y22621D1*
G1X16327Y22483D2*
G1X14202Y22483D1*
G1X13732Y22566D2*
G1X13732Y23036D1*
G1X13792Y22521D2*
G1X13762Y22521D1*
G1X13792Y24031D2*
G1X12437Y24031D1*
G1X13792Y24130D2*
G1X12437Y24130D1*
G1X13792Y24103D2*
G1X12437Y24103D1*
G1X18907Y20224D2*
G1X15932Y20224D1*
G1X14392Y26164D2*
G1X12437Y26164D1*
G1X14392Y26218D2*
G1X12437Y26218D1*
G1X13346Y17376D2*
G1X13346Y21631D1*
G1X14202Y22051D2*
G1X14202Y22101D1*
G1X13292Y21631D2*
G1X13292Y22051D1*
G1X16312Y22258D2*
G1X14202Y22258D1*
G1X18907Y19855D2*
G1X15932Y19855D1*
G1X13292Y22101D2*
G1X13292Y22521D1*
G1X17423Y17376D2*
G1X17423Y20506D1*
G1X18818Y17376D2*
G1X18818Y22621D1*
G1X15272Y17376D2*
G1X15272Y20506D1*
G1X13904Y17376D2*
G1X13904Y20902D1*
G1X15222Y20976D2*
G1X14802Y20976D1*
G1X13292Y21817D2*
G1X12437Y21817D1*
G1X15272Y20976D2*
G1X15222Y20976D1*
G1X15692Y20976D2*
G1X15272Y20976D1*
G1X18907Y19135D2*
G1X15932Y19135D1*
G1X17909Y17376D2*
G1X17909Y21311D1*
G1X17542Y20926D2*
G1X17542Y20976D1*
G1X16640Y20966D2*
G1X16640Y21311D1*
G1X17122Y20506D2*
G1X17072Y20506D1*
G1X15695Y20966D2*
G1X15695Y22621D1*
G1X16652Y20506D2*
G1X16652Y20516D1*
G1X16361Y20976D2*
G1X16361Y21311D1*
G1X18907Y19045D2*
G1X15982Y19045D1*
G1X17522Y17376D2*
G1X17522Y20506D1*
G1X18907Y19063D2*
G1X15982Y19063D1*
G1X16142Y20976D2*
G1X15722Y20976D1*
G1X16652Y20966D2*
G1X16652Y20976D1*
G1X16192Y20976D2*
G1X16142Y20976D1*
G1X16612Y20976D2*
G1X16192Y20976D1*
G1X16289Y20976D2*
G1X16289Y21311D1*
G1X17351Y17376D2*
G1X17351Y20506D1*
G1X16312Y21781D2*
G1X16252Y21781D1*
G1X14732Y20916D2*
G1X14732Y22621D1*
G1X18907Y21313D2*
G1X17542Y21313D1*
G1X17396Y17376D2*
G1X17396Y20506D1*
G1X18907Y22591D2*
G1X17794Y22591D1*
G1X17952Y21311D2*
G1X17952Y21781D1*
G1X16397Y20976D2*
G1X16397Y21311D1*
G1X14392Y28081D2*
G1X12437Y28081D1*
G1X17841Y22545D2*
G1X17764Y22621D1*
G1X15002Y20976D2*
G1X15002Y22621D1*
G1X18017Y17376D2*
G1X18017Y22621D1*
G1X14392Y25462D2*
G1X12437Y25462D1*
G1X18907Y22231D2*
G1X17892Y22231D1*
G1X14392Y25435D2*
G1X12437Y25435D1*
G1X14392Y29431D2*
G1X12437Y29431D1*
G1X12437Y17376D2*
G1X12437Y29431D1*
G1X15482Y19071D2*
G1X15482Y20506D1*
G1X18907Y17376D2*
G1X18907Y22621D1*
G1X14392Y24976D2*
G1X14102Y24976D1*
G1X14392Y24976D2*
G1X14102Y24976D1*
G1X15432Y17376D2*
G1X12437Y17376D1*
G1X15432Y17389D2*
G1X12437Y17389D1*
G1X15432Y17398D2*
G1X12437Y17398D1*
G1X15432Y17407D2*
G1X12437Y17407D1*
G1X15432Y17416D2*
G1X12437Y17416D1*
G1X15432Y17425D2*
G1X12437Y17425D1*
G1X15432Y17434D2*
G1X12437Y17434D1*
G1X15432Y17443D2*
G1X12437Y17443D1*
G1X15432Y17452D2*
G1X12437Y17452D1*
G1X15432Y17461D2*
G1X12437Y17461D1*
G1X15432Y17470D2*
G1X12437Y17470D1*
G1X15432Y17479D2*
G1X12437Y17479D1*
G1X15432Y17488D2*
G1X12437Y17488D1*
G1X15432Y17497D2*
G1X12437Y17497D1*
G1X15432Y17506D2*
G1X12437Y17506D1*
G1X15432Y17515D2*
G1X12437Y17515D1*
G1X15432Y17524D2*
G1X12437Y17524D1*
G1X15432Y17533D2*
G1X12437Y17533D1*
G1X15432Y17542D2*
G1X12437Y17542D1*
G1X15432Y17551D2*
G1X12437Y17551D1*
G1X15432Y17560D2*
G1X12437Y17560D1*
G1X15432Y17569D2*
G1X12437Y17569D1*
G1X15432Y17578D2*
G1X12437Y17578D1*
G1X15432Y17587D2*
G1X12437Y17587D1*
G1X15432Y17596D2*
G1X12437Y17596D1*
G1X15432Y17605D2*
G1X12437Y17605D1*
G1X15432Y17614D2*
G1X12437Y17614D1*
G1X15432Y17623D2*
G1X12437Y17623D1*
G1X15432Y17632D2*
G1X12437Y17632D1*
G1X15432Y17641D2*
G1X12437Y17641D1*
G1X15432Y17650D2*
G1X12437Y17650D1*
G1X15432Y17659D2*
G1X12437Y17659D1*
G1X15432Y17668D2*
G1X12437Y17668D1*
G1X15432Y17677D2*
G1X12437Y17677D1*
G1X15432Y17686D2*
G1X12437Y17686D1*
G1X15432Y17695D2*
G1X12437Y17695D1*
G1X15432Y17704D2*
G1X12437Y17704D1*
G1X15432Y17713D2*
G1X12437Y17713D1*
G1X15432Y17722D2*
G1X12437Y17722D1*
G1X15432Y17731D2*
G1X12437Y17731D1*
G1X15432Y17740D2*
G1X12437Y17740D1*
G1X15432Y17749D2*
G1X12437Y17749D1*
G1X15432Y17758D2*
G1X12437Y17758D1*
G1X15432Y17767D2*
G1X12437Y17767D1*
G1X15432Y17776D2*
G1X12437Y17776D1*
G1X15432Y17785D2*
G1X12437Y17785D1*
G1X15432Y17794D2*
G1X12437Y17794D1*
G1X15432Y17803D2*
G1X12437Y17803D1*
G1X15432Y17812D2*
G1X12437Y17812D1*
G1X15432Y17821D2*
G1X12437Y17821D1*
G1X15432Y17830D2*
G1X12437Y17830D1*
G1X15432Y17839D2*
G1X12437Y17839D1*
G1X15432Y17848D2*
G1X12437Y17848D1*
G1X15432Y17857D2*
G1X12437Y17857D1*
G1X15432Y17866D2*
G1X12437Y17866D1*
G1X15432Y17875D2*
G1X12437Y17875D1*
G1X15432Y17884D2*
G1X12437Y17884D1*
G1X15432Y17893D2*
G1X12437Y17893D1*
G1X15432Y17902D2*
G1X12437Y17902D1*
G1X15432Y17911D2*
G1X12437Y17911D1*
G1X15432Y17920D2*
G1X12437Y17920D1*
G1X15432Y17929D2*
G1X12437Y17929D1*
G1X15432Y17938D2*
G1X12437Y17938D1*
G1X15432Y17947D2*
G1X12437Y17947D1*
G1X15432Y17956D2*
G1X12437Y17956D1*
G1X15432Y17965D2*
G1X12437Y17965D1*
G1X15432Y17974D2*
G1X12437Y17974D1*
G1X15432Y17983D2*
G1X12437Y17983D1*
G1X15432Y17992D2*
G1X12437Y17992D1*
G1X15432Y18001D2*
G1X12437Y18001D1*
G1X15432Y18010D2*
G1X12437Y18010D1*
G1X15432Y18019D2*
G1X12437Y18019D1*
G1X15432Y18028D2*
G1X12437Y18028D1*
G1X15432Y18037D2*
G1X12437Y18037D1*
G1X15432Y18046D2*
G1X12437Y18046D1*
G1X15432Y18055D2*
G1X12437Y18055D1*
G1X15432Y18064D2*
G1X12437Y18064D1*
G1X15432Y18073D2*
G1X12437Y18073D1*
G1X15432Y18082D2*
G1X12437Y18082D1*
G1X15432Y18091D2*
G1X12437Y18091D1*
G1X15432Y18100D2*
G1X12437Y18100D1*
G1X15432Y18109D2*
G1X12437Y18109D1*
G1X15432Y18118D2*
G1X12437Y18118D1*
G1X15432Y18127D2*
G1X12437Y18127D1*
G1X15432Y18136D2*
G1X12437Y18136D1*
G1X15432Y18145D2*
G1X12437Y18145D1*
G1X15432Y18154D2*
G1X12437Y18154D1*
G1X15432Y18163D2*
G1X12437Y18163D1*
G1X15432Y18172D2*
G1X12437Y18172D1*
G1X15432Y18181D2*
G1X12437Y18181D1*
G1X15432Y18190D2*
G1X12437Y18190D1*
G1X15432Y18199D2*
G1X12437Y18199D1*
G1X15432Y18208D2*
G1X12437Y18208D1*
G1X15432Y18217D2*
G1X12437Y18217D1*
G1X15432Y18226D2*
G1X12437Y18226D1*
G1X15432Y18235D2*
G1X12437Y18235D1*
G1X15432Y18244D2*
G1X12437Y18244D1*
G1X15432Y18253D2*
G1X12437Y18253D1*
G1X15432Y18262D2*
G1X12437Y18262D1*
G1X15432Y18271D2*
G1X12437Y18271D1*
G1X15432Y18280D2*
G1X12437Y18280D1*
G1X15432Y18289D2*
G1X12437Y18289D1*
G1X15432Y18298D2*
G1X12437Y18298D1*
G1X15432Y18307D2*
G1X12437Y18307D1*
G1X15432Y18316D2*
G1X12437Y18316D1*
G1X15432Y18325D2*
G1X12437Y18325D1*
G1X15432Y18334D2*
G1X12437Y18334D1*
G1X15432Y18343D2*
G1X12437Y18343D1*
G1X15432Y18352D2*
G1X12437Y18352D1*
G1X15432Y18361D2*
G1X12437Y18361D1*
G1X15432Y18370D2*
G1X12437Y18370D1*
G1X15432Y18379D2*
G1X12437Y18379D1*
G1X15432Y18388D2*
G1X12437Y18388D1*
G1X15432Y18397D2*
G1X12437Y18397D1*
G1X15432Y18406D2*
G1X12437Y18406D1*
G1X15432Y18415D2*
G1X12437Y18415D1*
G1X15432Y18424D2*
G1X12437Y18424D1*
G1X15432Y18433D2*
G1X12437Y18433D1*
G1X15432Y18442D2*
G1X12437Y18442D1*
G1X15432Y18451D2*
G1X12437Y18451D1*
G1X15432Y18460D2*
G1X12437Y18460D1*
G1X15432Y18469D2*
G1X12437Y18469D1*
G1X15432Y18478D2*
G1X12437Y18478D1*
G1X15432Y18487D2*
G1X12437Y18487D1*
G1X15432Y18496D2*
G1X12437Y18496D1*
G1X15432Y18505D2*
G1X12437Y18505D1*
G1X15432Y18514D2*
G1X12437Y18514D1*
G1X15432Y18523D2*
G1X12437Y18523D1*
G1X15432Y18532D2*
G1X12437Y18532D1*
G1X15432Y18541D2*
G1X12437Y18541D1*
G1X15432Y18550D2*
G1X12437Y18550D1*
G1X15432Y18559D2*
G1X12437Y18559D1*
G1X15432Y18568D2*
G1X12437Y18568D1*
G1X15432Y18577D2*
G1X12437Y18577D1*
G1X15432Y18586D2*
G1X12437Y18586D1*
G1X15432Y18595D2*
G1X12437Y18595D1*
G1X15432Y18604D2*
G1X12437Y18604D1*
G1X15432Y18613D2*
G1X12437Y18613D1*
G1X15432Y18622D2*
G1X12437Y18622D1*
G1X15432Y18631D2*
G1X12437Y18631D1*
G1X15432Y18640D2*
G1X12437Y18640D1*
G1X15432Y18649D2*
G1X12437Y18649D1*
G1X15432Y18658D2*
G1X12437Y18658D1*
G1X15432Y18667D2*
G1X12437Y18667D1*
G1X15432Y18676D2*
G1X12437Y18676D1*
G1X15432Y18685D2*
G1X12437Y18685D1*
G1X15432Y18694D2*
G1X12437Y18694D1*
G1X15432Y18703D2*
G1X12437Y18703D1*
G1X15432Y18712D2*
G1X12437Y18712D1*
G1X15432Y18721D2*
G1X12437Y18721D1*
G1X15432Y18730D2*
G1X12437Y18730D1*
G1X15432Y18739D2*
G1X12437Y18739D1*
G1X15432Y18748D2*
G1X12437Y18748D1*
G1X15432Y18757D2*
G1X12437Y18757D1*
G1X15432Y18766D2*
G1X12437Y18766D1*
G1X15432Y18775D2*
G1X12437Y18775D1*
G1X15432Y18784D2*
G1X12437Y18784D1*
G1X15432Y18793D2*
G1X12437Y18793D1*
G1X15432Y18802D2*
G1X12437Y18802D1*
G1X15432Y18811D2*
G1X12437Y18811D1*
G1X15432Y18820D2*
G1X12437Y18820D1*
G1X15432Y18829D2*
G1X12437Y18829D1*
G1X15432Y18838D2*
G1X12437Y18838D1*
G1X15432Y18847D2*
G1X12437Y18847D1*
G1X15432Y18856D2*
G1X12437Y18856D1*
G1X15432Y18865D2*
G1X12437Y18865D1*
G1X15432Y18874D2*
G1X12437Y18874D1*
G1X15432Y18883D2*
G1X12437Y18883D1*
G1X15432Y18892D2*
G1X12437Y18892D1*
G1X15432Y18901D2*
G1X12437Y18901D1*
G1X15432Y18910D2*
G1X12437Y18910D1*
G1X15432Y18919D2*
G1X12437Y18919D1*
G1X15432Y18928D2*
G1X12437Y18928D1*
G1X15432Y18937D2*
G1X12437Y18937D1*
G1X15432Y18946D2*
G1X12437Y18946D1*
G1X15432Y18955D2*
G1X12437Y18955D1*
G1X15432Y18964D2*
G1X12437Y18964D1*
G1X15432Y18973D2*
G1X12437Y18973D1*
G1X15432Y18982D2*
G1X12437Y18982D1*
G1X15432Y18991D2*
G1X12437Y18991D1*
G1X15432Y19000D2*
G1X12437Y19000D1*
G1X15432Y19009D2*
G1X12437Y19009D1*
G1X15432Y19018D2*
G1X12437Y19018D1*
G1X15432Y19027D2*
G1X12437Y19027D1*
G1X15432Y19036D2*
G1X12437Y19036D1*
G1X15432Y19045D2*
G1X12437Y19045D1*
G1X15482Y20506D2*
G1X15272Y20506D1*
G1X15432Y19063D2*
G1X12437Y19063D1*
G1X15482Y19072D2*
G1X12437Y19072D1*
G1X15482Y19081D2*
G1X12437Y19081D1*
G1X15482Y19090D2*
G1X12437Y19090D1*
G1X15482Y19099D2*
G1X12437Y19099D1*
G1X15482Y19108D2*
G1X12437Y19108D1*
G1X15482Y19117D2*
G1X12437Y19117D1*
G1X15482Y19126D2*
G1X12437Y19126D1*
G1X15482Y19135D2*
G1X12437Y19135D1*
G1X15482Y19144D2*
G1X12437Y19144D1*
G1X15482Y19153D2*
G1X12437Y19153D1*
G1X15482Y19162D2*
G1X12437Y19162D1*
G1X15482Y19171D2*
G1X12437Y19171D1*
G1X15482Y19180D2*
G1X12437Y19180D1*
G1X15482Y19189D2*
G1X12437Y19189D1*
G1X15482Y19198D2*
G1X12437Y19198D1*
G1X15482Y19207D2*
G1X12437Y19207D1*
G1X15482Y19216D2*
G1X12437Y19216D1*
G1X15482Y19225D2*
G1X12437Y19225D1*
G1X15482Y19234D2*
G1X12437Y19234D1*
G1X15482Y19243D2*
G1X12437Y19243D1*
G1X15482Y19252D2*
G1X12437Y19252D1*
G1X15482Y19261D2*
G1X12437Y19261D1*
G1X15482Y19270D2*
G1X12437Y19270D1*
G1X15482Y19279D2*
G1X12437Y19279D1*
G1X15482Y19288D2*
G1X12437Y19288D1*
G1X15482Y19297D2*
G1X12437Y19297D1*
G1X15482Y19306D2*
G1X12437Y19306D1*
G1X15482Y19315D2*
G1X12437Y19315D1*
G1X15482Y19324D2*
G1X12437Y19324D1*
G1X15482Y19333D2*
G1X12437Y19333D1*
G1X15482Y19342D2*
G1X12437Y19342D1*
G1X15482Y19351D2*
G1X12437Y19351D1*
G1X15482Y19360D2*
G1X12437Y19360D1*
G1X15482Y19369D2*
G1X12437Y19369D1*
G1X15482Y19378D2*
G1X12437Y19378D1*
G1X15482Y19387D2*
G1X12437Y19387D1*
G1X15482Y19396D2*
G1X12437Y19396D1*
G1X15482Y19405D2*
G1X12437Y19405D1*
G1X15482Y19414D2*
G1X12437Y19414D1*
G1X15482Y19423D2*
G1X12437Y19423D1*
G1X15482Y19432D2*
G1X12437Y19432D1*
G1X15482Y19441D2*
G1X12437Y19441D1*
G1X15482Y19450D2*
G1X12437Y19450D1*
G1X15482Y19459D2*
G1X12437Y19459D1*
G1X15482Y19468D2*
G1X12437Y19468D1*
G1X15482Y19477D2*
G1X12437Y19477D1*
G1X15482Y19486D2*
G1X12437Y19486D1*
G1X15482Y19495D2*
G1X12437Y19495D1*
G1X15482Y19504D2*
G1X12437Y19504D1*
G1X15482Y19513D2*
G1X12437Y19513D1*
G1X15482Y19522D2*
G1X12437Y19522D1*
G1X15482Y19531D2*
G1X12437Y19531D1*
G1X15482Y19540D2*
G1X12437Y19540D1*
G1X15482Y19549D2*
G1X12437Y19549D1*
G1X15482Y19558D2*
G1X12437Y19558D1*
G1X15482Y19567D2*
G1X12437Y19567D1*
G1X15482Y19576D2*
G1X12437Y19576D1*
G1X15482Y19585D2*
G1X12437Y19585D1*
G1X15482Y19594D2*
G1X12437Y19594D1*
G1X15482Y19603D2*
G1X12437Y19603D1*
G1X15482Y19612D2*
G1X12437Y19612D1*
G1X15482Y19621D2*
G1X12437Y19621D1*
G1X15482Y19630D2*
G1X12437Y19630D1*
G1X15482Y19639D2*
G1X12437Y19639D1*
G1X15482Y19648D2*
G1X12437Y19648D1*
G1X15482Y19657D2*
G1X12437Y19657D1*
G1X15482Y19666D2*
G1X12437Y19666D1*
G1X15482Y19675D2*
G1X12437Y19675D1*
G1X15482Y19684D2*
G1X12437Y19684D1*
G1X15482Y19693D2*
G1X12437Y19693D1*
G1X15482Y19702D2*
G1X12437Y19702D1*
G1X15482Y19711D2*
G1X12437Y19711D1*
G1X15482Y19720D2*
G1X12437Y19720D1*
G1X15482Y19729D2*
G1X12437Y19729D1*
G1X15482Y19738D2*
G1X12437Y19738D1*
G1X15482Y19747D2*
G1X12437Y19747D1*
G1X15482Y19756D2*
G1X12437Y19756D1*
G1X15482Y19765D2*
G1X12437Y19765D1*
G1X15482Y19774D2*
G1X12437Y19774D1*
G1X15482Y19783D2*
G1X12437Y19783D1*
G1X15482Y19792D2*
G1X12437Y19792D1*
G1X15482Y19801D2*
G1X12437Y19801D1*
G1X15482Y19810D2*
G1X12437Y19810D1*
G1X15482Y19819D2*
G1X12437Y19819D1*
G1X15482Y19828D2*
G1X12437Y19828D1*
G1X15482Y19837D2*
G1X12437Y19837D1*
G1X15482Y19846D2*
G1X12437Y19846D1*
G1X15482Y19855D2*
G1X12437Y19855D1*
G1X15482Y19864D2*
G1X12437Y19864D1*
G1X15482Y19873D2*
G1X12437Y19873D1*
G1X15482Y19882D2*
G1X12437Y19882D1*
G1X15482Y19891D2*
G1X12437Y19891D1*
G1X15482Y19900D2*
G1X12437Y19900D1*
G1X15482Y19909D2*
G1X12437Y19909D1*
G1X15482Y19918D2*
G1X12437Y19918D1*
G1X15482Y19927D2*
G1X12437Y19927D1*
G1X15482Y19936D2*
G1X12437Y19936D1*
G1X15482Y19945D2*
G1X12437Y19945D1*
G1X15482Y19954D2*
G1X12437Y19954D1*
G1X15482Y19963D2*
G1X12437Y19963D1*
G1X15482Y19972D2*
G1X12437Y19972D1*
G1X15482Y19981D2*
G1X12437Y19981D1*
G1X15482Y19990D2*
G1X12437Y19990D1*
G1X15482Y19999D2*
G1X12437Y19999D1*
G1X15482Y20008D2*
G1X12437Y20008D1*
G1X15482Y20017D2*
G1X12437Y20017D1*
G1X15482Y20026D2*
G1X12437Y20026D1*
G1X15482Y20035D2*
G1X12437Y20035D1*
G1X15482Y20044D2*
G1X12437Y20044D1*
G1X15482Y20053D2*
G1X12437Y20053D1*
G1X15482Y20062D2*
G1X12437Y20062D1*
G1X15482Y20071D2*
G1X12437Y20071D1*
G1X15482Y20080D2*
G1X12437Y20080D1*
G1X15482Y20089D2*
G1X12437Y20089D1*
G1X15482Y20098D2*
G1X12437Y20098D1*
G1X15482Y20107D2*
G1X12437Y20107D1*
G1X15482Y20116D2*
G1X12437Y20116D1*
G1X15482Y20125D2*
G1X12437Y20125D1*
G1X15482Y20134D2*
G1X12437Y20134D1*
G1X15482Y20143D2*
G1X12437Y20143D1*
G1X15482Y20152D2*
G1X12437Y20152D1*
G1X15482Y20161D2*
G1X12437Y20161D1*
G1X15482Y20170D2*
G1X12437Y20170D1*
G1X15482Y20179D2*
G1X12437Y20179D1*
G1X15482Y20188D2*
G1X12437Y20188D1*
G1X15482Y20197D2*
G1X12437Y20197D1*
G1X15482Y20206D2*
G1X12437Y20206D1*
G1X15482Y20215D2*
G1X12437Y20215D1*
G1X15482Y20224D2*
G1X12437Y20224D1*
G1X15482Y20233D2*
G1X12437Y20233D1*
G1X15482Y20242D2*
G1X12437Y20242D1*
G1X15482Y20251D2*
G1X12437Y20251D1*
G1X15482Y20260D2*
G1X12437Y20260D1*
G1X15482Y20269D2*
G1X12437Y20269D1*
G1X15482Y20278D2*
G1X12437Y20278D1*
G1X15482Y20287D2*
G1X12437Y20287D1*
G1X15482Y20296D2*
G1X12437Y20296D1*
G1X15482Y20305D2*
G1X12437Y20305D1*
G1X15482Y20314D2*
G1X12437Y20314D1*
G1X15482Y20323D2*
G1X12437Y20323D1*
G1X15482Y20332D2*
G1X12437Y20332D1*
G1X15482Y20341D2*
G1X12437Y20341D1*
G1X15482Y20350D2*
G1X12437Y20350D1*
G1X15482Y20359D2*
G1X12437Y20359D1*
G1X15482Y20368D2*
G1X12437Y20368D1*
G1X15482Y20377D2*
G1X12437Y20377D1*
G1X15482Y20386D2*
G1X12437Y20386D1*
G1X15482Y20395D2*
G1X12437Y20395D1*
G1X15482Y20404D2*
G1X12437Y20404D1*
G1X15482Y20413D2*
G1X12437Y20413D1*
G1X15482Y20422D2*
G1X12437Y20422D1*
G1X15482Y20431D2*
G1X12437Y20431D1*
G1X15482Y20440D2*
G1X12437Y20440D1*
G1X15482Y20449D2*
G1X12437Y20449D1*
G1X15482Y20458D2*
G1X12437Y20458D1*
G1X15482Y20467D2*
G1X12437Y20467D1*
G1X15482Y20476D2*
G1X12437Y20476D1*
G1X15482Y20485D2*
G1X12437Y20485D1*
G1X16192Y20506D2*
G1X16142Y20506D1*
G1X15482Y20494D2*
G1X12437Y20494D1*
G1X15222Y20506D2*
G1X14802Y20506D1*
G1X15272Y20506D2*
G1X15222Y20506D1*
G1X15482Y20503D2*
G1X12437Y20503D1*
G1X14802Y20512D2*
G1X12437Y20512D1*
G1X14802Y20521D2*
G1X12437Y20521D1*
G1X14802Y20530D2*
G1X12437Y20530D1*
G1X14802Y20539D2*
G1X12437Y20539D1*
G1X14802Y20548D2*
G1X12437Y20548D1*
G1X14802Y20916D2*
G1X14802Y20976D1*
G1X13292Y21835D2*
G1X12437Y21835D1*
G1X14077Y20728D2*
G1X12437Y20728D1*
G1X13805Y17376D2*
G1X13805Y21020D1*
G1X14256Y20575D2*
G1X12437Y20575D1*
G1X14235Y20584D2*
G1X12437Y20584D1*
G1X14218Y20593D2*
G1X12437Y20593D1*
G1X14206Y20602D2*
G1X12437Y20602D1*
G1X14195Y20611D2*
G1X12437Y20611D1*
G1X14185Y20620D2*
G1X12437Y20620D1*
G1X14176Y20629D2*
G1X12437Y20629D1*
G1X14167Y20638D2*
G1X12437Y20638D1*
G1X14158Y20647D2*
G1X12437Y20647D1*
G1X14149Y20656D2*
G1X12437Y20656D1*
G1X14140Y20665D2*
G1X12437Y20665D1*
G1X14399Y20916D2*
G1X14399Y22621D1*
G1X14122Y20683D2*
G1X12437Y20683D1*
G1X13792Y22519D2*
G1X12437Y22519D1*
G1X13760Y17376D2*
G1X13760Y21106D1*
G1X13792Y21574D2*
G1X12437Y21574D1*
G1X14086Y20719D2*
G1X12437Y20719D1*
G1X15263Y17376D2*
G1X15263Y20506D1*
G1X14068Y20737D2*
G1X12437Y20737D1*
G1X13732Y21304D2*
G1X12437Y21304D1*
G1X15254Y17376D2*
G1X15254Y20506D1*
G1X14041Y20764D2*
G1X12437Y20764D1*
G1X14802Y20557D2*
G1X12437Y20557D1*
G1X14014Y20791D2*
G1X12437Y20791D1*
G1X14005Y20800D2*
G1X12437Y20800D1*
G1X13996Y20809D2*
G1X12437Y20809D1*
G1X13987Y20818D2*
G1X12437Y20818D1*
G1X13978Y20827D2*
G1X12437Y20827D1*
G1X13969Y20836D2*
G1X12437Y20836D1*
G1X13960Y20845D2*
G1X12437Y20845D1*
G1X13951Y20854D2*
G1X12437Y20854D1*
G1X13942Y20863D2*
G1X12437Y20863D1*
G1X13933Y20872D2*
G1X12437Y20872D1*
G1X13924Y20881D2*
G1X12437Y20881D1*
G1X13897Y20908D2*
G1X12437Y20908D1*
G1X16652Y20976D2*
G1X16652Y21311D1*
G1X13852Y20953D2*
G1X12437Y20953D1*
G1X13843Y20962D2*
G1X12437Y20962D1*
G1X13835Y20971D2*
G1X12437Y20971D1*
G1X13828Y20980D2*
G1X12437Y20980D1*
G1X13821Y20989D2*
G1X12437Y20989D1*
G1X13816Y20998D2*
G1X12437Y20998D1*
G1X13811Y21007D2*
G1X12437Y21007D1*
G1X13806Y21016D2*
G1X12437Y21016D1*
G1X13803Y21025D2*
G1X12437Y21025D1*
G1X13800Y21034D2*
G1X12437Y21034D1*
G1X13797Y21043D2*
G1X12437Y21043D1*
G1X13795Y21052D2*
G1X12437Y21052D1*
G1X13794Y21061D2*
G1X12437Y21061D1*
G1X13792Y21079D2*
G1X12437Y21079D1*
G1X13792Y21576D2*
G1X13792Y21631D1*
G1X13792Y21583D2*
G1X12437Y21583D1*
G1X13732Y21115D2*
G1X12437Y21115D1*
G1X13732Y21124D2*
G1X12437Y21124D1*
G1X13732Y21133D2*
G1X12437Y21133D1*
G1X13732Y21142D2*
G1X12437Y21142D1*
G1X13732Y21151D2*
G1X12437Y21151D1*
G1X13732Y21160D2*
G1X12437Y21160D1*
G1X13732Y21169D2*
G1X12437Y21169D1*
G1X13732Y21178D2*
G1X12437Y21178D1*
G1X13732Y21187D2*
G1X12437Y21187D1*
G1X13732Y21196D2*
G1X12437Y21196D1*
G1X13732Y21205D2*
G1X12437Y21205D1*
G1X13732Y21214D2*
G1X12437Y21214D1*
G1X13732Y21223D2*
G1X12437Y21223D1*
G1X13732Y21232D2*
G1X12437Y21232D1*
G1X13732Y21241D2*
G1X12437Y21241D1*
G1X13732Y21250D2*
G1X12437Y21250D1*
G1X13732Y21259D2*
G1X12437Y21259D1*
G1X13732Y21268D2*
G1X12437Y21268D1*
G1X14059Y20746D2*
G1X12437Y20746D1*
G1X13732Y21295D2*
G1X12437Y21295D1*
G1X14050Y20755D2*
G1X12437Y20755D1*
G1X13732Y22780D2*
G1X12437Y22780D1*
G1X13732Y21322D2*
G1X12437Y21322D1*
G1X13792Y21106D2*
G1X12437Y21106D1*
G1X13732Y21340D2*
G1X12437Y21340D1*
G1X13732Y21349D2*
G1X12437Y21349D1*
G1X13732Y21358D2*
G1X12437Y21358D1*
G1X13732Y21376D2*
G1X12437Y21376D1*
G1X13732Y21385D2*
G1X12437Y21385D1*
G1X13732Y21394D2*
G1X12437Y21394D1*
G1X13732Y21403D2*
G1X12437Y21403D1*
G1X13792Y21601D2*
G1X12437Y21601D1*
G1X13732Y21421D2*
G1X12437Y21421D1*
G1X13792Y21610D2*
G1X12437Y21610D1*
G1X13732Y21439D2*
G1X12437Y21439D1*
G1X13792Y21619D2*
G1X12437Y21619D1*
G1X13732Y21457D2*
G1X12437Y21457D1*
G1X13792Y21628D2*
G1X12437Y21628D1*
G1X13732Y21475D2*
G1X12437Y21475D1*
G1X13732Y21484D2*
G1X12437Y21484D1*
G1X13732Y21493D2*
G1X12437Y21493D1*
G1X13732Y21502D2*
G1X12437Y21502D1*
G1X13732Y21511D2*
G1X12437Y21511D1*
G1X13732Y21520D2*
G1X12437Y21520D1*
G1X13732Y21529D2*
G1X12437Y21529D1*
G1X13732Y21538D2*
G1X12437Y21538D1*
G1X13732Y21547D2*
G1X12437Y21547D1*
G1X16252Y21556D2*
G1X14202Y21556D1*
G1X16252Y21565D2*
G1X14202Y21565D1*
G1X13792Y21576D2*
G1X13732Y21576D1*
G1X13742Y17376D2*
G1X13742Y21106D1*
G1X13796Y17376D2*
G1X13796Y21049D1*
G1X13292Y21781D2*
G1X12437Y21781D1*
G1X13732Y21412D2*
G1X12437Y21412D1*
G1X13760Y21576D2*
G1X13760Y21631D1*
G1X13732Y23374D2*
G1X12437Y23374D1*
G1X13292Y21637D2*
G1X12437Y21637D1*
G1X13292Y21646D2*
G1X12437Y21646D1*
G1X13292Y21655D2*
G1X12437Y21655D1*
G1X13292Y21664D2*
G1X12437Y21664D1*
G1X13292Y21673D2*
G1X12437Y21673D1*
G1X13292Y21682D2*
G1X12437Y21682D1*
G1X13292Y21691D2*
G1X12437Y21691D1*
G1X13292Y21700D2*
G1X12437Y21700D1*
G1X16379Y20976D2*
G1X16379Y21311D1*
G1X13292Y21709D2*
G1X12437Y21709D1*
G1X13292Y21718D2*
G1X12437Y21718D1*
G1X13292Y21727D2*
G1X12437Y21727D1*
G1X13292Y21745D2*
G1X12437Y21745D1*
G1X13292Y21754D2*
G1X12437Y21754D1*
G1X13292Y21763D2*
G1X12437Y21763D1*
G1X13292Y21772D2*
G1X12437Y21772D1*
G1X13792Y21592D2*
G1X12437Y21592D1*
G1X13292Y21790D2*
G1X12437Y21790D1*
G1X13732Y21331D2*
G1X12437Y21331D1*
G1X13292Y21808D2*
G1X12437Y21808D1*
G1X13292Y22249D2*
G1X12437Y22249D1*
G1X13292Y22276D2*
G1X12437Y22276D1*
G1X13732Y21565D2*
G1X12437Y21565D1*
G1X13292Y21844D2*
G1X12437Y21844D1*
G1X13292Y21853D2*
G1X12437Y21853D1*
G1X13292Y21862D2*
G1X12437Y21862D1*
G1X13292Y21871D2*
G1X12437Y21871D1*
G1X13292Y21880D2*
G1X12437Y21880D1*
G1X13292Y21889D2*
G1X12437Y21889D1*
G1X13292Y21898D2*
G1X12437Y21898D1*
G1X13292Y21907D2*
G1X12437Y21907D1*
G1X13292Y21916D2*
G1X12437Y21916D1*
G1X13292Y21925D2*
G1X12437Y21925D1*
G1X13292Y21934D2*
G1X12437Y21934D1*
G1X13292Y21943D2*
G1X12437Y21943D1*
G1X13292Y21952D2*
G1X12437Y21952D1*
G1X13292Y21961D2*
G1X12437Y21961D1*
G1X13292Y21970D2*
G1X12437Y21970D1*
G1X13292Y21979D2*
G1X12437Y21979D1*
G1X13292Y21988D2*
G1X12437Y21988D1*
G1X13292Y21997D2*
G1X12437Y21997D1*
G1X13292Y22006D2*
G1X12437Y22006D1*
G1X13292Y22015D2*
G1X12437Y22015D1*
G1X13292Y22024D2*
G1X12437Y22024D1*
G1X13292Y22033D2*
G1X12437Y22033D1*
G1X13796Y21576D2*
G1X13796Y21631D1*
G1X14142Y22521D2*
G1X14142Y22566D1*
G1X16312Y21790D2*
G1X14202Y21790D1*
G1X13292Y21799D2*
G1X12437Y21799D1*
G1X13292Y22105D2*
G1X12437Y22105D1*
G1X13292Y22114D2*
G1X12437Y22114D1*
G1X13292Y22123D2*
G1X12437Y22123D1*
G1X13292Y22132D2*
G1X12437Y22132D1*
G1X13292Y22141D2*
G1X12437Y22141D1*
G1X13292Y22150D2*
G1X12437Y22150D1*
G1X13292Y22177D2*
G1X12437Y22177D1*
G1X13292Y22186D2*
G1X12437Y22186D1*
G1X13292Y22195D2*
G1X12437Y22195D1*
G1X13292Y22204D2*
G1X12437Y22204D1*
G1X13292Y22213D2*
G1X12437Y22213D1*
G1X13292Y22231D2*
G1X12437Y22231D1*
G1X13292Y21826D2*
G1X12437Y21826D1*
G1X13292Y22051D2*
G1X12437Y22051D1*
G1X13292Y22312D2*
G1X12437Y22312D1*
G1X13292Y22321D2*
G1X12437Y22321D1*
G1X17171Y17376D2*
G1X17171Y20506D1*
G1X16252Y21529D2*
G1X14202Y21529D1*
G1X13292Y22330D2*
G1X12437Y22330D1*
G1X13292Y22339D2*
G1X12437Y22339D1*
G1X13292Y22348D2*
G1X12437Y22348D1*
G1X13292Y22357D2*
G1X12437Y22357D1*
G1X13292Y22366D2*
G1X12437Y22366D1*
G1X13292Y22375D2*
G1X12437Y22375D1*
G1X13292Y22384D2*
G1X12437Y22384D1*
G1X13292Y22393D2*
G1X12437Y22393D1*
G1X13292Y22402D2*
G1X12437Y22402D1*
G1X13292Y22411D2*
G1X12437Y22411D1*
G1X13292Y22420D2*
G1X12437Y22420D1*
G1X13292Y22429D2*
G1X12437Y22429D1*
G1X13292Y22438D2*
G1X12437Y22438D1*
G1X13976Y24872D2*
G1X13976Y29431D1*
G1X18602Y17376D2*
G1X18602Y22621D1*
G1X13796Y23926D2*
G1X13796Y24579D1*
G1X13732Y23419D2*
G1X12437Y23419D1*
G1X13310Y22521D2*
G1X13310Y29431D1*
G1X13319Y17376D2*
G1X13319Y21631D1*
G1X13328Y17376D2*
G1X13328Y21631D1*
G1X16312Y22222D2*
G1X14202Y22222D1*
G1X18907Y19864D2*
G1X15932Y19864D1*
G1X13769Y21576D2*
G1X13769Y21631D1*
G1X17891Y22440D2*
G1X17891Y22621D1*
G1X18710Y17376D2*
G1X18710Y22621D1*
G1X14392Y27514D2*
G1X12437Y27514D1*
G1X13805Y24682D2*
G1X13805Y29431D1*
G1X13814Y24701D2*
G1X13814Y29431D1*
G1X15236Y17376D2*
G1X15236Y20506D1*
G1X15542Y20976D2*
G1X15542Y22621D1*
G1X13751Y22521D2*
G1X13751Y22566D1*
G1X16652Y21025D2*
G1X14275Y21025D1*
G1X16172Y17376D2*
G1X16172Y20506D1*
G1X16181Y17376D2*
G1X16181Y20506D1*
G1X16316Y20976D2*
G1X16316Y21311D1*
G1X17072Y20506D2*
G1X16652Y20506D1*
G1X16612Y20506D2*
G1X16612Y20516D1*
G1X15938Y20976D2*
G1X15938Y22621D1*
G1X15956Y20976D2*
G1X15956Y22621D1*
G1X15974Y20976D2*
G1X15974Y22621D1*
G1X15992Y20976D2*
G1X15992Y22621D1*
G1X16010Y20976D2*
G1X16010Y22621D1*
G1X16028Y20976D2*
G1X16028Y22621D1*
G1X16046Y20976D2*
G1X16046Y22621D1*
G1X16064Y20976D2*
G1X16064Y22621D1*
G1X16082Y20976D2*
G1X16082Y22621D1*
G1X18907Y20152D2*
G1X15932Y20152D1*
G1X16100Y20976D2*
G1X16100Y22621D1*
G1X18907Y20143D2*
G1X15932Y20143D1*
G1X16118Y20976D2*
G1X16118Y22621D1*
G1X16055Y20976D2*
G1X16055Y22621D1*
G1X13792Y24193D2*
G1X12437Y24193D1*
G1X14037Y24913D2*
G1X12437Y24913D1*
G1X16652Y20516D2*
G1X16612Y20516D1*
G1X13792Y23950D2*
G1X12437Y23950D1*
G1X18764Y17376D2*
G1X18764Y22621D1*
G1X16109Y20976D2*
G1X16109Y22621D1*
G1X16667Y17376D2*
G1X16667Y20506D1*
G1X15434Y19071D2*
G1X15434Y20506D1*
G1X18907Y20863D2*
G1X17542Y20863D1*
G1X18907Y20134D2*
G1X15932Y20134D1*
G1X16136Y20976D2*
G1X16136Y22621D1*
G1X16154Y20976D2*
G1X16154Y22621D1*
G1X16172Y20976D2*
G1X16172Y22621D1*
G1X18907Y19279D2*
G1X15932Y19279D1*
G1X14102Y17376D2*
G1X14102Y20704D1*
G1X13751Y21576D2*
G1X13751Y21631D1*
G1X13814Y17376D2*
G1X13814Y21001D1*
G1X13751Y17376D2*
G1X13751Y21106D1*
G1X14095Y20710D2*
G1X12437Y20710D1*
G1X14384Y20916D2*
G1X14194Y21106D1*
G1X18907Y20017D2*
G1X15932Y20017D1*
G1X13886Y17376D2*
G1X13886Y20920D1*
G1X13792Y21086D2*
G1X13792Y21106D1*
G1X18907Y20008D2*
G1X15932Y20008D1*
G1X14138Y17376D2*
G1X14138Y20668D1*
G1X18907Y20080D2*
G1X15932Y20080D1*
G1X18907Y20071D2*
G1X15932Y20071D1*
G1X13732Y21313D2*
G1X12437Y21313D1*
G1X14813Y17376D2*
G1X14813Y20506D1*
G1X15281Y17376D2*
G1X15281Y20506D1*
G1X14802Y20916D2*
G1X14384Y20916D1*
G1X18907Y19999D2*
G1X15932Y19999D1*
G1X13792Y23032D2*
G1X12437Y23032D1*
G1X13792Y23926D2*
G1X13792Y24616D1*
G1X14534Y20916D2*
G1X14534Y22621D1*
G1X14300Y17376D2*
G1X14300Y20567D1*
G1X14381Y17376D2*
G1X14381Y20566D1*
G1X13968Y24865D2*
G1X13845Y24742D1*
G1X13994Y24886D2*
G1X13994Y29431D1*
G1X13837Y24733D2*
G1X12437Y24733D1*
G1X13732Y22942D2*
G1X12437Y22942D1*
G1X13732Y22960D2*
G1X12437Y22960D1*
G1X13800Y24670D2*
G1X12437Y24670D1*
G1X17900Y17376D2*
G1X17900Y21311D1*
G1X17909Y21781D2*
G1X17909Y22621D1*
G1X16676Y17376D2*
G1X16676Y20506D1*
G1X14392Y26929D2*
G1X12437Y26929D1*
G1X14741Y20916D2*
G1X14741Y22621D1*
G1X17810Y22576D2*
G1X17810Y22621D1*
G1X17315Y17376D2*
G1X17315Y20506D1*
G1X14129Y24976D2*
G1X14129Y29431D1*
G1X14392Y26938D2*
G1X12437Y26938D1*
G1X14392Y27685D2*
G1X12437Y27685D1*
G1X14392Y26641D2*
G1X12437Y26641D1*
G1X15029Y20976D2*
G1X15029Y22621D1*
G1X15038Y20976D2*
G1X15038Y22621D1*
G1X15614Y20976D2*
G1X15614Y22621D1*
G1X13778Y22521D2*
G1X13778Y22566D1*
G1X13787Y22521D2*
G1X13787Y22566D1*
G1X16337Y22501D2*
G1X14202Y22501D1*
G1X18907Y19882D2*
G1X15932Y19882D1*
G1X13742Y22521D2*
G1X13742Y22566D1*
G1X16324Y22474D2*
G1X14202Y22474D1*
G1X16320Y22465D2*
G1X14202Y22465D1*
G1X13732Y23257D2*
G1X12437Y23257D1*
G1X13792Y23041D2*
G1X12437Y23041D1*
G1X13732Y23599D2*
G1X12437Y23599D1*
G1X13732Y23590D2*
G1X12437Y23590D1*
G1X13732Y23581D2*
G1X12437Y23581D1*
G1X13732Y23572D2*
G1X12437Y23572D1*
G1X13732Y23554D2*
G1X12437Y23554D1*
G1X13732Y23545D2*
G1X12437Y23545D1*
G1X13792Y24463D2*
G1X12437Y24463D1*
G1X15047Y20976D2*
G1X15047Y22621D1*
G1X15056Y20976D2*
G1X15056Y22621D1*
G1X15587Y20976D2*
G1X15587Y22621D1*
G1X13792Y21106D2*
G1X13732Y21106D1*
G1X13742Y21576D2*
G1X13742Y21631D1*
G1X13769Y17376D2*
G1X13769Y21106D1*
G1X13778Y17376D2*
G1X13778Y21106D1*
G1X16658Y17376D2*
G1X16658Y20506D1*
G1X18629Y17376D2*
G1X18629Y22621D1*
G1X18907Y21304D2*
G1X17542Y21304D1*
G1X16388Y22560D2*
G1X16388Y22621D1*
G1X18907Y19036D2*
G1X15982Y19036D1*
G1X18638Y17376D2*
G1X18638Y22621D1*
G1X16252Y21619D2*
G1X14142Y21619D1*
G1X18907Y20683D2*
G1X17542Y20683D1*
G1X18907Y22240D2*
G1X17892Y22240D1*
G1X18907Y19711D2*
G1X15932Y19711D1*
G1X14392Y26182D2*
G1X12437Y26182D1*
G1X13292Y22087D2*
G1X12437Y22087D1*
G1X13792Y22528D2*
G1X12437Y22528D1*
G1X13310Y17376D2*
G1X13310Y21631D1*
G1X16312Y22087D2*
G1X14202Y22087D1*
G1X15605Y20976D2*
G1X15605Y22621D1*
G1X13792Y21631D2*
G1X13762Y21631D1*
G1X18907Y19360D2*
G1X15932Y19360D1*
G1X18907Y19369D2*
G1X15932Y19369D1*
G1X18907Y19378D2*
G1X15932Y19378D1*
G1X18907Y19846D2*
G1X15932Y19846D1*
G1X18404Y17376D2*
G1X18404Y22621D1*
G1X18907Y22456D2*
G1X17888Y22456D1*
G1X13792Y24184D2*
G1X12437Y24184D1*
G1X13935Y24832D2*
G1X12437Y24832D1*
G1X13917Y24814D2*
G1X12437Y24814D1*
G1X17108Y17376D2*
G1X17108Y20506D1*
G1X17135Y17376D2*
G1X17135Y20506D1*
G1X13870Y20935D2*
G1X12437Y20935D1*
G1X18368Y17376D2*
G1X18368Y22621D1*
G1X17542Y20976D2*
G1X17542Y21311D1*
G1X13953Y24850D2*
G1X12437Y24850D1*
G1X17126Y17376D2*
G1X17126Y20506D1*
G1X18907Y20908D2*
G1X17542Y20908D1*
G1X17900Y21781D2*
G1X17900Y22621D1*
G1X17342Y17376D2*
G1X17342Y20506D1*
G1X13792Y24202D2*
G1X12437Y24202D1*
G1X15902Y20976D2*
G1X15902Y22621D1*
G1X14750Y20916D2*
G1X14750Y22621D1*
G1X18907Y19270D2*
G1X15932Y19270D1*
G1X17117Y17376D2*
G1X17117Y20506D1*
G1X16190Y17376D2*
G1X16190Y20506D1*
G1X17099Y17376D2*
G1X17099Y20506D1*
G1X18890Y17376D2*
G1X18890Y22621D1*
G1X18907Y19495D2*
G1X15932Y19495D1*
G1X14561Y17376D2*
G1X14561Y20566D1*
G1X15707Y20966D2*
G1X15692Y20966D1*
G1X14032Y20773D2*
G1X12437Y20773D1*
G1X16612Y20966D2*
G1X16612Y20976D1*
G1X15982Y17376D2*
G1X15982Y19071D1*
G1X14802Y20566D2*
G1X14312Y20566D1*
G1X15461Y20976D2*
G1X15461Y22621D1*
G1X13792Y22521D2*
G1X13792Y22566D1*
G1X13732Y22717D2*
G1X12437Y22717D1*
G1X14309Y20992D2*
G1X14309Y22621D1*
G1X14255Y17376D2*
G1X14255Y20576D1*
G1X13732Y22852D2*
G1X12437Y22852D1*
G1X16392Y22564D2*
G1X14142Y22564D1*
G1X14534Y17376D2*
G1X14534Y20566D1*
G1X13792Y23036D2*
G1X13732Y23036D1*
G1X14543Y17376D2*
G1X14543Y20566D1*
G1X13792Y24157D2*
G1X12437Y24157D1*
G1X18907Y20845D2*
G1X17542Y20845D1*
G1X17279Y17376D2*
G1X17279Y20506D1*
G1X13732Y23149D2*
G1X12437Y23149D1*
G1X13732Y23275D2*
G1X12437Y23275D1*
G1X18907Y19315D2*
G1X15932Y19315D1*
G1X13732Y23086D2*
G1X12437Y23086D1*
G1X18692Y17376D2*
G1X18692Y22621D1*
G1X18907Y19801D2*
G1X15932Y19801D1*
G1X18907Y19306D2*
G1X15932Y19306D1*
G1X18907Y20701D2*
G1X17542Y20701D1*
G1X18836Y17376D2*
G1X18836Y22621D1*
G1X18907Y19297D2*
G1X15932Y19297D1*
G1X16449Y22621D2*
G1X16365Y22537D1*
G1X18907Y20377D2*
G1X15932Y20377D1*
G1X18431Y17376D2*
G1X18431Y22621D1*
G1X16252Y21610D2*
G1X14142Y21610D1*
G1X18907Y20305D2*
G1X15932Y20305D1*
G1X18907Y20116D2*
G1X15932Y20116D1*
G1X14392Y27109D2*
G1X12437Y27109D1*
G1X18907Y19405D2*
G1X15932Y19405D1*
G1X16252Y21592D2*
G1X14142Y21592D1*
G1X16334Y22496D2*
G1X16334Y22621D1*
G1X16252Y21574D2*
G1X14142Y21574D1*
G1X18881Y17376D2*
G1X18881Y22621D1*
G1X18907Y19666D2*
G1X15932Y19666D1*
G1X13792Y23941D2*
G1X12437Y23941D1*
G1X14392Y26974D2*
G1X12437Y26974D1*
G1X14392Y27289D2*
G1X12437Y27289D1*
G1X15065Y20976D2*
G1X15065Y22621D1*
G1X13792Y24094D2*
G1X12437Y24094D1*
G1X17927Y17376D2*
G1X17927Y21311D1*
G1X15560Y20976D2*
G1X15560Y22621D1*
G1X17387Y17376D2*
G1X17387Y20506D1*
G1X13778Y21576D2*
G1X13778Y21631D1*
G1X14142Y21576D2*
G1X14142Y21631D1*
G1X15371Y20976D2*
G1X15371Y22621D1*
G1X16312Y22231D2*
G1X14202Y22231D1*
G1X16652Y21016D2*
G1X14284Y21016D1*
G1X13337Y17376D2*
G1X13337Y21631D1*
G1X16312Y21817D2*
G1X14202Y21817D1*
G1X13732Y23626D2*
G1X12437Y23626D1*
G1X16252Y21520D2*
G1X14202Y21520D1*
G1X15632Y20976D2*
G1X15632Y22621D1*
G1X13732Y23428D2*
G1X12437Y23428D1*
G1X13732Y23456D2*
G1X13732Y23506D1*
G1X13732Y23926D1*
G1X13760Y23926D2*
G1X13760Y29431D1*
G1X13732Y23527D2*
G1X12437Y23527D1*
G1X13732Y23536D2*
G1X12437Y23536D1*
G1X15578Y20976D2*
G1X15578Y22621D1*
G1X13877Y24774D2*
G1X13877Y29431D1*
G1X17306Y17376D2*
G1X17306Y20506D1*
G1X18907Y19126D2*
G1X15932Y19126D1*
G1X16253Y20976D2*
G1X16253Y22621D1*
G1X16370Y20976D2*
G1X16370Y21311D1*
G1X18907Y20953D2*
G1X17542Y20953D1*
G1X16252Y21311D2*
G1X16252Y21781D1*
G1X17495Y17376D2*
G1X17495Y20506D1*
G1X17945Y21781D2*
G1X17945Y22621D1*
G1X16652Y21311D2*
G1X16252Y21311D1*
G1X16037Y20976D2*
G1X16037Y22621D1*
G1X16652Y20966D2*
G1X16612Y20966D1*
G1X17542Y20506D2*
G1X17542Y20926D1*
G1X18350Y17376D2*
G1X18350Y22621D1*
G1X18341Y17376D2*
G1X18341Y22621D1*
G1X18332Y17376D2*
G1X18332Y22621D1*
G1X18323Y17376D2*
G1X18323Y22621D1*
G1X18314Y17376D2*
G1X18314Y22621D1*
G1X18305Y17376D2*
G1X18305Y22621D1*
G1X18296Y17376D2*
G1X18296Y22621D1*
G1X18287Y17376D2*
G1X18287Y22621D1*
G1X18278Y17376D2*
G1X18278Y22621D1*
G1X18269Y17376D2*
G1X18269Y22621D1*
G1X18260Y17376D2*
G1X18260Y22621D1*
G1X18251Y17376D2*
G1X18251Y22621D1*
G1X18242Y17376D2*
G1X18242Y22621D1*
G1X18233Y17376D2*
G1X18233Y22621D1*
G1X18224Y17376D2*
G1X18224Y22621D1*
G1X18215Y17376D2*
G1X18215Y22621D1*
G1X18206Y17376D2*
G1X18206Y22621D1*
G1X18197Y17376D2*
G1X18197Y22621D1*
G1X18188Y17376D2*
G1X18188Y22621D1*
G1X18179Y17376D2*
G1X18179Y22621D1*
G1X18170Y17376D2*
G1X18170Y22621D1*
G1X18161Y17376D2*
G1X18161Y22621D1*
G1X18152Y17376D2*
G1X18152Y22621D1*
G1X18143Y17376D2*
G1X18143Y22621D1*
G1X18134Y17376D2*
G1X18134Y22621D1*
G1X18125Y17376D2*
G1X18125Y22621D1*
G1X18116Y17376D2*
G1X18116Y22621D1*
G1X18107Y17376D2*
G1X18107Y22621D1*
G1X18098Y17376D2*
G1X18098Y22621D1*
G1X18089Y17376D2*
G1X18089Y22621D1*
G1X18080Y17376D2*
G1X18080Y22621D1*
G1X18071Y17376D2*
G1X18071Y22621D1*
G1X18062Y17376D2*
G1X18062Y22621D1*
G1X18053Y17376D2*
G1X18053Y22621D1*
G1X18044Y17376D2*
G1X18044Y22621D1*
G1X18035Y17376D2*
G1X18035Y22621D1*
G1X18026Y17376D2*
G1X18026Y22621D1*
G1X18907Y20737D2*
G1X17542Y20737D1*
G1X16318Y22456D2*
G1X14202Y22456D1*
G1X16415Y22587D2*
G1X16415Y22621D1*
G1X18907Y20746D2*
G1X17542Y20746D1*
G1X18907Y20458D2*
G1X15932Y20458D1*
G1X15848Y20976D2*
G1X15848Y22621D1*
G1X16252Y21601D2*
G1X14142Y21601D1*
G1X18907Y20611D2*
G1X17542Y20611D1*
G1X15866Y20976D2*
G1X15866Y22621D1*
G1X13732Y21466D2*
G1X12437Y21466D1*
G1X18907Y19531D2*
G1X15932Y19531D1*
G1X18907Y20719D2*
G1X17542Y20719D1*
G1X17936Y17376D2*
G1X17936Y21311D1*
G1X14392Y28855D2*
G1X12437Y28855D1*
G1X18907Y19783D2*
G1X15932Y19783D1*
G1X18907Y19774D2*
G1X15932Y19774D1*
G1X18907Y19423D2*
G1X15932Y19423D1*
G1X18907Y19414D2*
G1X15932Y19414D1*
G1X13732Y23113D2*
G1X12437Y23113D1*
G1X18907Y19684D2*
G1X15932Y19684D1*
G1X14202Y21576D2*
G1X14142Y21576D1*
G1X18907Y19819D2*
G1X15932Y19819D1*
G1X18907Y21169D2*
G1X17542Y21169D1*
G1X18907Y20314D2*
G1X15932Y20314D1*
G1X15803Y20976D2*
G1X15803Y22621D1*
G1X16001Y20976D2*
G1X16001Y22621D1*
G1X17414Y17376D2*
G1X17414Y20506D1*
G1X18907Y19792D2*
G1X15932Y19792D1*
G1X18665Y17376D2*
G1X18665Y22621D1*
G1X18907Y19747D2*
G1X15932Y19747D1*
G1X18907Y19738D2*
G1X15932Y19738D1*
G1X18907Y19729D2*
G1X15932Y19729D1*
G1X18907Y19720D2*
G1X15932Y19720D1*
G1X15677Y20976D2*
G1X15677Y22621D1*
G1X14392Y25336D2*
G1X12437Y25336D1*
G1X13994Y24886D2*
G1X12437Y24886D1*
G1X13792Y23959D2*
G1X12437Y23959D1*
G1X14392Y27001D2*
G1X12437Y27001D1*
G1X14392Y27154D2*
G1X12437Y27154D1*
G1X14392Y25354D2*
G1X12437Y25354D1*
G1X13732Y22735D2*
G1X12437Y22735D1*
G1X14392Y28630D2*
G1X12437Y28630D1*
G1X13732Y22708D2*
G1X12437Y22708D1*
G1X14957Y20976D2*
G1X14957Y22621D1*
G1X14948Y20976D2*
G1X14948Y22621D1*
G1X13732Y22744D2*
G1X12437Y22744D1*
G1X13732Y22672D2*
G1X12437Y22672D1*
G1X14966Y20976D2*
G1X14966Y22621D1*
G1X14318Y17376D2*
G1X14318Y20566D1*
G1X14354Y17376D2*
G1X14354Y20566D1*
G1X13292Y22492D2*
G1X12437Y22492D1*
G1X13292Y22483D2*
G1X12437Y22483D1*
G1X13292Y22474D2*
G1X12437Y22474D1*
G1X15650Y20976D2*
G1X15650Y22621D1*
G1X13769Y22521D2*
G1X13769Y22566D1*
G1X15533Y20976D2*
G1X15533Y22621D1*
G1X13732Y22600D2*
G1X12437Y22600D1*
G1X14345Y20956D2*
G1X14345Y22621D1*
G1X13292Y22501D2*
G1X12437Y22501D1*
G1X13292Y22456D2*
G1X12437Y22456D1*
G1X14392Y25381D2*
G1X12437Y25381D1*
G1X13732Y23410D2*
G1X12437Y23410D1*
G1X13861Y20944D2*
G1X12437Y20944D1*
G1X18907Y20296D2*
G1X15932Y20296D1*
G1X14392Y25408D2*
G1X12437Y25408D1*
G1X18907Y19756D2*
G1X15932Y19756D1*
G1X18907Y20170D2*
G1X15932Y20170D1*
G1X18907Y20188D2*
G1X15932Y20188D1*
G1X18907Y20287D2*
G1X15932Y20287D1*
G1X18907Y20206D2*
G1X15932Y20206D1*
G1X18907Y20179D2*
G1X15932Y20179D1*
G1X18737Y17376D2*
G1X18737Y22621D1*
G1X14392Y26605D2*
G1X12437Y26605D1*
G1X13958Y24855D2*
G1X13958Y29431D1*
G1X16397Y22569D2*
G1X16397Y22621D1*
G1X18449Y17376D2*
G1X18449Y22621D1*
G1X17513Y17376D2*
G1X17513Y20506D1*
G1X17873Y22500D2*
G1X17873Y22621D1*
G1X18907Y19387D2*
G1X15932Y19387D1*
G1X16244Y20976D2*
G1X16244Y22621D1*
G1X15432Y19054D2*
G1X12437Y19054D1*
G1X18907Y19954D2*
G1X15932Y19954D1*
G1X18907Y20476D2*
G1X15932Y20476D1*
G1X16154Y17376D2*
G1X16154Y20506D1*
G1X13792Y23995D2*
G1X12437Y23995D1*
G1X16019Y20976D2*
G1X16019Y22621D1*
G1X13732Y23302D2*
G1X12437Y23302D1*
G1X17216Y17376D2*
G1X17216Y20506D1*
G1X15596Y20976D2*
G1X15596Y22621D1*
G1X13732Y22978D2*
G1X12437Y22978D1*
G1X16838Y17376D2*
G1X16838Y20506D1*
G1X14687Y20916D2*
G1X14687Y22621D1*
G1X17234Y17376D2*
G1X17234Y20506D1*
G1X18907Y20575D2*
G1X17542Y20575D1*
G1X17792Y22594D2*
G1X17792Y22621D1*
G1X13895Y24792D2*
G1X13895Y29431D1*
G1X15470Y20976D2*
G1X15470Y22621D1*
G1X13732Y23095D2*
G1X12437Y23095D1*
G1X17270Y17376D2*
G1X17270Y20506D1*
G1X17252Y17376D2*
G1X17252Y20506D1*
G1X14291Y21010D2*
G1X14291Y22621D1*
G1X18809Y17376D2*
G1X18809Y22621D1*
G1X14012Y24897D2*
G1X14012Y29431D1*
G1X14392Y26344D2*
G1X12437Y26344D1*
G1X14037Y24922D2*
G1X12437Y24922D1*
G1X18907Y20917D2*
G1X17542Y20917D1*
G1X18782Y17376D2*
G1X18782Y22621D1*
G1X18422Y17376D2*
G1X18422Y22621D1*
G1X18557Y17376D2*
G1X18557Y22621D1*
G1X14057Y24976D2*
G1X14057Y29431D1*
G1X14156Y24976D2*
G1X14156Y29431D1*
G1X18728Y17376D2*
G1X18728Y22621D1*
G1X14037Y24949D2*
G1X12437Y24949D1*
G1X18907Y19486D2*
G1X15932Y19486D1*
G1X18907Y19702D2*
G1X15932Y19702D1*
G1X16312Y21781D2*
G1X16312Y22411D1*
G1X14392Y27118D2*
G1X12437Y27118D1*
G1X16685Y17376D2*
G1X16685Y20506D1*
G1X16163Y17376D2*
G1X16163Y20506D1*
G1X18907Y20494D2*
G1X15932Y20494D1*
G1X16649Y17376D2*
G1X16649Y20516D1*
G1X13732Y23185D2*
G1X12437Y23185D1*
G1X12446Y17376D2*
G1X12446Y29431D1*
G1X18683Y17376D2*
G1X18683Y22621D1*
G1X18907Y20107D2*
G1X15932Y20107D1*
G1X18907Y19054D2*
G1X15982Y19054D1*
G1X13971Y24868D2*
G1X12437Y24868D1*
G1X14552Y17376D2*
G1X14552Y20566D1*
G1X18907Y20548D2*
G1X17542Y20548D1*
G1X18907Y22582D2*
G1X17803Y22582D1*
G1X14392Y27811D2*
G1X12437Y27811D1*
G1X17918Y17376D2*
G1X17918Y21311D1*
G1X17927Y21781D2*
G1X17927Y22621D1*
G1X17936Y21781D2*
G1X17936Y22621D1*
G1X17892Y21781D2*
G1X17892Y22421D1*
G1X14975Y20976D2*
G1X14975Y22621D1*
G1X16383Y22555D2*
G1X14142Y22555D1*
G1X13292Y22447D2*
G1X12437Y22447D1*
G1X18800Y17376D2*
G1X18800Y22621D1*
G1X14282Y24976D2*
G1X14282Y29431D1*
G1X16352Y22523D2*
G1X16352Y22621D1*
G1X18647Y17376D2*
G1X18647Y22621D1*
G1X18701Y17376D2*
G1X18701Y22621D1*
G1X17963Y17376D2*
G1X17963Y22621D1*
G1X17972Y17376D2*
G1X17972Y22621D1*
G1X16262Y20976D2*
G1X16262Y21311D1*
G1X16271Y20976D2*
G1X16271Y21311D1*
G1X16280Y20976D2*
G1X16280Y21311D1*
G1X16298Y20976D2*
G1X16298Y21311D1*
G1X16307Y20976D2*
G1X16307Y21311D1*
G1X17981Y17376D2*
G1X17981Y22621D1*
G1X17990Y17376D2*
G1X17990Y22621D1*
G1X18584Y17376D2*
G1X18584Y22621D1*
G1X14392Y26335D2*
G1X12437Y26335D1*
G1X17999Y17376D2*
G1X17999Y22621D1*
G1X13792Y24337D2*
G1X12437Y24337D1*
G1X18008Y17376D2*
G1X18008Y22621D1*
G1X16406Y22578D2*
G1X16406Y22621D1*
G1X18440Y17376D2*
G1X18440Y22621D1*
G1X14392Y27469D2*
G1X12437Y27469D1*
G1X16612Y20506D2*
G1X16192Y20506D1*
G1X16901Y17376D2*
G1X16901Y20506D1*
G1X16652Y20512D2*
G1X16612Y20512D1*
G1X16652Y20521D2*
G1X16612Y20521D1*
G1X13732Y21367D2*
G1X12437Y21367D1*
G1X16252Y21376D2*
G1X14202Y21376D1*
G1X16892Y17376D2*
G1X16892Y20506D1*
G1X15794Y20976D2*
G1X15794Y22621D1*
G1X16604Y17376D2*
G1X16604Y20506D1*
G1X16595Y17376D2*
G1X16595Y20506D1*
G1X16586Y17376D2*
G1X16586Y20506D1*
G1X16577Y17376D2*
G1X16577Y20506D1*
G1X16568Y17376D2*
G1X16568Y20506D1*
G1X16559Y17376D2*
G1X16559Y20506D1*
G1X16550Y17376D2*
G1X16550Y20506D1*
G1X16541Y17376D2*
G1X16541Y20506D1*
G1X16532Y17376D2*
G1X16532Y20506D1*
G1X16523Y17376D2*
G1X16523Y20506D1*
G1X16514Y17376D2*
G1X16514Y20506D1*
G1X16505Y17376D2*
G1X16505Y20506D1*
G1X16496Y17376D2*
G1X16496Y20506D1*
G1X16487Y17376D2*
G1X16487Y20506D1*
G1X16478Y17376D2*
G1X16478Y20506D1*
G1X16469Y17376D2*
G1X16469Y20506D1*
G1X16460Y17376D2*
G1X16460Y20506D1*
G1X16451Y17376D2*
G1X16451Y20506D1*
G1X16442Y17376D2*
G1X16442Y20506D1*
G1X16433Y17376D2*
G1X16433Y20506D1*
G1X16424Y17376D2*
G1X16424Y20506D1*
G1X16415Y17376D2*
G1X16415Y20506D1*
G1X16406Y17376D2*
G1X16406Y20506D1*
G1X16397Y17376D2*
G1X16397Y20506D1*
G1X16388Y17376D2*
G1X16388Y20506D1*
G1X16379Y17376D2*
G1X16379Y20506D1*
G1X16370Y17376D2*
G1X16370Y20506D1*
G1X16361Y17376D2*
G1X16361Y20506D1*
G1X16352Y17376D2*
G1X16352Y20506D1*
G1X16343Y17376D2*
G1X16343Y20506D1*
G1X16334Y17376D2*
G1X16334Y20506D1*
G1X16325Y17376D2*
G1X16325Y20506D1*
G1X16316Y17376D2*
G1X16316Y20506D1*
G1X16307Y17376D2*
G1X16307Y20506D1*
G1X16298Y17376D2*
G1X16298Y20506D1*
G1X16289Y17376D2*
G1X16289Y20506D1*
G1X16280Y17376D2*
G1X16280Y20506D1*
G1X16271Y17376D2*
G1X16271Y20506D1*
G1X16262Y17376D2*
G1X16262Y20506D1*
G1X16253Y17376D2*
G1X16253Y20506D1*
G1X16244Y17376D2*
G1X16244Y20506D1*
G1X16235Y17376D2*
G1X16235Y20506D1*
G1X16226Y17376D2*
G1X16226Y20506D1*
G1X16217Y17376D2*
G1X16217Y20506D1*
G1X16208Y17376D2*
G1X16208Y20506D1*
G1X18907Y20935D2*
G1X17542Y20935D1*
G1X16252Y21763D2*
G1X14202Y21763D1*
G1X13732Y23383D2*
G1X12437Y23383D1*
G1X13732Y23266D2*
G1X12437Y23266D1*
G1X14392Y25804D2*
G1X12437Y25804D1*
G1X16631Y20966D2*
G1X16631Y21311D1*
G1X16622Y20966D2*
G1X16622Y21311D1*
G1X16604Y20976D2*
G1X16604Y21311D1*
G1X16595Y20976D2*
G1X16595Y21311D1*
G1X16586Y20976D2*
G1X16586Y21311D1*
G1X16577Y20976D2*
G1X16577Y21311D1*
G1X16568Y20976D2*
G1X16568Y21311D1*
G1X16559Y20976D2*
G1X16559Y21311D1*
G1X16550Y20976D2*
G1X16550Y21311D1*
G1X13792Y24319D2*
G1X12437Y24319D1*
G1X13792Y24310D2*
G1X12437Y24310D1*
G1X13792Y23986D2*
G1X12437Y23986D1*
G1X14392Y26992D2*
G1X12437Y26992D1*
G1X16334Y20976D2*
G1X16334Y21311D1*
G1X18907Y20755D2*
G1X17542Y20755D1*
G1X18907Y20764D2*
G1X17542Y20764D1*
G1X18907Y20773D2*
G1X17542Y20773D1*
G1X18907Y20782D2*
G1X17542Y20782D1*
G1X18907Y20791D2*
G1X17542Y20791D1*
G1X18907Y20800D2*
G1X17542Y20800D1*
G1X18907Y20809D2*
G1X17542Y20809D1*
G1X18907Y20818D2*
G1X17542Y20818D1*
G1X18907Y20827D2*
G1X17542Y20827D1*
G1X18907Y20836D2*
G1X17542Y20836D1*
G1X18907Y21871D2*
G1X17892Y21871D1*
G1X18907Y21880D2*
G1X17892Y21880D1*
G1X18907Y21889D2*
G1X17892Y21889D1*
G1X18907Y21898D2*
G1X17892Y21898D1*
G1X18907Y21907D2*
G1X17892Y21907D1*
G1X18907Y21916D2*
G1X17892Y21916D1*
G1X18907Y21925D2*
G1X17892Y21925D1*
G1X18907Y21934D2*
G1X17892Y21934D1*
G1X18907Y21943D2*
G1X17892Y21943D1*
G1X18907Y21952D2*
G1X17892Y21952D1*
G1X18907Y21961D2*
G1X17892Y21961D1*
G1X18907Y21970D2*
G1X17892Y21970D1*
G1X18907Y21979D2*
G1X17892Y21979D1*
G1X18907Y21988D2*
G1X17892Y21988D1*
G1X18907Y21997D2*
G1X17892Y21997D1*
G1X18907Y22006D2*
G1X17892Y22006D1*
G1X18907Y22015D2*
G1X17892Y22015D1*
G1X18907Y22024D2*
G1X17892Y22024D1*
G1X18907Y22033D2*
G1X17892Y22033D1*
G1X18907Y22042D2*
G1X17892Y22042D1*
G1X18907Y22051D2*
G1X17892Y22051D1*
G1X18907Y22060D2*
G1X17892Y22060D1*
G1X18907Y22069D2*
G1X17892Y22069D1*
G1X18907Y22078D2*
G1X17892Y22078D1*
G1X18907Y22087D2*
G1X17892Y22087D1*
G1X18907Y22096D2*
G1X17892Y22096D1*
G1X18907Y22105D2*
G1X17892Y22105D1*
G1X18907Y22114D2*
G1X17892Y22114D1*
G1X18907Y22123D2*
G1X17892Y22123D1*
G1X18907Y22132D2*
G1X17892Y22132D1*
G1X18907Y22141D2*
G1X17892Y22141D1*
G1X18907Y22150D2*
G1X17892Y22150D1*
G1X18907Y22159D2*
G1X17892Y22159D1*
G1X18907Y22168D2*
G1X17892Y22168D1*
G1X18907Y20404D2*
G1X15932Y20404D1*
G1X18907Y20503D2*
G1X15932Y20503D1*
G1X16424Y20976D2*
G1X16424Y21311D1*
G1X16433Y20976D2*
G1X16433Y21311D1*
G1X16442Y20976D2*
G1X16442Y21311D1*
G1X16649Y20966D2*
G1X16649Y21311D1*
G1X16613Y20966D2*
G1X16613Y21311D1*
G1X16451Y20976D2*
G1X16451Y21311D1*
G1X16460Y20976D2*
G1X16460Y21311D1*
G1X16469Y20976D2*
G1X16469Y21311D1*
G1X16478Y20976D2*
G1X16478Y21311D1*
G1X16487Y20976D2*
G1X16487Y21311D1*
G1X16496Y20976D2*
G1X16496Y21311D1*
G1X16505Y20976D2*
G1X16505Y21311D1*
G1X16514Y20976D2*
G1X16514Y21311D1*
G1X16523Y20976D2*
G1X16523Y21311D1*
G1X16532Y20976D2*
G1X16532Y21311D1*
G1X16541Y20976D2*
G1X16541Y21311D1*
G1X16352Y20976D2*
G1X16352Y21311D1*
G1X16343Y20976D2*
G1X16343Y21311D1*
G1X18907Y22177D2*
G1X17892Y22177D1*
G1X18907Y22186D2*
G1X17892Y22186D1*
G1X18907Y22348D2*
G1X17892Y22348D1*
G1X18907Y22357D2*
G1X17892Y22357D1*
G1X18907Y22366D2*
G1X17892Y22366D1*
G1X18907Y22375D2*
G1X17892Y22375D1*
G1X18907Y22384D2*
G1X17892Y22384D1*
G1X18907Y22393D2*
G1X17892Y22393D1*
G1X18907Y22402D2*
G1X17892Y22402D1*
G1X18907Y22621D2*
G1X17764Y22621D1*
G1X18907Y22429D2*
G1X17892Y22429D1*
G1X18907Y22438D2*
G1X17891Y22438D1*
G1X18907Y22447D2*
G1X17890Y22447D1*
G1X18907Y22465D2*
G1X17886Y22465D1*
G1X18907Y22474D2*
G1X17884Y22474D1*
G1X18907Y22483D2*
G1X17880Y22483D1*
G1X18907Y22492D2*
G1X17877Y22492D1*
G1X18907Y22501D2*
G1X17872Y22501D1*
G1X18907Y22510D2*
G1X17868Y22510D1*
G1X18907Y22519D2*
G1X17862Y22519D1*
G1X18907Y22528D2*
G1X17855Y22528D1*
G1X18907Y22537D2*
G1X17848Y22537D1*
G1X18907Y22546D2*
G1X17839Y22546D1*
G1X18907Y22555D2*
G1X17830Y22555D1*
G1X18907Y22564D2*
G1X17821Y22564D1*
G1X17153Y17376D2*
G1X17153Y20506D1*
G1X18907Y22573D2*
G1X17812Y22573D1*
G1X18907Y22600D2*
G1X17785Y22600D1*
G1X18907Y22609D2*
G1X17776Y22609D1*
G1X16694Y17376D2*
G1X16694Y20506D1*
G1X17180Y17376D2*
G1X17180Y20506D1*
G1X16312Y22321D2*
G1X14202Y22321D1*
G1X17198Y17376D2*
G1X17198Y20506D1*
G1X18907Y21322D2*
G1X17952Y21322D1*
G1X18907Y21331D2*
G1X17952Y21331D1*
G1X18907Y21340D2*
G1X17952Y21340D1*
G1X18907Y21349D2*
G1X17952Y21349D1*
G1X18907Y21358D2*
G1X17952Y21358D1*
G1X18907Y21367D2*
G1X17952Y21367D1*
G1X18907Y21376D2*
G1X17952Y21376D1*
G1X18907Y21385D2*
G1X17952Y21385D1*
G1X18907Y21394D2*
G1X17952Y21394D1*
G1X18907Y21403D2*
G1X17952Y21403D1*
G1X18907Y21412D2*
G1X17952Y21412D1*
G1X18907Y21421D2*
G1X17952Y21421D1*
G1X18907Y21430D2*
G1X17952Y21430D1*
G1X18907Y21439D2*
G1X17952Y21439D1*
G1X18907Y21448D2*
G1X17952Y21448D1*
G1X18907Y21457D2*
G1X17952Y21457D1*
G1X18907Y21466D2*
G1X17952Y21466D1*
G1X18907Y21475D2*
G1X17952Y21475D1*
G1X18907Y21484D2*
G1X17952Y21484D1*
G1X18907Y21493D2*
G1X17952Y21493D1*
G1X18907Y21502D2*
G1X17952Y21502D1*
G1X18907Y21511D2*
G1X17952Y21511D1*
G1X18907Y21520D2*
G1X17952Y21520D1*
G1X18907Y21529D2*
G1X17952Y21529D1*
G1X18907Y21538D2*
G1X17952Y21538D1*
G1X18907Y21547D2*
G1X17952Y21547D1*
G1X18907Y21556D2*
G1X17952Y21556D1*
G1X18907Y21565D2*
G1X17952Y21565D1*
G1X18907Y21574D2*
G1X17952Y21574D1*
G1X18907Y21583D2*
G1X17952Y21583D1*
G1X18907Y21592D2*
G1X17952Y21592D1*
G1X18907Y21601D2*
G1X17952Y21601D1*
G1X18907Y21610D2*
G1X17952Y21610D1*
G1X18907Y21619D2*
G1X17952Y21619D1*
G1X18907Y21628D2*
G1X17952Y21628D1*
G1X18907Y21637D2*
G1X17952Y21637D1*
G1X18907Y21646D2*
G1X17952Y21646D1*
G1X18907Y21655D2*
G1X17952Y21655D1*
G1X18907Y21664D2*
G1X17952Y21664D1*
G1X18907Y21673D2*
G1X17952Y21673D1*
G1X18907Y21682D2*
G1X17952Y21682D1*
G1X18907Y21691D2*
G1X17952Y21691D1*
G1X18907Y21700D2*
G1X17952Y21700D1*
G1X18907Y21709D2*
G1X17952Y21709D1*
G1X18907Y21718D2*
G1X17952Y21718D1*
G1X18907Y21727D2*
G1X17952Y21727D1*
G1X18907Y21736D2*
G1X17952Y21736D1*
G1X18907Y21745D2*
G1X17952Y21745D1*
G1X18907Y21754D2*
G1X17952Y21754D1*
G1X18907Y21763D2*
G1X17952Y21763D1*
G1X18907Y21772D2*
G1X17952Y21772D1*
G1X17891Y17376D2*
G1X17891Y21311D1*
G1X17882Y17376D2*
G1X17882Y21311D1*
G1X17873Y17376D2*
G1X17873Y21311D1*
G1X17864Y17376D2*
G1X17864Y21311D1*
G1X17855Y17376D2*
G1X17855Y21311D1*
G1X17846Y17376D2*
G1X17846Y21311D1*
G1X17837Y17376D2*
G1X17837Y21311D1*
G1X17828Y17376D2*
G1X17828Y21311D1*
G1X17819Y17376D2*
G1X17819Y21311D1*
G1X17810Y17376D2*
G1X17810Y21311D1*
G1X17801Y17376D2*
G1X17801Y21311D1*
G1X17792Y17376D2*
G1X17792Y21311D1*
G1X17783Y17376D2*
G1X17783Y21311D1*
G1X17774Y17376D2*
G1X17774Y21311D1*
G1X17765Y17376D2*
G1X17765Y21311D1*
G1X17756Y17376D2*
G1X17756Y21311D1*
G1X17747Y17376D2*
G1X17747Y21311D1*
G1X17738Y17376D2*
G1X17738Y21311D1*
G1X17729Y17376D2*
G1X17729Y21311D1*
G1X17720Y17376D2*
G1X17720Y21311D1*
G1X17711Y17376D2*
G1X17711Y21311D1*
G1X17702Y17376D2*
G1X17702Y21311D1*
G1X17693Y17376D2*
G1X17693Y21311D1*
G1X17684Y17376D2*
G1X17684Y21311D1*
G1X17675Y17376D2*
G1X17675Y21311D1*
G1X17666Y17376D2*
G1X17666Y21311D1*
G1X17657Y17376D2*
G1X17657Y21311D1*
G1X17648Y17376D2*
G1X17648Y21311D1*
G1X17639Y17376D2*
G1X17639Y21311D1*
G1X17630Y17376D2*
G1X17630Y21311D1*
G1X17621Y17376D2*
G1X17621Y21311D1*
G1X17612Y17376D2*
G1X17612Y21311D1*
G1X17603Y17376D2*
G1X17603Y21311D1*
G1X17594Y17376D2*
G1X17594Y21311D1*
G1X17585Y17376D2*
G1X17585Y21311D1*
G1X17576Y17376D2*
G1X17576Y21311D1*
G1X17567Y17376D2*
G1X17567Y21311D1*
G1X17558Y17376D2*
G1X17558Y21311D1*
G1X16640Y17376D2*
G1X16640Y20516D1*
G1X17918Y21781D2*
G1X17918Y22621D1*
G1X17540Y17376D2*
G1X17540Y20506D1*
G1X17531Y17376D2*
G1X17531Y20506D1*
G1X18907Y20485D2*
G1X15932Y20485D1*
G1X17162Y17376D2*
G1X17162Y20506D1*
G1X13732Y22726D2*
G1X12437Y22726D1*
G1X18907Y19468D2*
G1X15932Y19468D1*
G1X14102Y24976D2*
G1X14102Y29431D1*
G1X14392Y27136D2*
G1X12437Y27136D1*
G1X14392Y27442D2*
G1X12437Y27442D1*
G1X13732Y22654D2*
G1X12437Y22654D1*
G1X16343Y22511D2*
G1X16343Y22621D1*
G1X14525Y17376D2*
G1X14525Y20566D1*
G1X18467Y17376D2*
G1X18467Y22621D1*
G1X14570Y17376D2*
G1X14570Y20566D1*
G1X17945Y17376D2*
G1X17945Y21311D1*
G1X14202Y21631D2*
G1X14202Y22051D1*
G1X16312Y22240D2*
G1X14202Y22240D1*
G1X13292Y22303D2*
G1X12437Y22303D1*
G1X16312Y22033D2*
G1X14202Y22033D1*
G1X16312Y22267D2*
G1X14202Y22267D1*
G1X16312Y22276D2*
G1X14202Y22276D1*
G1X16312Y22285D2*
G1X14202Y22285D1*
G1X16312Y22294D2*
G1X14202Y22294D1*
G1X16312Y22303D2*
G1X14202Y22303D1*
G1X16312Y22312D2*
G1X14202Y22312D1*
G1X16449Y22621D2*
G1X14202Y22621D1*
G1X16312Y22204D2*
G1X14202Y22204D1*
G1X16312Y22348D2*
G1X14202Y22348D1*
G1X16312Y22357D2*
G1X14202Y22357D1*
G1X16312Y22366D2*
G1X14202Y22366D1*
G1X16312Y22375D2*
G1X14202Y22375D1*
G1X16312Y22384D2*
G1X14202Y22384D1*
G1X16312Y22393D2*
G1X14202Y22393D1*
G1X16312Y22402D2*
G1X14202Y22402D1*
G1X16312Y22411D2*
G1X14202Y22411D1*
G1X16312Y22420D2*
G1X14202Y22420D1*
G1X16313Y22429D2*
G1X14202Y22429D1*
G1X16314Y22438D2*
G1X14202Y22438D1*
G1X18907Y20620D2*
G1X17542Y20620D1*
G1X18907Y20629D2*
G1X17542Y20629D1*
G1X18907Y20638D2*
G1X17542Y20638D1*
G1X18907Y20647D2*
G1X17542Y20647D1*
G1X14392Y26731D2*
G1X12437Y26731D1*
G1X16379Y22551D2*
G1X16379Y22621D1*
G1X16252Y21772D2*
G1X14202Y21772D1*
G1X13792Y22546D2*
G1X12437Y22546D1*
G1X13792Y22555D2*
G1X12437Y22555D1*
G1X18521Y17376D2*
G1X18521Y22621D1*
G1X16365Y22537D2*
G1X14142Y22537D1*
G1X18872Y17376D2*
G1X18872Y22621D1*
G1X18863Y17376D2*
G1X18863Y22621D1*
G1X18359Y17376D2*
G1X18359Y22621D1*
G1X13292Y22222D2*
G1X12437Y22222D1*
G1X15227Y17376D2*
G1X15227Y20506D1*
G1X15218Y17376D2*
G1X15218Y20506D1*
G1X15209Y17376D2*
G1X15209Y20506D1*
G1X15200Y17376D2*
G1X15200Y20506D1*
G1X15191Y17376D2*
G1X15191Y20506D1*
G1X15182Y17376D2*
G1X15182Y20506D1*
G1X15173Y17376D2*
G1X15173Y20506D1*
G1X15164Y17376D2*
G1X15164Y20506D1*
G1X15155Y17376D2*
G1X15155Y20506D1*
G1X15146Y17376D2*
G1X15146Y20506D1*
G1X15137Y17376D2*
G1X15137Y20506D1*
G1X15128Y17376D2*
G1X15128Y20506D1*
G1X15119Y17376D2*
G1X15119Y20506D1*
G1X15110Y17376D2*
G1X15110Y20506D1*
G1X15101Y17376D2*
G1X15101Y20506D1*
G1X15092Y17376D2*
G1X15092Y20506D1*
G1X15083Y17376D2*
G1X15083Y20506D1*
G1X15074Y17376D2*
G1X15074Y20506D1*
G1X15065Y17376D2*
G1X15065Y20506D1*
G1X15056Y17376D2*
G1X15056Y20506D1*
G1X15047Y17376D2*
G1X15047Y20506D1*
G1X15038Y17376D2*
G1X15038Y20506D1*
G1X15029Y17376D2*
G1X15029Y20506D1*
G1X15020Y17376D2*
G1X15020Y20506D1*
G1X15011Y17376D2*
G1X15011Y20506D1*
G1X15002Y17376D2*
G1X15002Y20506D1*
G1X14993Y17376D2*
G1X14993Y20506D1*
G1X14984Y17376D2*
G1X14984Y20506D1*
G1X14975Y17376D2*
G1X14975Y20506D1*
G1X14966Y17376D2*
G1X14966Y20506D1*
G1X14957Y17376D2*
G1X14957Y20506D1*
G1X14948Y17376D2*
G1X14948Y20506D1*
G1X14939Y17376D2*
G1X14939Y20506D1*
G1X14930Y17376D2*
G1X14930Y20506D1*
G1X14921Y17376D2*
G1X14921Y20506D1*
G1X14912Y17376D2*
G1X14912Y20506D1*
G1X14903Y17376D2*
G1X14903Y20506D1*
G1X14894Y17376D2*
G1X14894Y20506D1*
G1X14885Y17376D2*
G1X14885Y20506D1*
G1X14876Y17376D2*
G1X14876Y20506D1*
G1X14867Y17376D2*
G1X14867Y20506D1*
G1X14858Y17376D2*
G1X14858Y20506D1*
G1X14849Y17376D2*
G1X14849Y20506D1*
G1X14840Y17376D2*
G1X14840Y20506D1*
G1X14831Y17376D2*
G1X14831Y20506D1*
G1X15482Y19071D2*
G1X15432Y19071D1*
G1X15932Y19071D2*
G1X15932Y20506D1*
G1X16142Y20506D2*
G1X15932Y20506D1*
G1X18530Y17376D2*
G1X18530Y22621D1*
G1X15488Y19071D2*
G1X15488Y20506D1*
G1X15479Y19071D2*
G1X15479Y20506D1*
G1X15470Y19071D2*
G1X15470Y20506D1*
G1X15461Y19071D2*
G1X15461Y20506D1*
G1X15452Y19071D2*
G1X15452Y20506D1*
G1X15443Y19071D2*
G1X15443Y20506D1*
G1X14822Y17376D2*
G1X14822Y20506D1*
G1X15425Y17376D2*
G1X15425Y20506D1*
G1X15416Y17376D2*
G1X15416Y20506D1*
G1X15407Y17376D2*
G1X15407Y20506D1*
G1X15398Y17376D2*
G1X15398Y20506D1*
G1X15389Y17376D2*
G1X15389Y20506D1*
G1X15380Y17376D2*
G1X15380Y20506D1*
G1X15371Y17376D2*
G1X15371Y20506D1*
G1X15362Y17376D2*
G1X15362Y20506D1*
G1X15353Y17376D2*
G1X15353Y20506D1*
G1X15344Y17376D2*
G1X15344Y20506D1*
G1X15335Y17376D2*
G1X15335Y20506D1*
G1X15326Y17376D2*
G1X15326Y20506D1*
G1X15317Y17376D2*
G1X15317Y20506D1*
G1X13732Y22762D2*
G1X12437Y22762D1*
G1X15299Y17376D2*
G1X15299Y20506D1*
G1X15290Y17376D2*
G1X15290Y20506D1*
G1X15722Y20966D2*
G1X15707Y20966D1*
G1X14021Y24901D2*
G1X14021Y29431D1*
G1X14624Y20916D2*
G1X14624Y22621D1*
G1X13792Y24139D2*
G1X12437Y24139D1*
G1X14037Y24907D2*
G1X14037Y24976D1*
G1X13792Y24481D2*
G1X12437Y24481D1*
G1X17360Y17376D2*
G1X17360Y20506D1*
G1X13944Y24841D2*
G1X12437Y24841D1*
G1X17369Y17376D2*
G1X17369Y20506D1*
G1X18907Y22420D2*
G1X17892Y22420D1*
G1X18907Y20530D2*
G1X17542Y20530D1*
G1X18907Y20512D2*
G1X17542Y20512D1*
G1X17405Y17376D2*
G1X17405Y20506D1*
G1X17450Y17376D2*
G1X17450Y20506D1*
G1X17468Y17376D2*
G1X17468Y20506D1*
G1X17486Y17376D2*
G1X17486Y20506D1*
G1X18907Y20566D2*
G1X17542Y20566D1*
G1X18907Y19261D2*
G1X15932Y19261D1*
G1X18907Y19252D2*
G1X15932Y19252D1*
G1X18907Y19243D2*
G1X15932Y19243D1*
G1X18907Y19234D2*
G1X15932Y19234D1*
G1X18907Y19225D2*
G1X15932Y19225D1*
G1X18907Y19216D2*
G1X15932Y19216D1*
G1X18907Y19207D2*
G1X15932Y19207D1*
G1X18907Y19198D2*
G1X15932Y19198D1*
G1X18907Y19189D2*
G1X15932Y19189D1*
G1X18907Y19180D2*
G1X15932Y19180D1*
G1X18907Y19171D2*
G1X15932Y19171D1*
G1X18907Y19162D2*
G1X15932Y19162D1*
G1X14392Y27775D2*
G1X12437Y27775D1*
G1X15011Y20976D2*
G1X15011Y22621D1*
G1X15020Y20976D2*
G1X15020Y22621D1*
G1X14392Y27451D2*
G1X12437Y27451D1*
G1X14392Y27325D2*
G1X12437Y27325D1*
G1X13792Y24328D2*
G1X12437Y24328D1*
G1X14392Y25444D2*
G1X12437Y25444D1*
G1X14392Y26155D2*
G1X12437Y26155D1*
G1X14392Y27190D2*
G1X12437Y27190D1*
G1X14392Y27037D2*
G1X12437Y27037D1*
G1X14392Y27199D2*
G1X12437Y27199D1*
G1X14392Y27046D2*
G1X12437Y27046D1*
G1X14392Y27982D2*
G1X12437Y27982D1*
G1X14392Y27217D2*
G1X12437Y27217D1*
G1X14392Y27064D2*
G1X12437Y27064D1*
G1X16073Y20976D2*
G1X16073Y22621D1*
G1X16145Y20976D2*
G1X16145Y22621D1*
G1X14188Y20617D2*
G1X13845Y20961D1*
G1X18907Y20962D2*
G1X17542Y20962D1*
G1X18907Y20386D2*
G1X15932Y20386D1*
G1X18907Y20539D2*
G1X17542Y20539D1*
G1X18907Y20395D2*
G1X15932Y20395D1*
G1X18907Y20440D2*
G1X15932Y20440D1*
G1X18907Y20449D2*
G1X15932Y20449D1*
G1X15713Y20966D2*
G1X15713Y22621D1*
G1X18907Y20467D2*
G1X15932Y20467D1*
G1X15686Y20976D2*
G1X15686Y22621D1*
G1X15893Y20976D2*
G1X15893Y22621D1*
G1X15875Y20976D2*
G1X15875Y22621D1*
G1X15857Y20976D2*
G1X15857Y22621D1*
G1X15839Y20976D2*
G1X15839Y22621D1*
G1X15821Y20976D2*
G1X15821Y22621D1*
G1X18907Y22258D2*
G1X17892Y22258D1*
G1X18907Y22267D2*
G1X17892Y22267D1*
G1X18907Y22276D2*
G1X17892Y22276D1*
G1X18907Y22285D2*
G1X17892Y22285D1*
G1X18907Y22294D2*
G1X17892Y22294D1*
G1X18907Y22303D2*
G1X17892Y22303D1*
G1X18907Y22312D2*
G1X17892Y22312D1*
G1X18907Y22321D2*
G1X17892Y22321D1*
G1X18907Y22330D2*
G1X17892Y22330D1*
G1X18907Y22339D2*
G1X17892Y22339D1*
G1X18907Y21781D2*
G1X17892Y21781D1*
G1X18907Y21790D2*
G1X17892Y21790D1*
G1X18907Y21799D2*
G1X17892Y21799D1*
G1X18907Y21808D2*
G1X17892Y21808D1*
G1X18907Y21817D2*
G1X17892Y21817D1*
G1X18907Y21826D2*
G1X17892Y21826D1*
G1X18907Y21835D2*
G1X17892Y21835D1*
G1X18907Y21844D2*
G1X17892Y21844D1*
G1X18907Y21853D2*
G1X17892Y21853D1*
G1X18907Y21862D2*
G1X17892Y21862D1*
G1X16631Y17376D2*
G1X16631Y20516D1*
G1X18907Y20854D2*
G1X17542Y20854D1*
G1X16622Y17376D2*
G1X16622Y20516D1*
G1X18907Y20872D2*
G1X17542Y20872D1*
G1X17542Y20506D2*
G1X17122Y20506D1*
G1X16325Y20976D2*
G1X16325Y21311D1*
G1X18907Y20944D2*
G1X17542Y20944D1*
G1X18907Y19657D2*
G1X15932Y19657D1*
G1X18907Y20971D2*
G1X17542Y20971D1*
G1X18907Y20980D2*
G1X17542Y20980D1*
G1X18907Y20989D2*
G1X17542Y20989D1*
G1X18907Y20998D2*
G1X17542Y20998D1*
G1X18907Y21007D2*
G1X17542Y21007D1*
G1X18907Y21016D2*
G1X17542Y21016D1*
G1X18907Y21025D2*
G1X17542Y21025D1*
G1X18907Y21034D2*
G1X17542Y21034D1*
G1X18907Y21043D2*
G1X17542Y21043D1*
G1X18907Y21052D2*
G1X17542Y21052D1*
G1X18907Y21061D2*
G1X17542Y21061D1*
G1X18907Y21070D2*
G1X17542Y21070D1*
G1X18907Y21079D2*
G1X17542Y21079D1*
G1X18907Y21088D2*
G1X17542Y21088D1*
G1X18907Y21097D2*
G1X17542Y21097D1*
G1X18907Y21106D2*
G1X17542Y21106D1*
G1X18907Y21115D2*
G1X17542Y21115D1*
G1X18907Y21124D2*
G1X17542Y21124D1*
G1X18907Y21133D2*
G1X17542Y21133D1*
G1X18907Y21142D2*
G1X17542Y21142D1*
G1X18907Y21151D2*
G1X17542Y21151D1*
G1X18907Y21160D2*
G1X17542Y21160D1*
G1X18907Y20368D2*
G1X15932Y20368D1*
G1X18907Y21178D2*
G1X17542Y21178D1*
G1X18907Y21187D2*
G1X17542Y21187D1*
G1X18907Y21196D2*
G1X17542Y21196D1*
G1X18907Y21214D2*
G1X17542Y21214D1*
G1X18907Y21223D2*
G1X17542Y21223D1*
G1X18907Y21232D2*
G1X17542Y21232D1*
G1X18907Y21241D2*
G1X17542Y21241D1*
G1X18907Y21250D2*
G1X17542Y21250D1*
G1X18907Y21259D2*
G1X17542Y21259D1*
G1X18907Y21268D2*
G1X17542Y21268D1*
G1X18907Y21277D2*
G1X17542Y21277D1*
G1X18907Y21286D2*
G1X17542Y21286D1*
G1X18907Y21295D2*
G1X17542Y21295D1*
G1X16415Y20976D2*
G1X16415Y21311D1*
G1X16190Y20976D2*
G1X16190Y22621D1*
G1X16652Y20962D2*
G1X16612Y20962D1*
G1X18907Y21205D2*
G1X17542Y21205D1*
G1X17072Y17376D2*
G1X17072Y20506D1*
G1X17063Y17376D2*
G1X17063Y20506D1*
G1X17054Y17376D2*
G1X17054Y20506D1*
G1X17045Y17376D2*
G1X17045Y20506D1*
G1X17036Y17376D2*
G1X17036Y20506D1*
G1X17027Y17376D2*
G1X17027Y20506D1*
G1X17018Y17376D2*
G1X17018Y20506D1*
G1X17009Y17376D2*
G1X17009Y20506D1*
G1X17000Y17376D2*
G1X17000Y20506D1*
G1X16991Y17376D2*
G1X16991Y20506D1*
G1X16982Y17376D2*
G1X16982Y20506D1*
G1X16973Y17376D2*
G1X16973Y20506D1*
G1X16964Y17376D2*
G1X16964Y20506D1*
G1X16955Y17376D2*
G1X16955Y20506D1*
G1X16946Y17376D2*
G1X16946Y20506D1*
G1X16937Y17376D2*
G1X16937Y20506D1*
G1X16928Y17376D2*
G1X16928Y20506D1*
G1X16919Y17376D2*
G1X16919Y20506D1*
G1X16910Y17376D2*
G1X16910Y20506D1*
G1X15776Y20976D2*
G1X15776Y22621D1*
G1X15767Y20976D2*
G1X15767Y22621D1*
G1X15758Y20976D2*
G1X15758Y22621D1*
G1X15749Y20976D2*
G1X15749Y22621D1*
G1X15740Y20976D2*
G1X15740Y22621D1*
G1X15731Y20976D2*
G1X15731Y22621D1*
G1X13792Y22564D2*
G1X12437Y22564D1*
G1X13879Y20926D2*
G1X12437Y20926D1*
G1X15812Y20976D2*
G1X15812Y22621D1*
G1X16145Y17376D2*
G1X16145Y20506D1*
G1X16136Y17376D2*
G1X16136Y20506D1*
G1X16127Y17376D2*
G1X16127Y20506D1*
G1X16118Y17376D2*
G1X16118Y20506D1*
G1X16109Y17376D2*
G1X16109Y20506D1*
G1X16100Y17376D2*
G1X16100Y20506D1*
G1X16091Y17376D2*
G1X16091Y20506D1*
G1X16082Y17376D2*
G1X16082Y20506D1*
G1X16073Y17376D2*
G1X16073Y20506D1*
G1X16064Y17376D2*
G1X16064Y20506D1*
G1X16055Y17376D2*
G1X16055Y20506D1*
G1X16046Y17376D2*
G1X16046Y20506D1*
G1X16037Y17376D2*
G1X16037Y20506D1*
G1X16028Y17376D2*
G1X16028Y20506D1*
G1X16019Y17376D2*
G1X16019Y20506D1*
G1X16010Y17376D2*
G1X16010Y20506D1*
G1X16001Y17376D2*
G1X16001Y20506D1*
G1X15992Y17376D2*
G1X15992Y20506D1*
G1X15974Y19071D2*
G1X15974Y20506D1*
G1X15965Y19071D2*
G1X15965Y20506D1*
G1X15956Y19071D2*
G1X15956Y20506D1*
G1X15947Y19071D2*
G1X15947Y20506D1*
G1X15938Y19071D2*
G1X15938Y20506D1*
G1X15929Y19071D2*
G1X15929Y20506D1*
G1X15272Y20976D2*
G1X15272Y22621D1*
G1X17441Y17376D2*
G1X17441Y20506D1*
G1X14696Y20916D2*
G1X14696Y22621D1*
G1X14669Y20916D2*
G1X14669Y22621D1*
G1X18907Y20899D2*
G1X17542Y20899D1*
G1X16703Y17376D2*
G1X16703Y20506D1*
G1X16712Y17376D2*
G1X16712Y20506D1*
G1X16721Y17376D2*
G1X16721Y20506D1*
G1X16730Y17376D2*
G1X16730Y20506D1*
G1X16739Y17376D2*
G1X16739Y20506D1*
G1X16748Y17376D2*
G1X16748Y20506D1*
G1X16757Y17376D2*
G1X16757Y20506D1*
G1X16766Y17376D2*
G1X16766Y20506D1*
G1X16775Y17376D2*
G1X16775Y20506D1*
G1X16784Y17376D2*
G1X16784Y20506D1*
G1X16793Y17376D2*
G1X16793Y20506D1*
G1X16802Y17376D2*
G1X16802Y20506D1*
G1X16811Y17376D2*
G1X16811Y20506D1*
G1X16820Y17376D2*
G1X16820Y20506D1*
G1X16829Y17376D2*
G1X16829Y20506D1*
G1X13792Y24220D2*
G1X12437Y24220D1*
G1X14147Y24976D2*
G1X14147Y29431D1*
G1X18907Y19945D2*
G1X15932Y19945D1*
G1X13792Y24427D2*
G1X12437Y24427D1*
G1X13792Y24292D2*
G1X12437Y24292D1*
G1X14471Y20916D2*
G1X14471Y22621D1*
G1X16847Y17376D2*
G1X16847Y20506D1*
G1X18575Y17376D2*
G1X18575Y22621D1*
G1X18566Y17376D2*
G1X18566Y22621D1*
G1X13732Y23311D2*
G1X12437Y23311D1*
G1X14435Y20916D2*
G1X14435Y22621D1*
G1X14392Y27091D2*
G1X12437Y27091D1*
G1X13792Y24382D2*
G1X12437Y24382D1*
G1X15722Y20966D2*
G1X15722Y20976D1*
G1X14183Y24976D2*
G1X14183Y29431D1*
G1X13854Y24751D2*
G1X12437Y24751D1*
G1X14111Y24976D2*
G1X14111Y29431D1*
G1X13732Y23122D2*
G1X12437Y23122D1*
G1X15569Y20976D2*
G1X15569Y22621D1*
G1X15362Y20976D2*
G1X15362Y22621D1*
G1X15353Y20976D2*
G1X15353Y22621D1*
G1X15344Y20976D2*
G1X15344Y22621D1*
G1X15317Y20976D2*
G1X15317Y22621D1*
G1X15308Y20976D2*
G1X15308Y22621D1*
G1X15299Y20976D2*
G1X15299Y22621D1*
G1X13732Y23023D2*
G1X12437Y23023D1*
G1X13732Y23050D2*
G1X12437Y23050D1*
G1X15263Y20976D2*
G1X15263Y22621D1*
G1X15254Y20976D2*
G1X15254Y22621D1*
G1X15245Y20976D2*
G1X15245Y22621D1*
G1X15236Y20976D2*
G1X15236Y22621D1*
G1X15227Y20976D2*
G1X15227Y22621D1*
G1X15218Y20976D2*
G1X15218Y22621D1*
G1X15209Y20976D2*
G1X15209Y22621D1*
G1X15200Y20976D2*
G1X15200Y22621D1*
G1X15191Y20976D2*
G1X15191Y22621D1*
G1X15182Y20976D2*
G1X15182Y22621D1*
G1X15173Y20976D2*
G1X15173Y22621D1*
G1X15164Y20976D2*
G1X15164Y22621D1*
G1X15155Y20976D2*
G1X15155Y22621D1*
G1X15146Y20976D2*
G1X15146Y22621D1*
G1X15137Y20976D2*
G1X15137Y22621D1*
G1X15128Y20976D2*
G1X15128Y22621D1*
G1X15119Y20976D2*
G1X15119Y22621D1*
G1X15110Y20976D2*
G1X15110Y22621D1*
G1X15101Y20976D2*
G1X15101Y22621D1*
G1X15092Y20976D2*
G1X15092Y22621D1*
G1X15083Y20976D2*
G1X15083Y22621D1*
G1X15074Y20976D2*
G1X15074Y22621D1*
G1X17261Y17376D2*
G1X17261Y20506D1*
G1X18907Y20215D2*
G1X15932Y20215D1*
G1X18413Y17376D2*
G1X18413Y22621D1*
G1X13732Y22690D2*
G1X12437Y22690D1*
G1X18907Y20728D2*
G1X17542Y20728D1*
G1X14392Y27145D2*
G1X12437Y27145D1*
G1X13792Y24283D2*
G1X12437Y24283D1*
G1X13792Y24238D2*
G1X12437Y24238D1*
G1X13868Y24765D2*
G1X13868Y29431D1*
G1X14392Y27793D2*
G1X12437Y27793D1*
G1X13940Y24837D2*
G1X13940Y29431D1*
G1X13792Y24148D2*
G1X12437Y24148D1*
G1X14392Y27748D2*
G1X12437Y27748D1*
G1X14201Y17376D2*
G1X14201Y20606D1*
G1X14192Y17376D2*
G1X14192Y20614D1*
G1X14183Y17376D2*
G1X14183Y20623D1*
G1X14174Y17376D2*
G1X14174Y20632D1*
G1X14165Y17376D2*
G1X14165Y20641D1*
G1X14156Y17376D2*
G1X14156Y20650D1*
G1X14147Y17376D2*
G1X14147Y20659D1*
G1X14363Y17376D2*
G1X14363Y20566D1*
G1X14327Y17376D2*
G1X14327Y20566D1*
G1X14093Y17376D2*
G1X14093Y20713D1*
G1X14084Y17376D2*
G1X14084Y20722D1*
G1X14075Y17376D2*
G1X14075Y20731D1*
G1X14066Y17376D2*
G1X14066Y20740D1*
G1X14057Y17376D2*
G1X14057Y20749D1*
G1X14048Y17376D2*
G1X14048Y20758D1*
G1X14039Y17376D2*
G1X14039Y20767D1*
G1X14030Y17376D2*
G1X14030Y20776D1*
G1X14021Y17376D2*
G1X14021Y20785D1*
G1X14012Y17376D2*
G1X14012Y20794D1*
G1X14003Y17376D2*
G1X14003Y20803D1*
G1X13994Y17376D2*
G1X13994Y20812D1*
G1X13985Y17376D2*
G1X13985Y20821D1*
G1X13976Y17376D2*
G1X13976Y20830D1*
G1X13967Y17376D2*
G1X13967Y20839D1*
G1X13793Y21070D2*
G1X12437Y21070D1*
G1X13949Y17376D2*
G1X13949Y20857D1*
G1X18907Y20062D2*
G1X15932Y20062D1*
G1X13931Y17376D2*
G1X13931Y20875D1*
G1X18907Y20053D2*
G1X15932Y20053D1*
G1X13913Y17376D2*
G1X13913Y20893D1*
G1X18907Y20044D2*
G1X15932Y20044D1*
G1X13895Y17376D2*
G1X13895Y20911D1*
G1X18907Y20035D2*
G1X15932Y20035D1*
G1X13877Y17376D2*
G1X13877Y20929D1*
G1X18907Y20026D2*
G1X15932Y20026D1*
G1X13868Y17376D2*
G1X13868Y20938D1*
G1X13859Y17376D2*
G1X13859Y20947D1*
G1X18907Y20089D2*
G1X15932Y20089D1*
G1X14408Y20916D2*
G1X14408Y22621D1*
G1X13841Y17376D2*
G1X13841Y20965D1*
G1X13832Y17376D2*
G1X13832Y20975D1*
G1X13823Y17376D2*
G1X13823Y20987D1*
G1X14104Y20701D2*
G1X12437Y20701D1*
G1X14390Y20916D2*
G1X14390Y22621D1*
G1X16652Y21115D2*
G1X14202Y21115D1*
G1X16652Y21124D2*
G1X14202Y21124D1*
G1X16652Y21133D2*
G1X14202Y21133D1*
G1X16652Y21142D2*
G1X14202Y21142D1*
G1X16652Y21151D2*
G1X14202Y21151D1*
G1X16652Y21160D2*
G1X14202Y21160D1*
G1X16652Y21169D2*
G1X14202Y21169D1*
G1X16652Y21178D2*
G1X14202Y21178D1*
G1X16652Y21187D2*
G1X14202Y21187D1*
G1X16652Y21196D2*
G1X14202Y21196D1*
G1X16652Y21205D2*
G1X14202Y21205D1*
G1X16652Y21214D2*
G1X14202Y21214D1*
G1X16652Y21223D2*
G1X14202Y21223D1*
G1X16652Y21232D2*
G1X14202Y21232D1*
G1X16652Y21241D2*
G1X14202Y21241D1*
G1X16652Y21250D2*
G1X14202Y21250D1*
G1X16652Y21259D2*
G1X14202Y21259D1*
G1X16652Y21268D2*
G1X14202Y21268D1*
G1X16652Y21277D2*
G1X14202Y21277D1*
G1X16652Y21286D2*
G1X14202Y21286D1*
G1X16652Y21295D2*
G1X14202Y21295D1*
G1X16652Y21304D2*
G1X14202Y21304D1*
G1X16406Y20976D2*
G1X16406Y21311D1*
G1X16252Y21313D2*
G1X14202Y21313D1*
G1X16252Y21322D2*
G1X14202Y21322D1*
G1X16252Y21331D2*
G1X14202Y21331D1*
G1X16252Y21340D2*
G1X14202Y21340D1*
G1X16252Y21349D2*
G1X14202Y21349D1*
G1X16252Y21358D2*
G1X14202Y21358D1*
G1X16252Y21367D2*
G1X14202Y21367D1*
G1X16252Y21385D2*
G1X14202Y21385D1*
G1X16252Y21394D2*
G1X14202Y21394D1*
G1X16252Y21403D2*
G1X14202Y21403D1*
G1X16252Y21412D2*
G1X14202Y21412D1*
G1X16252Y21421D2*
G1X14202Y21421D1*
G1X16252Y21430D2*
G1X14202Y21430D1*
G1X16252Y21439D2*
G1X14202Y21439D1*
G1X16252Y21448D2*
G1X14202Y21448D1*
G1X16252Y21457D2*
G1X14202Y21457D1*
G1X16252Y21466D2*
G1X14202Y21466D1*
G1X16252Y21475D2*
G1X14202Y21475D1*
G1X16252Y21484D2*
G1X14202Y21484D1*
G1X16252Y21493D2*
G1X14202Y21493D1*
G1X16252Y21502D2*
G1X14202Y21502D1*
G1X16252Y21511D2*
G1X14202Y21511D1*
G1X13732Y23635D2*
G1X12437Y23635D1*
G1X13732Y21556D2*
G1X12437Y21556D1*
G1X16252Y21547D2*
G1X14202Y21547D1*
G1X13742Y23926D2*
G1X13742Y29431D1*
G1X14192Y22521D2*
G1X14192Y22566D1*
G1X14183Y22521D2*
G1X14183Y22566D1*
G1X14174Y22521D2*
G1X14174Y22566D1*
G1X14165Y22521D2*
G1X14165Y22566D1*
G1X14156Y22521D2*
G1X14156Y22566D1*
G1X14147Y22521D2*
G1X14147Y22566D1*
G1X14138Y22521D2*
G1X14138Y22566D1*
G1X14714Y20916D2*
G1X14714Y22621D1*
G1X14705Y20916D2*
G1X14705Y22621D1*
G1X17333Y17376D2*
G1X17333Y20506D1*
G1X14759Y20916D2*
G1X14759Y22621D1*
G1X14768Y20916D2*
G1X14768Y22621D1*
G1X14777Y20916D2*
G1X14777Y22621D1*
G1X14786Y20916D2*
G1X14786Y22621D1*
G1X14795Y20916D2*
G1X14795Y22621D1*
G1X14804Y20916D2*
G1X14804Y22621D1*
G1X14498Y20916D2*
G1X14498Y22621D1*
G1X14849Y20976D2*
G1X14849Y22621D1*
G1X14273Y17376D2*
G1X14273Y20571D1*
G1X14372Y17376D2*
G1X14372Y20566D1*
G1X14282Y17376D2*
G1X14282Y20569D1*
G1X14390Y17376D2*
G1X14390Y20566D1*
G1X14399Y17376D2*
G1X14399Y20566D1*
G1X14408Y17376D2*
G1X14408Y20566D1*
G1X14417Y17376D2*
G1X14417Y20566D1*
G1X14426Y17376D2*
G1X14426Y20566D1*
G1X14435Y17376D2*
G1X14435Y20566D1*
G1X14444Y17376D2*
G1X14444Y20566D1*
G1X14453Y17376D2*
G1X14453Y20566D1*
G1X14462Y17376D2*
G1X14462Y20566D1*
G1X14471Y17376D2*
G1X14471Y20566D1*
G1X14480Y17376D2*
G1X14480Y20566D1*
G1X14489Y17376D2*
G1X14489Y20566D1*
G1X14291Y17376D2*
G1X14291Y20567D1*
G1X16652Y21106D2*
G1X14194Y21106D1*
G1X16652Y21097D2*
G1X14203Y21097D1*
G1X16652Y21088D2*
G1X14212Y21088D1*
G1X16652Y21079D2*
G1X14221Y21079D1*
G1X16652Y21070D2*
G1X14230Y21070D1*
G1X16652Y21061D2*
G1X14239Y21061D1*
G1X16652Y21052D2*
G1X14248Y21052D1*
G1X16652Y21043D2*
G1X14257Y21043D1*
G1X16652Y21034D2*
G1X14266Y21034D1*
G1X13796Y22521D2*
G1X13796Y22566D1*
G1X16332Y22492D2*
G1X14202Y22492D1*
G1X16312Y22249D2*
G1X14202Y22249D1*
G1X16401Y22573D2*
G1X14202Y22573D1*
G1X16410Y22582D2*
G1X14202Y22582D1*
G1X16419Y22591D2*
G1X14202Y22591D1*
G1X16428Y22600D2*
G1X14202Y22600D1*
G1X16437Y22609D2*
G1X14202Y22609D1*
G1X13292Y22258D2*
G1X12437Y22258D1*
G1X13792Y22537D2*
G1X12437Y22537D1*
G1X13292Y22285D2*
G1X12437Y22285D1*
G1X14516Y17376D2*
G1X14516Y20566D1*
G1X14615Y20916D2*
G1X14615Y22621D1*
G1X14606Y17376D2*
G1X14606Y20566D1*
G1X13732Y23365D2*
G1X12437Y23365D1*
G1X13787Y17376D2*
G1X13787Y21106D1*
G1X13292Y22465D2*
G1X12437Y22465D1*
G1X14480Y20916D2*
G1X14480Y22621D1*
G1X13732Y22573D2*
G1X12437Y22573D1*
G1X13732Y22609D2*
G1X12437Y22609D1*
G1X13732Y22618D2*
G1X12437Y22618D1*
G1X13732Y22699D2*
G1X12437Y22699D1*
G1X15290Y20976D2*
G1X15290Y22621D1*
G1X13732Y22753D2*
G1X12437Y22753D1*
G1X14023Y20782D2*
G1X12437Y20782D1*
G1X13732Y22798D2*
G1X12437Y22798D1*
G1X13732Y22834D2*
G1X12437Y22834D1*
G1X13732Y22870D2*
G1X12437Y22870D1*
G1X13732Y22906D2*
G1X12437Y22906D1*
G1X13732Y22924D2*
G1X12437Y22924D1*
G1X13732Y23356D2*
G1X12437Y23356D1*
G1X13732Y22816D2*
G1X12437Y22816D1*
G1X13732Y22681D2*
G1X12437Y22681D1*
G1X16252Y21538D2*
G1X14202Y21538D1*
G1X13732Y22582D2*
G1X12437Y22582D1*
G1X13732Y22591D2*
G1X12437Y22591D1*
G1X13732Y23167D2*
G1X12437Y23167D1*
G1X13732Y23176D2*
G1X12437Y23176D1*
G1X13732Y23563D2*
G1X12437Y23563D1*
G1X18907Y19936D2*
G1X15932Y19936D1*
G1X18907Y19927D2*
G1X15932Y19927D1*
G1X14219Y24976D2*
G1X14219Y29431D1*
G1X14210Y24976D2*
G1X14210Y29431D1*
G1X14210Y17376D2*
G1X14210Y20599D1*
G1X14219Y17376D2*
G1X14219Y20593D1*
G1X14228Y17376D2*
G1X14228Y20588D1*
G1X14237Y17376D2*
G1X14237Y20583D1*
G1X14246Y17376D2*
G1X14246Y20579D1*
G1X13732Y22996D2*
G1X12437Y22996D1*
G1X13732Y23194D2*
G1X12437Y23194D1*
G1X13732Y23203D2*
G1X12437Y23203D1*
G1X14489Y20916D2*
G1X14489Y22621D1*
G1X13751Y23926D2*
G1X13751Y29431D1*
G1X13732Y23446D2*
G1X12437Y23446D1*
G1X13787Y23926D2*
G1X13787Y29431D1*
G1X13832Y24728D2*
G1X13832Y29431D1*
G1X15524Y20976D2*
G1X15524Y22621D1*
G1X13732Y22663D2*
G1X12437Y22663D1*
G1X13732Y22771D2*
G1X12437Y22771D1*
G1X15416Y20976D2*
G1X15416Y22621D1*
G1X15398Y20976D2*
G1X15398Y22621D1*
G1X15380Y20976D2*
G1X15380Y22621D1*
G1X15668Y20976D2*
G1X15668Y22621D1*
G1X15515Y20976D2*
G1X15515Y22621D1*
G1X14282Y21019D2*
G1X14282Y22621D1*
G1X15434Y20976D2*
G1X15434Y22621D1*
G1X14009Y24895D2*
G1X12437Y24895D1*
G1X13732Y22521D2*
G1X13292Y22521D1*
G1X18907Y19900D2*
G1X15932Y19900D1*
G1X14048Y24976D2*
G1X14048Y29431D1*
G1X14084Y24976D2*
G1X14084Y29431D1*
G1X14165Y24976D2*
G1X14165Y29431D1*
G1X14201Y24976D2*
G1X14201Y29431D1*
G1X13732Y23518D2*
G1X12437Y23518D1*
G1X14037Y24931D2*
G1X12437Y24931D1*
G1X13792Y24265D2*
G1X12437Y24265D1*
G1X14381Y24976D2*
G1X14381Y29431D1*
G1X14372Y24976D2*
G1X14372Y29431D1*
G1X14363Y24976D2*
G1X14363Y29431D1*
G1X14354Y24976D2*
G1X14354Y29431D1*
G1X14345Y24976D2*
G1X14345Y29431D1*
G1X14336Y24976D2*
G1X14336Y29431D1*
G1X14327Y24976D2*
G1X14327Y29431D1*
G1X14318Y24976D2*
G1X14318Y29431D1*
G1X14309Y24976D2*
G1X14309Y29431D1*
G1X14300Y24976D2*
G1X14300Y29431D1*
G1X14291Y24976D2*
G1X14291Y29431D1*
G1X14273Y24976D2*
G1X14273Y29431D1*
G1X14264Y24976D2*
G1X14264Y29431D1*
G1X14255Y24976D2*
G1X14255Y29431D1*
G1X14246Y24976D2*
G1X14246Y29431D1*
G1X14237Y24976D2*
G1X14237Y29431D1*
G1X13732Y23617D2*
G1X12437Y23617D1*
G1X14066Y24976D2*
G1X14066Y29431D1*
G1X14392Y26668D2*
G1X12437Y26668D1*
G1X13792Y24058D2*
G1X12437Y24058D1*
G1X13792Y24049D2*
G1X12437Y24049D1*
G1X13792Y24625D2*
G1X12437Y24625D1*
G1X13793Y24634D2*
G1X12437Y24634D1*
G1X14561Y20916D2*
G1X14561Y22621D1*
G1X14570Y20916D2*
G1X14570Y22621D1*
G1X15983Y20976D2*
G1X15983Y22621D1*
G1X14678Y20916D2*
G1X14678Y22621D1*
G1X18907Y20359D2*
G1X15932Y20359D1*
G1X18907Y20350D2*
G1X15932Y20350D1*
G1X18907Y20341D2*
G1X15932Y20341D1*
G1X18907Y20332D2*
G1X15932Y20332D1*
G1X18907Y20323D2*
G1X15932Y20323D1*
G1X18907Y19351D2*
G1X15932Y19351D1*
G1X18907Y19324D2*
G1X15932Y19324D1*
G1X16370Y22542D2*
G1X16370Y22621D1*
G1X18512Y17376D2*
G1X18512Y22621D1*
G1X18503Y17376D2*
G1X18503Y22621D1*
G1X18907Y22204D2*
G1X17892Y22204D1*
G1X18907Y22213D2*
G1X17892Y22213D1*
G1X18907Y20692D2*
G1X17542Y20692D1*
G1X18773Y17376D2*
G1X18773Y22621D1*
G1X15884Y20976D2*
G1X15884Y22621D1*
G1X18907Y20197D2*
G1X15932Y20197D1*
G1X16312Y22078D2*
G1X14202Y22078D1*
G1X13732Y21430D2*
G1X12437Y21430D1*
G1X13732Y21448D2*
G1X12437Y21448D1*
G1X16312Y21835D2*
G1X14202Y21835D1*
G1X16252Y21637D2*
G1X14202Y21637D1*
G1X16252Y21646D2*
G1X14202Y21646D1*
G1X16252Y21655D2*
G1X14202Y21655D1*
G1X16252Y21664D2*
G1X14202Y21664D1*
G1X16252Y21673D2*
G1X14202Y21673D1*
G1X16252Y21682D2*
G1X14202Y21682D1*
G1X16252Y21691D2*
G1X14202Y21691D1*
G1X16252Y21700D2*
G1X14202Y21700D1*
G1X16252Y21709D2*
G1X14202Y21709D1*
G1X16252Y21718D2*
G1X14202Y21718D1*
G1X16252Y21727D2*
G1X14202Y21727D1*
G1X16252Y21736D2*
G1X14202Y21736D1*
G1X16252Y21745D2*
G1X14202Y21745D1*
G1X16252Y21754D2*
G1X14202Y21754D1*
G1X16312Y22060D2*
G1X14202Y22060D1*
G1X16312Y22069D2*
G1X14202Y22069D1*
G1X16312Y21799D2*
G1X14202Y21799D1*
G1X13732Y23392D2*
G1X12437Y23392D1*
G1X15479Y20976D2*
G1X15479Y22621D1*
G1X13762Y21631D2*
G1X13732Y21631D1*
G1X16312Y21826D2*
G1X14202Y21826D1*
G1X16252Y21781D2*
G1X14202Y21781D1*
G1X16312Y21844D2*
G1X14202Y21844D1*
G1X16312Y21853D2*
G1X14202Y21853D1*
G1X16312Y21862D2*
G1X14202Y21862D1*
G1X16312Y21871D2*
G1X14202Y21871D1*
G1X16312Y21880D2*
G1X14202Y21880D1*
G1X16312Y21889D2*
G1X14202Y21889D1*
G1X16312Y21898D2*
G1X14202Y21898D1*
G1X16312Y21907D2*
G1X14202Y21907D1*
G1X16312Y21916D2*
G1X14202Y21916D1*
G1X16312Y21925D2*
G1X14202Y21925D1*
G1X16312Y21934D2*
G1X14202Y21934D1*
G1X16312Y21943D2*
G1X14202Y21943D1*
G1X16312Y21952D2*
G1X14202Y21952D1*
G1X16312Y21961D2*
G1X14202Y21961D1*
G1X16312Y21970D2*
G1X14202Y21970D1*
G1X16312Y21979D2*
G1X14202Y21979D1*
G1X16312Y21988D2*
G1X14202Y21988D1*
G1X16312Y21997D2*
G1X14202Y21997D1*
G1X16312Y22006D2*
G1X14202Y22006D1*
G1X16312Y22015D2*
G1X14202Y22015D1*
G1X16312Y22024D2*
G1X14202Y22024D1*
G1X13762Y22521D2*
G1X13732Y22521D1*
G1X13760Y22521D2*
G1X13760Y22566D1*
G1X13787Y21576D2*
G1X13787Y21631D1*
G1X13732Y21286D2*
G1X12437Y21286D1*
G1X13733Y17376D2*
G1X13733Y21631D1*
G1X13724Y17376D2*
G1X13724Y21631D1*
G1X13715Y17376D2*
G1X13715Y21631D1*
G1X13706Y17376D2*
G1X13706Y21631D1*
G1X13697Y17376D2*
G1X13697Y21631D1*
G1X13688Y17376D2*
G1X13688Y21631D1*
G1X13679Y17376D2*
G1X13679Y21631D1*
G1X13670Y17376D2*
G1X13670Y21631D1*
G1X13661Y17376D2*
G1X13661Y21631D1*
G1X13652Y17376D2*
G1X13652Y21631D1*
G1X13643Y17376D2*
G1X13643Y21631D1*
G1X13634Y17376D2*
G1X13634Y21631D1*
G1X13625Y17376D2*
G1X13625Y21631D1*
G1X13616Y17376D2*
G1X13616Y21631D1*
G1X13607Y17376D2*
G1X13607Y21631D1*
G1X13598Y17376D2*
G1X13598Y21631D1*
G1X13589Y17376D2*
G1X13589Y21631D1*
G1X13580Y17376D2*
G1X13580Y21631D1*
G1X13571Y17376D2*
G1X13571Y21631D1*
G1X13562Y17376D2*
G1X13562Y21631D1*
G1X13553Y17376D2*
G1X13553Y21631D1*
G1X13544Y17376D2*
G1X13544Y21631D1*
G1X13535Y17376D2*
G1X13535Y21631D1*
G1X13526Y17376D2*
G1X13526Y21631D1*
G1X13517Y17376D2*
G1X13517Y21631D1*
G1X13508Y17376D2*
G1X13508Y21631D1*
G1X13499Y17376D2*
G1X13499Y21631D1*
G1X13490Y17376D2*
G1X13490Y21631D1*
G1X13481Y17376D2*
G1X13481Y21631D1*
G1X13472Y17376D2*
G1X13472Y21631D1*
G1X13463Y17376D2*
G1X13463Y21631D1*
G1X13454Y17376D2*
G1X13454Y21631D1*
G1X13445Y17376D2*
G1X13445Y21631D1*
G1X13436Y17376D2*
G1X13436Y21631D1*
G1X13427Y17376D2*
G1X13427Y21631D1*
G1X13418Y17376D2*
G1X13418Y21631D1*
G1X13409Y17376D2*
G1X13409Y21631D1*
G1X13400Y17376D2*
G1X13400Y21631D1*
G1X13391Y17376D2*
G1X13391Y21631D1*
G1X13382Y17376D2*
G1X13382Y21631D1*
G1X13373Y17376D2*
G1X13373Y21631D1*
G1X13364Y17376D2*
G1X13364Y21631D1*
G1X13355Y17376D2*
G1X13355Y21631D1*
G1X13301Y17376D2*
G1X13301Y21631D1*
G1X13292Y22060D2*
G1X12437Y22060D1*
G1X13292Y22069D2*
G1X12437Y22069D1*
G1X16312Y21808D2*
G1X14202Y21808D1*
G1X16312Y22042D2*
G1X14202Y22042D1*
G1X16312Y22096D2*
G1X14202Y22096D1*
G1X16312Y22105D2*
G1X14202Y22105D1*
G1X16312Y22114D2*
G1X14202Y22114D1*
G1X16312Y22123D2*
G1X14202Y22123D1*
G1X16312Y22132D2*
G1X14202Y22132D1*
G1X16312Y22141D2*
G1X14202Y22141D1*
G1X16312Y22150D2*
G1X14202Y22150D1*
G1X16312Y22159D2*
G1X14202Y22159D1*
G1X16312Y22168D2*
G1X14202Y22168D1*
G1X16312Y22177D2*
G1X14202Y22177D1*
G1X16312Y22051D2*
G1X14202Y22051D1*
G1X16312Y22195D2*
G1X14202Y22195D1*
G1X16343Y22510D2*
G1X14202Y22510D1*
G1X16312Y22213D2*
G1X14202Y22213D1*
G1X18907Y18793D2*
G1X15982Y18793D1*
G1X18907Y19891D2*
G1X15932Y19891D1*
G1X14037Y24967D2*
G1X12437Y24967D1*
G1X18907Y22411D2*
G1X17892Y22411D1*
G1X18907Y20674D2*
G1X17542Y20674D1*
G1X16252Y21628D2*
G1X14142Y21628D1*
G1X18907Y19288D2*
G1X15932Y19288D1*
G1X18907Y19828D2*
G1X15932Y19828D1*
G1X18746Y17376D2*
G1X18746Y22621D1*
G1X17288Y17376D2*
G1X17288Y20506D1*
G1X13792Y24085D2*
G1X12437Y24085D1*
G1X18593Y17376D2*
G1X18593Y22621D1*
G1X18548Y17376D2*
G1X18548Y22621D1*
G1X18485Y17376D2*
G1X18485Y22621D1*
G1X14392Y26623D2*
G1X12437Y26623D1*
G1X13863Y24760D2*
G1X12437Y24760D1*
G1X13881Y24778D2*
G1X12437Y24778D1*
G1X13890Y24787D2*
G1X12437Y24787D1*
G1X14392Y26209D2*
G1X12437Y26209D1*
G1X14392Y26776D2*
G1X12437Y26776D1*
G1X14392Y26785D2*
G1X12437Y26785D1*
G1X14392Y26803D2*
G1X12437Y26803D1*
G1X14392Y26812D2*
G1X12437Y26812D1*
G1X14392Y26821D2*
G1X12437Y26821D1*
G1X14392Y26830D2*
G1X12437Y26830D1*
G1X14392Y26839D2*
G1X12437Y26839D1*
G1X14392Y26848D2*
G1X12437Y26848D1*
G1X14392Y26857D2*
G1X12437Y26857D1*
G1X14392Y26866D2*
G1X12437Y26866D1*
G1X14392Y26875D2*
G1X12437Y26875D1*
G1X14392Y26884D2*
G1X12437Y26884D1*
G1X14392Y26920D2*
G1X12437Y26920D1*
G1X14392Y27271D2*
G1X12437Y27271D1*
G1X14392Y27280D2*
G1X12437Y27280D1*
G1X14392Y26587D2*
G1X12437Y26587D1*
G1X14392Y27829D2*
G1X12437Y27829D1*
G1X17549Y17376D2*
G1X17549Y21311D1*
G1X13732Y23293D2*
G1X12437Y23293D1*
G1X13732Y23320D2*
G1X12437Y23320D1*
G1X13732Y23329D2*
G1X12437Y23329D1*
G1X13732Y23338D2*
G1X12437Y23338D1*
G1X15443Y20976D2*
G1X15443Y22621D1*
G1X15497Y20976D2*
G1X15497Y22621D1*
G1X15488Y20976D2*
G1X15488Y22621D1*
G1X14202Y22101D2*
G1X14202Y22521D1*
G1X13732Y21631D2*
G1X13292Y21631D1*
G1X13732Y23401D2*
G1X12437Y23401D1*
G1X14192Y21576D2*
G1X14192Y21631D1*
G1X14183Y21576D2*
G1X14183Y21631D1*
G1X14174Y21576D2*
G1X14174Y21631D1*
G1X14165Y21576D2*
G1X14165Y21631D1*
G1X14156Y21576D2*
G1X14156Y21631D1*
G1X14147Y21576D2*
G1X14147Y21631D1*
G1X14138Y21576D2*
G1X14138Y21631D1*
G1X16374Y22546D2*
G1X14142Y22546D1*
G1X16357Y22528D2*
G1X14142Y22528D1*
G1X16349Y22519D2*
G1X14142Y22519D1*
G1X16312Y22339D2*
G1X14202Y22339D1*
G1X16312Y22330D2*
G1X14202Y22330D1*
G1X13292Y22294D2*
G1X12437Y22294D1*
G1X14202Y22566D2*
G1X14142Y22566D1*
G1X14202Y22521D2*
G1X14142Y22521D1*
G1X16652Y21007D2*
G1X14293Y21007D1*
G1X16652Y20998D2*
G1X14302Y20998D1*
G1X16652Y20989D2*
G1X14311Y20989D1*
G1X16652Y20980D2*
G1X14320Y20980D1*
G1X16652Y20971D2*
G1X14329Y20971D1*
G1X14802Y20962D2*
G1X14338Y20962D1*
G1X14802Y20953D2*
G1X14347Y20953D1*
G1X14802Y20944D2*
G1X14356Y20944D1*
G1X14802Y20935D2*
G1X14365Y20935D1*
G1X14802Y20926D2*
G1X14374Y20926D1*
G1X14802Y20917D2*
G1X14383Y20917D1*
G1X13906Y20899D2*
G1X12437Y20899D1*
G1X14202Y21106D2*
G1X14194Y21106D1*
G1X18907Y19981D2*
G1X15932Y19981D1*
G1X13792Y24013D2*
G1X12437Y24013D1*
G1X13732Y23653D2*
G1X12437Y23653D1*
G1X13732Y23662D2*
G1X12437Y23662D1*
G1X13732Y23671D2*
G1X12437Y23671D1*
G1X13732Y23680D2*
G1X12437Y23680D1*
G1X13732Y23689D2*
G1X12437Y23689D1*
G1X13732Y23698D2*
G1X12437Y23698D1*
G1X13732Y23707D2*
G1X12437Y23707D1*
G1X13732Y23716D2*
G1X12437Y23716D1*
G1X13732Y23725D2*
G1X12437Y23725D1*
G1X13732Y23734D2*
G1X12437Y23734D1*
G1X13732Y23743D2*
G1X12437Y23743D1*
G1X13732Y23752D2*
G1X12437Y23752D1*
G1X13732Y23761D2*
G1X12437Y23761D1*
G1X13732Y23770D2*
G1X12437Y23770D1*
G1X13732Y23779D2*
G1X12437Y23779D1*
G1X13732Y23788D2*
G1X12437Y23788D1*
G1X13732Y23797D2*
G1X12437Y23797D1*
G1X13732Y23806D2*
G1X12437Y23806D1*
G1X13732Y23815D2*
G1X12437Y23815D1*
G1X13732Y23824D2*
G1X12437Y23824D1*
G1X13732Y23833D2*
G1X12437Y23833D1*
G1X13732Y23842D2*
G1X12437Y23842D1*
G1X13732Y23851D2*
G1X12437Y23851D1*
G1X13732Y23860D2*
G1X12437Y23860D1*
G1X13732Y23869D2*
G1X12437Y23869D1*
G1X13732Y23878D2*
G1X12437Y23878D1*
G1X13732Y23887D2*
G1X12437Y23887D1*
G1X13732Y23896D2*
G1X12437Y23896D1*
G1X13732Y23905D2*
G1X12437Y23905D1*
G1X13732Y23914D2*
G1X12437Y23914D1*
G1X13732Y23509D2*
G1X12437Y23509D1*
G1X13792Y24490D2*
G1X12437Y24490D1*
G1X13792Y24229D2*
G1X12437Y24229D1*
G1X13922Y24819D2*
G1X13922Y29431D1*
G1X18907Y19963D2*
G1X15932Y19963D1*
G1X14037Y24940D2*
G1X12437Y24940D1*
G1X14102Y24976D2*
G1X14037Y24976D1*
G1X12437Y24976D1*
G1X13732Y23608D2*
G1X12437Y23608D1*
G1X13949Y24846D2*
G1X13949Y29431D1*
G1X13792Y24121D2*
G1X12437Y24121D1*
G1X14392Y26893D2*
G1X12437Y26893D1*
G1X17952Y21311D2*
G1X17542Y21311D1*
G1X18907Y20413D2*
G1X15932Y20413D1*
G1X18907Y20422D2*
G1X15932Y20422D1*
G1X18907Y20431D2*
G1X15932Y20431D1*
G1X17378Y17376D2*
G1X17378Y20506D1*
G1X17864Y22516D2*
G1X17864Y22621D1*
G1X17855Y22529D2*
G1X17855Y22621D1*
G1X17846Y22539D2*
G1X17846Y22621D1*
G1X17837Y22549D2*
G1X17837Y22621D1*
G1X17828Y22558D2*
G1X17828Y22621D1*
G1X17819Y22567D2*
G1X17819Y22621D1*
G1X18907Y19477D2*
G1X15932Y19477D1*
G1X18907Y19765D2*
G1X15932Y19765D1*
G1X18907Y19648D2*
G1X15932Y19648D1*
G1X13915Y20890D2*
G1X12437Y20890D1*
G1X18907Y19639D2*
G1X15932Y19639D1*
G1X14120Y17376D2*
G1X14120Y20686D1*
G1X13732Y23131D2*
G1X12437Y23131D1*
G1X18377Y17376D2*
G1X18377Y22621D1*
G1X18907Y19342D2*
G1X15932Y19342D1*
G1X18827Y17376D2*
G1X18827Y22621D1*
G1X18907Y17376D2*
G1X15982Y17376D1*
G1X18907Y19873D2*
G1X15932Y19873D1*
G1X18907Y17389D2*
G1X15982Y17389D1*
G1X18907Y17398D2*
G1X15982Y17398D1*
G1X18907Y17407D2*
G1X15982Y17407D1*
G1X18907Y17416D2*
G1X15982Y17416D1*
G1X18907Y17425D2*
G1X15982Y17425D1*
G1X18907Y17434D2*
G1X15982Y17434D1*
G1X18907Y17443D2*
G1X15982Y17443D1*
G1X18907Y17452D2*
G1X15982Y17452D1*
G1X18907Y17461D2*
G1X15982Y17461D1*
G1X18907Y17470D2*
G1X15982Y17470D1*
G1X18907Y17479D2*
G1X15982Y17479D1*
G1X18907Y17488D2*
G1X15982Y17488D1*
G1X18907Y17497D2*
G1X15982Y17497D1*
G1X18907Y17506D2*
G1X15982Y17506D1*
G1X18907Y17515D2*
G1X15982Y17515D1*
G1X18907Y17524D2*
G1X15982Y17524D1*
G1X18907Y17533D2*
G1X15982Y17533D1*
G1X18907Y17542D2*
G1X15982Y17542D1*
G1X18907Y17551D2*
G1X15982Y17551D1*
G1X18907Y17560D2*
G1X15982Y17560D1*
G1X18907Y17569D2*
G1X15982Y17569D1*
G1X18907Y17578D2*
G1X15982Y17578D1*
G1X18907Y17587D2*
G1X15982Y17587D1*
G1X18907Y17596D2*
G1X15982Y17596D1*
G1X18907Y17605D2*
G1X15982Y17605D1*
G1X18907Y17614D2*
G1X15982Y17614D1*
G1X18907Y17623D2*
G1X15982Y17623D1*
G1X18907Y17632D2*
G1X15982Y17632D1*
G1X18907Y17641D2*
G1X15982Y17641D1*
G1X18907Y17650D2*
G1X15982Y17650D1*
G1X18907Y17659D2*
G1X15982Y17659D1*
G1X18907Y17668D2*
G1X15982Y17668D1*
G1X18907Y17677D2*
G1X15982Y17677D1*
G1X18907Y17686D2*
G1X15982Y17686D1*
G1X18907Y17695D2*
G1X15982Y17695D1*
G1X18907Y17704D2*
G1X15982Y17704D1*
G1X18907Y17713D2*
G1X15982Y17713D1*
G1X18907Y17722D2*
G1X15982Y17722D1*
G1X18907Y17731D2*
G1X15982Y17731D1*
G1X18907Y17740D2*
G1X15982Y17740D1*
G1X18907Y17749D2*
G1X15982Y17749D1*
G1X18907Y17758D2*
G1X15982Y17758D1*
G1X18907Y17767D2*
G1X15982Y17767D1*
G1X18907Y17776D2*
G1X15982Y17776D1*
G1X18907Y17785D2*
G1X15982Y17785D1*
G1X18907Y17794D2*
G1X15982Y17794D1*
G1X18907Y17803D2*
G1X15982Y17803D1*
G1X18907Y17812D2*
G1X15982Y17812D1*
G1X18907Y17821D2*
G1X15982Y17821D1*
G1X18907Y17830D2*
G1X15982Y17830D1*
G1X18907Y17839D2*
G1X15982Y17839D1*
G1X18907Y17848D2*
G1X15982Y17848D1*
G1X18907Y17857D2*
G1X15982Y17857D1*
G1X18907Y17866D2*
G1X15982Y17866D1*
G1X18907Y17875D2*
G1X15982Y17875D1*
G1X18907Y17884D2*
G1X15982Y17884D1*
G1X18907Y17893D2*
G1X15982Y17893D1*
G1X18907Y17902D2*
G1X15982Y17902D1*
G1X18907Y17911D2*
G1X15982Y17911D1*
G1X18907Y17920D2*
G1X15982Y17920D1*
G1X18907Y17929D2*
G1X15982Y17929D1*
G1X18907Y17938D2*
G1X15982Y17938D1*
G1X18907Y17947D2*
G1X15982Y17947D1*
G1X18907Y17956D2*
G1X15982Y17956D1*
G1X18907Y17965D2*
G1X15982Y17965D1*
G1X18907Y17974D2*
G1X15982Y17974D1*
G1X18907Y17983D2*
G1X15982Y17983D1*
G1X18907Y17992D2*
G1X15982Y17992D1*
G1X18907Y18001D2*
G1X15982Y18001D1*
G1X18907Y18010D2*
G1X15982Y18010D1*
G1X18907Y18019D2*
G1X15982Y18019D1*
G1X18907Y18028D2*
G1X15982Y18028D1*
G1X18907Y18037D2*
G1X15982Y18037D1*
G1X18907Y18046D2*
G1X15982Y18046D1*
G1X18907Y18055D2*
G1X15982Y18055D1*
G1X18907Y18064D2*
G1X15982Y18064D1*
G1X18907Y18073D2*
G1X15982Y18073D1*
G1X18907Y18082D2*
G1X15982Y18082D1*
G1X18907Y18091D2*
G1X15982Y18091D1*
G1X18907Y18100D2*
G1X15982Y18100D1*
G1X18907Y18109D2*
G1X15982Y18109D1*
G1X18907Y18118D2*
G1X15982Y18118D1*
G1X18907Y18127D2*
G1X15982Y18127D1*
G1X18907Y18136D2*
G1X15982Y18136D1*
G1X18907Y18145D2*
G1X15982Y18145D1*
G1X18907Y18154D2*
G1X15982Y18154D1*
G1X18907Y18163D2*
G1X15982Y18163D1*
G1X18907Y18172D2*
G1X15982Y18172D1*
G1X18907Y18181D2*
G1X15982Y18181D1*
G1X18907Y18190D2*
G1X15982Y18190D1*
G1X18907Y18199D2*
G1X15982Y18199D1*
G1X18907Y18208D2*
G1X15982Y18208D1*
G1X18907Y18217D2*
G1X15982Y18217D1*
G1X18907Y18226D2*
G1X15982Y18226D1*
G1X18907Y18235D2*
G1X15982Y18235D1*
G1X18907Y18244D2*
G1X15982Y18244D1*
G1X18907Y18253D2*
G1X15982Y18253D1*
G1X18907Y18262D2*
G1X15982Y18262D1*
G1X18907Y18271D2*
G1X15982Y18271D1*
G1X18907Y18280D2*
G1X15982Y18280D1*
G1X18907Y18289D2*
G1X15982Y18289D1*
G1X18907Y18298D2*
G1X15982Y18298D1*
G1X18907Y18307D2*
G1X15982Y18307D1*
G1X18907Y18316D2*
G1X15982Y18316D1*
G1X18907Y18325D2*
G1X15982Y18325D1*
G1X18907Y18334D2*
G1X15982Y18334D1*
G1X18907Y18343D2*
G1X15982Y18343D1*
G1X18907Y18352D2*
G1X15982Y18352D1*
G1X18907Y18361D2*
G1X15982Y18361D1*
G1X18907Y18370D2*
G1X15982Y18370D1*
G1X18907Y18379D2*
G1X15982Y18379D1*
G1X18907Y18388D2*
G1X15982Y18388D1*
G1X18907Y18397D2*
G1X15982Y18397D1*
G1X18907Y18406D2*
G1X15982Y18406D1*
G1X18907Y18415D2*
G1X15982Y18415D1*
G1X18907Y18424D2*
G1X15982Y18424D1*
G1X18907Y18433D2*
G1X15982Y18433D1*
G1X18907Y18442D2*
G1X15982Y18442D1*
G1X18907Y18451D2*
G1X15982Y18451D1*
G1X18907Y18460D2*
G1X15982Y18460D1*
G1X18907Y18469D2*
G1X15982Y18469D1*
G1X18907Y18478D2*
G1X15982Y18478D1*
G1X18907Y18487D2*
G1X15982Y18487D1*
G1X18907Y18496D2*
G1X15982Y18496D1*
G1X18907Y18505D2*
G1X15982Y18505D1*
G1X18907Y18514D2*
G1X15982Y18514D1*
G1X18907Y18523D2*
G1X15982Y18523D1*
G1X18907Y18532D2*
G1X15982Y18532D1*
G1X18907Y18541D2*
G1X15982Y18541D1*
G1X18907Y18550D2*
G1X15982Y18550D1*
G1X18907Y18559D2*
G1X15982Y18559D1*
G1X18907Y18568D2*
G1X15982Y18568D1*
G1X18907Y18577D2*
G1X15982Y18577D1*
G1X18907Y18586D2*
G1X15982Y18586D1*
G1X18907Y18595D2*
G1X15982Y18595D1*
G1X18907Y18604D2*
G1X15982Y18604D1*
G1X18907Y18613D2*
G1X15982Y18613D1*
G1X18907Y18622D2*
G1X15982Y18622D1*
G1X18907Y18631D2*
G1X15982Y18631D1*
G1X18907Y18640D2*
G1X15982Y18640D1*
G1X18907Y18649D2*
G1X15982Y18649D1*
G1X18907Y18658D2*
G1X15982Y18658D1*
G1X18907Y18667D2*
G1X15982Y18667D1*
G1X18907Y18676D2*
G1X15982Y18676D1*
G1X18907Y18685D2*
G1X15982Y18685D1*
G1X18907Y18694D2*
G1X15982Y18694D1*
G1X18907Y18703D2*
G1X15982Y18703D1*
G1X18907Y18712D2*
G1X15982Y18712D1*
G1X18907Y18721D2*
G1X15982Y18721D1*
G1X18907Y18730D2*
G1X15982Y18730D1*
G1X18907Y18739D2*
G1X15982Y18739D1*
G1X18907Y18748D2*
G1X15982Y18748D1*
G1X18907Y18757D2*
G1X15982Y18757D1*
G1X18907Y18766D2*
G1X15982Y18766D1*
G1X18907Y18775D2*
G1X15982Y18775D1*
G1X18907Y18784D2*
G1X15982Y18784D1*
G1X15983Y17376D2*
G1X15983Y20506D1*
G1X18907Y18802D2*
G1X15982Y18802D1*
G1X18907Y18811D2*
G1X15982Y18811D1*
G1X18907Y18820D2*
G1X15982Y18820D1*
G1X18907Y18829D2*
G1X15982Y18829D1*
G1X18907Y18838D2*
G1X15982Y18838D1*
G1X18907Y18847D2*
G1X15982Y18847D1*
G1X18907Y18856D2*
G1X15982Y18856D1*
G1X18907Y18865D2*
G1X15982Y18865D1*
G1X18907Y18874D2*
G1X15982Y18874D1*
G1X18907Y18883D2*
G1X15982Y18883D1*
G1X18907Y18892D2*
G1X15982Y18892D1*
G1X18907Y18901D2*
G1X15982Y18901D1*
G1X18907Y18910D2*
G1X15982Y18910D1*
G1X18907Y18919D2*
G1X15982Y18919D1*
G1X18907Y18928D2*
G1X15982Y18928D1*
G1X18907Y18937D2*
G1X15982Y18937D1*
G1X18907Y18946D2*
G1X15982Y18946D1*
G1X18907Y18955D2*
G1X15982Y18955D1*
G1X18907Y18964D2*
G1X15982Y18964D1*
G1X18907Y18973D2*
G1X15982Y18973D1*
G1X18907Y18982D2*
G1X15982Y18982D1*
G1X18907Y18991D2*
G1X15982Y18991D1*
G1X18907Y19000D2*
G1X15982Y19000D1*
G1X18907Y19009D2*
G1X15982Y19009D1*
G1X18907Y19018D2*
G1X15982Y19018D1*
G1X18907Y19027D2*
G1X15982Y19027D1*
G1X16199Y17376D2*
G1X16199Y20506D1*
G1X13792Y24040D2*
G1X12437Y24040D1*
G1X14930Y20976D2*
G1X14930Y22621D1*
G1X16856Y17376D2*
G1X16856Y20506D1*
G1X16865Y17376D2*
G1X16865Y20506D1*
G1X16874Y17376D2*
G1X16874Y20506D1*
G1X16883Y17376D2*
G1X16883Y20506D1*
G1X15785Y20976D2*
G1X15785Y22621D1*
G1X18907Y20890D2*
G1X17542Y20890D1*
G1X16613Y17376D2*
G1X16613Y20516D1*
G1X18907Y20881D2*
G1X17542Y20881D1*
G1X18907Y20665D2*
G1X17542Y20665D1*
G1X18907Y22249D2*
G1X17892Y22249D1*
G1X18907Y20656D2*
G1X17542Y20656D1*
G1X18907Y20584D2*
G1X17542Y20584D1*
G1X18907Y19117D2*
G1X15932Y19117D1*
G1X18907Y20593D2*
G1X17542Y20593D1*
G1X16163Y20976D2*
G1X16163Y22621D1*
G1X16127Y20976D2*
G1X16127Y22621D1*
G1X13792Y24355D2*
G1X12437Y24355D1*
G1X15982Y19071D2*
G1X15932Y19071D1*
G1X15704Y20966D2*
G1X15704Y22621D1*
G1X18907Y19072D2*
G1X15932Y19072D1*
G1X18907Y19081D2*
G1X15932Y19081D1*
G1X18907Y19090D2*
G1X15932Y19090D1*
G1X18907Y19099D2*
G1X15932Y19099D1*
G1X18907Y19108D2*
G1X15932Y19108D1*
G1X16298Y21781D2*
G1X16298Y22621D1*
G1X17090Y17376D2*
G1X17090Y20506D1*
G1X13792Y21088D2*
G1X12437Y21088D1*
G1X14300Y21001D2*
G1X14300Y22621D1*
G1X16361Y22533D2*
G1X16361Y22621D1*
G1X13732Y23212D2*
G1X12437Y23212D1*
G1X13732Y23221D2*
G1X12437Y23221D1*
G1X13732Y23230D2*
G1X12437Y23230D1*
G1X13732Y23239D2*
G1X12437Y23239D1*
G1X14462Y20916D2*
G1X14462Y22621D1*
G1X14453Y20916D2*
G1X14453Y22621D1*
G1X13732Y23248D2*
G1X12437Y23248D1*
G1X14111Y17376D2*
G1X14111Y20695D1*
G1X13850Y17376D2*
G1X13850Y20956D1*
G1X14417Y20916D2*
G1X14417Y22621D1*
G1X13792Y21097D2*
G1X12437Y21097D1*
G1X15281Y20976D2*
G1X15281Y22621D1*
G1X14129Y17376D2*
G1X14129Y20677D1*
G1X14912Y20976D2*
G1X14912Y22621D1*
G1X14903Y20976D2*
G1X14903Y22621D1*
G1X14894Y20976D2*
G1X14894Y22621D1*
G1X14885Y20976D2*
G1X14885Y22621D1*
G1X14876Y20976D2*
G1X14876Y22621D1*
G1X14867Y20976D2*
G1X14867Y22621D1*
G1X14858Y20976D2*
G1X14858Y22621D1*
G1X13732Y23140D2*
G1X12437Y23140D1*
G1X14498Y17376D2*
G1X14498Y20566D1*
G1X14840Y20976D2*
G1X14840Y22621D1*
G1X14831Y20976D2*
G1X14831Y22621D1*
G1X14822Y20976D2*
G1X14822Y22621D1*
G1X14813Y20976D2*
G1X14813Y22621D1*
G1X14804Y17376D2*
G1X14804Y20566D1*
G1X14795Y17376D2*
G1X14795Y20566D1*
G1X14786Y17376D2*
G1X14786Y20566D1*
G1X14777Y17376D2*
G1X14777Y20566D1*
G1X14768Y17376D2*
G1X14768Y20566D1*
G1X14759Y17376D2*
G1X14759Y20566D1*
G1X14750Y17376D2*
G1X14750Y20566D1*
G1X14741Y17376D2*
G1X14741Y20566D1*
G1X14732Y17376D2*
G1X14732Y20566D1*
G1X14723Y17376D2*
G1X14723Y20566D1*
G1X14714Y17376D2*
G1X14714Y20566D1*
G1X14705Y17376D2*
G1X14705Y20566D1*
G1X14696Y17376D2*
G1X14696Y20566D1*
G1X14687Y17376D2*
G1X14687Y20566D1*
G1X14678Y17376D2*
G1X14678Y20566D1*
G1X14669Y17376D2*
G1X14669Y20566D1*
G1X14660Y17376D2*
G1X14660Y20566D1*
G1X14651Y17376D2*
G1X14651Y20566D1*
G1X14642Y17376D2*
G1X14642Y20566D1*
G1X14633Y17376D2*
G1X14633Y20566D1*
G1X14624Y17376D2*
G1X14624Y20566D1*
G1X14615Y17376D2*
G1X14615Y20566D1*
G1X14597Y17376D2*
G1X14597Y20566D1*
G1X14939Y20976D2*
G1X14939Y22621D1*
G1X13732Y23005D2*
G1X12437Y23005D1*
G1X13732Y22987D2*
G1X12437Y22987D1*
G1X13732Y22969D2*
G1X12437Y22969D1*
G1X13732Y22951D2*
G1X12437Y22951D1*
G1X13732Y22933D2*
G1X12437Y22933D1*
G1X13732Y22915D2*
G1X12437Y22915D1*
G1X13732Y22897D2*
G1X12437Y22897D1*
G1X13732Y22879D2*
G1X12437Y22879D1*
G1X13732Y22861D2*
G1X12437Y22861D1*
G1X13732Y22843D2*
G1X12437Y22843D1*
G1X13732Y22825D2*
G1X12437Y22825D1*
G1X13732Y22807D2*
G1X12437Y22807D1*
G1X14312Y20566D2*
G1X12437Y20566D1*
G1X15432Y17376D2*
G1X15432Y19071D1*
G1X15245Y17376D2*
G1X15245Y20506D1*
G1X13292Y22240D2*
G1X12437Y22240D1*
G1X15326Y20976D2*
G1X15326Y22621D1*
G1X14579Y17376D2*
G1X14579Y20566D1*
G1X13792Y24508D2*
G1X12437Y24508D1*
G1X13792Y24445D2*
G1X12437Y24445D1*
G1X14392Y26650D2*
G1X12437Y26650D1*
G1X13792Y24472D2*
G1X12437Y24472D1*
G1X13872Y24769D2*
G1X12437Y24769D1*
G1X14392Y27784D2*
G1X12437Y27784D1*
G1X14392Y27172D2*
G1X12437Y27172D1*
G1X18907Y22195D2*
G1X17892Y22195D1*
G1X18395Y17376D2*
G1X18395Y22621D1*
G1X18907Y20098D2*
G1X15932Y20098D1*
G1X18476Y17376D2*
G1X18476Y22621D1*
G1X18907Y20602D2*
G1X17542Y20602D1*
G1X15965Y20976D2*
G1X15965Y22621D1*
G1X15947Y20976D2*
G1X15947Y22621D1*
G1X15929Y20976D2*
G1X15929Y22621D1*
G1X18907Y20710D2*
G1X17542Y20710D1*
G1X15830Y20976D2*
G1X15830Y22621D1*
G1X15920Y20976D2*
G1X15920Y22621D1*
G1X18907Y20278D2*
G1X15932Y20278D1*
G1X18907Y20269D2*
G1X15932Y20269D1*
G1X18907Y20260D2*
G1X15932Y20260D1*
G1X18907Y20251D2*
G1X15932Y20251D1*
G1X18907Y20242D2*
G1X15932Y20242D1*
G1X18791Y17376D2*
G1X18791Y22621D1*
G1X18907Y20233D2*
G1X15932Y20233D1*
G1X18907Y20161D2*
G1X15932Y20161D1*
G1X17952Y21781D2*
G1X17892Y21781D1*
G1X18907Y19810D2*
G1X15932Y19810D1*
G1X18907Y19603D2*
G1X15932Y19603D1*
G1X18907Y19594D2*
G1X15932Y19594D1*
G1X18907Y19585D2*
G1X15932Y19585D1*
G1X18907Y19576D2*
G1X15932Y19576D1*
G1X18907Y19567D2*
G1X15932Y19567D1*
G1X18907Y19558D2*
G1X15932Y19558D1*
G1X18907Y19549D2*
G1X15932Y19549D1*
G1X18907Y19540D2*
G1X15932Y19540D1*
G1X14392Y28405D2*
G1X12437Y28405D1*
G1X16316Y22448D2*
G1X16316Y22621D1*
G1X15911Y20976D2*
G1X15911Y22621D1*
G1X14327Y20974D2*
G1X14327Y22621D1*
G1X14336Y20965D2*
G1X14336Y22621D1*
G1X14264Y17376D2*
G1X14264Y20573D1*
G1X18907Y19522D2*
G1X15932Y19522D1*
G1X18907Y19513D2*
G1X15932Y19513D1*
G1X18907Y19459D2*
G1X15932Y19459D1*
G1X18907Y19450D2*
G1X15932Y19450D1*
G1X18907Y19441D2*
G1X15932Y19441D1*
G1X14802Y20506D2*
G1X14802Y20566D1*
G1X13922Y17376D2*
G1X13922Y20884D1*
G1X13940Y17376D2*
G1X13940Y20866D1*
G1X13958Y17376D2*
G1X13958Y20848D1*
G1X14201Y21100D2*
G1X14201Y22621D1*
G1X14210Y21091D2*
G1X14210Y22621D1*
G1X14219Y21082D2*
G1X14219Y22621D1*
G1X14228Y21073D2*
G1X14228Y22621D1*
G1X14237Y21064D2*
G1X14237Y22621D1*
G1X14246Y21055D2*
G1X14246Y22621D1*
G1X14255Y21046D2*
G1X14255Y22621D1*
G1X14426Y20916D2*
G1X14426Y22621D1*
G1X15506Y20976D2*
G1X15506Y22621D1*
G1X14131Y20674D2*
G1X12437Y20674D1*
G1X14318Y20983D2*
G1X14318Y22621D1*
G1X18907Y19432D2*
G1X15932Y19432D1*
G1X18907Y19621D2*
G1X15932Y19621D1*
G1X18907Y19612D2*
G1X15932Y19612D1*
G1X18907Y19333D2*
G1X15932Y19333D1*
G1X13292Y22510D2*
G1X12437Y22510D1*
G1X16325Y22477D2*
G1X16325Y22621D1*
G1X13792Y24373D2*
G1X12437Y24373D1*
G1X13792Y24364D2*
G1X12437Y24364D1*
G1X13792Y24346D2*
G1X12437Y24346D1*
G1X13792Y24301D2*
G1X12437Y24301D1*
G1X14392Y27460D2*
G1X12437Y27460D1*
G1X18907Y19693D2*
G1X15932Y19693D1*
G1X18907Y19396D2*
G1X15932Y19396D1*
G1X18907Y19504D2*
G1X15932Y19504D1*
G1X18907Y19837D2*
G1X15932Y19837D1*
G1X18907Y19675D2*
G1X15932Y19675D1*
G1X18907Y20125D2*
G1X15932Y20125D1*
G1X17225Y17376D2*
G1X17225Y20506D1*
G1X18494Y17376D2*
G1X18494Y22621D1*
G1X18656Y17376D2*
G1X18656Y22621D1*
G1X18620Y17376D2*
G1X18620Y22621D1*
G1X14392Y26614D2*
G1X12437Y26614D1*
G1X13792Y24211D2*
G1X12437Y24211D1*
G1X14723Y20916D2*
G1X14723Y22621D1*
G1X14633Y20916D2*
G1X14633Y22621D1*
G1X14642Y20916D2*
G1X14642Y22621D1*
G1X14651Y20916D2*
G1X14651Y22621D1*
G1X14660Y20916D2*
G1X14660Y22621D1*
G1X17243Y17376D2*
G1X17243Y20506D1*
G1X18719Y17376D2*
G1X18719Y22621D1*
G1X18755Y17376D2*
G1X18755Y22621D1*
G1X17459Y17376D2*
G1X17459Y20506D1*
G1X17477Y17376D2*
G1X17477Y20506D1*
G1X18907Y20926D2*
G1X17542Y20926D1*
G1X18907Y20557D2*
G1X17542Y20557D1*
G1X13792Y24553D2*
G1X12437Y24553D1*
G1X15722Y20966D2*
G1X15722Y22621D1*
G1X16316Y21781D2*
G1X16316Y22374D1*
G1X13792Y24166D2*
G1X12437Y24166D1*
G1X14392Y27073D2*
G1X12437Y27073D1*
G1X18854Y17376D2*
G1X18854Y22621D1*
G1X18386Y17376D2*
G1X18386Y22621D1*
G1X13843Y24740D2*
G75*
G3X13792Y24616I124J-124D1*
G1X14188Y20617D2*
G3X14312Y20566I124J124D1*
G1X13792Y21086D2*
G3X13843Y20962I175J0D1*
G1X14188Y20617D2*
G3X14312Y20566I124J124D1*
G1X14037Y24907D2*
G3X13968Y24865I54J-167D1*
G1X14037Y24907D2*
G3X13968Y24865I54J-167D1*
G1X16363Y22535D2*
G3X16312Y22411I124J-124D1*
G1X17892Y22421D2*
G3X17841Y22545I-175J0D1*
G1X17892Y22421D2*
G3X17841Y22545I-175J0D1*
G74*
G1X16887Y20741D2*
G54D28*
G1X16377Y20741D1*
G1X15707Y18196D2*
G1X15707Y20741D1*
G1X15457Y20741D1*
G1X15957Y20741D2*
G1X15457Y20741D1*
G1X18967Y27821D2*
G54D29*
G1X18502Y27821D1*
G1X18042Y27421D2*
G1X18042Y27821D1*
G1X18502Y27821D2*
G1X18042Y27821D1*
G1X17600Y25758D2*
G1X17600Y26774D1*
G1X18042Y27216D1*
G1X18042Y27421D1*
G1X11292Y28171D2*
G1X11292Y29411D1*
G1X14722Y22886D2*
G1X14512Y22886D1*
G1X14317Y23081D1*
G1X16352Y25071D2*
G1X16212Y25211D1*
G1X15787Y25211D1*
G1X15787Y25576D2*
G1X15787Y25206D1*
G1X16217Y25206D1*
G1X16352Y25071D1*
G1X16770Y24928D2*
G1X16495Y24928D1*
G1X16352Y25071D1*
G1X16770Y25804D2*
G1X16770Y26413D1*
G1X16767Y26416D1*
G1X17517Y23896D2*
G1X17404Y24009D1*
G1X17404Y24294D1*
G1X18124Y23419D2*
G1X17994Y23419D1*
G1X17517Y23896D1*
G1X18587Y25976D2*
G1X18369Y25758D1*
G1X17994Y25758D1*
G1X24192Y18266D2*
G1X24192Y18471D1*
G1X22692Y21836D2*
G1X22692Y22431D1*
G1X22772Y18816D2*
G1X22572Y18816D1*
G1X20097Y25976D2*
G1X19897Y25976D1*
G1X18719Y23034D2*
G1X18544Y23034D1*
G1X18724Y23419D2*
G1X18544Y23419D1*
G1X16767Y26836D2*
G1X16767Y27031D1*
G1X16437Y23126D2*
G1X16437Y23291D1*
G1X16397Y26836D2*
G1X16397Y27016D1*
G1X16052Y23131D2*
G1X16052Y23291D1*
G1X16047Y24026D2*
G1X16047Y24181D1*
G1X16002Y26836D2*
G1X16002Y27016D1*
G1X15622Y26836D2*
G1X15622Y27011D1*
G1X15367Y25211D2*
G1X15182Y25211D1*
G1X14722Y23286D2*
G1X14537Y23286D1*
G1X10872Y27626D2*
G1X10677Y27626D1*
G1X10732Y28171D2*
G1X10497Y28171D1*
G1X10492Y28176D1*
G1X14702Y24161D2*
G1X14527Y24161D1*
G1X14522Y24166D1*
G1X15367Y25941D2*
G1X15197Y25941D1*
G1X15192Y25946D1*
G1X15367Y25576D2*
G1X15197Y25576D1*
G1X15192Y25571D1*
G1X15962Y28176D2*
G1X15952Y28176D1*
G1X15877Y28101D1*
G1X16052Y28246D2*
G1X15982Y28176D1*
G1X15962Y28176D1*
G1X16492Y27756D2*
G1X16472Y27756D1*
G1X16402Y27686D1*
G1X17502Y25026D2*
G1X17502Y24996D1*
G1X17392Y24886D1*
G1X18042Y28241D2*
G1X18042Y28436D1*
G1X18037Y28441D1*
G1X18507Y28621D2*
G1X18507Y28386D1*
G1X18502Y28381D1*
G1X20102Y25526D2*
G1X20097Y25521D1*
G1X19907Y25521D1*
G1X20112Y25136D2*
G1X20107Y25131D1*
G1X19907Y25131D1*
G1X19912Y24721D2*
G1X20382Y24721D1*
G1X20767Y25106D1*
G1X20767Y26991D1*
G1X20337Y27421D1*
G1X19817Y27421D1*
G1X14702Y23741D2*
G1X15137Y23741D1*
G1X15142Y23736D1*
G1X15142Y23721D1*
G1X15387Y23291D2*
G1X15392Y23286D1*
G1X15397Y23291D1*
G1X15667Y23291D1*
G1X15142Y23291D2*
G1X15142Y22886D1*
G1X15387Y23291D2*
G1X15147Y23291D1*
G1X15142Y23286D1*
G1X23192Y22781D2*
G1X23192Y22931D1*
G1X23307Y23046D1*
G1X23772Y23046D1*
G1X15217Y26836D2*
G1X14952Y26836D1*
G1X23192Y21836D2*
G1X23192Y21311D1*
G1X23007Y21126D1*
G1X23007Y20851D1*
G1X23137Y20721D1*
G1X23497Y20721D1*
G1X23692Y20526D1*
G1X23692Y19876D1*
G1X15142Y23286D2*
G1X15142Y23721D1*
G1X25057Y28991D2*
G1X25052Y28996D1*
G1X24752Y28996D1*
G1X22967Y27211D1*
G1X22967Y25776D1*
G1X21530Y24339D1*
G1X18234Y24339D1*
G1X25057Y29991D2*
G1X25462Y29991D1*
G1X25902Y29551D1*
G1X25902Y19571D1*
G1X25337Y19006D1*
G1X24947Y19006D1*
G1X24932Y19021D1*
G1X25507Y25791D2*
G1X25507Y29206D1*
G1X25232Y29481D1*
G1X22762Y29481D1*
G1X21067Y27786D1*
G1X21062Y27786D1*
G1X22927Y20486D2*
G1X21827Y21586D1*
G1X21827Y23526D1*
G1X21192Y24161D1*
G1X18042Y24161D1*
G1X17994Y24209D1*
G1X17994Y24294D1*
G1X25167Y26991D2*
G1X24192Y26016D1*
G1X24192Y23046D1*
G1X23192Y21836D2*
G1X23192Y22781D1*
G1X21137Y21586D2*
G1X21137Y22936D1*
G1X20262Y23811D1*
G1X17907Y23811D1*
G1X17600Y24118D1*
G1X17600Y24294D1*
G1X17010Y25758D2*
G1X17010Y25988D1*
G1X16982Y26016D1*
G1X10387Y22391D2*
G1X10387Y22716D1*
G1X10752Y23081D1*
G1X11572Y23081D1*
G1X16487Y21546D2*
G1X16487Y22411D1*
G1X16652Y22576D1*
G1X16887Y22576D1*
G1X16770Y24731D2*
G1X15147Y24731D1*
G1X15142Y24736D1*
G1X11292Y27626D2*
G1X11292Y28171D1*
G1X23277Y21011D2*
G1X24007Y21011D1*
G1X24012Y21016D1*
G1X22927Y20486D2*
G1X23062Y20486D1*
G1X23192Y20356D1*
G1X23192Y19876D1*
G1X17307Y22576D2*
G1X17562Y22576D1*
G1X17717Y22421D1*
G1X17717Y21546D1*
G1X18682Y27421D2*
G1X18462Y27421D1*
G1X21902Y20311D2*
G1X21457Y20756D1*
G1X21457Y23321D1*
G1X20792Y23986D1*
G1X17982Y23986D1*
G1X17797Y24171D1*
G1X17797Y24294D1*
G1X16767Y26416D2*
G1X16397Y26416D1*
G1X23692Y21836D2*
G1X23692Y21011D1*
G1X23277Y21011D1*
G1X16770Y25518D2*
G1X16770Y25804D1*
G1X22692Y19876D2*
G1X22337Y19876D1*
G1X21902Y20311D1*
G1X16887Y21546D2*
G1X16487Y21546D1*
G1X24192Y19876D2*
G1X23692Y19876D1*
G1X16002Y26416D2*
G1X16002Y26306D1*
G1X16177Y26131D1*
G1X16262Y26131D1*
G1X16397Y25996D1*
G1X16397Y25596D1*
G1X16672Y25321D1*
G1X16770Y25321D1*
G1X13967Y22286D2*
G1X13527Y22286D1*
G1X19492Y24721D2*
G1X19487Y24726D1*
G1X19487Y25131D1*
G1X19082Y25321D3*
G1X19082Y25321D2*
G1X18234Y25321D1*
G1X17307Y21546D2*
G1X17307Y21961D1*
G1X19487Y25521D2*
G1X19484Y25518D1*
G1X18234Y25518D1*
G1X13967Y22801D2*
G1X13967Y23271D1*
G1X16437Y23711D2*
G1X16437Y23896D1*
G1X16770Y24229D1*
G1X16770Y24534D1*
G1X16047Y24601D2*
G1X16047Y24711D1*
G1X16027Y24731D1*
G1X15982Y24731D1*
G1X15532Y24281D1*
G1X15142Y24281D1*
G1X18124Y23034D2*
G1X18124Y23419D1*
G1X16492Y28176D2*
G1X16947Y28176D1*
G1X17404Y27719D1*
G1X17404Y25758D1*
G1X16887Y21546D2*
G1X16887Y21961D1*
G1X17207Y25758D2*
G1X17207Y27091D1*
G1X16842Y27456D1*
G1X16027Y27456D1*
G1X15962Y27521D1*
G1X15962Y27756D1*
G1X16052Y23711D2*
G1X15667Y23711D1*
G1X23192Y18816D2*
G1X23192Y19876D1*
G1X16047Y24601D2*
G1X16047Y24731D1*
G1X16769Y24731D1*
G1X16770Y24731D1*
G1X13967Y21341D2*
G1X13967Y21086D1*
G1X14312Y20741D1*
G1X15037Y20741D1*
G1X24192Y21836D2*
G1X24192Y23046D1*
G1X24932Y19021D2*
G1X24932Y19456D1*
G1X19477Y25976D2*
G1X18587Y25976D1*
G1X13967Y23691D2*
G1X13967Y24616D1*
G1X14092Y24741D1*
G1X14272Y24741D1*
G1X17717Y21546D2*
G1X17307Y21546D1*
G1X17207Y24294D2*
G1X17207Y23256D1*
G1X17307Y23156D1*
G1X17307Y22996D1*
G1X15147Y24741D2*
G1X15142Y24736D1*
G1X15622Y26416D2*
G1X15217Y26416D1*
G1X15962Y27756D2*
G1X15542Y27756D1*
G1X13967Y22286D2*
G1X13967Y22801D1*
G1X16437Y23711D2*
G1X16052Y23711D1*
G1X14722Y24736D2*
G1X14717Y24741D1*
G1X14272Y24741D1*
G1X19362Y27821D2*
G1X18967Y27821D1*
G1X16002Y26416D2*
G1X15622Y26416D1*
G1X13967Y21341D2*
G1X13967Y21866D1*
G1X18234Y24339D2*
G1X18234Y24534D1*
G1X24192Y18891D2*
G1X24192Y19876D1*
G1X17797Y25758D2*
G1X17797Y25926D1*
G1X18552Y26681D1*
G1X18572Y26681D1*
G1X16770Y25124D2*
G1X16574Y25124D1*
G1X16197Y25501D1*
G1X16197Y25801D1*
G1X16057Y25941D1*
G1X15787Y25941D1*
G1X13967Y21866D2*
G1X13527Y21866D1*
G1X18867Y25126D2*
G1X18236Y25126D1*
G1X18234Y25124D1*
G1X18234Y25321D2*
G1X19082Y25321D1*
G1X16887Y21161D2*
G1X16887Y21546D1*
G1X15542Y28176D2*
G1X15542Y28646D1*
G1X19087Y24931D2*
G1X18238Y24931D1*
G1X18234Y24928D1*
G1X16492Y28176D2*
G1X16492Y28646D1*
G1X19487Y25131D2*
G1X19487Y25521D1*
G1X17307Y21161D2*
G1X17307Y21546D1*
G1X24932Y19876D2*
G1X24192Y19876D1*
G1X16887Y22996D2*
G1X16887Y23156D1*
G1X17010Y23279D1*
G1X17010Y24294D1*
G1X17307Y20741D2*
G1X16887Y20741D1*
G1X19362Y26681D2*
G1X19362Y27401D1*
G1X18877Y24731D2*
G1X18234Y24731D1*
G1X15387Y23291D2*
G54D30*
G1X15142Y23291D1*
G1X19432Y28931D2*
G54D31*
G1X18967Y28466D1*
G1X18967Y28241D1*
G54D12*
G1X11292Y28171D3*
G1X10732Y28171D3*
G54D11*
G1X14722Y22886D3*
G1X15142Y22886D3*
G1X18042Y27421D3*
G1X18462Y27421D3*
G1X18967Y28241D3*
G1X18967Y27821D3*
G1X19492Y24721D3*
G1X19912Y24721D3*
G1X15217Y26836D3*
G1X15217Y26416D3*
G1X15667Y23711D3*
G1X15667Y23291D3*
G1X23192Y18816D3*
G1X22772Y18816D3*
G1X24932Y19876D3*
G1X24932Y19456D3*
G1X23772Y23046D3*
G1X24192Y23046D3*
G1X13967Y22286D3*
G1X13967Y21866D3*
G1X13967Y23691D3*
G1X13967Y23271D3*
G1X15142Y24736D3*
G1X14722Y24736D3*
G1X15542Y29066D3*
G1X15542Y28646D3*
G1X16067Y21546D3*
G1X16487Y21546D3*
G1X16887Y21546D3*
G1X17307Y21546D3*
G1X17307Y21161D3*
G1X17307Y20741D3*
G1X19362Y27821D3*
G1X19362Y27401D3*
G1X14702Y23741D3*
G1X14702Y24161D3*
G1X15142Y23286D3*
G1X14722Y23286D3*
G1X19477Y25976D3*
G1X19897Y25976D3*
G1X18042Y27821D3*
G1X18042Y28241D3*
G1X16002Y26416D3*
G1X16002Y26836D3*
G1X15622Y26416D3*
G1X15622Y26836D3*
G1X13967Y21341D3*
G1X13547Y21341D3*
G1X13967Y22801D3*
G1X13547Y22801D3*
G1X14272Y24741D3*
G1X14272Y25161D3*
G1X16047Y24601D3*
G1X16047Y24181D3*
G1X15787Y25941D3*
G1X15367Y25941D3*
G1X13527Y22286D3*
G1X13527Y21866D3*
G1X16052Y23711D3*
G1X16052Y23291D3*
G1X16437Y23711D3*
G1X16437Y23291D3*
G1X15457Y20741D3*
G1X15037Y20741D3*
G1X15542Y27756D3*
G1X15542Y28176D3*
G1X16492Y28646D3*
G1X16492Y29066D3*
G1X16887Y21161D3*
G1X16887Y20741D3*
G1X16887Y22996D3*
G1X16887Y22576D3*
G1X16377Y20741D3*
G1X15957Y20741D3*
G1X17307Y21961D3*
G1X16887Y21961D3*
G1X17307Y22996D3*
G1X17307Y22576D3*
G1X18137Y21546D3*
G1X17717Y21546D3*
G1X19907Y25521D3*
G1X19487Y25521D3*
G1X19907Y25131D3*
G1X19487Y25131D3*
G1X24192Y18891D3*
G1X24192Y18471D3*
G1X18124Y23419D3*
G1X18544Y23419D3*
G1X18124Y23034D3*
G1X18544Y23034D3*
G1X16397Y26416D3*
G1X16397Y26836D3*
G1X16767Y26416D3*
G1X16767Y26836D3*
G1X15787Y25211D3*
G1X15367Y25211D3*
G1X15787Y25576D3*
G1X15367Y25576D3*
G1X11292Y27626D3*
G1X10872Y27626D3*
G54D10*
G1X15142Y23721D3*
G1X15142Y24281D3*
G1X18502Y28381D3*
G1X18502Y27821D3*
G54D48*
G1X8170Y22392D3*
G1X8170Y21392D3*
G1X8170Y20392D3*
G1X8170Y19392D3*
G1X8170Y18392D3*
G1X8170Y31399D3*
G1X8170Y30399D3*
G1X8170Y29399D3*
G1X8170Y28399D3*
G1X8170Y27399D3*
G1X8170Y26399D3*
G1X8170Y25399D3*
G1X27168Y19397D3*
G1X27168Y20397D3*
G1X27168Y21397D3*
G1X27168Y22397D3*
G1X27168Y23397D3*
G1X27168Y24397D3*
G1X27168Y25397D3*
G1X27168Y27991D3*
G1X27168Y28991D3*
G1X27168Y29991D3*
G1X27168Y30991D3*
G1X27168Y31991D3*
G1X27168Y32991D3*
G1X27168Y33991D3*
G1X27168Y34991D3*
G1X27168Y35991D3*
G54D49*
G1X8170Y23392D3*
G1X8170Y32399D3*
G1X27168Y18397D3*
G1X27168Y26991D3*
G54D50*
G1X14012Y18451D3*
G1X17362Y18451D3*
G54D51*
G1X15707Y18196D3*
G54D17*
G1X10292Y29411D3*
G1X11292Y29411D3*
G54D52*
G1X19362Y26681D3*
G1X18572Y26681D3*
G54D53*
G1X23692Y21836D3*
G1X23192Y21836D3*
G1X22692Y21836D3*
G1X22692Y19876D3*
G1X23192Y19876D3*
G1X23692Y19876D3*
G1X24192Y19876D3*
G54D54*
G1X24192Y21836D3*
G54D23*
G1X16770Y25518D3*
G1X16770Y25321D3*
G1X16770Y25124D3*
G1X16770Y24928D3*
G1X16770Y24731D3*
G1X16770Y24534D3*
G1X18234Y24534D3*
G1X18234Y24731D3*
G1X18234Y24928D3*
G1X18234Y25124D3*
G1X18234Y25321D3*
G1X18234Y25518D3*
G54D22*
G1X17502Y25026D3*
G54D21*
G1X17994Y25758D3*
G1X17797Y25758D3*
G1X17600Y25758D3*
G1X17404Y25758D3*
G1X17207Y25758D3*
G1X17010Y25758D3*
G1X17010Y24294D3*
G1X17207Y24294D3*
G1X17404Y24294D3*
G1X17600Y24294D3*
G1X17797Y24294D3*
G1X17994Y24294D3*
G54D55*
G1X15962Y27756D3*
G1X16492Y27756D3*
G1X16492Y28176D3*
G1X15962Y28176D3*
G54D25*
G1X14317Y23081D3*
G1X19817Y27421D3*
G1X17057Y28626D3*
G1X16437Y17516D3*
G1X16447Y17911D3*
G1X16442Y18386D3*
G1X16442Y18886D3*
G1X16867Y17511D3*
G1X16862Y17926D3*
G1X16862Y18396D3*
G1X16862Y18896D3*
G1X17782Y17536D3*
G1X17782Y17926D3*
G1X17772Y18396D3*
G1X17772Y18911D3*
G1X18242Y17926D3*
G1X18242Y17526D3*
G1X18247Y18396D3*
G1X18242Y18911D3*
G1X17777Y19416D3*
G1X16857Y19421D3*
G1X18242Y19416D3*
G1X18812Y17516D3*
G1X18817Y17971D3*
G1X18812Y18426D3*
G1X18807Y18876D3*
G1X18807Y19271D3*
G1X18247Y19931D3*
G1X17772Y19921D3*
G1X17302Y19926D3*
G1X16842Y19926D3*
G1X16442Y19426D3*
G1X16402Y19916D3*
G1X18807Y19686D3*
G1X18802Y20141D3*
G1X18807Y20996D3*
G1X18807Y20551D3*
G1X18257Y20426D3*
G1X17987Y20921D3*
G1X18312Y21281D3*
G1X18517Y21431D3*
G1X18662Y21936D3*
G1X18342Y21916D3*
G1X18402Y22316D3*
G1X18712Y22336D3*
G1X18042Y22316D3*
G1X18042Y21916D3*
G1X17987Y21266D3*
G1X17632Y21241D3*
G1X17632Y20901D3*
G1X17712Y20376D3*
G1X17242Y20366D3*
G1X16787Y20356D3*
G1X16407Y20356D3*
G1X12872Y23646D3*
G1X12872Y24106D3*
G1X13302Y23636D3*
G1X13302Y24106D3*
G1X12872Y24656D3*
G1X13302Y24656D3*
G1X13082Y25276D3*
G1X13082Y25856D3*
G1X13082Y26426D3*
G1X13092Y26996D3*
G1X13092Y27566D3*
G1X13092Y28176D3*
G1X13752Y25306D3*
G1X13752Y25886D3*
G1X13747Y26441D3*
G1X13742Y26991D3*
G1X13737Y27571D3*
G1X14962Y17506D3*
G1X14512Y17506D3*
G1X14962Y18036D3*
G1X14522Y18036D3*
G1X14972Y18466D3*
G1X14522Y18466D3*
G1X14972Y18976D3*
G1X14522Y18966D3*
G1X14977Y19461D3*
G1X14522Y19456D3*
G1X14982Y20036D3*
G1X14512Y20041D3*
G1X13632Y17536D3*
G1X13182Y17541D3*
G1X12847Y17541D3*
G1X13627Y18036D3*
G1X13182Y18036D3*
G1X12832Y18026D3*
G1X13627Y18471D3*
G1X13192Y18466D3*
G1X12847Y18471D3*
G1X13627Y18956D3*
G1X13192Y18946D3*
G1X12852Y18946D3*
G1X13632Y19456D3*
G1X13212Y19456D3*
G1X12872Y19446D3*
G1X14072Y20036D3*
G1X13642Y20031D3*
G1X13222Y20031D3*
G1X12882Y20031D3*
G1X12552Y17536D3*
G1X12547Y18026D3*
G1X12552Y18466D3*
G1X12552Y18946D3*
G1X12552Y19446D3*
G1X12562Y20031D3*
G1X12897Y20361D3*
G1X13247Y20361D3*
G1X16072Y18816D3*
G1X16072Y18446D3*
G1X16072Y18096D3*
G1X16077Y17516D3*
G1X16077Y17791D3*
G1X15352Y17811D3*
G1X15352Y17506D3*
G1X15352Y18146D3*
G1X15357Y18471D3*
G1X15352Y18851D3*
G1X15412Y19136D3*
G1X15402Y19456D3*
G1X15402Y19776D3*
G1X15402Y20096D3*
G1X16022Y19116D3*
G1X16022Y19426D3*
G1X16017Y19736D3*
G1X16022Y20076D3*
G1X16012Y20361D3*
G1X14987Y20356D3*
G1X15392Y20361D3*
G1X14517Y20356D3*
G1X13637Y20361D3*
G1X14092Y20366D3*
G1X12892Y21416D3*
G1X12552Y20986D3*
G1X12892Y20986D3*
G1X13277Y20976D3*
G1X13642Y20981D3*
G1X13187Y21421D3*
G1X12522Y23606D3*
G1X12522Y24016D3*
G1X12522Y24476D3*
G1X12522Y24896D3*
G1X12522Y25396D3*
G1X12522Y25806D3*
G1X12522Y26266D3*
G1X12522Y26736D3*
G1X12522Y27206D3*
G1X12522Y27616D3*
G1X12522Y28056D3*
G1X13747Y28176D3*
G1X13742Y28756D3*
G1X13097Y28756D3*
G1X12522Y28766D3*
G1X12522Y29356D3*
G1X13102Y29356D3*
G1X13572Y29356D3*
G1X14292Y27876D3*
G1X14292Y28236D3*
G1X14287Y27526D3*
G1X14292Y27166D3*
G1X14287Y26686D3*
G1X14282Y26166D3*
G1X14282Y25786D3*
G1X14277Y25396D3*
G1X13932Y24986D3*
G1X13712Y24646D3*
G1X13712Y24236D3*
G1X13642Y23866D3*
G1X13642Y23506D3*
G1X12522Y22326D3*
G1X12872Y22326D3*
G1X12517Y21856D3*
G1X12857Y21906D3*
G1X13182Y21906D3*
G1X13182Y22326D3*
G1X14297Y28771D3*
G1X14572Y29046D3*
G1X13992Y29356D3*
G1X14392Y29356D3*
G1X18719Y23034D3*
G1X18724Y23419D3*
G1X16812Y28866D3*
G1X16212Y29046D3*
G1X15912Y29046D3*
G1X15332Y29046D3*
G1X14982Y29046D3*
G1X14782Y29356D3*
G1X15132Y29356D3*
G1X15472Y29356D3*
G1X15772Y29356D3*
G1X16042Y29351D3*
G1X16662Y29356D3*
G1X16872Y29146D3*
G1X17097Y28911D3*
G1X17327Y28656D3*
G1X17402Y28291D3*
G1X16052Y28246D3*
G1X15622Y27011D3*
G1X16002Y27016D3*
G1X15877Y28101D3*
G1X16357Y29351D3*
G1X16402Y27686D3*
G1X16582Y27826D3*
G1X16397Y27016D3*
G1X16767Y27031D3*
G1X15192Y25946D3*
G1X15192Y25571D3*
G1X15182Y25211D3*
G1X14352Y22306D3*
G1X14712Y22326D3*
G1X15082Y22326D3*
G1X15492Y22306D3*
G1X15812Y22316D3*
G1X16172Y22316D3*
G1X14352Y21906D3*
G1X14712Y21906D3*
G1X15082Y21906D3*
G1X15492Y21896D3*
G1X15812Y21896D3*
G1X16172Y21906D3*
G1X15807Y21431D3*
G1X15477Y21431D3*
G1X15082Y21431D3*
G1X14707Y21431D3*
G1X14352Y21426D3*
G1X14352Y21066D3*
G1X14712Y21066D3*
G1X15102Y21066D3*
G1X15492Y21066D3*
G1X15822Y21071D3*
G1X16177Y21071D3*
G1X16547Y21146D3*
G1X14537Y23286D3*
G1X14522Y24166D3*
G1X16047Y24026D3*
G1X16052Y23131D3*
G1X16437Y23126D3*
G1X10677Y27626D3*
G1X10492Y28176D3*
G1X24192Y18266D3*
G1X22572Y18816D3*
G1X22692Y22431D3*
G1X20112Y25136D3*
G1X20102Y25526D3*
G1X20097Y25976D3*
G1X18037Y28441D3*
G1X18507Y28621D3*
G1X17052Y24866D3*
G1X17052Y25196D3*
G1X17392Y24576D3*
G1X17392Y24886D3*
G1X17392Y25196D3*
G1X17682Y24576D3*
G1X17682Y24886D3*
G1X17682Y25196D3*
G1X17952Y24886D3*
G1X17952Y25196D3*
G1X17682Y25476D3*
G1X17392Y25476D3*
G1X17052Y24576D3*
G1X17952Y24576D3*
G1X17052Y25476D3*
G1X17952Y25476D3*
G1X25507Y25791D3*
G1X21062Y27786D3*
G1X24932Y19021D3*
G1X21902Y20311D3*
G1X24012Y21016D3*
G1X25057Y28991D3*
G1X25057Y29991D3*
G1X25167Y26991D3*
G1X21137Y21586D3*
G1X22927Y20486D3*
G1X14952Y26836D3*
G1X10387Y22391D3*
G1X11572Y23081D3*
G1X16352Y25071D3*
G1X16770Y25804D3*
G1X17517Y23896D3*
G1X23277Y21011D3*
G1X23192Y22781D3*
G1X15387Y23291D3*
G1X18234Y24339D3*
G1X18877Y24731D3*
G1X19087Y24931D3*
G1X18867Y25126D3*
G1X19082Y25321D3*
G1X16982Y26016D3*
G1X18587Y25976D3*
G1X18682Y27421D3*
G54D26*
G1X19432Y28931D3*
M2*
