*
%LPD*%
%LNS2-LP_APPLIC_BOARD_VERS2.SMT*%
%FSLAX24Y24*%
%MOIN*%
%AD*%
%ADD10R,0.038X0.032*%
%ADD11R,0.022X0.022*%
%ADD12R,0.032X0.038*%
%ADD22R,0.1063X0.1063*%
%ADD34C,0.069*%
%ADD35R,0.008X0.02*%
%ADD36R,0.02X0.008*%
%ADD37C,0.08*%
%ADD48O,0.0787X0.0618*%
%ADD49R,0.0787X0.0618*%
%ADD52R,0.04X0.048*%
%ADD53O,0.025X0.094*%
%ADD54R,0.025X0.094*%
%ADD55R,0.033X0.03*%
%ADD56R,0.1X0.25*%
%ADD57R,0.035X0.16*%
G54D12*
%SRX1Y1I0.0J0.0*%
G1X11292Y28171D3*
G1X10732Y28171D3*
G54D11*
G1X14722Y22886D3*
G1X15142Y22886D3*
G1X18042Y27421D3*
G1X18462Y27421D3*
G1X18967Y28241D3*
G1X18967Y27821D3*
G1X19492Y24721D3*
G1X19912Y24721D3*
G1X15217Y26836D3*
G1X15217Y26416D3*
G1X15667Y23711D3*
G1X15667Y23291D3*
G1X23192Y18816D3*
G1X22772Y18816D3*
G1X24932Y19876D3*
G1X24932Y19456D3*
G1X23772Y23046D3*
G1X24192Y23046D3*
G1X13967Y22286D3*
G1X13967Y21866D3*
G1X13967Y23691D3*
G1X13967Y23271D3*
G1X15142Y24736D3*
G1X14722Y24736D3*
G1X15542Y29066D3*
G1X15542Y28646D3*
G1X16067Y21546D3*
G1X16487Y21546D3*
G1X16887Y21546D3*
G1X17307Y21546D3*
G1X17307Y21161D3*
G1X17307Y20741D3*
G1X19362Y27821D3*
G1X19362Y27401D3*
G1X14702Y23741D3*
G1X14702Y24161D3*
G1X15142Y23286D3*
G1X14722Y23286D3*
G1X19477Y25976D3*
G1X19897Y25976D3*
G1X18042Y27821D3*
G1X18042Y28241D3*
G1X16002Y26416D3*
G1X16002Y26836D3*
G1X15622Y26416D3*
G1X15622Y26836D3*
G1X13967Y21341D3*
G1X13547Y21341D3*
G1X13967Y22801D3*
G1X13547Y22801D3*
G1X14272Y24741D3*
G1X14272Y25161D3*
G1X16047Y24601D3*
G1X16047Y24181D3*
G1X15787Y25941D3*
G1X15367Y25941D3*
G1X13527Y22286D3*
G1X13527Y21866D3*
G1X16052Y23711D3*
G1X16052Y23291D3*
G1X16437Y23711D3*
G1X16437Y23291D3*
G1X15457Y20741D3*
G1X15037Y20741D3*
G1X15542Y27756D3*
G1X15542Y28176D3*
G1X16492Y28646D3*
G1X16492Y29066D3*
G1X16887Y21161D3*
G1X16887Y20741D3*
G1X16887Y22996D3*
G1X16887Y22576D3*
G1X16377Y20741D3*
G1X15957Y20741D3*
G1X17307Y21961D3*
G1X16887Y21961D3*
G1X17307Y22996D3*
G1X17307Y22576D3*
G1X18137Y21546D3*
G1X17717Y21546D3*
G1X19907Y25521D3*
G1X19487Y25521D3*
G1X19907Y25131D3*
G1X19487Y25131D3*
G1X24192Y18891D3*
G1X24192Y18471D3*
G1X18124Y23419D3*
G1X18544Y23419D3*
G1X18124Y23034D3*
G1X18544Y23034D3*
G1X16397Y26416D3*
G1X16397Y26836D3*
G1X16767Y26416D3*
G1X16767Y26836D3*
G1X15787Y25211D3*
G1X15367Y25211D3*
G1X15787Y25576D3*
G1X15367Y25576D3*
G1X11292Y27626D3*
G1X10872Y27626D3*
G54D10*
G1X15142Y23721D3*
G1X15142Y24281D3*
G1X18502Y28381D3*
G1X18502Y27821D3*
G54D48*
G1X8170Y22392D3*
G1X8170Y21392D3*
G1X8170Y20392D3*
G1X8170Y19392D3*
G1X8170Y18392D3*
G1X8170Y31399D3*
G1X8170Y30399D3*
G1X8170Y29399D3*
G1X8170Y28399D3*
G1X8170Y27399D3*
G1X8170Y26399D3*
G1X8170Y25399D3*
G1X27168Y19397D3*
G1X27168Y20397D3*
G1X27168Y21397D3*
G1X27168Y22397D3*
G1X27168Y23397D3*
G1X27168Y24397D3*
G1X27168Y25397D3*
G1X27168Y27991D3*
G1X27168Y28991D3*
G1X27168Y29991D3*
G1X27168Y30991D3*
G1X27168Y31991D3*
G1X27168Y32991D3*
G1X27168Y33991D3*
G1X27168Y34991D3*
G1X27168Y35991D3*
G54D49*
G1X8170Y23392D3*
G1X8170Y32399D3*
G1X27168Y18397D3*
G1X27168Y26991D3*
G54D52*
G1X19362Y26681D3*
G1X18572Y26681D3*
G54D53*
G1X23692Y21836D3*
G1X23192Y21836D3*
G1X22692Y21836D3*
G1X22692Y19876D3*
G1X23192Y19876D3*
G1X23692Y19876D3*
G1X24192Y19876D3*
G54D54*
G1X24192Y21836D3*
G54D22*
G1X17502Y25026D3*
G54D55*
G1X15962Y27756D3*
G1X16492Y27756D3*
G1X16492Y28176D3*
G1X15962Y28176D3*
G54D56*
G1X14012Y18651D3*
G1X17362Y18651D3*
G54D57*
G1X15707Y18196D3*
G54D34*
G1X10292Y29411D3*
G1X11292Y29411D3*
G54D36*
G1X16770Y25518D3*
G1X16770Y25321D3*
G1X16770Y25124D3*
G1X16770Y24928D3*
G1X16770Y24731D3*
G1X16770Y24534D3*
G1X18234Y24534D3*
G1X18234Y24731D3*
G1X18234Y24928D3*
G1X18234Y25124D3*
G1X18234Y25321D3*
G1X18234Y25518D3*
G54D35*
G1X17994Y25758D3*
G1X17797Y25758D3*
G1X17600Y25758D3*
G1X17404Y25758D3*
G1X17207Y25758D3*
G1X17010Y25758D3*
G1X17010Y24294D3*
G1X17207Y24294D3*
G1X17404Y24294D3*
G1X17600Y24294D3*
G1X17797Y24294D3*
G1X17994Y24294D3*
G54D37*
G1X19432Y28931D3*
M2*
