*
%LPD*%
%LNS2-LP_APPLIC_BOARD_VERS2.AST*%
%FSLAX24Y24*%
%MOIN*%
%AD*%
%ADD10R,0.038X0.032*%
%ADD11R,0.022X0.022*%
%ADD12R,0.032X0.038*%
%ADD17C,0.064*%
%ADD26C,0.065*%
%ADD27C,0.001*%
%ADD29C,0.01*%
%ADD30C,0.006*%
%ADD31C,0.008*%
%ADD41C,0.004*%
%ADD48O,0.0787X0.0618*%
%ADD49R,0.0787X0.0618*%
%ADD50R,0.05X0.2*%
%ADD51R,0.03X0.15*%
%ADD52R,0.04X0.048*%
%ADD53O,0.025X0.094*%
%ADD54R,0.025X0.094*%
%ADD55R,0.033X0.03*%
G54D27*
%SRX1Y1I0.0J0.0*%
G1X7292Y36816D2*
G1X9522Y36816D1*
G1X9522Y32726D1*
G1X25762Y32726D1*
G1X25762Y36816D1*
G1X27992Y36816D1*
G1X27992Y17376D1*
G1X7292Y17376D1*
G1X7292Y36816D1*
G1X27070Y25281D2*
G54D29*
G1X27070Y25614D1*
G1X27404Y25281D1*
G1X27487Y25281D1*
G1X27570Y25323D1*
G1X27570Y25573D1*
G1X27487Y25614D1*
G1X27070Y26106D2*
G1X27570Y25856D1*
G1X27570Y26189D1*
G1X27154Y26764D2*
G1X27070Y26681D1*
G1X27070Y26514D1*
G1X27154Y26431D1*
G1X27237Y26431D1*
G1X27404Y26598D1*
G1X27570Y26431D1*
G1X27570Y26764D1*
G1X12274Y18965D2*
G1X12274Y19143D1*
G1X12274Y19054D2*
G1X12807Y19054D1*
G1X12719Y19143D1*
G1X12274Y19743D2*
G1X12807Y19476D1*
G1X12807Y19832D1*
G1X12363Y20432D2*
G1X12274Y20343D1*
G1X12274Y20165D1*
G1X12363Y20076D1*
G1X12452Y20076D1*
G1X12630Y20254D1*
G1X12807Y20076D1*
G1X12807Y20432D1*
G1X12279Y24893D2*
G1X12368Y24982D1*
G1X12457Y25027D1*
G1X12635Y25027D1*
G1X12724Y24982D1*
G1X12812Y24893D1*
G1X12812Y24804D1*
G1X12724Y24716D1*
G1X12635Y24671D1*
G1X12457Y24671D1*
G1X12368Y24716D1*
G1X12279Y24804D1*
G1X12279Y24893D1*
G1X12279Y25538D2*
G1X12812Y25271D1*
G1X12812Y25627D1*
G1X12368Y26227D2*
G1X12279Y26138D1*
G1X12279Y25960D1*
G1X12368Y25871D1*
G1X12457Y25871D1*
G1X12635Y26049D1*
G1X12812Y25871D1*
G1X12812Y26227D1*
G1X16329Y28839D2*
G1X16162Y28839D1*
G1X16245Y28839D2*
G1X16245Y29339D1*
G1X16162Y29256D1*
G1X15670Y28839D2*
G1X15670Y29089D1*
G1X15837Y29339D2*
G1X15712Y29089D1*
G1X15629Y29089D1*
G1X15504Y29339D1*
G1X11192Y30244D2*
G1X11025Y30244D1*
G1X11109Y30244D2*
G1X11109Y30744D1*
G1X11025Y30661D1*
G1X10367Y30494D2*
G1X10617Y30494D1*
G1X10700Y30578D1*
G1X10700Y30661D1*
G1X10617Y30744D1*
G1X10367Y30744D1*
G1X10367Y30244D1*
G1X9834Y30411D2*
G1X9834Y30328D1*
G1X9875Y30244D1*
G1X10042Y30244D1*
G1X10084Y30328D1*
G1X10084Y30744D1*
G1X10125Y30744D2*
G1X9959Y30744D1*
G1X13242Y30869D2*
G1X12909Y30869D1*
G1X13242Y31203D1*
G1X13242Y31286D1*
G1X13200Y31369D1*
G1X12950Y31369D1*
G1X12909Y31286D1*
G1X12667Y31203D2*
G1X12500Y31203D1*
G1X12459Y31119D1*
G1X12375Y31119D1*
G1X12375Y31203D2*
G1X12375Y30869D1*
G1X12092Y30869D2*
G1X11842Y30869D1*
G1X11800Y30953D1*
G1X11800Y31119D1*
G1X11842Y31203D1*
G1X12092Y31203D1*
G1X12134Y31119D1*
G1X12134Y31036D1*
G1X11800Y31036D1*
G1X11267Y30703D2*
G1X11267Y31203D1*
G1X11517Y31203D1*
G1X11559Y31119D1*
G1X11559Y30953D1*
G1X11517Y30869D1*
G1X11267Y30869D1*
G1X10859Y30869D2*
G1X10859Y31119D1*
G1X11025Y30869D2*
G1X11025Y31119D1*
G1X10984Y31203D1*
G1X10900Y31203D1*
G1X10859Y31119D1*
G1X10817Y31203D1*
G1X10734Y31203D1*
G1X10692Y31119D1*
G1X10692Y30869D1*
G1X10409Y31203D2*
G1X10409Y30869D1*
G1X10450Y30869D2*
G1X10159Y30869D1*
G1X10117Y30953D1*
G1X10117Y31203D1*
G1X9584Y31036D2*
G1X9584Y30953D1*
G1X9625Y30869D1*
G1X9792Y30869D1*
G1X9834Y30953D1*
G1X9834Y31369D1*
G1X9875Y31369D2*
G1X9709Y31369D1*
G1X17479Y29464D2*
G1X17187Y29464D1*
G1X17187Y29964D1*
G1X16945Y29631D2*
G1X16612Y29631D1*
G1X16945Y29464D2*
G1X16945Y29714D1*
G1X16820Y29964D1*
G1X16737Y29964D1*
G1X16612Y29714D1*
G1X16612Y29464D1*
G1X16204Y29464D2*
G1X16204Y29964D1*
G1X16370Y29964D2*
G1X16037Y29964D1*
G1X15795Y29464D2*
G1X15545Y29964D1*
G1X15795Y29964D2*
G1X15545Y29464D1*
G1X14719Y22203D2*
G54D30*
G1X14719Y22536D1*
G1X14663Y22480D1*
G1X14607Y22369D1*
G1X14552Y22480D1*
G1X14496Y22536D1*
G1X14496Y22203D1*
G1X14349Y22536D2*
G1X14349Y22203D1*
G1X14293Y22258D1*
G1X14182Y22480D1*
G1X14126Y22536D1*
G1X14126Y22203D1*
G1X15077Y23219D2*
G1X14855Y23219D1*
G1X15077Y23441D1*
G1X15077Y23497D1*
G1X15050Y23552D1*
G1X14883Y23552D1*
G1X14855Y23497D1*
G1X14707Y23219D2*
G1X14485Y23219D1*
G1X14707Y23441D1*
G1X14707Y23497D1*
G1X14680Y23552D1*
G1X14513Y23552D1*
G1X14485Y23497D1*
G1X14254Y23385D2*
G1X14337Y23219D1*
G1X14115Y23385D2*
G1X14282Y23385D1*
G1X14337Y23441D1*
G1X14337Y23497D1*
G1X14282Y23552D1*
G1X14115Y23552D1*
G1X14115Y23219D1*
G1X18039Y26738D2*
G1X18039Y27071D1*
G1X17983Y27015D1*
G1X17927Y26904D1*
G1X17872Y27015D1*
G1X17816Y27071D1*
G1X17816Y26738D1*
G1X17669Y27071D2*
G1X17669Y26738D1*
G1X17613Y26793D1*
G1X17502Y27015D1*
G1X17446Y27071D1*
G1X17446Y26738D1*
G1X18342Y27754D2*
G1X18231Y27754D1*
G1X18286Y27754D2*
G1X18286Y28087D1*
G1X18231Y28032D1*
G1X18027Y27754D2*
G1X17805Y27754D1*
G1X18027Y27976D1*
G1X18027Y28032D1*
G1X18000Y28087D1*
G1X17833Y28087D1*
G1X17805Y28032D1*
G1X17574Y27920D2*
G1X17657Y27754D1*
G1X17435Y27920D2*
G1X17602Y27920D1*
G1X17657Y27976D1*
G1X17657Y28032D1*
G1X17602Y28087D1*
G1X17435Y28087D1*
G1X17435Y27754D1*
G1X19074Y26849D2*
G1X19297Y26849D1*
G1X19074Y26626D1*
G1X19074Y26571D1*
G1X19102Y26515D1*
G1X19269Y26515D1*
G1X19297Y26571D1*
G1X19444Y26849D2*
G1X19639Y26849D1*
G1X19639Y26515D1*
G1X16581Y26293D2*
G1X16553Y26348D1*
G1X16387Y26348D1*
G1X16359Y26293D1*
G1X16359Y26182D1*
G1X16414Y26126D1*
G1X16581Y26126D1*
G1X16581Y26015D1*
G1X16359Y26015D1*
G1X16868Y26348D2*
G1X16923Y26293D1*
G1X16951Y26237D1*
G1X16951Y26126D1*
G1X16923Y26071D1*
G1X16868Y26015D1*
G1X16812Y26015D1*
G1X16757Y26071D1*
G1X16729Y26126D1*
G1X16729Y26237D1*
G1X16757Y26293D1*
G1X16812Y26348D1*
G1X16868Y26348D1*
G1X17127Y26182D2*
G1X17099Y26126D1*
G1X17099Y26071D1*
G1X17127Y26015D1*
G1X17293Y26015D1*
G1X17321Y26071D1*
G1X17321Y26126D1*
G1X17293Y26182D1*
G1X17127Y26182D1*
G1X17099Y26237D1*
G1X17099Y26293D1*
G1X17127Y26348D1*
G1X17293Y26348D1*
G1X17321Y26293D1*
G1X17321Y26237D1*
G1X17293Y26182D1*
G1X17608Y26348D2*
G1X17663Y26293D1*
G1X17691Y26237D1*
G1X17691Y26126D1*
G1X17663Y26071D1*
G1X17608Y26015D1*
G1X17552Y26015D1*
G1X17497Y26071D1*
G1X17469Y26126D1*
G1X17469Y26237D1*
G1X17497Y26293D1*
G1X17552Y26348D1*
G1X17608Y26348D1*
G1X17839Y26460D2*
G1X18061Y26460D1*
G1X18209Y26015D2*
G1X18209Y26293D1*
G1X18237Y26348D1*
G1X18403Y26348D1*
G1X18431Y26293D1*
G1X18431Y26015D1*
G1X18718Y26348D2*
G1X18773Y26293D1*
G1X18801Y26237D1*
G1X18801Y26126D1*
G1X18773Y26071D1*
G1X18718Y26015D1*
G1X18662Y26015D1*
G1X18607Y26071D1*
G1X18579Y26126D1*
G1X18579Y26237D1*
G1X18607Y26293D1*
G1X18662Y26348D1*
G1X18718Y26348D1*
G1X18949Y26348D2*
G1X19060Y26348D1*
G1X19004Y26348D2*
G1X19004Y26015D1*
G1X19060Y26071D1*
G1X19263Y26460D2*
G1X19485Y26460D1*
G1X19633Y26348D2*
G1X19828Y26348D1*
G1X19828Y26015D1*
G1X15809Y26720D2*
G1X15809Y26498D1*
G1X15587Y26720D1*
G1X15532Y26720D1*
G1X15476Y26692D1*
G1X15476Y26525D1*
G1X15532Y26498D1*
G1X15809Y26211D2*
G1X15754Y26155D1*
G1X15698Y26128D1*
G1X15587Y26128D1*
G1X15532Y26155D1*
G1X15476Y26211D1*
G1X15476Y26267D1*
G1X15532Y26322D1*
G1X15587Y26350D1*
G1X15698Y26350D1*
G1X15754Y26322D1*
G1X15809Y26267D1*
G1X15809Y26211D1*
G1X15698Y25980D2*
G1X15698Y25758D1*
G1X15476Y25869D1*
G1X15476Y25924D1*
G1X15809Y25924D1*
G1X15809Y25471D2*
G1X15754Y25415D1*
G1X15698Y25388D1*
G1X15587Y25388D1*
G1X15532Y25415D1*
G1X15476Y25471D1*
G1X15476Y25527D1*
G1X15532Y25582D1*
G1X15587Y25610D1*
G1X15698Y25610D1*
G1X15754Y25582D1*
G1X15809Y25527D1*
G1X15809Y25471D1*
G1X15921Y25240D2*
G1X15921Y25018D1*
G1X15809Y24675D2*
G1X15476Y24675D1*
G1X15809Y24648D2*
G1X15809Y24814D1*
G1X15698Y24870D1*
G1X15587Y24870D1*
G1X15476Y24814D1*
G1X15476Y24648D1*
G1X15809Y24305D2*
G1X15476Y24305D1*
G1X15809Y24278D2*
G1X15809Y24444D1*
G1X15754Y24500D1*
G1X15698Y24500D1*
G1X15643Y24472D1*
G1X15643Y24305D2*
G1X15643Y24472D1*
G1X15587Y24500D1*
G1X15532Y24500D1*
G1X15476Y24444D1*
G1X15476Y24278D1*
G1X15809Y24019D2*
G1X15476Y24019D1*
G1X15476Y24130D2*
G1X15476Y23908D1*
G1X15921Y23760D2*
G1X15921Y23538D1*
G1X15809Y23390D2*
G1X15809Y23195D1*
G1X15476Y23195D1*
G1X14314Y23874D2*
G1X14369Y23902D1*
G1X14369Y24069D1*
G1X14314Y24097D1*
G1X14203Y24097D1*
G1X14147Y24041D1*
G1X14147Y23874D1*
G1X14036Y23874D1*
G1X14036Y24097D1*
G1X14314Y23504D2*
G1X14369Y23560D1*
G1X14369Y23671D1*
G1X14314Y23727D1*
G1X14258Y23727D1*
G1X14147Y23615D1*
G1X14036Y23727D1*
G1X14036Y23504D1*
G1X14314Y23357D2*
G1X14369Y23329D1*
G1X14369Y23162D1*
G1X14314Y23134D1*
G1X14091Y23134D1*
G1X14036Y23162D1*
G1X14036Y23329D1*
G1X14091Y23357D1*
G1X15385Y26984D2*
G1X15385Y26762D1*
G1X15163Y26984D1*
G1X15108Y26984D1*
G1X15052Y26956D1*
G1X15052Y26790D1*
G1X15108Y26762D1*
G1X15385Y26475D2*
G1X15330Y26420D1*
G1X15274Y26392D1*
G1X15163Y26392D1*
G1X15108Y26420D1*
G1X15052Y26475D1*
G1X15052Y26531D1*
G1X15108Y26586D1*
G1X15163Y26614D1*
G1X15274Y26614D1*
G1X15330Y26586D1*
G1X15385Y26531D1*
G1X15385Y26475D1*
G1X15274Y26244D2*
G1X15274Y26022D1*
G1X15052Y26133D1*
G1X15052Y26189D1*
G1X15385Y26189D1*
G1X15385Y25735D2*
G1X15330Y25680D1*
G1X15274Y25652D1*
G1X15163Y25652D1*
G1X15108Y25680D1*
G1X15052Y25735D1*
G1X15052Y25791D1*
G1X15108Y25846D1*
G1X15163Y25874D1*
G1X15274Y25874D1*
G1X15330Y25846D1*
G1X15385Y25791D1*
G1X15385Y25735D1*
G1X15497Y25504D2*
G1X15497Y25282D1*
G1X15497Y24940D2*
G1X15163Y24940D1*
G1X15163Y25106D1*
G1X15219Y25134D1*
G1X15330Y25134D1*
G1X15385Y25106D1*
G1X15385Y24940D1*
G1X15385Y24653D2*
G1X15330Y24598D1*
G1X15274Y24570D1*
G1X15163Y24570D1*
G1X15108Y24598D1*
G1X15052Y24653D1*
G1X15052Y24709D1*
G1X15108Y24764D1*
G1X15163Y24792D1*
G1X15274Y24792D1*
G1X15330Y24764D1*
G1X15385Y24709D1*
G1X15385Y24653D1*
G1X15385Y24283D2*
G1X15330Y24228D1*
G1X15274Y24200D1*
G1X15163Y24200D1*
G1X15108Y24228D1*
G1X15052Y24283D1*
G1X15052Y24339D1*
G1X15108Y24394D1*
G1X15163Y24422D1*
G1X15274Y24422D1*
G1X15330Y24394D1*
G1X15385Y24339D1*
G1X15385Y24283D1*
G1X15385Y24052D2*
G1X15385Y23941D1*
G1X15385Y23997D2*
G1X15052Y23997D1*
G1X15108Y23941D1*
G1X15497Y23738D2*
G1X15497Y23515D1*
G1X15330Y23368D2*
G1X15385Y23340D1*
G1X15385Y23173D1*
G1X15330Y23145D1*
G1X15108Y23145D1*
G1X15052Y23173D1*
G1X15052Y23340D1*
G1X15108Y23368D1*
G1X19300Y28025D2*
G1X19355Y28080D1*
G1X19411Y28108D1*
G1X19522Y28108D1*
G1X19577Y28080D1*
G1X19633Y28025D1*
G1X19633Y27969D1*
G1X19577Y27913D1*
G1X19522Y27886D1*
G1X19411Y27886D1*
G1X19355Y27913D1*
G1X19300Y27969D1*
G1X19300Y28025D1*
G1X19300Y28256D2*
G1X19300Y28478D1*
G1X19522Y28256D1*
G1X19577Y28256D1*
G1X19633Y28283D1*
G1X19633Y28450D1*
G1X19577Y28478D1*
G1X19466Y28709D2*
G1X19300Y28626D1*
G1X19466Y28848D2*
G1X19466Y28681D1*
G1X19522Y28626D1*
G1X19577Y28626D1*
G1X19633Y28681D1*
G1X19633Y28848D1*
G1X19300Y28848D1*
G1X18283Y28244D2*
G1X18617Y28244D1*
G1X18561Y28300D1*
G1X18450Y28356D1*
G1X18561Y28411D1*
G1X18617Y28467D1*
G1X18283Y28467D1*
G1X18617Y28614D2*
G1X18283Y28614D1*
G1X18339Y28670D1*
G1X18561Y28781D1*
G1X18617Y28837D1*
G1X18283Y28837D1*
G1X19610Y26364D2*
G1X19666Y26309D1*
G1X19777Y26309D1*
G1X19832Y26364D1*
G1X19832Y26420D1*
G1X19721Y26531D1*
G1X19832Y26642D1*
G1X19610Y26642D1*
G1X19240Y26364D2*
G1X19296Y26309D1*
G1X19407Y26309D1*
G1X19462Y26364D1*
G1X19462Y26420D1*
G1X19351Y26531D1*
G1X19462Y26642D1*
G1X19240Y26642D1*
G1X19092Y26364D2*
G1X19065Y26309D1*
G1X18898Y26309D1*
G1X18870Y26364D1*
G1X18870Y26587D1*
G1X18898Y26642D1*
G1X19065Y26642D1*
G1X19092Y26587D1*
G1X22720Y25293D2*
G1X22498Y25293D1*
G1X22720Y25515D1*
G1X22720Y25570D1*
G1X22692Y25626D1*
G1X22526Y25626D1*
G1X22498Y25570D1*
G1X22211Y25293D2*
G1X22156Y25348D1*
G1X22128Y25404D1*
G1X22128Y25515D1*
G1X22156Y25570D1*
G1X22211Y25626D1*
G1X22267Y25626D1*
G1X22322Y25570D1*
G1X22350Y25515D1*
G1X22350Y25404D1*
G1X22322Y25348D1*
G1X22267Y25293D1*
G1X22211Y25293D1*
G1X21980Y25404D2*
G1X21758Y25404D1*
G1X21869Y25626D1*
G1X21924Y25626D1*
G1X21924Y25293D1*
G1X21471Y25293D2*
G1X21416Y25348D1*
G1X21388Y25404D1*
G1X21388Y25515D1*
G1X21416Y25570D1*
G1X21471Y25626D1*
G1X21527Y25626D1*
G1X21582Y25570D1*
G1X21610Y25515D1*
G1X21610Y25404D1*
G1X21582Y25348D1*
G1X21527Y25293D1*
G1X21471Y25293D1*
G1X21240Y25181D2*
G1X21018Y25181D1*
G1X20676Y25181D2*
G1X20676Y25515D1*
G1X20842Y25515D1*
G1X20870Y25459D1*
G1X20870Y25348D1*
G1X20842Y25293D1*
G1X20676Y25293D1*
G1X20389Y25293D2*
G1X20333Y25348D1*
G1X20306Y25404D1*
G1X20306Y25515D1*
G1X20333Y25570D1*
G1X20389Y25626D1*
G1X20445Y25626D1*
G1X20500Y25570D1*
G1X20528Y25515D1*
G1X20528Y25404D1*
G1X20500Y25348D1*
G1X20445Y25293D1*
G1X20389Y25293D1*
G1X20019Y25293D2*
G1X19963Y25348D1*
G1X19936Y25404D1*
G1X19936Y25515D1*
G1X19963Y25570D1*
G1X20019Y25626D1*
G1X20075Y25626D1*
G1X20130Y25570D1*
G1X20158Y25515D1*
G1X20158Y25404D1*
G1X20130Y25348D1*
G1X20075Y25293D1*
G1X20019Y25293D1*
G1X19788Y25293D2*
G1X19677Y25293D1*
G1X19732Y25293D2*
G1X19732Y25626D1*
G1X19677Y25570D1*
G1X19474Y25181D2*
G1X19251Y25181D1*
G1X19104Y25348D2*
G1X19076Y25293D1*
G1X18909Y25293D1*
G1X18881Y25348D1*
G1X18881Y25570D1*
G1X18909Y25626D1*
G1X19076Y25626D1*
G1X19104Y25570D1*
G1X14809Y23732D2*
G1X14476Y23899D1*
G1X14476Y23676D1*
G1X14809Y23529D2*
G1X14809Y23334D1*
G1X14476Y23334D1*
G1X16000Y23578D2*
G1X16333Y23411D1*
G1X16333Y23634D1*
G1X16000Y23781D2*
G1X16000Y23892D1*
G1X16000Y23837D2*
G1X16333Y23837D1*
G1X16277Y23892D1*
G1X16166Y24179D2*
G1X16000Y24096D1*
G1X16166Y24318D2*
G1X16166Y24151D1*
G1X16222Y24096D1*
G1X16277Y24096D1*
G1X16333Y24151D1*
G1X16333Y24318D1*
G1X16000Y24318D1*
G1X14983Y23714D2*
G1X15317Y23714D1*
G1X15261Y23770D1*
G1X15150Y23826D1*
G1X15261Y23881D1*
G1X15317Y23937D1*
G1X14983Y23937D1*
G1X15317Y24084D2*
G1X14983Y24084D1*
G1X15039Y24140D1*
G1X15261Y24251D1*
G1X15317Y24307D1*
G1X14983Y24307D1*
G1X17709Y28177D2*
G1X17709Y27954D1*
G1X17487Y28177D1*
G1X17431Y28177D1*
G1X17376Y28149D1*
G1X17376Y27982D1*
G1X17431Y27954D1*
G1X17654Y27584D2*
G1X17709Y27640D1*
G1X17709Y27751D1*
G1X17654Y27807D1*
G1X17598Y27807D1*
G1X17487Y27695D1*
G1X17376Y27807D1*
G1X17376Y27584D1*
G1X17654Y27437D2*
G1X17709Y27409D1*
G1X17709Y27242D1*
G1X17654Y27214D1*
G1X17431Y27214D1*
G1X17376Y27242D1*
G1X17376Y27409D1*
G1X17431Y27437D1*
G1X18725Y31064D2*
G1X18725Y30842D1*
G1X18503Y31064D1*
G1X18448Y31064D1*
G1X18392Y31036D1*
G1X18392Y30870D1*
G1X18448Y30842D1*
G1X18725Y30555D2*
G1X18670Y30500D1*
G1X18614Y30472D1*
G1X18503Y30472D1*
G1X18448Y30500D1*
G1X18392Y30555D1*
G1X18392Y30611D1*
G1X18448Y30666D1*
G1X18503Y30694D1*
G1X18614Y30694D1*
G1X18670Y30666D1*
G1X18725Y30611D1*
G1X18725Y30555D1*
G1X18614Y30324D2*
G1X18614Y30102D1*
G1X18392Y30213D1*
G1X18392Y30269D1*
G1X18725Y30269D1*
G1X18725Y29815D2*
G1X18670Y29760D1*
G1X18614Y29732D1*
G1X18503Y29732D1*
G1X18448Y29760D1*
G1X18392Y29815D1*
G1X18392Y29871D1*
G1X18448Y29926D1*
G1X18503Y29954D1*
G1X18614Y29954D1*
G1X18670Y29926D1*
G1X18725Y29871D1*
G1X18725Y29815D1*
G1X18837Y29584D2*
G1X18837Y29362D1*
G1X18725Y29214D2*
G1X18559Y29214D1*
G1X18503Y29186D1*
G1X18503Y29020D1*
G1X18725Y29020D1*
G1X18725Y28733D2*
G1X18670Y28678D1*
G1X18614Y28650D1*
G1X18503Y28650D1*
G1X18448Y28678D1*
G1X18392Y28733D1*
G1X18392Y28789D1*
G1X18448Y28844D1*
G1X18503Y28872D1*
G1X18614Y28872D1*
G1X18670Y28844D1*
G1X18725Y28789D1*
G1X18725Y28733D1*
G1X18725Y28363D2*
G1X18670Y28308D1*
G1X18614Y28280D1*
G1X18503Y28280D1*
G1X18448Y28308D1*
G1X18392Y28363D1*
G1X18392Y28419D1*
G1X18448Y28474D1*
G1X18503Y28502D1*
G1X18614Y28502D1*
G1X18670Y28474D1*
G1X18725Y28419D1*
G1X18725Y28363D1*
G1X18725Y28132D2*
G1X18725Y28021D1*
G1X18725Y28077D2*
G1X18392Y28077D1*
G1X18448Y28021D1*
G1X18837Y27818D2*
G1X18837Y27595D1*
G1X18670Y27448D2*
G1X18725Y27420D1*
G1X18725Y27253D1*
G1X18670Y27225D1*
G1X18448Y27225D1*
G1X18392Y27253D1*
G1X18392Y27420D1*
G1X18448Y27448D1*
G1X19764Y25220D2*
G1X19597Y25220D1*
G1X19569Y25276D1*
G1X19569Y25332D1*
G1X19597Y25387D1*
G1X19764Y25387D1*
G1X19792Y25332D1*
G1X19792Y25276D1*
G1X19681Y25054D1*
G1X19422Y25054D2*
G1X19311Y25054D1*
G1X19366Y25054D2*
G1X19366Y25387D1*
G1X19311Y25332D1*
G1X19024Y25220D2*
G1X19107Y25054D1*
G1X18885Y25220D2*
G1X19052Y25220D1*
G1X19107Y25276D1*
G1X19107Y25332D1*
G1X19052Y25387D1*
G1X18885Y25387D1*
G1X18885Y25054D1*
G1X19489Y24038D2*
G1X19489Y24371D1*
G1X19433Y24315D1*
G1X19377Y24204D1*
G1X19322Y24315D1*
G1X19266Y24371D1*
G1X19266Y24038D1*
G1X19119Y24371D2*
G1X19119Y24038D1*
G1X19063Y24093D1*
G1X18952Y24315D1*
G1X18896Y24371D1*
G1X18896Y24038D1*
G1X14786Y22842D2*
G1X15009Y22842D1*
G1X14898Y22620D1*
G1X14842Y22620D1*
G1X14842Y22953D1*
G1X15379Y22898D2*
G1X15323Y22953D1*
G1X15212Y22953D1*
G1X15156Y22898D1*
G1X15156Y22842D1*
G1X15268Y22731D1*
G1X15156Y22620D1*
G1X15379Y22620D1*
G1X15526Y22898D2*
G1X15554Y22953D1*
G1X15721Y22953D1*
G1X15749Y22898D1*
G1X15749Y22676D1*
G1X15721Y22620D1*
G1X15554Y22620D1*
G1X15526Y22676D1*
G1X11899Y23970D2*
G1X12121Y23970D1*
G1X11899Y23747D1*
G1X11899Y23692D1*
G1X11927Y23636D1*
G1X12093Y23636D1*
G1X12121Y23692D1*
G1X12408Y23970D2*
G1X12463Y23914D1*
G1X12491Y23858D1*
G1X12491Y23747D1*
G1X12463Y23692D1*
G1X12408Y23636D1*
G1X12352Y23636D1*
G1X12297Y23692D1*
G1X12269Y23747D1*
G1X12269Y23858D1*
G1X12297Y23914D1*
G1X12352Y23970D1*
G1X12408Y23970D1*
G1X12639Y23858D2*
G1X12861Y23858D1*
G1X12750Y23636D1*
G1X12694Y23636D1*
G1X12694Y23970D1*
G1X13148Y23970D2*
G1X13203Y23914D1*
G1X13231Y23858D1*
G1X13231Y23747D1*
G1X13203Y23692D1*
G1X13148Y23636D1*
G1X13092Y23636D1*
G1X13037Y23692D1*
G1X13009Y23747D1*
G1X13009Y23858D1*
G1X13037Y23914D1*
G1X13092Y23970D1*
G1X13148Y23970D1*
G1X13379Y24081D2*
G1X13601Y24081D1*
G1X13749Y23970D2*
G1X13749Y23803D1*
G1X13777Y23747D1*
G1X13943Y23747D1*
G1X13943Y23970D1*
G1X14230Y23970D2*
G1X14285Y23914D1*
G1X14313Y23858D1*
G1X14313Y23747D1*
G1X14285Y23692D1*
G1X14230Y23636D1*
G1X14174Y23636D1*
G1X14119Y23692D1*
G1X14091Y23747D1*
G1X14091Y23858D1*
G1X14119Y23914D1*
G1X14174Y23970D1*
G1X14230Y23970D1*
G1X14683Y23914D2*
G1X14655Y23970D1*
G1X14489Y23970D1*
G1X14461Y23914D1*
G1X14461Y23803D1*
G1X14517Y23747D1*
G1X14683Y23747D1*
G1X14683Y23636D1*
G1X14461Y23636D1*
G1X14831Y23970D2*
G1X14942Y23970D1*
G1X14886Y23970D2*
G1X14886Y23636D1*
G1X14942Y23692D1*
G1X15145Y24081D2*
G1X15368Y24081D1*
G1X15515Y23914D2*
G1X15543Y23970D1*
G1X15710Y23970D1*
G1X15738Y23914D1*
G1X15738Y23692D1*
G1X15710Y23636D1*
G1X15543Y23636D1*
G1X15515Y23692D1*
G1X14466Y23761D2*
G1X14466Y23928D1*
G1X14522Y23956D1*
G1X14577Y23956D1*
G1X14633Y23928D1*
G1X14633Y23761D1*
G1X14577Y23733D1*
G1X14522Y23733D1*
G1X14300Y23845D1*
G1X14300Y24103D2*
G1X14300Y24298D1*
G1X14633Y24298D1*
G1X13283Y20762D2*
G1X13283Y20985D1*
G1X13506Y20762D1*
G1X13561Y20762D1*
G1X13617Y20790D1*
G1X13617Y20957D1*
G1X13561Y20985D1*
G1X13283Y21271D2*
G1X13339Y21327D1*
G1X13395Y21355D1*
G1X13506Y21355D1*
G1X13561Y21327D1*
G1X13617Y21271D1*
G1X13617Y21216D1*
G1X13561Y21160D1*
G1X13506Y21132D1*
G1X13395Y21132D1*
G1X13339Y21160D1*
G1X13283Y21216D1*
G1X13283Y21271D1*
G1X13395Y21502D2*
G1X13395Y21725D1*
G1X13617Y21613D1*
G1X13617Y21558D1*
G1X13283Y21558D1*
G1X13283Y22011D2*
G1X13339Y22067D1*
G1X13395Y22095D1*
G1X13506Y22095D1*
G1X13561Y22067D1*
G1X13617Y22011D1*
G1X13617Y21956D1*
G1X13561Y21900D1*
G1X13506Y21872D1*
G1X13395Y21872D1*
G1X13339Y21900D1*
G1X13283Y21956D1*
G1X13283Y22011D1*
G1X13172Y22242D2*
G1X13172Y22465D1*
G1X13283Y22807D2*
G1X13617Y22807D1*
G1X13283Y22835D2*
G1X13283Y22668D1*
G1X13395Y22612D1*
G1X13506Y22612D1*
G1X13617Y22668D1*
G1X13617Y22835D1*
G1X13283Y23177D2*
G1X13617Y23177D1*
G1X13283Y23205D2*
G1X13283Y23038D1*
G1X13339Y22982D1*
G1X13395Y22982D1*
G1X13450Y23010D1*
G1X13450Y23177D2*
G1X13450Y23010D1*
G1X13506Y22982D1*
G1X13561Y22982D1*
G1X13617Y23038D1*
G1X13617Y23205D1*
G1X13283Y23463D2*
G1X13617Y23463D1*
G1X13617Y23352D2*
G1X13617Y23575D1*
G1X13172Y23722D2*
G1X13172Y23945D1*
G1X13283Y24092D2*
G1X13283Y24287D1*
G1X13617Y24287D1*
G1X15654Y25553D2*
G1X15626Y25608D1*
G1X15459Y25608D1*
G1X15431Y25553D1*
G1X15431Y25442D1*
G1X15487Y25386D1*
G1X15654Y25386D1*
G1X15654Y25275D1*
G1X15431Y25275D1*
G1X15801Y25608D2*
G1X16024Y25608D1*
G1X15801Y25386D1*
G1X15801Y25331D1*
G1X15829Y25275D1*
G1X15996Y25275D1*
G1X16024Y25331D1*
G1X16171Y25553D2*
G1X16199Y25608D1*
G1X16366Y25608D1*
G1X16394Y25553D1*
G1X16394Y25331D1*
G1X16366Y25275D1*
G1X16199Y25275D1*
G1X16171Y25331D1*
G1X12488Y26625D2*
G1X12710Y26625D1*
G1X12488Y26402D1*
G1X12488Y26347D1*
G1X12516Y26291D1*
G1X12683Y26291D1*
G1X12710Y26347D1*
G1X12997Y26625D2*
G1X13053Y26569D1*
G1X13080Y26513D1*
G1X13080Y26402D1*
G1X13053Y26347D1*
G1X12997Y26291D1*
G1X12941Y26291D1*
G1X12886Y26347D1*
G1X12858Y26402D1*
G1X12858Y26513D1*
G1X12886Y26569D1*
G1X12941Y26625D1*
G1X12997Y26625D1*
G1X13228Y26513D2*
G1X13450Y26513D1*
G1X13339Y26291D1*
G1X13284Y26291D1*
G1X13284Y26625D1*
G1X13737Y26625D2*
G1X13793Y26569D1*
G1X13820Y26513D1*
G1X13820Y26402D1*
G1X13793Y26347D1*
G1X13737Y26291D1*
G1X13681Y26291D1*
G1X13626Y26347D1*
G1X13598Y26402D1*
G1X13598Y26513D1*
G1X13626Y26569D1*
G1X13681Y26625D1*
G1X13737Y26625D1*
G1X13968Y26736D2*
G1X14190Y26736D1*
G1X14533Y26736D2*
G1X14533Y26402D1*
G1X14366Y26402D1*
G1X14338Y26458D1*
G1X14338Y26569D1*
G1X14366Y26625D1*
G1X14533Y26625D1*
G1X14819Y26625D2*
G1X14875Y26569D1*
G1X14903Y26513D1*
G1X14903Y26402D1*
G1X14875Y26347D1*
G1X14819Y26291D1*
G1X14764Y26291D1*
G1X14708Y26347D1*
G1X14680Y26402D1*
G1X14680Y26513D1*
G1X14708Y26569D1*
G1X14764Y26625D1*
G1X14819Y26625D1*
G1X15217Y26625D2*
G1X15050Y26291D1*
G1X15273Y26291D1*
G1X15420Y26513D2*
G1X15643Y26513D1*
G1X15531Y26291D1*
G1X15476Y26291D1*
G1X15476Y26625D1*
G1X15790Y26736D2*
G1X16013Y26736D1*
G1X16160Y26569D2*
G1X16188Y26625D1*
G1X16355Y26625D1*
G1X16383Y26569D1*
G1X16383Y26347D1*
G1X16355Y26291D1*
G1X16188Y26291D1*
G1X16160Y26347D1*
G1X11306Y27293D2*
G1X11529Y27293D1*
G1X11306Y27071D1*
G1X11306Y27016D1*
G1X11334Y26960D1*
G1X11501Y26960D1*
G1X11529Y27016D1*
G1X11676Y27238D2*
G1X11704Y27293D1*
G1X11871Y27293D1*
G1X11899Y27238D1*
G1X11899Y27016D1*
G1X11871Y26960D1*
G1X11704Y26960D1*
G1X11676Y27016D1*
G1X8049Y28310D2*
G1X8271Y28310D1*
G1X8049Y28087D1*
G1X8049Y28032D1*
G1X8077Y27976D1*
G1X8243Y27976D1*
G1X8271Y28032D1*
G1X8558Y28310D2*
G1X8613Y28254D1*
G1X8641Y28198D1*
G1X8641Y28087D1*
G1X8613Y28032D1*
G1X8558Y27976D1*
G1X8502Y27976D1*
G1X8447Y28032D1*
G1X8419Y28087D1*
G1X8419Y28198D1*
G1X8447Y28254D1*
G1X8502Y28310D1*
G1X8558Y28310D1*
G1X8789Y28198D2*
G1X9011Y28198D1*
G1X8900Y27976D1*
G1X8844Y27976D1*
G1X8844Y28310D1*
G1X9298Y28310D2*
G1X9353Y28254D1*
G1X9381Y28198D1*
G1X9381Y28087D1*
G1X9353Y28032D1*
G1X9298Y27976D1*
G1X9242Y27976D1*
G1X9187Y28032D1*
G1X9159Y28087D1*
G1X9159Y28198D1*
G1X9187Y28254D1*
G1X9242Y28310D1*
G1X9298Y28310D1*
G1X9529Y28421D2*
G1X9751Y28421D1*
G1X9899Y28310D2*
G1X9899Y28143D1*
G1X9927Y28087D1*
G1X10093Y28087D1*
G1X10093Y28310D1*
G1X10380Y28310D2*
G1X10435Y28254D1*
G1X10463Y28198D1*
G1X10463Y28087D1*
G1X10435Y28032D1*
G1X10380Y27976D1*
G1X10324Y27976D1*
G1X10269Y28032D1*
G1X10241Y28087D1*
G1X10241Y28198D1*
G1X10269Y28254D1*
G1X10324Y28310D1*
G1X10380Y28310D1*
G1X10750Y28310D2*
G1X10805Y28254D1*
G1X10833Y28198D1*
G1X10833Y28087D1*
G1X10805Y28032D1*
G1X10750Y27976D1*
G1X10694Y27976D1*
G1X10639Y28032D1*
G1X10611Y28087D1*
G1X10611Y28198D1*
G1X10639Y28254D1*
G1X10694Y28310D1*
G1X10750Y28310D1*
G1X10981Y28310D2*
G1X11092Y28310D1*
G1X11036Y28310D2*
G1X11036Y27976D1*
G1X11092Y28032D1*
G1X11295Y28421D2*
G1X11518Y28421D1*
G1X11665Y28254D2*
G1X11693Y28310D1*
G1X11860Y28310D1*
G1X11888Y28254D1*
G1X11888Y28032D1*
G1X11860Y27976D1*
G1X11693Y27976D1*
G1X11665Y28032D1*
G1X18059Y21158D2*
G1X18004Y21213D1*
G1X17893Y21213D1*
G1X17837Y21158D1*
G1X17837Y21102D1*
G1X17948Y20991D1*
G1X17837Y20880D1*
G1X18059Y20880D1*
G1X18207Y21213D2*
G1X18318Y21213D1*
G1X18263Y21213D2*
G1X18263Y20880D1*
G1X18318Y20936D1*
G1X18521Y21158D2*
G1X18549Y21213D1*
G1X18716Y21213D1*
G1X18744Y21158D1*
G1X18744Y20936D1*
G1X18716Y20880D1*
G1X18549Y20880D1*
G1X18521Y20936D1*
G1X15180Y22230D2*
G1X15403Y22230D1*
G1X15180Y22007D1*
G1X15180Y21952D1*
G1X15208Y21896D1*
G1X15375Y21896D1*
G1X15403Y21952D1*
G1X15689Y22230D2*
G1X15745Y22174D1*
G1X15773Y22118D1*
G1X15773Y22007D1*
G1X15745Y21952D1*
G1X15689Y21896D1*
G1X15634Y21896D1*
G1X15578Y21952D1*
G1X15550Y22007D1*
G1X15550Y22118D1*
G1X15578Y22174D1*
G1X15634Y22230D1*
G1X15689Y22230D1*
G1X15920Y22118D2*
G1X16143Y22118D1*
G1X16031Y21896D1*
G1X15976Y21896D1*
G1X15976Y22230D1*
G1X16429Y22230D2*
G1X16485Y22174D1*
G1X16513Y22118D1*
G1X16513Y22007D1*
G1X16485Y21952D1*
G1X16429Y21896D1*
G1X16374Y21896D1*
G1X16318Y21952D1*
G1X16290Y22007D1*
G1X16290Y22118D1*
G1X16318Y22174D1*
G1X16374Y22230D1*
G1X16429Y22230D1*
G1X16660Y22341D2*
G1X16883Y22341D1*
G1X17225Y22230D2*
G1X17225Y21896D1*
G1X17253Y22230D2*
G1X17086Y22230D1*
G1X17030Y22118D1*
G1X17030Y22007D1*
G1X17086Y21896D1*
G1X17253Y21896D1*
G1X17595Y22230D2*
G1X17595Y21896D1*
G1X17623Y22230D2*
G1X17456Y22230D1*
G1X17400Y22174D1*
G1X17400Y22118D1*
G1X17428Y22063D1*
G1X17595Y22063D2*
G1X17428Y22063D1*
G1X17400Y22007D1*
G1X17400Y21952D1*
G1X17456Y21896D1*
G1X17623Y21896D1*
G1X17881Y22230D2*
G1X17881Y21896D1*
G1X17770Y21896D2*
G1X17993Y21896D1*
G1X18140Y22341D2*
G1X18363Y22341D1*
G1X18510Y22174D2*
G1X18538Y22230D1*
G1X18705Y22230D1*
G1X18733Y22174D1*
G1X18733Y21952D1*
G1X18705Y21896D1*
G1X18538Y21896D1*
G1X18510Y21952D1*
G1X17943Y23366D2*
G1X18110Y23700D1*
G1X17888Y23700D1*
G1X17740Y23422D2*
G1X17712Y23366D1*
G1X17545Y23366D1*
G1X17518Y23422D1*
G1X17518Y23644D1*
G1X17545Y23700D1*
G1X17712Y23700D1*
G1X17740Y23644D1*
G1X21368Y22350D2*
G1X21145Y22350D1*
G1X21368Y22572D1*
G1X21368Y22628D1*
G1X21340Y22683D1*
G1X21173Y22683D1*
G1X21145Y22628D1*
G1X20859Y22350D2*
G1X20803Y22406D1*
G1X20775Y22461D1*
G1X20775Y22572D1*
G1X20803Y22628D1*
G1X20859Y22683D1*
G1X20914Y22683D1*
G1X20970Y22628D1*
G1X20998Y22572D1*
G1X20998Y22461D1*
G1X20970Y22406D1*
G1X20914Y22350D1*
G1X20859Y22350D1*
G1X20628Y22461D2*
G1X20405Y22461D1*
G1X20516Y22683D1*
G1X20572Y22683D1*
G1X20572Y22350D1*
G1X20119Y22350D2*
G1X20063Y22406D1*
G1X20035Y22461D1*
G1X20035Y22572D1*
G1X20063Y22628D1*
G1X20119Y22683D1*
G1X20174Y22683D1*
G1X20230Y22628D1*
G1X20258Y22572D1*
G1X20258Y22461D1*
G1X20230Y22406D1*
G1X20174Y22350D1*
G1X20119Y22350D1*
G1X19888Y22239D2*
G1X19665Y22239D1*
G1X19518Y22350D2*
G1X19518Y22517D1*
G1X19490Y22572D1*
G1X19323Y22572D1*
G1X19323Y22350D1*
G1X19036Y22350D2*
G1X18981Y22406D1*
G1X18953Y22461D1*
G1X18953Y22572D1*
G1X18981Y22628D1*
G1X19036Y22683D1*
G1X19092Y22683D1*
G1X19148Y22628D1*
G1X19175Y22572D1*
G1X19175Y22461D1*
G1X19148Y22406D1*
G1X19092Y22350D1*
G1X19036Y22350D1*
G1X18666Y22350D2*
G1X18611Y22406D1*
G1X18583Y22461D1*
G1X18583Y22572D1*
G1X18611Y22628D1*
G1X18666Y22683D1*
G1X18722Y22683D1*
G1X18778Y22628D1*
G1X18805Y22572D1*
G1X18805Y22461D1*
G1X18778Y22406D1*
G1X18722Y22350D1*
G1X18666Y22350D1*
G1X18435Y22350D2*
G1X18324Y22350D1*
G1X18380Y22350D2*
G1X18380Y22683D1*
G1X18324Y22628D1*
G1X18121Y22239D2*
G1X17899Y22239D1*
G1X17751Y22406D2*
G1X17723Y22350D1*
G1X17557Y22350D1*
G1X17529Y22406D1*
G1X17529Y22628D1*
G1X17557Y22683D1*
G1X17723Y22683D1*
G1X17751Y22628D1*
G1X25265Y19891D2*
G1X25265Y20113D1*
G1X25487Y19891D1*
G1X25542Y19891D1*
G1X25598Y19918D1*
G1X25598Y20085D1*
G1X25542Y20113D1*
G1X25431Y20344D2*
G1X25265Y20261D1*
G1X25431Y20483D2*
G1X25431Y20316D1*
G1X25487Y20261D1*
G1X25542Y20261D1*
G1X25598Y20316D1*
G1X25598Y20483D1*
G1X25265Y20483D1*
G1X24248Y16633D2*
G1X24248Y16855D1*
G1X24471Y16633D1*
G1X24526Y16633D1*
G1X24582Y16661D1*
G1X24582Y16827D1*
G1X24526Y16855D1*
G1X24248Y17142D2*
G1X24304Y17197D1*
G1X24360Y17225D1*
G1X24471Y17225D1*
G1X24526Y17197D1*
G1X24582Y17142D1*
G1X24582Y17086D1*
G1X24526Y17031D1*
G1X24471Y17003D1*
G1X24360Y17003D1*
G1X24304Y17031D1*
G1X24248Y17086D1*
G1X24248Y17142D1*
G1X24360Y17373D2*
G1X24360Y17595D1*
G1X24582Y17484D1*
G1X24582Y17429D1*
G1X24248Y17429D1*
G1X24248Y17882D2*
G1X24304Y17937D1*
G1X24360Y17965D1*
G1X24471Y17965D1*
G1X24526Y17937D1*
G1X24582Y17882D1*
G1X24582Y17826D1*
G1X24526Y17771D1*
G1X24471Y17743D1*
G1X24360Y17743D1*
G1X24304Y17771D1*
G1X24248Y17826D1*
G1X24248Y17882D1*
G1X24137Y18113D2*
G1X24137Y18335D1*
G1X24360Y18594D2*
G1X24360Y18650D1*
G1X24248Y18483D2*
G1X24360Y18594D1*
G1X24471Y18483D1*
G1X24248Y18650D2*
G1X24582Y18650D1*
G1X24248Y18964D2*
G1X24304Y19020D1*
G1X24360Y19047D1*
G1X24471Y19047D1*
G1X24526Y19020D1*
G1X24582Y18964D1*
G1X24582Y18908D1*
G1X24526Y18853D1*
G1X24471Y18825D1*
G1X24360Y18825D1*
G1X24304Y18853D1*
G1X24248Y18908D1*
G1X24248Y18964D1*
G1X24248Y19334D2*
G1X24304Y19390D1*
G1X24360Y19417D1*
G1X24471Y19417D1*
G1X24526Y19390D1*
G1X24582Y19334D1*
G1X24582Y19278D1*
G1X24526Y19223D1*
G1X24471Y19195D1*
G1X24360Y19195D1*
G1X24304Y19223D1*
G1X24248Y19278D1*
G1X24248Y19334D1*
G1X24248Y19565D2*
G1X24248Y19676D1*
G1X24248Y19621D2*
G1X24582Y19621D1*
G1X24526Y19676D1*
G1X24137Y19879D2*
G1X24137Y20102D1*
G1X24415Y20333D2*
G1X24248Y20249D1*
G1X24415Y20472D2*
G1X24415Y20305D1*
G1X24471Y20249D1*
G1X24526Y20249D1*
G1X24582Y20305D1*
G1X24582Y20472D1*
G1X24248Y20472D1*
G1X17695Y21426D2*
G1X17640Y21370D1*
G1X17640Y21259D1*
G1X17695Y21203D1*
G1X17751Y21203D1*
G1X17862Y21315D1*
G1X17973Y21203D1*
G1X17973Y21426D1*
G1X17640Y21573D2*
G1X17640Y21768D1*
G1X17973Y21768D1*
G1X16623Y18232D2*
G1X16623Y18455D1*
G1X16846Y18232D1*
G1X16901Y18232D1*
G1X16957Y18260D1*
G1X16957Y18427D1*
G1X16901Y18455D1*
G1X16623Y18741D2*
G1X16679Y18797D1*
G1X16735Y18825D1*
G1X16846Y18825D1*
G1X16901Y18797D1*
G1X16957Y18741D1*
G1X16957Y18686D1*
G1X16901Y18630D1*
G1X16846Y18602D1*
G1X16735Y18602D1*
G1X16679Y18630D1*
G1X16623Y18686D1*
G1X16623Y18741D1*
G1X16735Y18972D2*
G1X16735Y19195D1*
G1X16957Y19083D1*
G1X16957Y19028D1*
G1X16623Y19028D1*
G1X16623Y19481D2*
G1X16679Y19537D1*
G1X16735Y19565D1*
G1X16846Y19565D1*
G1X16901Y19537D1*
G1X16957Y19481D1*
G1X16957Y19426D1*
G1X16901Y19370D1*
G1X16846Y19342D1*
G1X16735Y19342D1*
G1X16679Y19370D1*
G1X16623Y19426D1*
G1X16623Y19481D1*
G1X16512Y19712D2*
G1X16512Y19935D1*
G1X16623Y20277D2*
G1X16957Y20277D1*
G1X16623Y20305D2*
G1X16623Y20138D1*
G1X16735Y20082D1*
G1X16846Y20082D1*
G1X16957Y20138D1*
G1X16957Y20305D1*
G1X16623Y20647D2*
G1X16957Y20647D1*
G1X16623Y20675D2*
G1X16623Y20508D1*
G1X16679Y20452D1*
G1X16735Y20452D1*
G1X16790Y20480D1*
G1X16790Y20647D2*
G1X16790Y20480D1*
G1X16846Y20452D1*
G1X16901Y20452D1*
G1X16957Y20508D1*
G1X16957Y20675D1*
G1X16623Y20933D2*
G1X16957Y20933D1*
G1X16957Y20822D2*
G1X16957Y21045D1*
G1X16512Y21192D2*
G1X16512Y21415D1*
G1X16623Y21562D2*
G1X16623Y21757D1*
G1X16957Y21757D1*
G1X15289Y26633D2*
G1X15234Y26577D1*
G1X15178Y26549D1*
G1X15067Y26549D1*
G1X15011Y26577D1*
G1X14956Y26633D1*
G1X14956Y26688D1*
G1X15011Y26744D1*
G1X15067Y26772D1*
G1X15178Y26772D1*
G1X15234Y26744D1*
G1X15289Y26688D1*
G1X15289Y26633D1*
G1X15234Y26179D2*
G1X15289Y26235D1*
G1X15289Y26346D1*
G1X15234Y26402D1*
G1X15178Y26402D1*
G1X15067Y26290D1*
G1X14956Y26402D1*
G1X14956Y26179D1*
G1X15234Y26032D2*
G1X15289Y26004D1*
G1X15289Y25837D1*
G1X15234Y25809D1*
G1X15011Y25809D1*
G1X14956Y25837D1*
G1X14956Y26004D1*
G1X15011Y26032D1*
G1X16305Y29659D2*
G1X16305Y29437D1*
G1X16083Y29659D1*
G1X16028Y29659D1*
G1X15972Y29631D1*
G1X15972Y29465D1*
G1X16028Y29437D1*
G1X16305Y29150D2*
G1X16250Y29095D1*
G1X16194Y29067D1*
G1X16083Y29067D1*
G1X16028Y29095D1*
G1X15972Y29150D1*
G1X15972Y29206D1*
G1X16028Y29261D1*
G1X16083Y29289D1*
G1X16194Y29289D1*
G1X16250Y29261D1*
G1X16305Y29206D1*
G1X16305Y29150D1*
G1X16194Y28919D2*
G1X16194Y28697D1*
G1X15972Y28808D1*
G1X15972Y28864D1*
G1X16305Y28864D1*
G1X16305Y28410D2*
G1X16250Y28355D1*
G1X16194Y28327D1*
G1X16083Y28327D1*
G1X16028Y28355D1*
G1X15972Y28410D1*
G1X15972Y28466D1*
G1X16028Y28521D1*
G1X16083Y28549D1*
G1X16194Y28549D1*
G1X16250Y28521D1*
G1X16305Y28466D1*
G1X16305Y28410D1*
G1X16417Y28179D2*
G1X16417Y27957D1*
G1X16305Y27809D2*
G1X16139Y27809D1*
G1X16083Y27781D1*
G1X16083Y27615D1*
G1X16305Y27615D1*
G1X16305Y27328D2*
G1X16250Y27273D1*
G1X16194Y27245D1*
G1X16083Y27245D1*
G1X16028Y27273D1*
G1X15972Y27328D1*
G1X15972Y27384D1*
G1X16028Y27439D1*
G1X16083Y27467D1*
G1X16194Y27467D1*
G1X16250Y27439D1*
G1X16305Y27384D1*
G1X16305Y27328D1*
G1X16305Y26958D2*
G1X16250Y26903D1*
G1X16194Y26875D1*
G1X16083Y26875D1*
G1X16028Y26903D1*
G1X15972Y26958D1*
G1X15972Y27014D1*
G1X16028Y27069D1*
G1X16083Y27097D1*
G1X16194Y27097D1*
G1X16250Y27069D1*
G1X16305Y27014D1*
G1X16305Y26958D1*
G1X16305Y26727D2*
G1X16305Y26616D1*
G1X16305Y26672D2*
G1X15972Y26672D1*
G1X16028Y26616D1*
G1X16417Y26413D2*
G1X16417Y26190D1*
G1X16250Y26043D2*
G1X16305Y26015D1*
G1X16305Y25848D1*
G1X16250Y25820D1*
G1X16028Y25820D1*
G1X15972Y25848D1*
G1X15972Y26015D1*
G1X16028Y26043D1*
G1X19663Y25188D2*
G1X19774Y25188D1*
G1X19718Y25188D2*
G1X19718Y24855D1*
G1X19774Y24911D1*
G1X19977Y25188D2*
G1X20088Y25188D1*
G1X20033Y25188D2*
G1X20033Y24855D1*
G1X20088Y24911D1*
G1X20291Y25133D2*
G1X20319Y25188D1*
G1X20486Y25188D1*
G1X20514Y25133D1*
G1X20514Y24911D1*
G1X20486Y24855D1*
G1X20319Y24855D1*
G1X20291Y24911D1*
G1X16664Y26205D2*
G1X16886Y26205D1*
G1X16664Y25982D1*
G1X16664Y25927D1*
G1X16692Y25871D1*
G1X16858Y25871D1*
G1X16886Y25927D1*
G1X17173Y26205D2*
G1X17228Y26149D1*
G1X17256Y26093D1*
G1X17256Y25982D1*
G1X17228Y25927D1*
G1X17173Y25871D1*
G1X17117Y25871D1*
G1X17062Y25927D1*
G1X17034Y25982D1*
G1X17034Y26093D1*
G1X17062Y26149D1*
G1X17117Y26205D1*
G1X17173Y26205D1*
G1X17404Y26093D2*
G1X17626Y26093D1*
G1X17515Y25871D1*
G1X17459Y25871D1*
G1X17459Y26205D1*
G1X17913Y26205D2*
G1X17968Y26149D1*
G1X17996Y26093D1*
G1X17996Y25982D1*
G1X17968Y25927D1*
G1X17913Y25871D1*
G1X17857Y25871D1*
G1X17802Y25927D1*
G1X17774Y25982D1*
G1X17774Y26093D1*
G1X17802Y26149D1*
G1X17857Y26205D1*
G1X17913Y26205D1*
G1X18144Y26316D2*
G1X18366Y26316D1*
G1X18708Y26316D2*
G1X18708Y25982D1*
G1X18542Y25982D1*
G1X18514Y26038D1*
G1X18514Y26149D1*
G1X18542Y26205D1*
G1X18708Y26205D1*
G1X18995Y26205D2*
G1X19050Y26149D1*
G1X19078Y26093D1*
G1X19078Y25982D1*
G1X19050Y25927D1*
G1X18995Y25871D1*
G1X18939Y25871D1*
G1X18884Y25927D1*
G1X18856Y25982D1*
G1X18856Y26093D1*
G1X18884Y26149D1*
G1X18939Y26205D1*
G1X18995Y26205D1*
G1X19365Y26205D2*
G1X19420Y26149D1*
G1X19448Y26093D1*
G1X19448Y25982D1*
G1X19420Y25927D1*
G1X19365Y25871D1*
G1X19309Y25871D1*
G1X19254Y25927D1*
G1X19226Y25982D1*
G1X19226Y26093D1*
G1X19254Y26149D1*
G1X19309Y26205D1*
G1X19365Y26205D1*
G1X19596Y26205D2*
G1X19707Y26205D1*
G1X19651Y26205D2*
G1X19651Y25871D1*
G1X19707Y25927D1*
G1X19910Y26316D2*
G1X20133Y26316D1*
G1X20280Y26149D2*
G1X20308Y26205D1*
G1X20475Y26205D1*
G1X20503Y26149D1*
G1X20503Y25927D1*
G1X20475Y25871D1*
G1X20308Y25871D1*
G1X20280Y25927D1*
G1X15212Y24237D2*
G1X15184Y24181D1*
G1X15184Y24126D1*
G1X15212Y24070D1*
G1X15379Y24070D1*
G1X15407Y24126D1*
G1X15407Y24181D1*
G1X15379Y24237D1*
G1X15212Y24237D1*
G1X15184Y24292D1*
G1X15184Y24348D1*
G1X15212Y24403D1*
G1X15379Y24403D1*
G1X15407Y24348D1*
G1X15407Y24292D1*
G1X15379Y24237D1*
G1X15554Y24403D2*
G1X15749Y24403D1*
G1X15749Y24070D1*
G1X12213Y25420D2*
G1X12435Y25420D1*
G1X12213Y25197D1*
G1X12213Y25142D1*
G1X12241Y25086D1*
G1X12408Y25086D1*
G1X12435Y25142D1*
G1X12722Y25420D2*
G1X12778Y25364D1*
G1X12805Y25308D1*
G1X12805Y25197D1*
G1X12778Y25142D1*
G1X12722Y25086D1*
G1X12666Y25086D1*
G1X12611Y25142D1*
G1X12583Y25197D1*
G1X12583Y25308D1*
G1X12611Y25364D1*
G1X12666Y25420D1*
G1X12722Y25420D1*
G1X12953Y25308D2*
G1X13175Y25308D1*
G1X13064Y25086D1*
G1X13009Y25086D1*
G1X13009Y25420D1*
G1X13462Y25420D2*
G1X13518Y25364D1*
G1X13545Y25308D1*
G1X13545Y25197D1*
G1X13518Y25142D1*
G1X13462Y25086D1*
G1X13406Y25086D1*
G1X13351Y25142D1*
G1X13323Y25197D1*
G1X13323Y25308D1*
G1X13351Y25364D1*
G1X13406Y25420D1*
G1X13462Y25420D1*
G1X13693Y25531D2*
G1X13915Y25531D1*
G1X14258Y25420D2*
G1X14258Y25086D1*
G1X14285Y25420D2*
G1X14119Y25420D1*
G1X14063Y25308D1*
G1X14063Y25197D1*
G1X14119Y25086D1*
G1X14285Y25086D1*
G1X14628Y25420D2*
G1X14628Y25086D1*
G1X14655Y25420D2*
G1X14489Y25420D1*
G1X14433Y25364D1*
G1X14433Y25308D1*
G1X14461Y25253D1*
G1X14628Y25253D2*
G1X14461Y25253D1*
G1X14433Y25197D1*
G1X14433Y25142D1*
G1X14489Y25086D1*
G1X14655Y25086D1*
G1X14914Y25420D2*
G1X14914Y25086D1*
G1X14803Y25086D2*
G1X15025Y25086D1*
G1X15173Y25531D2*
G1X15395Y25531D1*
G1X15543Y25420D2*
G1X15738Y25420D1*
G1X15738Y25086D1*
G1X13639Y20842D2*
G1X13806Y20842D1*
G1X13834Y20786D1*
G1X13834Y20731D1*
G1X13806Y20675D1*
G1X13639Y20675D1*
G1X13611Y20731D1*
G1X13611Y20786D1*
G1X13723Y21008D1*
G1X13981Y21008D2*
G1X14204Y21008D1*
G1X13981Y20786D1*
G1X13981Y20731D1*
G1X14009Y20675D1*
G1X14176Y20675D1*
G1X14204Y20731D1*
G1X14351Y20953D2*
G1X14379Y21008D1*
G1X14546Y21008D1*
G1X14574Y20953D1*
G1X14574Y20731D1*
G1X14546Y20675D1*
G1X14379Y20675D1*
G1X14351Y20731D1*
G1X11010Y22025D2*
G1X11233Y22025D1*
G1X11010Y21802D1*
G1X11010Y21747D1*
G1X11038Y21691D1*
G1X11205Y21691D1*
G1X11233Y21747D1*
G1X11519Y22025D2*
G1X11575Y21969D1*
G1X11603Y21913D1*
G1X11603Y21802D1*
G1X11575Y21747D1*
G1X11519Y21691D1*
G1X11464Y21691D1*
G1X11408Y21747D1*
G1X11380Y21802D1*
G1X11380Y21913D1*
G1X11408Y21969D1*
G1X11464Y22025D1*
G1X11519Y22025D1*
G1X11750Y21913D2*
G1X11973Y21913D1*
G1X11861Y21691D1*
G1X11806Y21691D1*
G1X11806Y22025D1*
G1X12259Y22025D2*
G1X12315Y21969D1*
G1X12343Y21913D1*
G1X12343Y21802D1*
G1X12315Y21747D1*
G1X12259Y21691D1*
G1X12204Y21691D1*
G1X12148Y21747D1*
G1X12120Y21802D1*
G1X12120Y21913D1*
G1X12148Y21969D1*
G1X12204Y22025D1*
G1X12259Y22025D1*
G1X12490Y22136D2*
G1X12713Y22136D1*
G1X13055Y22025D2*
G1X13055Y21691D1*
G1X13083Y22025D2*
G1X12916Y22025D1*
G1X12860Y21913D1*
G1X12860Y21802D1*
G1X12916Y21691D1*
G1X13083Y21691D1*
G1X13425Y22025D2*
G1X13425Y21691D1*
G1X13453Y22025D2*
G1X13286Y22025D1*
G1X13230Y21969D1*
G1X13230Y21913D1*
G1X13258Y21858D1*
G1X13425Y21858D2*
G1X13258Y21858D1*
G1X13230Y21802D1*
G1X13230Y21747D1*
G1X13286Y21691D1*
G1X13453Y21691D1*
G1X13711Y22025D2*
G1X13711Y21691D1*
G1X13600Y21691D2*
G1X13823Y21691D1*
G1X13970Y22136D2*
G1X14193Y22136D1*
G1X14340Y21969D2*
G1X14368Y22025D1*
G1X14535Y22025D1*
G1X14563Y21969D1*
G1X14563Y21747D1*
G1X14535Y21691D1*
G1X14368Y21691D1*
G1X14340Y21747D1*
G1X19695Y27919D2*
G1X19695Y28030D1*
G1X19695Y27975D2*
G1X20028Y27975D1*
G1X19972Y28030D1*
G1X19695Y28233D2*
G1X19695Y28428D1*
G1X20028Y28428D1*
G1X18678Y24892D2*
G1X18678Y25115D1*
G1X18901Y24892D1*
G1X18956Y24892D1*
G1X19012Y24920D1*
G1X19012Y25087D1*
G1X18956Y25115D1*
G1X18678Y25401D2*
G1X18734Y25457D1*
G1X18790Y25485D1*
G1X18901Y25485D1*
G1X18956Y25457D1*
G1X19012Y25401D1*
G1X19012Y25346D1*
G1X18956Y25290D1*
G1X18901Y25262D1*
G1X18790Y25262D1*
G1X18734Y25290D1*
G1X18678Y25346D1*
G1X18678Y25401D1*
G1X18790Y25632D2*
G1X18790Y25855D1*
G1X19012Y25743D1*
G1X19012Y25688D1*
G1X18678Y25688D1*
G1X18678Y26141D2*
G1X18734Y26197D1*
G1X18790Y26225D1*
G1X18901Y26225D1*
G1X18956Y26197D1*
G1X19012Y26141D1*
G1X19012Y26086D1*
G1X18956Y26030D1*
G1X18901Y26002D1*
G1X18790Y26002D1*
G1X18734Y26030D1*
G1X18678Y26086D1*
G1X18678Y26141D1*
G1X18567Y26372D2*
G1X18567Y26595D1*
G1X18678Y26937D2*
G1X19012Y26937D1*
G1X18678Y26965D2*
G1X18678Y26798D1*
G1X18790Y26742D1*
G1X18901Y26742D1*
G1X19012Y26798D1*
G1X19012Y26965D1*
G1X18678Y27307D2*
G1X19012Y27307D1*
G1X18678Y27335D2*
G1X18678Y27168D1*
G1X18734Y27112D1*
G1X18790Y27112D1*
G1X18845Y27140D1*
G1X18845Y27307D2*
G1X18845Y27140D1*
G1X18901Y27112D1*
G1X18956Y27112D1*
G1X19012Y27168D1*
G1X19012Y27335D1*
G1X18678Y27593D2*
G1X19012Y27593D1*
G1X19012Y27482D2*
G1X19012Y27705D1*
G1X18567Y27852D2*
G1X18567Y28075D1*
G1X18678Y28222D2*
G1X18678Y28417D1*
G1X19012Y28417D1*
G1X16379Y26179D2*
G1X16434Y26207D1*
G1X16434Y26374D1*
G1X16379Y26402D1*
G1X16268Y26402D1*
G1X16212Y26346D1*
G1X16212Y26179D1*
G1X16101Y26179D1*
G1X16101Y26402D1*
G1X16379Y26032D2*
G1X16434Y26004D1*
G1X16434Y25837D1*
G1X16379Y25809D1*
G1X16156Y25809D1*
G1X16101Y25837D1*
G1X16101Y26004D1*
G1X16156Y26032D1*
G1X17450Y29659D2*
G1X17450Y29437D1*
G1X17228Y29659D1*
G1X17173Y29659D1*
G1X17117Y29631D1*
G1X17117Y29465D1*
G1X17173Y29437D1*
G1X17450Y29150D2*
G1X17395Y29095D1*
G1X17339Y29067D1*
G1X17228Y29067D1*
G1X17173Y29095D1*
G1X17117Y29150D1*
G1X17117Y29206D1*
G1X17173Y29261D1*
G1X17228Y29289D1*
G1X17339Y29289D1*
G1X17395Y29261D1*
G1X17450Y29206D1*
G1X17450Y29150D1*
G1X17339Y28919D2*
G1X17339Y28697D1*
G1X17117Y28808D1*
G1X17117Y28864D1*
G1X17450Y28864D1*
G1X17450Y28410D2*
G1X17395Y28355D1*
G1X17339Y28327D1*
G1X17228Y28327D1*
G1X17173Y28355D1*
G1X17117Y28410D1*
G1X17117Y28466D1*
G1X17173Y28521D1*
G1X17228Y28549D1*
G1X17339Y28549D1*
G1X17395Y28521D1*
G1X17450Y28466D1*
G1X17450Y28410D1*
G1X17562Y28179D2*
G1X17562Y27957D1*
G1X17450Y27809D2*
G1X17284Y27809D1*
G1X17228Y27781D1*
G1X17228Y27615D1*
G1X17450Y27615D1*
G1X17450Y27328D2*
G1X17395Y27273D1*
G1X17339Y27245D1*
G1X17228Y27245D1*
G1X17173Y27273D1*
G1X17117Y27328D1*
G1X17117Y27384D1*
G1X17173Y27439D1*
G1X17228Y27467D1*
G1X17339Y27467D1*
G1X17395Y27439D1*
G1X17450Y27384D1*
G1X17450Y27328D1*
G1X17450Y26958D2*
G1X17395Y26903D1*
G1X17339Y26875D1*
G1X17228Y26875D1*
G1X17173Y26903D1*
G1X17117Y26958D1*
G1X17117Y27014D1*
G1X17173Y27069D1*
G1X17228Y27097D1*
G1X17339Y27097D1*
G1X17395Y27069D1*
G1X17450Y27014D1*
G1X17450Y26958D1*
G1X17450Y26727D2*
G1X17450Y26616D1*
G1X17450Y26672D2*
G1X17117Y26672D1*
G1X17173Y26616D1*
G1X17562Y26413D2*
G1X17562Y26190D1*
G1X17395Y26043D2*
G1X17450Y26015D1*
G1X17450Y25848D1*
G1X17395Y25820D1*
G1X17173Y25820D1*
G1X17117Y25848D1*
G1X17117Y26015D1*
G1X17173Y26043D1*
G1X18835Y27861D2*
G1X18835Y28084D1*
G1X19057Y27861D1*
G1X19112Y27861D1*
G1X19168Y27889D1*
G1X19168Y28056D1*
G1X19112Y28084D1*
G1X18835Y28231D2*
G1X18835Y28342D1*
G1X18835Y28287D2*
G1X19168Y28287D1*
G1X19112Y28342D1*
G1X18890Y28546D2*
G1X18835Y28573D1*
G1X18835Y28740D1*
G1X18890Y28768D1*
G1X19112Y28768D1*
G1X19168Y28740D1*
G1X19168Y28573D1*
G1X19112Y28546D1*
G1X17890Y26002D2*
G1X17834Y25947D1*
G1X17834Y25836D1*
G1X17890Y25780D1*
G1X17946Y25780D1*
G1X18057Y25891D1*
G1X18168Y25780D1*
G1X18168Y26002D1*
G1X17834Y26289D2*
G1X17890Y26345D1*
G1X17946Y26372D1*
G1X18057Y26372D1*
G1X18112Y26345D1*
G1X18168Y26289D1*
G1X18168Y26233D1*
G1X18112Y26178D1*
G1X18057Y26150D1*
G1X17946Y26150D1*
G1X17890Y26178D1*
G1X17834Y26233D1*
G1X17834Y26289D1*
G1X18001Y26715D2*
G1X18001Y26548D1*
G1X17946Y26520D1*
G1X17890Y26520D1*
G1X17834Y26548D1*
G1X17834Y26715D1*
G1X17890Y26742D1*
G1X17946Y26742D1*
G1X18168Y26631D1*
G1X17834Y27029D2*
G1X17890Y27085D1*
G1X17946Y27112D1*
G1X18057Y27112D1*
G1X18112Y27085D1*
G1X18168Y27029D1*
G1X18168Y26973D1*
G1X18112Y26918D1*
G1X18057Y26890D1*
G1X17946Y26890D1*
G1X17890Y26918D1*
G1X17834Y26973D1*
G1X17834Y27029D1*
G1X17723Y27260D2*
G1X17723Y27482D1*
G1X18168Y27630D2*
G1X17890Y27630D1*
G1X17834Y27658D1*
G1X17834Y27825D1*
G1X17890Y27852D1*
G1X18168Y27852D1*
G1X17834Y28000D2*
G1X17834Y28111D1*
G1X17834Y28056D2*
G1X18168Y28056D1*
G1X18112Y28111D1*
G1X17723Y28314D2*
G1X17723Y28537D1*
G1X17890Y28684D2*
G1X17834Y28712D1*
G1X17834Y28879D1*
G1X17890Y28907D1*
G1X18112Y28907D1*
G1X18168Y28879D1*
G1X18168Y28712D1*
G1X18112Y28684D1*
G1X18082Y23918D2*
G1X18110Y23973D1*
G1X18110Y24029D1*
G1X18082Y24085D1*
G1X17915Y24085D1*
G1X17888Y24029D1*
G1X17888Y23973D1*
G1X17915Y23918D1*
G1X18082Y23918D1*
G1X18110Y23862D1*
G1X18110Y23807D1*
G1X18082Y23751D1*
G1X17915Y23751D1*
G1X17888Y23807D1*
G1X17888Y23862D1*
G1X17915Y23918D1*
G1X17740Y23807D2*
G1X17712Y23751D1*
G1X17545Y23751D1*
G1X17518Y23807D1*
G1X17518Y24029D1*
G1X17545Y24085D1*
G1X17712Y24085D1*
G1X17740Y24029D1*
G1X21368Y22735D2*
G1X21145Y22735D1*
G1X21368Y22957D1*
G1X21368Y23013D1*
G1X21340Y23068D1*
G1X21173Y23068D1*
G1X21145Y23013D1*
G1X20859Y22735D2*
G1X20803Y22791D1*
G1X20775Y22846D1*
G1X20775Y22957D1*
G1X20803Y23013D1*
G1X20859Y23068D1*
G1X20914Y23068D1*
G1X20970Y23013D1*
G1X20998Y22957D1*
G1X20998Y22846D1*
G1X20970Y22791D1*
G1X20914Y22735D1*
G1X20859Y22735D1*
G1X20628Y22846D2*
G1X20405Y22846D1*
G1X20516Y23068D1*
G1X20572Y23068D1*
G1X20572Y22735D1*
G1X20119Y22735D2*
G1X20063Y22791D1*
G1X20035Y22846D1*
G1X20035Y22957D1*
G1X20063Y23013D1*
G1X20119Y23068D1*
G1X20174Y23068D1*
G1X20230Y23013D1*
G1X20258Y22957D1*
G1X20258Y22846D1*
G1X20230Y22791D1*
G1X20174Y22735D1*
G1X20119Y22735D1*
G1X19888Y22624D2*
G1X19665Y22624D1*
G1X19323Y22624D2*
G1X19323Y22957D1*
G1X19490Y22957D1*
G1X19518Y22902D1*
G1X19518Y22791D1*
G1X19490Y22735D1*
G1X19323Y22735D1*
G1X19036Y22735D2*
G1X18981Y22791D1*
G1X18953Y22846D1*
G1X18953Y22957D1*
G1X18981Y23013D1*
G1X19036Y23068D1*
G1X19092Y23068D1*
G1X19148Y23013D1*
G1X19175Y22957D1*
G1X19175Y22846D1*
G1X19148Y22791D1*
G1X19092Y22735D1*
G1X19036Y22735D1*
G1X18666Y22735D2*
G1X18611Y22791D1*
G1X18583Y22846D1*
G1X18583Y22957D1*
G1X18611Y23013D1*
G1X18666Y23068D1*
G1X18722Y23068D1*
G1X18778Y23013D1*
G1X18805Y22957D1*
G1X18805Y22846D1*
G1X18778Y22791D1*
G1X18722Y22735D1*
G1X18666Y22735D1*
G1X18435Y22735D2*
G1X18324Y22735D1*
G1X18380Y22735D2*
G1X18380Y23068D1*
G1X18324Y23013D1*
G1X18121Y22624D2*
G1X17899Y22624D1*
G1X17751Y22791D2*
G1X17723Y22735D1*
G1X17557Y22735D1*
G1X17529Y22791D1*
G1X17529Y23013D1*
G1X17557Y23068D1*
G1X17723Y23068D1*
G1X17751Y23013D1*
G1X16845Y21990D2*
G1X16622Y21990D1*
G1X16733Y22212D1*
G1X16789Y22212D1*
G1X16789Y21879D1*
G1X16475Y21879D2*
G1X16280Y21879D1*
G1X16280Y22212D1*
G1X19816Y20863D2*
G1X19593Y20863D1*
G1X19816Y21085D1*
G1X19816Y21140D1*
G1X19788Y21196D1*
G1X19621Y21196D1*
G1X19593Y21140D1*
G1X19307Y20863D2*
G1X19251Y20918D1*
G1X19223Y20974D1*
G1X19223Y21085D1*
G1X19251Y21140D1*
G1X19307Y21196D1*
G1X19362Y21196D1*
G1X19418Y21140D1*
G1X19446Y21085D1*
G1X19446Y20974D1*
G1X19418Y20918D1*
G1X19362Y20863D1*
G1X19307Y20863D1*
G1X19076Y20974D2*
G1X18853Y20974D1*
G1X18965Y21196D1*
G1X19020Y21196D1*
G1X19020Y20863D1*
G1X18567Y20863D2*
G1X18511Y20918D1*
G1X18483Y20974D1*
G1X18483Y21085D1*
G1X18511Y21140D1*
G1X18567Y21196D1*
G1X18622Y21196D1*
G1X18678Y21140D1*
G1X18706Y21085D1*
G1X18706Y20974D1*
G1X18678Y20918D1*
G1X18622Y20863D1*
G1X18567Y20863D1*
G1X18336Y20751D2*
G1X18113Y20751D1*
G1X17771Y20863D2*
G1X17771Y21196D1*
G1X17743Y20863D2*
G1X17910Y20863D1*
G1X17966Y20974D1*
G1X17966Y21085D1*
G1X17910Y21196D1*
G1X17743Y21196D1*
G1X17401Y20863D2*
G1X17401Y21196D1*
G1X17373Y20863D2*
G1X17540Y20863D1*
G1X17596Y20918D1*
G1X17596Y20974D1*
G1X17568Y21029D1*
G1X17401Y21029D2*
G1X17568Y21029D1*
G1X17596Y21085D1*
G1X17596Y21140D1*
G1X17540Y21196D1*
G1X17373Y21196D1*
G1X17115Y20863D2*
G1X17115Y21196D1*
G1X17226Y21196D2*
G1X17003Y21196D1*
G1X16856Y20751D2*
G1X16633Y20751D1*
G1X16486Y20863D2*
G1X16291Y20863D1*
G1X16291Y21196D1*
G1X19746Y24798D2*
G1X19802Y24743D1*
G1X19829Y24687D1*
G1X19829Y24576D1*
G1X19802Y24521D1*
G1X19746Y24465D1*
G1X19690Y24465D1*
G1X19635Y24521D1*
G1X19607Y24576D1*
G1X19607Y24687D1*
G1X19635Y24743D1*
G1X19690Y24798D1*
G1X19746Y24798D1*
G1X19977Y24798D2*
G1X20088Y24798D1*
G1X20033Y24798D2*
G1X20033Y24465D1*
G1X20088Y24521D1*
G1X20291Y24743D2*
G1X20319Y24798D1*
G1X20486Y24798D1*
G1X20514Y24743D1*
G1X20514Y24521D1*
G1X20486Y24465D1*
G1X20319Y24465D1*
G1X20291Y24521D1*
G1X16664Y25815D2*
G1X16886Y25815D1*
G1X16664Y25592D1*
G1X16664Y25537D1*
G1X16692Y25481D1*
G1X16858Y25481D1*
G1X16886Y25537D1*
G1X17173Y25815D2*
G1X17228Y25759D1*
G1X17256Y25703D1*
G1X17256Y25592D1*
G1X17228Y25537D1*
G1X17173Y25481D1*
G1X17117Y25481D1*
G1X17062Y25537D1*
G1X17034Y25592D1*
G1X17034Y25703D1*
G1X17062Y25759D1*
G1X17117Y25815D1*
G1X17173Y25815D1*
G1X17404Y25703D2*
G1X17626Y25703D1*
G1X17515Y25481D1*
G1X17459Y25481D1*
G1X17459Y25815D1*
G1X17913Y25815D2*
G1X17968Y25759D1*
G1X17996Y25703D1*
G1X17996Y25592D1*
G1X17968Y25537D1*
G1X17913Y25481D1*
G1X17857Y25481D1*
G1X17802Y25537D1*
G1X17774Y25592D1*
G1X17774Y25703D1*
G1X17802Y25759D1*
G1X17857Y25815D1*
G1X17913Y25815D1*
G1X18144Y25926D2*
G1X18366Y25926D1*
G1X18514Y25815D2*
G1X18514Y25648D1*
G1X18542Y25592D1*
G1X18708Y25592D1*
G1X18708Y25815D1*
G1X18995Y25815D2*
G1X19050Y25759D1*
G1X19078Y25703D1*
G1X19078Y25592D1*
G1X19050Y25537D1*
G1X18995Y25481D1*
G1X18939Y25481D1*
G1X18884Y25537D1*
G1X18856Y25592D1*
G1X18856Y25703D1*
G1X18884Y25759D1*
G1X18939Y25815D1*
G1X18995Y25815D1*
G1X19365Y25815D2*
G1X19420Y25759D1*
G1X19448Y25703D1*
G1X19448Y25592D1*
G1X19420Y25537D1*
G1X19365Y25481D1*
G1X19309Y25481D1*
G1X19254Y25537D1*
G1X19226Y25592D1*
G1X19226Y25703D1*
G1X19254Y25759D1*
G1X19309Y25815D1*
G1X19365Y25815D1*
G1X19596Y25815D2*
G1X19707Y25815D1*
G1X19651Y25815D2*
G1X19651Y25481D1*
G1X19707Y25537D1*
G1X19910Y25926D2*
G1X20133Y25926D1*
G1X20280Y25759D2*
G1X20308Y25815D1*
G1X20475Y25815D1*
G1X20503Y25759D1*
G1X20503Y25537D1*
G1X20475Y25481D1*
G1X20308Y25481D1*
G1X20280Y25537D1*
G1X16024Y25188D2*
G1X15968Y25243D1*
G1X15857Y25243D1*
G1X15801Y25188D1*
G1X15801Y25132D1*
G1X15913Y25021D1*
G1X15801Y24910D1*
G1X16024Y24910D1*
G1X16171Y25188D2*
G1X16199Y25243D1*
G1X16366Y25243D1*
G1X16394Y25188D1*
G1X16394Y24966D1*
G1X16366Y24910D1*
G1X16199Y24910D1*
G1X16171Y24966D1*
G1X12544Y26260D2*
G1X12766Y26260D1*
G1X12544Y26037D1*
G1X12544Y25982D1*
G1X12572Y25926D1*
G1X12738Y25926D1*
G1X12766Y25982D1*
G1X13053Y26260D2*
G1X13108Y26204D1*
G1X13136Y26148D1*
G1X13136Y26037D1*
G1X13108Y25982D1*
G1X13053Y25926D1*
G1X12997Y25926D1*
G1X12942Y25982D1*
G1X12914Y26037D1*
G1X12914Y26148D1*
G1X12942Y26204D1*
G1X12997Y26260D1*
G1X13053Y26260D1*
G1X13284Y26148D2*
G1X13506Y26148D1*
G1X13395Y25926D1*
G1X13339Y25926D1*
G1X13339Y26260D1*
G1X13793Y26260D2*
G1X13848Y26204D1*
G1X13876Y26148D1*
G1X13876Y26037D1*
G1X13848Y25982D1*
G1X13793Y25926D1*
G1X13737Y25926D1*
G1X13682Y25982D1*
G1X13654Y26037D1*
G1X13654Y26148D1*
G1X13682Y26204D1*
G1X13737Y26260D1*
G1X13793Y26260D1*
G1X14024Y26371D2*
G1X14246Y26371D1*
G1X14394Y26260D2*
G1X14394Y26093D1*
G1X14422Y26037D1*
G1X14588Y26037D1*
G1X14588Y26260D1*
G1X14875Y26260D2*
G1X14930Y26204D1*
G1X14958Y26148D1*
G1X14958Y26037D1*
G1X14930Y25982D1*
G1X14875Y25926D1*
G1X14819Y25926D1*
G1X14764Y25982D1*
G1X14736Y26037D1*
G1X14736Y26148D1*
G1X14764Y26204D1*
G1X14819Y26260D1*
G1X14875Y26260D1*
G1X15245Y26260D2*
G1X15300Y26204D1*
G1X15328Y26148D1*
G1X15328Y26037D1*
G1X15300Y25982D1*
G1X15245Y25926D1*
G1X15189Y25926D1*
G1X15134Y25982D1*
G1X15106Y26037D1*
G1X15106Y26148D1*
G1X15134Y26204D1*
G1X15189Y26260D1*
G1X15245Y26260D1*
G1X15476Y26260D2*
G1X15587Y26260D1*
G1X15531Y26260D2*
G1X15531Y25926D1*
G1X15587Y25982D1*
G1X15790Y26371D2*
G1X16013Y26371D1*
G1X16160Y26204D2*
G1X16188Y26260D1*
G1X16355Y26260D1*
G1X16383Y26204D1*
G1X16383Y25982D1*
G1X16355Y25926D1*
G1X16188Y25926D1*
G1X16160Y25982D1*
G1X23702Y23379D2*
G1X23591Y23379D1*
G1X23646Y23379D2*
G1X23646Y23712D1*
G1X23591Y23657D1*
G1X23304Y23545D2*
G1X23387Y23379D1*
G1X23165Y23545D2*
G1X23332Y23545D1*
G1X23387Y23601D1*
G1X23387Y23657D1*
G1X23332Y23712D1*
G1X23165Y23712D1*
G1X23165Y23379D1*
G1X27015Y22363D2*
G1X26793Y22363D1*
G1X27015Y22585D1*
G1X27015Y22640D1*
G1X26987Y22696D1*
G1X26821Y22696D1*
G1X26793Y22640D1*
G1X26506Y22363D2*
G1X26451Y22418D1*
G1X26423Y22474D1*
G1X26423Y22585D1*
G1X26451Y22640D1*
G1X26506Y22696D1*
G1X26562Y22696D1*
G1X26617Y22640D1*
G1X26645Y22585D1*
G1X26645Y22474D1*
G1X26617Y22418D1*
G1X26562Y22363D1*
G1X26506Y22363D1*
G1X26275Y22474D2*
G1X26053Y22474D1*
G1X26164Y22696D1*
G1X26219Y22696D1*
G1X26219Y22363D1*
G1X25766Y22363D2*
G1X25711Y22418D1*
G1X25683Y22474D1*
G1X25683Y22585D1*
G1X25711Y22640D1*
G1X25766Y22696D1*
G1X25822Y22696D1*
G1X25877Y22640D1*
G1X25905Y22585D1*
G1X25905Y22474D1*
G1X25877Y22418D1*
G1X25822Y22363D1*
G1X25766Y22363D1*
G1X25535Y22251D2*
G1X25313Y22251D1*
G1X25054Y22474D2*
G1X24998Y22474D1*
G1X25165Y22363D2*
G1X25054Y22474D1*
G1X25165Y22585D1*
G1X24998Y22363D2*
G1X24998Y22696D1*
G1X24684Y22363D2*
G1X24628Y22418D1*
G1X24601Y22474D1*
G1X24601Y22585D1*
G1X24628Y22640D1*
G1X24684Y22696D1*
G1X24740Y22696D1*
G1X24795Y22640D1*
G1X24823Y22585D1*
G1X24823Y22474D1*
G1X24795Y22418D1*
G1X24740Y22363D1*
G1X24684Y22363D1*
G1X24314Y22363D2*
G1X24258Y22418D1*
G1X24231Y22474D1*
G1X24231Y22585D1*
G1X24258Y22640D1*
G1X24314Y22696D1*
G1X24370Y22696D1*
G1X24425Y22640D1*
G1X24453Y22585D1*
G1X24453Y22474D1*
G1X24425Y22418D1*
G1X24370Y22363D1*
G1X24314Y22363D1*
G1X24083Y22363D2*
G1X23972Y22363D1*
G1X24027Y22363D2*
G1X24027Y22696D1*
G1X23972Y22640D1*
G1X23769Y22251D2*
G1X23546Y22251D1*
G1X23315Y22529D2*
G1X23399Y22363D1*
G1X23176Y22529D2*
G1X23343Y22529D1*
G1X23399Y22585D1*
G1X23399Y22640D1*
G1X23343Y22696D1*
G1X23176Y22696D1*
G1X23176Y22363D1*
G1X13318Y17888D2*
G1X13318Y17777D1*
G1X13318Y17832D2*
G1X12985Y17832D1*
G1X13040Y17777D1*
G1X13207Y17379D2*
G1X13263Y17379D1*
G1X13318Y17407D1*
G1X13318Y17518D1*
G1X13263Y17545D1*
G1X12985Y17545D1*
G1X12985Y17573D2*
G1X12985Y17462D1*
G1X8913Y28783D2*
G1X8858Y28839D1*
G1X8747Y28839D1*
G1X8691Y28783D1*
G1X8691Y28727D1*
G1X8802Y28616D1*
G1X8691Y28505D1*
G1X8913Y28505D1*
G1X9200Y28839D2*
G1X9255Y28783D1*
G1X9283Y28727D1*
G1X9283Y28616D1*
G1X9255Y28561D1*
G1X9200Y28505D1*
G1X9144Y28505D1*
G1X9089Y28561D1*
G1X9061Y28616D1*
G1X9061Y28727D1*
G1X9089Y28783D1*
G1X9144Y28839D1*
G1X9200Y28839D1*
G1X9625Y28672D2*
G1X9459Y28672D1*
G1X9431Y28727D1*
G1X9431Y28783D1*
G1X9459Y28839D1*
G1X9625Y28839D1*
G1X9653Y28783D1*
G1X9653Y28727D1*
G1X9542Y28505D1*
G1X9940Y28839D2*
G1X9995Y28783D1*
G1X10023Y28727D1*
G1X10023Y28616D1*
G1X9995Y28561D1*
G1X9940Y28505D1*
G1X9884Y28505D1*
G1X9829Y28561D1*
G1X9801Y28616D1*
G1X9801Y28727D1*
G1X9829Y28783D1*
G1X9884Y28839D1*
G1X9940Y28839D1*
G1X10171Y28950D2*
G1X10393Y28950D1*
G1X10541Y28505D2*
G1X10541Y28783D1*
G1X10569Y28839D1*
G1X10735Y28839D1*
G1X10763Y28783D1*
G1X10763Y28505D1*
G1X10911Y28839D2*
G1X11022Y28839D1*
G1X10966Y28839D2*
G1X10966Y28505D1*
G1X11022Y28561D1*
G1X11225Y28950D2*
G1X11448Y28950D1*
G1X11595Y28783D2*
G1X11623Y28839D1*
G1X11790Y28839D1*
G1X11818Y28783D1*
G1X11818Y28561D1*
G1X11790Y28505D1*
G1X11623Y28505D1*
G1X11595Y28561D1*
G1X11142Y27838D2*
G1X11253Y27838D1*
G1X11198Y27838D2*
G1X11198Y27505D1*
G1X11253Y27561D1*
G1X11456Y27783D2*
G1X11484Y27838D1*
G1X11651Y27838D1*
G1X11679Y27783D1*
G1X11679Y27561D1*
G1X11651Y27505D1*
G1X11484Y27505D1*
G1X11456Y27561D1*
G1X17229Y21573D2*
G1X17202Y21628D1*
G1X17035Y21628D1*
G1X17007Y21573D1*
G1X17007Y21462D1*
G1X17063Y21406D1*
G1X17229Y21406D1*
G1X17229Y21295D1*
G1X17007Y21295D1*
G1X17377Y21628D2*
G1X17488Y21628D1*
G1X17433Y21628D2*
G1X17433Y21295D1*
G1X17488Y21351D1*
G1X17691Y21573D2*
G1X17719Y21628D1*
G1X17886Y21628D1*
G1X17914Y21573D1*
G1X17914Y21351D1*
G1X17886Y21295D1*
G1X17719Y21295D1*
G1X17691Y21351D1*
G1X14350Y22645D2*
G1X14573Y22645D1*
G1X14350Y22422D1*
G1X14350Y22367D1*
G1X14378Y22311D1*
G1X14545Y22311D1*
G1X14573Y22367D1*
G1X14859Y22645D2*
G1X14915Y22589D1*
G1X14943Y22533D1*
G1X14943Y22422D1*
G1X14915Y22367D1*
G1X14859Y22311D1*
G1X14804Y22311D1*
G1X14748Y22367D1*
G1X14720Y22422D1*
G1X14720Y22533D1*
G1X14748Y22589D1*
G1X14804Y22645D1*
G1X14859Y22645D1*
G1X15090Y22533D2*
G1X15313Y22533D1*
G1X15201Y22311D1*
G1X15146Y22311D1*
G1X15146Y22645D1*
G1X15599Y22645D2*
G1X15655Y22589D1*
G1X15683Y22533D1*
G1X15683Y22422D1*
G1X15655Y22367D1*
G1X15599Y22311D1*
G1X15544Y22311D1*
G1X15488Y22367D1*
G1X15460Y22422D1*
G1X15460Y22533D1*
G1X15488Y22589D1*
G1X15544Y22645D1*
G1X15599Y22645D1*
G1X15830Y22756D2*
G1X16053Y22756D1*
G1X16395Y22645D2*
G1X16395Y22311D1*
G1X16423Y22645D2*
G1X16256Y22645D1*
G1X16200Y22533D1*
G1X16200Y22422D1*
G1X16256Y22311D1*
G1X16423Y22311D1*
G1X16765Y22645D2*
G1X16765Y22311D1*
G1X16793Y22645D2*
G1X16626Y22645D1*
G1X16570Y22589D1*
G1X16570Y22533D1*
G1X16598Y22478D1*
G1X16765Y22478D2*
G1X16598Y22478D1*
G1X16570Y22422D1*
G1X16570Y22367D1*
G1X16626Y22311D1*
G1X16793Y22311D1*
G1X17051Y22645D2*
G1X17051Y22311D1*
G1X16940Y22311D2*
G1X17163Y22311D1*
G1X17310Y22756D2*
G1X17533Y22756D1*
G1X17680Y22589D2*
G1X17708Y22645D1*
G1X17875Y22645D1*
G1X17903Y22589D1*
G1X17903Y22367D1*
G1X17875Y22311D1*
G1X17708Y22311D1*
G1X17680Y22367D1*
G1X13639Y22302D2*
G1X13611Y22246D1*
G1X13611Y22191D1*
G1X13639Y22135D1*
G1X13806Y22135D1*
G1X13834Y22191D1*
G1X13834Y22246D1*
G1X13806Y22302D1*
G1X13639Y22302D1*
G1X13611Y22357D1*
G1X13611Y22413D1*
G1X13639Y22468D1*
G1X13806Y22468D1*
G1X13834Y22413D1*
G1X13834Y22357D1*
G1X13806Y22302D1*
G1X13981Y22468D2*
G1X14204Y22468D1*
G1X13981Y22246D1*
G1X13981Y22191D1*
G1X14009Y22135D1*
G1X14176Y22135D1*
G1X14204Y22191D1*
G1X14351Y22413D2*
G1X14379Y22468D1*
G1X14546Y22468D1*
G1X14574Y22413D1*
G1X14574Y22191D1*
G1X14546Y22135D1*
G1X14379Y22135D1*
G1X14351Y22191D1*
G1X11010Y23485D2*
G1X11233Y23485D1*
G1X11010Y23262D1*
G1X11010Y23207D1*
G1X11038Y23151D1*
G1X11205Y23151D1*
G1X11233Y23207D1*
G1X11519Y23485D2*
G1X11575Y23429D1*
G1X11603Y23373D1*
G1X11603Y23262D1*
G1X11575Y23207D1*
G1X11519Y23151D1*
G1X11464Y23151D1*
G1X11408Y23207D1*
G1X11380Y23262D1*
G1X11380Y23373D1*
G1X11408Y23429D1*
G1X11464Y23485D1*
G1X11519Y23485D1*
G1X11750Y23373D2*
G1X11973Y23373D1*
G1X11861Y23151D1*
G1X11806Y23151D1*
G1X11806Y23485D1*
G1X12259Y23485D2*
G1X12315Y23429D1*
G1X12343Y23373D1*
G1X12343Y23262D1*
G1X12315Y23207D1*
G1X12259Y23151D1*
G1X12204Y23151D1*
G1X12148Y23207D1*
G1X12120Y23262D1*
G1X12120Y23373D1*
G1X12148Y23429D1*
G1X12204Y23485D1*
G1X12259Y23485D1*
G1X12490Y23596D2*
G1X12713Y23596D1*
G1X13055Y23485D2*
G1X13055Y23151D1*
G1X13083Y23485D2*
G1X12916Y23485D1*
G1X12860Y23373D1*
G1X12860Y23262D1*
G1X12916Y23151D1*
G1X13083Y23151D1*
G1X13425Y23485D2*
G1X13425Y23151D1*
G1X13453Y23485D2*
G1X13286Y23485D1*
G1X13230Y23429D1*
G1X13230Y23373D1*
G1X13258Y23318D1*
G1X13425Y23318D2*
G1X13258Y23318D1*
G1X13230Y23262D1*
G1X13230Y23207D1*
G1X13286Y23151D1*
G1X13453Y23151D1*
G1X13711Y23485D2*
G1X13711Y23151D1*
G1X13600Y23151D2*
G1X13823Y23151D1*
G1X13970Y23596D2*
G1X14193Y23596D1*
G1X14340Y23429D2*
G1X14368Y23485D1*
G1X14535Y23485D1*
G1X14563Y23429D1*
G1X14563Y23207D1*
G1X14535Y23151D1*
G1X14368Y23151D1*
G1X14340Y23207D1*
G1X23429Y18428D2*
G1X23373Y18483D1*
G1X23262Y18483D1*
G1X23206Y18428D1*
G1X23206Y18372D1*
G1X23318Y18261D1*
G1X23206Y18150D1*
G1X23429Y18150D1*
G1X23660Y18317D2*
G1X23576Y18483D1*
G1X23799Y18317D2*
G1X23632Y18317D1*
G1X23576Y18261D1*
G1X23576Y18206D1*
G1X23632Y18150D1*
G1X23799Y18150D1*
G1X23799Y18483D1*
G1X19949Y19500D2*
G1X20171Y19500D1*
G1X19949Y19277D1*
G1X19949Y19222D1*
G1X19977Y19166D1*
G1X20143Y19166D1*
G1X20171Y19222D1*
G1X20458Y19500D2*
G1X20513Y19444D1*
G1X20541Y19388D1*
G1X20541Y19277D1*
G1X20513Y19222D1*
G1X20458Y19166D1*
G1X20402Y19166D1*
G1X20347Y19222D1*
G1X20319Y19277D1*
G1X20319Y19388D1*
G1X20347Y19444D1*
G1X20402Y19500D1*
G1X20458Y19500D1*
G1X20689Y19388D2*
G1X20911Y19388D1*
G1X20800Y19166D1*
G1X20744Y19166D1*
G1X20744Y19500D1*
G1X21198Y19500D2*
G1X21253Y19444D1*
G1X21281Y19388D1*
G1X21281Y19277D1*
G1X21253Y19222D1*
G1X21198Y19166D1*
G1X21142Y19166D1*
G1X21087Y19222D1*
G1X21059Y19277D1*
G1X21059Y19388D1*
G1X21087Y19444D1*
G1X21142Y19500D1*
G1X21198Y19500D1*
G1X21429Y19611D2*
G1X21651Y19611D1*
G1X21910Y19388D2*
G1X21965Y19388D1*
G1X21799Y19500D2*
G1X21910Y19388D1*
G1X21799Y19277D1*
G1X21965Y19500D2*
G1X21965Y19166D1*
G1X22280Y19500D2*
G1X22335Y19444D1*
G1X22363Y19388D1*
G1X22363Y19277D1*
G1X22335Y19222D1*
G1X22280Y19166D1*
G1X22224Y19166D1*
G1X22169Y19222D1*
G1X22141Y19277D1*
G1X22141Y19388D1*
G1X22169Y19444D1*
G1X22224Y19500D1*
G1X22280Y19500D1*
G1X22650Y19500D2*
G1X22705Y19444D1*
G1X22733Y19388D1*
G1X22733Y19277D1*
G1X22705Y19222D1*
G1X22650Y19166D1*
G1X22594Y19166D1*
G1X22539Y19222D1*
G1X22511Y19277D1*
G1X22511Y19388D1*
G1X22539Y19444D1*
G1X22594Y19500D1*
G1X22650Y19500D1*
G1X22881Y19500D2*
G1X22992Y19500D1*
G1X22936Y19500D2*
G1X22936Y19166D1*
G1X22992Y19222D1*
G1X23195Y19611D2*
G1X23418Y19611D1*
G1X23649Y19333D2*
G1X23565Y19500D1*
G1X23788Y19333D2*
G1X23621Y19333D1*
G1X23565Y19277D1*
G1X23565Y19222D1*
G1X23621Y19166D1*
G1X23788Y19166D1*
G1X23788Y19500D1*
G1X15669Y26716D2*
G1X15669Y26605D1*
G1X15669Y26660D2*
G1X15336Y26660D1*
G1X15391Y26605D1*
G1X15614Y26179D2*
G1X15669Y26235D1*
G1X15669Y26346D1*
G1X15614Y26402D1*
G1X15558Y26402D1*
G1X15447Y26290D1*
G1X15336Y26402D1*
G1X15336Y26179D1*
G1X15614Y26032D2*
G1X15669Y26004D1*
G1X15669Y25837D1*
G1X15614Y25809D1*
G1X15391Y25809D1*
G1X15336Y25837D1*
G1X15336Y26004D1*
G1X15391Y26032D1*
G1X16685Y29659D2*
G1X16685Y29437D1*
G1X16463Y29659D1*
G1X16408Y29659D1*
G1X16352Y29631D1*
G1X16352Y29465D1*
G1X16408Y29437D1*
G1X16685Y29150D2*
G1X16630Y29095D1*
G1X16574Y29067D1*
G1X16463Y29067D1*
G1X16408Y29095D1*
G1X16352Y29150D1*
G1X16352Y29206D1*
G1X16408Y29261D1*
G1X16463Y29289D1*
G1X16574Y29289D1*
G1X16630Y29261D1*
G1X16685Y29206D1*
G1X16685Y29150D1*
G1X16574Y28919D2*
G1X16574Y28697D1*
G1X16352Y28808D1*
G1X16352Y28864D1*
G1X16685Y28864D1*
G1X16685Y28410D2*
G1X16630Y28355D1*
G1X16574Y28327D1*
G1X16463Y28327D1*
G1X16408Y28355D1*
G1X16352Y28410D1*
G1X16352Y28466D1*
G1X16408Y28521D1*
G1X16463Y28549D1*
G1X16574Y28549D1*
G1X16630Y28521D1*
G1X16685Y28466D1*
G1X16685Y28410D1*
G1X16797Y28179D2*
G1X16797Y27957D1*
G1X16797Y27615D2*
G1X16463Y27615D1*
G1X16463Y27781D1*
G1X16519Y27809D1*
G1X16630Y27809D1*
G1X16685Y27781D1*
G1X16685Y27615D1*
G1X16685Y27328D2*
G1X16630Y27273D1*
G1X16574Y27245D1*
G1X16463Y27245D1*
G1X16408Y27273D1*
G1X16352Y27328D1*
G1X16352Y27384D1*
G1X16408Y27439D1*
G1X16463Y27467D1*
G1X16574Y27467D1*
G1X16630Y27439D1*
G1X16685Y27384D1*
G1X16685Y27328D1*
G1X16685Y26958D2*
G1X16630Y26903D1*
G1X16574Y26875D1*
G1X16463Y26875D1*
G1X16408Y26903D1*
G1X16352Y26958D1*
G1X16352Y27014D1*
G1X16408Y27069D1*
G1X16463Y27097D1*
G1X16574Y27097D1*
G1X16630Y27069D1*
G1X16685Y27014D1*
G1X16685Y26958D1*
G1X16685Y26727D2*
G1X16685Y26616D1*
G1X16685Y26672D2*
G1X16352Y26672D1*
G1X16408Y26616D1*
G1X16797Y26413D2*
G1X16797Y26190D1*
G1X16630Y26043D2*
G1X16685Y26015D1*
G1X16685Y25848D1*
G1X16630Y25820D1*
G1X16408Y25820D1*
G1X16352Y25848D1*
G1X16352Y26015D1*
G1X16408Y26043D1*
G1X16440Y23578D2*
G1X16385Y23522D1*
G1X16385Y23411D1*
G1X16440Y23356D1*
G1X16496Y23356D1*
G1X16607Y23467D1*
G1X16718Y23356D1*
G1X16718Y23578D1*
G1X16385Y23726D2*
G1X16385Y23948D1*
G1X16607Y23726D1*
G1X16662Y23726D1*
G1X16718Y23753D1*
G1X16718Y23920D1*
G1X16662Y23948D1*
G1X16440Y24096D2*
G1X16385Y24123D1*
G1X16385Y24290D1*
G1X16440Y24318D1*
G1X16662Y24318D1*
G1X16718Y24290D1*
G1X16718Y24123D1*
G1X16662Y24096D1*
G1X15368Y20468D2*
G1X15368Y20690D1*
G1X15591Y20468D1*
G1X15646Y20468D1*
G1X15702Y20496D1*
G1X15702Y20662D1*
G1X15646Y20690D1*
G1X15368Y20977D2*
G1X15424Y21032D1*
G1X15480Y21060D1*
G1X15591Y21060D1*
G1X15646Y21032D1*
G1X15702Y20977D1*
G1X15702Y20921D1*
G1X15646Y20866D1*
G1X15591Y20838D1*
G1X15480Y20838D1*
G1X15424Y20866D1*
G1X15368Y20921D1*
G1X15368Y20977D1*
G1X15480Y21208D2*
G1X15480Y21430D1*
G1X15702Y21319D1*
G1X15702Y21264D1*
G1X15368Y21264D1*
G1X15368Y21717D2*
G1X15424Y21772D1*
G1X15480Y21800D1*
G1X15591Y21800D1*
G1X15646Y21772D1*
G1X15702Y21717D1*
G1X15702Y21661D1*
G1X15646Y21606D1*
G1X15591Y21578D1*
G1X15480Y21578D1*
G1X15424Y21606D1*
G1X15368Y21661D1*
G1X15368Y21717D1*
G1X15257Y21948D2*
G1X15257Y22170D1*
G1X15368Y22318D2*
G1X15535Y22318D1*
G1X15591Y22346D1*
G1X15591Y22512D1*
G1X15368Y22512D1*
G1X15368Y22799D2*
G1X15424Y22855D1*
G1X15480Y22882D1*
G1X15591Y22882D1*
G1X15646Y22855D1*
G1X15702Y22799D1*
G1X15702Y22743D1*
G1X15646Y22688D1*
G1X15591Y22660D1*
G1X15480Y22660D1*
G1X15424Y22688D1*
G1X15368Y22743D1*
G1X15368Y22799D1*
G1X15368Y23169D2*
G1X15424Y23225D1*
G1X15480Y23252D1*
G1X15591Y23252D1*
G1X15646Y23225D1*
G1X15702Y23169D1*
G1X15702Y23113D1*
G1X15646Y23058D1*
G1X15591Y23030D1*
G1X15480Y23030D1*
G1X15424Y23058D1*
G1X15368Y23113D1*
G1X15368Y23169D1*
G1X15368Y23400D2*
G1X15368Y23511D1*
G1X15368Y23456D2*
G1X15702Y23456D1*
G1X15646Y23511D1*
G1X15257Y23714D2*
G1X15257Y23937D1*
G1X15424Y24084D2*
G1X15368Y24112D1*
G1X15368Y24279D1*
G1X15424Y24307D1*
G1X15646Y24307D1*
G1X15702Y24279D1*
G1X15702Y24112D1*
G1X15646Y24084D1*
G1X15801Y24767D2*
G1X16024Y24767D1*
G1X15913Y24545D1*
G1X15857Y24545D1*
G1X15857Y24878D1*
G1X16171Y24823D2*
G1X16199Y24878D1*
G1X16366Y24878D1*
G1X16394Y24823D1*
G1X16394Y24601D1*
G1X16366Y24545D1*
G1X16199Y24545D1*
G1X16171Y24601D1*
G1X12544Y25895D2*
G1X12766Y25895D1*
G1X12544Y25672D1*
G1X12544Y25617D1*
G1X12572Y25561D1*
G1X12738Y25561D1*
G1X12766Y25617D1*
G1X13053Y25895D2*
G1X13108Y25839D1*
G1X13136Y25783D1*
G1X13136Y25672D1*
G1X13108Y25617D1*
G1X13053Y25561D1*
G1X12997Y25561D1*
G1X12942Y25617D1*
G1X12914Y25672D1*
G1X12914Y25783D1*
G1X12942Y25839D1*
G1X12997Y25895D1*
G1X13053Y25895D1*
G1X13284Y25783D2*
G1X13506Y25783D1*
G1X13395Y25561D1*
G1X13339Y25561D1*
G1X13339Y25895D1*
G1X13793Y25895D2*
G1X13848Y25839D1*
G1X13876Y25783D1*
G1X13876Y25672D1*
G1X13848Y25617D1*
G1X13793Y25561D1*
G1X13737Y25561D1*
G1X13682Y25617D1*
G1X13654Y25672D1*
G1X13654Y25783D1*
G1X13682Y25839D1*
G1X13737Y25895D1*
G1X13793Y25895D1*
G1X14024Y26006D2*
G1X14246Y26006D1*
G1X14588Y26006D2*
G1X14588Y25672D1*
G1X14422Y25672D1*
G1X14394Y25728D1*
G1X14394Y25839D1*
G1X14422Y25895D1*
G1X14588Y25895D1*
G1X14875Y25895D2*
G1X14930Y25839D1*
G1X14958Y25783D1*
G1X14958Y25672D1*
G1X14930Y25617D1*
G1X14875Y25561D1*
G1X14819Y25561D1*
G1X14764Y25617D1*
G1X14736Y25672D1*
G1X14736Y25783D1*
G1X14764Y25839D1*
G1X14819Y25895D1*
G1X14875Y25895D1*
G1X15245Y25895D2*
G1X15300Y25839D1*
G1X15328Y25783D1*
G1X15328Y25672D1*
G1X15300Y25617D1*
G1X15245Y25561D1*
G1X15189Y25561D1*
G1X15134Y25617D1*
G1X15106Y25672D1*
G1X15106Y25783D1*
G1X15134Y25839D1*
G1X15189Y25895D1*
G1X15245Y25895D1*
G1X15476Y25895D2*
G1X15587Y25895D1*
G1X15531Y25895D2*
G1X15531Y25561D1*
G1X15587Y25617D1*
G1X15790Y26006D2*
G1X16013Y26006D1*
G1X16160Y25839D2*
G1X16188Y25895D1*
G1X16355Y25895D1*
G1X16383Y25839D1*
G1X16383Y25617D1*
G1X16355Y25561D1*
G1X16188Y25561D1*
G1X16160Y25617D1*
G1X13939Y24930D2*
G1X13606Y25097D1*
G1X13606Y24874D1*
G1X13939Y24727D2*
G1X13939Y24504D1*
G1X13717Y24727D1*
G1X13661Y24727D1*
G1X13606Y24699D1*
G1X13606Y24532D1*
G1X13661Y24504D1*
G1X13884Y24357D2*
G1X13939Y24329D1*
G1X13939Y24162D1*
G1X13884Y24134D1*
G1X13661Y24134D1*
G1X13606Y24162D1*
G1X13606Y24329D1*
G1X13661Y24357D1*
G1X14955Y27698D2*
G1X14955Y27475D1*
G1X14733Y27698D1*
G1X14678Y27698D1*
G1X14622Y27670D1*
G1X14622Y27503D1*
G1X14678Y27475D1*
G1X14955Y27189D2*
G1X14900Y27133D1*
G1X14844Y27105D1*
G1X14733Y27105D1*
G1X14678Y27133D1*
G1X14622Y27189D1*
G1X14622Y27244D1*
G1X14678Y27300D1*
G1X14733Y27328D1*
G1X14844Y27328D1*
G1X14900Y27300D1*
G1X14955Y27244D1*
G1X14955Y27189D1*
G1X14844Y26958D2*
G1X14844Y26735D1*
G1X14622Y26847D1*
G1X14622Y26902D1*
G1X14955Y26902D1*
G1X14955Y26449D2*
G1X14900Y26393D1*
G1X14844Y26365D1*
G1X14733Y26365D1*
G1X14678Y26393D1*
G1X14622Y26449D1*
G1X14622Y26504D1*
G1X14678Y26560D1*
G1X14733Y26588D1*
G1X14844Y26588D1*
G1X14900Y26560D1*
G1X14955Y26504D1*
G1X14955Y26449D1*
G1X15067Y26218D2*
G1X15067Y25995D1*
G1X14955Y25653D2*
G1X14622Y25653D1*
G1X14955Y25625D2*
G1X14955Y25792D1*
G1X14844Y25848D1*
G1X14733Y25848D1*
G1X14622Y25792D1*
G1X14622Y25625D1*
G1X14955Y25283D2*
G1X14622Y25283D1*
G1X14955Y25255D2*
G1X14955Y25422D1*
G1X14900Y25478D1*
G1X14844Y25478D1*
G1X14789Y25450D1*
G1X14789Y25283D2*
G1X14789Y25450D1*
G1X14733Y25478D1*
G1X14678Y25478D1*
G1X14622Y25422D1*
G1X14622Y25255D1*
G1X14955Y24997D2*
G1X14622Y24997D1*
G1X14622Y25108D2*
G1X14622Y24885D1*
G1X15067Y24738D2*
G1X15067Y24515D1*
G1X14900Y24368D2*
G1X14955Y24340D1*
G1X14955Y24173D1*
G1X14900Y24145D1*
G1X14678Y24145D1*
G1X14622Y24173D1*
G1X14622Y24340D1*
G1X14678Y24368D1*
G1X17220Y22863D2*
G1X17553Y22696D1*
G1X17553Y22919D1*
G1X17220Y23066D2*
G1X17220Y23177D1*
G1X17220Y23122D2*
G1X17553Y23122D1*
G1X17497Y23177D1*
G1X17275Y23381D2*
G1X17220Y23408D1*
G1X17220Y23575D1*
G1X17275Y23603D1*
G1X17497Y23603D1*
G1X17553Y23575D1*
G1X17553Y23408D1*
G1X17497Y23381D1*
G1X16203Y20039D2*
G1X16203Y20262D1*
G1X16426Y20039D1*
G1X16481Y20039D1*
G1X16537Y20067D1*
G1X16537Y20234D1*
G1X16481Y20262D1*
G1X16203Y20548D2*
G1X16259Y20604D1*
G1X16315Y20632D1*
G1X16426Y20632D1*
G1X16481Y20604D1*
G1X16537Y20548D1*
G1X16537Y20493D1*
G1X16481Y20437D1*
G1X16426Y20409D1*
G1X16315Y20409D1*
G1X16259Y20437D1*
G1X16203Y20493D1*
G1X16203Y20548D1*
G1X16315Y20779D2*
G1X16315Y21002D1*
G1X16537Y20891D1*
G1X16537Y20835D1*
G1X16203Y20835D1*
G1X16203Y21288D2*
G1X16259Y21344D1*
G1X16315Y21372D1*
G1X16426Y21372D1*
G1X16481Y21344D1*
G1X16537Y21288D1*
G1X16537Y21233D1*
G1X16481Y21177D1*
G1X16426Y21149D1*
G1X16315Y21149D1*
G1X16259Y21177D1*
G1X16203Y21233D1*
G1X16203Y21288D1*
G1X16092Y21519D2*
G1X16092Y21742D1*
G1X16203Y22084D2*
G1X16537Y22084D1*
G1X16203Y22112D2*
G1X16203Y21945D1*
G1X16315Y21889D1*
G1X16426Y21889D1*
G1X16537Y21945D1*
G1X16537Y22112D1*
G1X16203Y22454D2*
G1X16537Y22454D1*
G1X16203Y22482D2*
G1X16203Y22315D1*
G1X16259Y22259D1*
G1X16315Y22259D1*
G1X16370Y22287D1*
G1X16370Y22454D2*
G1X16370Y22287D1*
G1X16426Y22259D1*
G1X16481Y22259D1*
G1X16537Y22315D1*
G1X16537Y22482D1*
G1X16203Y22741D2*
G1X16537Y22741D1*
G1X16537Y22629D2*
G1X16537Y22852D1*
G1X16092Y22999D2*
G1X16092Y23222D1*
G1X16259Y23369D2*
G1X16203Y23397D1*
G1X16203Y23564D1*
G1X16259Y23592D1*
G1X16481Y23592D1*
G1X16537Y23564D1*
G1X16537Y23397D1*
G1X16481Y23369D1*
G1X16770Y23356D2*
G1X16770Y23578D1*
G1X16992Y23356D1*
G1X17047Y23356D1*
G1X17103Y23383D1*
G1X17103Y23550D1*
G1X17047Y23578D1*
G1X16770Y23726D2*
G1X16770Y23948D1*
G1X16992Y23726D1*
G1X17047Y23726D1*
G1X17103Y23753D1*
G1X17103Y23920D1*
G1X17047Y23948D1*
G1X16825Y24096D2*
G1X16770Y24123D1*
G1X16770Y24290D1*
G1X16825Y24318D1*
G1X17047Y24318D1*
G1X17103Y24290D1*
G1X17103Y24123D1*
G1X17047Y24096D1*
G1X15753Y20810D2*
G1X15753Y21032D1*
G1X15976Y20810D1*
G1X16031Y20810D1*
G1X16087Y20838D1*
G1X16087Y21005D1*
G1X16031Y21032D1*
G1X15753Y21319D2*
G1X15809Y21375D1*
G1X15865Y21402D1*
G1X15976Y21402D1*
G1X16031Y21375D1*
G1X16087Y21319D1*
G1X16087Y21263D1*
G1X16031Y21208D1*
G1X15976Y21180D1*
G1X15865Y21180D1*
G1X15809Y21208D1*
G1X15753Y21263D1*
G1X15753Y21319D1*
G1X15865Y21550D2*
G1X15865Y21772D1*
G1X16087Y21661D1*
G1X16087Y21606D1*
G1X15753Y21606D1*
G1X15753Y22059D2*
G1X15809Y22115D1*
G1X15865Y22142D1*
G1X15976Y22142D1*
G1X16031Y22115D1*
G1X16087Y22059D1*
G1X16087Y22003D1*
G1X16031Y21948D1*
G1X15976Y21920D1*
G1X15865Y21920D1*
G1X15809Y21948D1*
G1X15753Y22003D1*
G1X15753Y22059D1*
G1X15642Y22290D2*
G1X15642Y22512D1*
G1X15920Y22882D2*
G1X15920Y22716D1*
G1X15976Y22660D1*
G1X16031Y22660D1*
G1X16087Y22716D1*
G1X16087Y22882D1*
G1X15753Y22882D1*
G1X15753Y23030D2*
G1X15753Y23252D1*
G1X15976Y23030D1*
G1X16031Y23030D1*
G1X16087Y23058D1*
G1X16087Y23225D1*
G1X16031Y23252D1*
G1X15753Y23400D2*
G1X15753Y23511D1*
G1X15753Y23456D2*
G1X16087Y23456D1*
G1X16031Y23511D1*
G1X15642Y23714D2*
G1X15642Y23937D1*
G1X15809Y24084D2*
G1X15753Y24112D1*
G1X15753Y24279D1*
G1X15809Y24307D1*
G1X16031Y24307D1*
G1X16087Y24279D1*
G1X16087Y24112D1*
G1X16031Y24084D1*
G1X15209Y27973D2*
G1X15154Y27917D1*
G1X15098Y27889D1*
G1X14987Y27889D1*
G1X14931Y27917D1*
G1X14876Y27973D1*
G1X14876Y28028D1*
G1X14931Y28084D1*
G1X14987Y28112D1*
G1X15098Y28112D1*
G1X15154Y28084D1*
G1X15209Y28028D1*
G1X15209Y27973D1*
G1X15209Y27742D2*
G1X15209Y27519D1*
G1X14987Y27742D1*
G1X14931Y27742D1*
G1X14876Y27714D1*
G1X14876Y27547D1*
G1X14931Y27519D1*
G1X15154Y27372D2*
G1X15209Y27344D1*
G1X15209Y27177D1*
G1X15154Y27149D1*
G1X14931Y27149D1*
G1X14876Y27177D1*
G1X14876Y27344D1*
G1X14931Y27372D1*
G1X16225Y30657D2*
G1X16225Y30435D1*
G1X16003Y30657D1*
G1X15948Y30657D1*
G1X15892Y30629D1*
G1X15892Y30463D1*
G1X15948Y30435D1*
G1X16225Y30148D2*
G1X16170Y30093D1*
G1X16114Y30065D1*
G1X16003Y30065D1*
G1X15948Y30093D1*
G1X15892Y30148D1*
G1X15892Y30204D1*
G1X15948Y30259D1*
G1X16003Y30287D1*
G1X16114Y30287D1*
G1X16170Y30259D1*
G1X16225Y30204D1*
G1X16225Y30148D1*
G1X16114Y29917D2*
G1X16114Y29695D1*
G1X15892Y29806D1*
G1X15892Y29861D1*
G1X16225Y29861D1*
G1X16225Y29408D2*
G1X16170Y29353D1*
G1X16114Y29325D1*
G1X16003Y29325D1*
G1X15948Y29353D1*
G1X15892Y29408D1*
G1X15892Y29464D1*
G1X15948Y29519D1*
G1X16003Y29547D1*
G1X16114Y29547D1*
G1X16170Y29519D1*
G1X16225Y29464D1*
G1X16225Y29408D1*
G1X16337Y29177D2*
G1X16337Y28955D1*
G1X16059Y28585D2*
G1X16059Y28751D1*
G1X16003Y28807D1*
G1X15948Y28807D1*
G1X15892Y28751D1*
G1X15892Y28585D1*
G1X16225Y28585D1*
G1X16225Y28437D2*
G1X16225Y28215D1*
G1X16003Y28437D1*
G1X15948Y28437D1*
G1X15892Y28409D1*
G1X15892Y28243D1*
G1X15948Y28215D1*
G1X16225Y28067D2*
G1X16225Y27956D1*
G1X16225Y28012D2*
G1X15892Y28012D1*
G1X15948Y27956D1*
G1X16337Y27753D2*
G1X16337Y27530D1*
G1X16170Y27383D2*
G1X16225Y27355D1*
G1X16225Y27188D1*
G1X16170Y27160D1*
G1X15948Y27160D1*
G1X15892Y27188D1*
G1X15892Y27355D1*
G1X15948Y27383D1*
G1X16272Y20242D2*
G1X16105Y20242D1*
G1X16077Y20297D1*
G1X16077Y20353D1*
G1X16105Y20408D1*
G1X16272Y20408D1*
G1X16299Y20353D1*
G1X16299Y20297D1*
G1X16188Y20075D1*
G1X16447Y20408D2*
G1X16558Y20408D1*
G1X16503Y20408D2*
G1X16503Y20075D1*
G1X16558Y20131D1*
G1X16761Y20353D2*
G1X16789Y20408D1*
G1X16956Y20408D1*
G1X16984Y20353D1*
G1X16984Y20131D1*
G1X16956Y20075D1*
G1X16789Y20075D1*
G1X16761Y20131D1*
G1X13420Y21425D2*
G1X13643Y21425D1*
G1X13420Y21202D1*
G1X13420Y21147D1*
G1X13448Y21091D1*
G1X13615Y21091D1*
G1X13643Y21147D1*
G1X13929Y21425D2*
G1X13985Y21369D1*
G1X14013Y21313D1*
G1X14013Y21202D1*
G1X13985Y21147D1*
G1X13929Y21091D1*
G1X13874Y21091D1*
G1X13818Y21147D1*
G1X13790Y21202D1*
G1X13790Y21313D1*
G1X13818Y21369D1*
G1X13874Y21425D1*
G1X13929Y21425D1*
G1X14160Y21313D2*
G1X14383Y21313D1*
G1X14271Y21091D1*
G1X14216Y21091D1*
G1X14216Y21425D1*
G1X14669Y21425D2*
G1X14725Y21369D1*
G1X14753Y21313D1*
G1X14753Y21202D1*
G1X14725Y21147D1*
G1X14669Y21091D1*
G1X14614Y21091D1*
G1X14558Y21147D1*
G1X14530Y21202D1*
G1X14530Y21313D1*
G1X14558Y21369D1*
G1X14614Y21425D1*
G1X14669Y21425D1*
G1X14900Y21536D2*
G1X15123Y21536D1*
G1X15465Y21425D2*
G1X15465Y21091D1*
G1X15493Y21425D2*
G1X15326Y21425D1*
G1X15270Y21313D1*
G1X15270Y21202D1*
G1X15326Y21091D1*
G1X15493Y21091D1*
G1X15835Y21425D2*
G1X15835Y21091D1*
G1X15863Y21425D2*
G1X15696Y21425D1*
G1X15640Y21369D1*
G1X15640Y21313D1*
G1X15668Y21258D1*
G1X15835Y21258D2*
G1X15668Y21258D1*
G1X15640Y21202D1*
G1X15640Y21147D1*
G1X15696Y21091D1*
G1X15863Y21091D1*
G1X16121Y21425D2*
G1X16121Y21091D1*
G1X16010Y21091D2*
G1X16233Y21091D1*
G1X16380Y21536D2*
G1X16603Y21536D1*
G1X16750Y21369D2*
G1X16778Y21425D1*
G1X16945Y21425D1*
G1X16973Y21369D1*
G1X16973Y21147D1*
G1X16945Y21091D1*
G1X16778Y21091D1*
G1X16750Y21147D1*
G1X17751Y22696D2*
G1X17751Y22919D1*
G1X17973Y22807D1*
G1X17973Y22752D1*
G1X17640Y22752D1*
G1X17640Y23066D2*
G1X17640Y23177D1*
G1X17640Y23122D2*
G1X17973Y23122D1*
G1X17917Y23177D1*
G1X17695Y23381D2*
G1X17640Y23408D1*
G1X17640Y23575D1*
G1X17695Y23603D1*
G1X17917Y23603D1*
G1X17973Y23575D1*
G1X17973Y23408D1*
G1X17917Y23381D1*
G1X16623Y20039D2*
G1X16623Y20262D1*
G1X16846Y20039D1*
G1X16901Y20039D1*
G1X16957Y20067D1*
G1X16957Y20234D1*
G1X16901Y20262D1*
G1X16623Y20548D2*
G1X16679Y20604D1*
G1X16735Y20632D1*
G1X16846Y20632D1*
G1X16901Y20604D1*
G1X16957Y20548D1*
G1X16957Y20493D1*
G1X16901Y20437D1*
G1X16846Y20409D1*
G1X16735Y20409D1*
G1X16679Y20437D1*
G1X16623Y20493D1*
G1X16623Y20548D1*
G1X16735Y20779D2*
G1X16735Y21002D1*
G1X16957Y20891D1*
G1X16957Y20835D1*
G1X16623Y20835D1*
G1X16623Y21288D2*
G1X16679Y21344D1*
G1X16735Y21372D1*
G1X16846Y21372D1*
G1X16901Y21344D1*
G1X16957Y21288D1*
G1X16957Y21233D1*
G1X16901Y21177D1*
G1X16846Y21149D1*
G1X16735Y21149D1*
G1X16679Y21177D1*
G1X16623Y21233D1*
G1X16623Y21288D1*
G1X16512Y21519D2*
G1X16512Y21742D1*
G1X16623Y22084D2*
G1X16957Y22084D1*
G1X16623Y22112D2*
G1X16623Y21945D1*
G1X16735Y21889D1*
G1X16846Y21889D1*
G1X16957Y21945D1*
G1X16957Y22112D1*
G1X16623Y22454D2*
G1X16957Y22454D1*
G1X16623Y22482D2*
G1X16623Y22315D1*
G1X16679Y22259D1*
G1X16735Y22259D1*
G1X16790Y22287D1*
G1X16790Y22454D2*
G1X16790Y22287D1*
G1X16846Y22259D1*
G1X16901Y22259D1*
G1X16957Y22315D1*
G1X16957Y22482D1*
G1X16623Y22741D2*
G1X16957Y22741D1*
G1X16957Y22629D2*
G1X16957Y22852D1*
G1X16512Y22999D2*
G1X16512Y23222D1*
G1X16679Y23369D2*
G1X16623Y23397D1*
G1X16623Y23564D1*
G1X16679Y23592D1*
G1X16901Y23592D1*
G1X16957Y23564D1*
G1X16957Y23397D1*
G1X16901Y23369D1*
G1X13971Y21931D2*
G1X13971Y22153D1*
G1X14193Y22042D1*
G1X14193Y21986D1*
G1X13860Y21986D1*
G1X13860Y22301D2*
G1X13860Y22523D1*
G1X14082Y22301D1*
G1X14137Y22301D1*
G1X14193Y22328D1*
G1X14193Y22495D1*
G1X14137Y22523D1*
G1X13915Y22671D2*
G1X13860Y22698D1*
G1X13860Y22865D1*
G1X13915Y22893D1*
G1X14137Y22893D1*
G1X14193Y22865D1*
G1X14193Y22698D1*
G1X14137Y22671D1*
G1X12843Y19329D2*
G1X12843Y19552D1*
G1X13066Y19329D1*
G1X13121Y19329D1*
G1X13177Y19357D1*
G1X13177Y19524D1*
G1X13121Y19552D1*
G1X12843Y19838D2*
G1X12899Y19894D1*
G1X12955Y19922D1*
G1X13066Y19922D1*
G1X13121Y19894D1*
G1X13177Y19838D1*
G1X13177Y19783D1*
G1X13121Y19727D1*
G1X13066Y19699D1*
G1X12955Y19699D1*
G1X12899Y19727D1*
G1X12843Y19783D1*
G1X12843Y19838D1*
G1X12955Y20069D2*
G1X12955Y20292D1*
G1X13177Y20181D1*
G1X13177Y20125D1*
G1X12843Y20125D1*
G1X12843Y20578D2*
G1X12899Y20634D1*
G1X12955Y20662D1*
G1X13066Y20662D1*
G1X13121Y20634D1*
G1X13177Y20578D1*
G1X13177Y20523D1*
G1X13121Y20467D1*
G1X13066Y20439D1*
G1X12955Y20439D1*
G1X12899Y20467D1*
G1X12843Y20523D1*
G1X12843Y20578D1*
G1X12732Y20809D2*
G1X12732Y21032D1*
G1X12843Y21374D2*
G1X13177Y21374D1*
G1X12843Y21402D2*
G1X12843Y21235D1*
G1X12955Y21179D1*
G1X13066Y21179D1*
G1X13177Y21235D1*
G1X13177Y21402D1*
G1X12843Y21744D2*
G1X13177Y21744D1*
G1X12843Y21772D2*
G1X12843Y21605D1*
G1X12899Y21549D1*
G1X12955Y21549D1*
G1X13010Y21577D1*
G1X13010Y21744D2*
G1X13010Y21577D1*
G1X13066Y21549D1*
G1X13121Y21549D1*
G1X13177Y21605D1*
G1X13177Y21772D1*
G1X12843Y22031D2*
G1X13177Y22031D1*
G1X13177Y21919D2*
G1X13177Y22142D1*
G1X12732Y22289D2*
G1X12732Y22512D1*
G1X12899Y22659D2*
G1X12843Y22687D1*
G1X12843Y22854D1*
G1X12899Y22882D1*
G1X13121Y22882D1*
G1X13177Y22854D1*
G1X13177Y22687D1*
G1X13121Y22659D1*
G1X15993Y28918D2*
G1X15993Y28751D1*
G1X15937Y28724D1*
G1X15881Y28724D1*
G1X15826Y28751D1*
G1X15826Y28918D1*
G1X15881Y28946D1*
G1X15937Y28946D1*
G1X16159Y28835D1*
G1X16159Y28576D2*
G1X16159Y28465D1*
G1X16159Y28520D2*
G1X15826Y28520D1*
G1X15881Y28465D1*
G1X16104Y28262D2*
G1X16159Y28234D1*
G1X16159Y28067D1*
G1X16104Y28039D1*
G1X15881Y28039D1*
G1X15826Y28067D1*
G1X15826Y28234D1*
G1X15881Y28262D1*
G1X17175Y31547D2*
G1X17175Y31325D1*
G1X16953Y31547D1*
G1X16898Y31547D1*
G1X16842Y31519D1*
G1X16842Y31353D1*
G1X16898Y31325D1*
G1X17175Y31038D2*
G1X17120Y30983D1*
G1X17064Y30955D1*
G1X16953Y30955D1*
G1X16898Y30983D1*
G1X16842Y31038D1*
G1X16842Y31094D1*
G1X16898Y31149D1*
G1X16953Y31177D1*
G1X17064Y31177D1*
G1X17120Y31149D1*
G1X17175Y31094D1*
G1X17175Y31038D1*
G1X17064Y30807D2*
G1X17064Y30585D1*
G1X16842Y30696D1*
G1X16842Y30751D1*
G1X17175Y30751D1*
G1X17175Y30298D2*
G1X17120Y30243D1*
G1X17064Y30215D1*
G1X16953Y30215D1*
G1X16898Y30243D1*
G1X16842Y30298D1*
G1X16842Y30354D1*
G1X16898Y30409D1*
G1X16953Y30437D1*
G1X17064Y30437D1*
G1X17120Y30409D1*
G1X17175Y30354D1*
G1X17175Y30298D1*
G1X17287Y30067D2*
G1X17287Y29845D1*
G1X17009Y29475D2*
G1X17009Y29641D1*
G1X16953Y29697D1*
G1X16898Y29697D1*
G1X16842Y29641D1*
G1X16842Y29475D1*
G1X17175Y29475D1*
G1X17175Y29327D2*
G1X17175Y29105D1*
G1X16953Y29327D1*
G1X16898Y29327D1*
G1X16842Y29299D1*
G1X16842Y29133D1*
G1X16898Y29105D1*
G1X17175Y28957D2*
G1X17175Y28846D1*
G1X17175Y28902D2*
G1X16842Y28902D1*
G1X16898Y28846D1*
G1X17287Y28643D2*
G1X17287Y28420D1*
G1X17120Y28273D2*
G1X17175Y28245D1*
G1X17175Y28078D1*
G1X17120Y28050D1*
G1X16898Y28050D1*
G1X16842Y28078D1*
G1X16842Y28245D1*
G1X16898Y28273D1*
G1X16546Y24440D2*
G1X16546Y24273D1*
G1X16491Y24246D1*
G1X16435Y24246D1*
G1X16380Y24273D1*
G1X16380Y24440D1*
G1X16435Y24468D1*
G1X16491Y24468D1*
G1X16713Y24357D1*
G1X16380Y24616D2*
G1X16380Y24838D1*
G1X16602Y24616D1*
G1X16657Y24616D1*
G1X16713Y24643D1*
G1X16713Y24810D1*
G1X16657Y24838D1*
G1X16435Y24986D2*
G1X16380Y25013D1*
G1X16380Y25180D1*
G1X16435Y25208D1*
G1X16657Y25208D1*
G1X16713Y25180D1*
G1X16713Y25013D1*
G1X16657Y24986D1*
G1X15363Y21644D2*
G1X15363Y21867D1*
G1X15586Y21644D1*
G1X15641Y21644D1*
G1X15697Y21672D1*
G1X15697Y21839D1*
G1X15641Y21867D1*
G1X15363Y22153D2*
G1X15419Y22209D1*
G1X15475Y22237D1*
G1X15586Y22237D1*
G1X15641Y22209D1*
G1X15697Y22153D1*
G1X15697Y22098D1*
G1X15641Y22042D1*
G1X15586Y22014D1*
G1X15475Y22014D1*
G1X15419Y22042D1*
G1X15363Y22098D1*
G1X15363Y22153D1*
G1X15475Y22384D2*
G1X15475Y22607D1*
G1X15697Y22496D1*
G1X15697Y22440D1*
G1X15363Y22440D1*
G1X15363Y22893D2*
G1X15419Y22949D1*
G1X15475Y22977D1*
G1X15586Y22977D1*
G1X15641Y22949D1*
G1X15697Y22893D1*
G1X15697Y22838D1*
G1X15641Y22782D1*
G1X15586Y22754D1*
G1X15475Y22754D1*
G1X15419Y22782D1*
G1X15363Y22838D1*
G1X15363Y22893D1*
G1X15252Y23124D2*
G1X15252Y23347D1*
G1X15363Y23689D2*
G1X15697Y23689D1*
G1X15363Y23717D2*
G1X15363Y23550D1*
G1X15475Y23494D1*
G1X15586Y23494D1*
G1X15697Y23550D1*
G1X15697Y23717D1*
G1X15363Y24059D2*
G1X15697Y24059D1*
G1X15363Y24087D2*
G1X15363Y23920D1*
G1X15419Y23864D1*
G1X15475Y23864D1*
G1X15530Y23892D1*
G1X15530Y24059D2*
G1X15530Y23892D1*
G1X15586Y23864D1*
G1X15641Y23864D1*
G1X15697Y23920D1*
G1X15697Y24087D1*
G1X15363Y24346D2*
G1X15697Y24346D1*
G1X15697Y24234D2*
G1X15697Y24457D1*
G1X15252Y24604D2*
G1X15252Y24827D1*
G1X15419Y24974D2*
G1X15363Y25002D1*
G1X15363Y25169D1*
G1X15419Y25197D1*
G1X15641Y25197D1*
G1X15697Y25169D1*
G1X15697Y25002D1*
G1X15641Y24974D1*
G1X17386Y20889D2*
G1X17442Y20861D1*
G1X17497Y20861D1*
G1X17553Y20889D1*
G1X17553Y21056D1*
G1X17497Y21084D1*
G1X17442Y21084D1*
G1X17386Y21056D1*
G1X17386Y20889D1*
G1X17331Y20861D1*
G1X17275Y20861D1*
G1X17220Y20889D1*
G1X17220Y21056D1*
G1X17275Y21084D1*
G1X17331Y21084D1*
G1X17386Y21056D1*
G1X17220Y21231D2*
G1X17220Y21342D1*
G1X17220Y21287D2*
G1X17553Y21287D1*
G1X17497Y21342D1*
G1X17275Y21546D2*
G1X17220Y21573D1*
G1X17220Y21740D1*
G1X17275Y21768D1*
G1X17497Y21768D1*
G1X17553Y21740D1*
G1X17553Y21573D1*
G1X17497Y21546D1*
G1X16203Y18204D2*
G1X16203Y18427D1*
G1X16426Y18204D1*
G1X16481Y18204D1*
G1X16537Y18232D1*
G1X16537Y18399D1*
G1X16481Y18427D1*
G1X16203Y18713D2*
G1X16259Y18769D1*
G1X16315Y18797D1*
G1X16426Y18797D1*
G1X16481Y18769D1*
G1X16537Y18713D1*
G1X16537Y18658D1*
G1X16481Y18602D1*
G1X16426Y18574D1*
G1X16315Y18574D1*
G1X16259Y18602D1*
G1X16203Y18658D1*
G1X16203Y18713D1*
G1X16315Y18944D2*
G1X16315Y19167D1*
G1X16537Y19056D1*
G1X16537Y19000D1*
G1X16203Y19000D1*
G1X16203Y19453D2*
G1X16259Y19509D1*
G1X16315Y19537D1*
G1X16426Y19537D1*
G1X16481Y19509D1*
G1X16537Y19453D1*
G1X16537Y19398D1*
G1X16481Y19342D1*
G1X16426Y19314D1*
G1X16315Y19314D1*
G1X16259Y19342D1*
G1X16203Y19398D1*
G1X16203Y19453D1*
G1X16092Y19684D2*
G1X16092Y19907D1*
G1X16203Y20249D2*
G1X16537Y20249D1*
G1X16203Y20277D2*
G1X16203Y20110D1*
G1X16315Y20054D1*
G1X16426Y20054D1*
G1X16537Y20110D1*
G1X16537Y20277D1*
G1X16203Y20619D2*
G1X16537Y20619D1*
G1X16203Y20647D2*
G1X16203Y20480D1*
G1X16259Y20424D1*
G1X16315Y20424D1*
G1X16370Y20452D1*
G1X16370Y20619D2*
G1X16370Y20452D1*
G1X16426Y20424D1*
G1X16481Y20424D1*
G1X16537Y20480D1*
G1X16537Y20647D1*
G1X16203Y20906D2*
G1X16537Y20906D1*
G1X16537Y20794D2*
G1X16537Y21017D1*
G1X16092Y21164D2*
G1X16092Y21387D1*
G1X16259Y21534D2*
G1X16203Y21562D1*
G1X16203Y21729D1*
G1X16259Y21757D1*
G1X16481Y21757D1*
G1X16537Y21729D1*
G1X16537Y21562D1*
G1X16481Y21534D1*
G1X15157Y20408D2*
G1X15268Y20408D1*
G1X15213Y20408D2*
G1X15213Y20075D1*
G1X15268Y20131D1*
G1X15471Y20408D2*
G1X15694Y20408D1*
G1X15471Y20186D1*
G1X15471Y20131D1*
G1X15499Y20075D1*
G1X15666Y20075D1*
G1X15694Y20131D1*
G1X15841Y20353D2*
G1X15869Y20408D1*
G1X16036Y20408D1*
G1X16064Y20353D1*
G1X16064Y20131D1*
G1X16036Y20075D1*
G1X15869Y20075D1*
G1X15841Y20131D1*
G1X12500Y21425D2*
G1X12723Y21425D1*
G1X12500Y21202D1*
G1X12500Y21147D1*
G1X12528Y21091D1*
G1X12695Y21091D1*
G1X12723Y21147D1*
G1X13009Y21425D2*
G1X13065Y21369D1*
G1X13093Y21313D1*
G1X13093Y21202D1*
G1X13065Y21147D1*
G1X13009Y21091D1*
G1X12954Y21091D1*
G1X12898Y21147D1*
G1X12870Y21202D1*
G1X12870Y21313D1*
G1X12898Y21369D1*
G1X12954Y21425D1*
G1X13009Y21425D1*
G1X13240Y21313D2*
G1X13463Y21313D1*
G1X13351Y21091D1*
G1X13296Y21091D1*
G1X13296Y21425D1*
G1X13749Y21425D2*
G1X13805Y21369D1*
G1X13833Y21313D1*
G1X13833Y21202D1*
G1X13805Y21147D1*
G1X13749Y21091D1*
G1X13694Y21091D1*
G1X13638Y21147D1*
G1X13610Y21202D1*
G1X13610Y21313D1*
G1X13638Y21369D1*
G1X13694Y21425D1*
G1X13749Y21425D1*
G1X13980Y21536D2*
G1X14203Y21536D1*
G1X14545Y21425D2*
G1X14545Y21091D1*
G1X14573Y21425D2*
G1X14406Y21425D1*
G1X14350Y21313D1*
G1X14350Y21202D1*
G1X14406Y21091D1*
G1X14573Y21091D1*
G1X14915Y21425D2*
G1X14915Y21091D1*
G1X14943Y21425D2*
G1X14776Y21425D1*
G1X14720Y21369D1*
G1X14720Y21313D1*
G1X14748Y21258D1*
G1X14915Y21258D2*
G1X14748Y21258D1*
G1X14720Y21202D1*
G1X14720Y21147D1*
G1X14776Y21091D1*
G1X14943Y21091D1*
G1X15201Y21425D2*
G1X15201Y21091D1*
G1X15090Y21091D2*
G1X15313Y21091D1*
G1X15460Y21536D2*
G1X15683Y21536D1*
G1X15830Y21369D2*
G1X15858Y21425D1*
G1X16025Y21425D1*
G1X16053Y21369D1*
G1X16053Y21147D1*
G1X16025Y21091D1*
G1X15858Y21091D1*
G1X15830Y21147D1*
G1X15898Y26207D2*
G1X15898Y26374D1*
G1X15953Y26402D1*
G1X16009Y26402D1*
G1X16064Y26374D1*
G1X16064Y26207D1*
G1X16009Y26179D1*
G1X15953Y26179D1*
G1X15731Y26290D1*
G1X16009Y26032D2*
G1X16064Y26004D1*
G1X16064Y25837D1*
G1X16009Y25809D1*
G1X15786Y25809D1*
G1X15731Y25837D1*
G1X15731Y26004D1*
G1X15786Y26032D1*
G1X17080Y29659D2*
G1X17080Y29437D1*
G1X16858Y29659D1*
G1X16803Y29659D1*
G1X16747Y29631D1*
G1X16747Y29465D1*
G1X16803Y29437D1*
G1X17080Y29150D2*
G1X17025Y29095D1*
G1X16969Y29067D1*
G1X16858Y29067D1*
G1X16803Y29095D1*
G1X16747Y29150D1*
G1X16747Y29206D1*
G1X16803Y29261D1*
G1X16858Y29289D1*
G1X16969Y29289D1*
G1X17025Y29261D1*
G1X17080Y29206D1*
G1X17080Y29150D1*
G1X16969Y28919D2*
G1X16969Y28697D1*
G1X16747Y28808D1*
G1X16747Y28864D1*
G1X17080Y28864D1*
G1X17080Y28410D2*
G1X17025Y28355D1*
G1X16969Y28327D1*
G1X16858Y28327D1*
G1X16803Y28355D1*
G1X16747Y28410D1*
G1X16747Y28466D1*
G1X16803Y28521D1*
G1X16858Y28549D1*
G1X16969Y28549D1*
G1X17025Y28521D1*
G1X17080Y28466D1*
G1X17080Y28410D1*
G1X17192Y28179D2*
G1X17192Y27957D1*
G1X17192Y27615D2*
G1X16858Y27615D1*
G1X16858Y27781D1*
G1X16914Y27809D1*
G1X17025Y27809D1*
G1X17080Y27781D1*
G1X17080Y27615D1*
G1X17080Y27328D2*
G1X17025Y27273D1*
G1X16969Y27245D1*
G1X16858Y27245D1*
G1X16803Y27273D1*
G1X16747Y27328D1*
G1X16747Y27384D1*
G1X16803Y27439D1*
G1X16858Y27467D1*
G1X16969Y27467D1*
G1X17025Y27439D1*
G1X17080Y27384D1*
G1X17080Y27328D1*
G1X17080Y26958D2*
G1X17025Y26903D1*
G1X16969Y26875D1*
G1X16858Y26875D1*
G1X16803Y26903D1*
G1X16747Y26958D1*
G1X16747Y27014D1*
G1X16803Y27069D1*
G1X16858Y27097D1*
G1X16969Y27097D1*
G1X17025Y27069D1*
G1X17080Y27014D1*
G1X17080Y26958D1*
G1X17080Y26727D2*
G1X17080Y26616D1*
G1X17080Y26672D2*
G1X16747Y26672D1*
G1X16803Y26616D1*
G1X17192Y26413D2*
G1X17192Y26190D1*
G1X17025Y26043D2*
G1X17080Y26015D1*
G1X17080Y25848D1*
G1X17025Y25820D1*
G1X16803Y25820D1*
G1X16747Y25848D1*
G1X16747Y26015D1*
G1X16803Y26043D1*
G1X14300Y22153D2*
G1X14355Y22209D1*
G1X14411Y22236D1*
G1X14522Y22236D1*
G1X14577Y22209D1*
G1X14633Y22153D1*
G1X14633Y22097D1*
G1X14577Y22042D1*
G1X14522Y22014D1*
G1X14411Y22014D1*
G1X14355Y22042D1*
G1X14300Y22097D1*
G1X14300Y22153D1*
G1X14300Y22384D2*
G1X14300Y22495D1*
G1X14300Y22440D2*
G1X14633Y22440D1*
G1X14577Y22495D1*
G1X14300Y22698D2*
G1X14300Y22893D1*
G1X14633Y22893D1*
G1X13283Y19357D2*
G1X13283Y19580D1*
G1X13506Y19357D1*
G1X13561Y19357D1*
G1X13617Y19385D1*
G1X13617Y19552D1*
G1X13561Y19580D1*
G1X13283Y19866D2*
G1X13339Y19922D1*
G1X13395Y19950D1*
G1X13506Y19950D1*
G1X13561Y19922D1*
G1X13617Y19866D1*
G1X13617Y19811D1*
G1X13561Y19755D1*
G1X13506Y19727D1*
G1X13395Y19727D1*
G1X13339Y19755D1*
G1X13283Y19811D1*
G1X13283Y19866D1*
G1X13395Y20097D2*
G1X13395Y20320D1*
G1X13617Y20208D1*
G1X13617Y20153D1*
G1X13283Y20153D1*
G1X13283Y20606D2*
G1X13339Y20662D1*
G1X13395Y20690D1*
G1X13506Y20690D1*
G1X13561Y20662D1*
G1X13617Y20606D1*
G1X13617Y20551D1*
G1X13561Y20495D1*
G1X13506Y20467D1*
G1X13395Y20467D1*
G1X13339Y20495D1*
G1X13283Y20551D1*
G1X13283Y20606D1*
G1X13172Y20837D2*
G1X13172Y21060D1*
G1X13283Y21402D2*
G1X13617Y21402D1*
G1X13283Y21430D2*
G1X13283Y21263D1*
G1X13395Y21207D1*
G1X13506Y21207D1*
G1X13617Y21263D1*
G1X13617Y21430D1*
G1X13283Y21772D2*
G1X13617Y21772D1*
G1X13283Y21800D2*
G1X13283Y21633D1*
G1X13339Y21577D1*
G1X13395Y21577D1*
G1X13450Y21605D1*
G1X13450Y21772D2*
G1X13450Y21605D1*
G1X13506Y21577D1*
G1X13561Y21577D1*
G1X13617Y21633D1*
G1X13617Y21800D1*
G1X13283Y22058D2*
G1X13617Y22058D1*
G1X13617Y21947D2*
G1X13617Y22170D1*
G1X13172Y22317D2*
G1X13172Y22540D1*
G1X13283Y22687D2*
G1X13283Y22882D1*
G1X13617Y22882D1*
G1X16041Y29303D2*
G1X16041Y29136D1*
G1X15986Y29108D1*
G1X15930Y29108D1*
G1X15875Y29136D1*
G1X15875Y29303D1*
G1X15930Y29331D1*
G1X15986Y29331D1*
G1X16208Y29220D1*
G1X15875Y29478D2*
G1X15875Y29673D1*
G1X16208Y29673D1*
G1X14858Y26137D2*
G1X14858Y26360D1*
G1X15081Y26137D1*
G1X15136Y26137D1*
G1X15192Y26165D1*
G1X15192Y26332D1*
G1X15136Y26360D1*
G1X14858Y26646D2*
G1X14914Y26702D1*
G1X14970Y26730D1*
G1X15081Y26730D1*
G1X15136Y26702D1*
G1X15192Y26646D1*
G1X15192Y26591D1*
G1X15136Y26535D1*
G1X15081Y26507D1*
G1X14970Y26507D1*
G1X14914Y26535D1*
G1X14858Y26591D1*
G1X14858Y26646D1*
G1X14970Y26877D2*
G1X14970Y27100D1*
G1X15192Y26988D1*
G1X15192Y26933D1*
G1X14858Y26933D1*
G1X14858Y27386D2*
G1X14914Y27442D1*
G1X14970Y27470D1*
G1X15081Y27470D1*
G1X15136Y27442D1*
G1X15192Y27386D1*
G1X15192Y27331D1*
G1X15136Y27275D1*
G1X15081Y27247D1*
G1X14970Y27247D1*
G1X14914Y27275D1*
G1X14858Y27331D1*
G1X14858Y27386D1*
G1X14747Y27617D2*
G1X14747Y27840D1*
G1X14858Y28182D2*
G1X15192Y28182D1*
G1X14858Y28210D2*
G1X14858Y28043D1*
G1X14970Y27987D1*
G1X15081Y27987D1*
G1X15192Y28043D1*
G1X15192Y28210D1*
G1X14858Y28552D2*
G1X15192Y28552D1*
G1X14858Y28580D2*
G1X14858Y28413D1*
G1X14914Y28357D1*
G1X14970Y28357D1*
G1X15025Y28385D1*
G1X15025Y28552D2*
G1X15025Y28385D1*
G1X15081Y28357D1*
G1X15136Y28357D1*
G1X15192Y28413D1*
G1X15192Y28580D1*
G1X14858Y28838D2*
G1X15192Y28838D1*
G1X15192Y28727D2*
G1X15192Y28950D1*
G1X14747Y29097D2*
G1X14747Y29320D1*
G1X14858Y29467D2*
G1X14858Y29662D1*
G1X15192Y29662D1*
G1X15802Y21934D2*
G1X15830Y21879D1*
G1X15997Y21879D1*
G1X16025Y21934D1*
G1X16025Y22045D1*
G1X15969Y22101D1*
G1X15802Y22101D1*
G1X15802Y22212D1*
G1X16025Y22212D1*
G1X15655Y21879D2*
G1X15460Y21879D1*
G1X15460Y22212D1*
G1X18996Y20863D2*
G1X18773Y20863D1*
G1X18996Y21085D1*
G1X18996Y21140D1*
G1X18968Y21196D1*
G1X18801Y21196D1*
G1X18773Y21140D1*
G1X18487Y20863D2*
G1X18431Y20918D1*
G1X18403Y20974D1*
G1X18403Y21085D1*
G1X18431Y21140D1*
G1X18487Y21196D1*
G1X18542Y21196D1*
G1X18598Y21140D1*
G1X18626Y21085D1*
G1X18626Y20974D1*
G1X18598Y20918D1*
G1X18542Y20863D1*
G1X18487Y20863D1*
G1X18256Y20974D2*
G1X18033Y20974D1*
G1X18145Y21196D1*
G1X18200Y21196D1*
G1X18200Y20863D1*
G1X17747Y20863D2*
G1X17691Y20918D1*
G1X17663Y20974D1*
G1X17663Y21085D1*
G1X17691Y21140D1*
G1X17747Y21196D1*
G1X17802Y21196D1*
G1X17858Y21140D1*
G1X17886Y21085D1*
G1X17886Y20974D1*
G1X17858Y20918D1*
G1X17802Y20863D1*
G1X17747Y20863D1*
G1X17516Y20751D2*
G1X17293Y20751D1*
G1X16951Y20863D2*
G1X16951Y21196D1*
G1X16923Y20863D2*
G1X17090Y20863D1*
G1X17146Y20974D1*
G1X17146Y21085D1*
G1X17090Y21196D1*
G1X16923Y21196D1*
G1X16581Y20863D2*
G1X16581Y21196D1*
G1X16553Y20863D2*
G1X16720Y20863D1*
G1X16776Y20918D1*
G1X16776Y20974D1*
G1X16748Y21029D1*
G1X16581Y21029D2*
G1X16748Y21029D1*
G1X16776Y21085D1*
G1X16776Y21140D1*
G1X16720Y21196D1*
G1X16553Y21196D1*
G1X16295Y20863D2*
G1X16295Y21196D1*
G1X16406Y21196D2*
G1X16183Y21196D1*
G1X16036Y20751D2*
G1X15813Y20751D1*
G1X15666Y20863D2*
G1X15471Y20863D1*
G1X15471Y21196D1*
G1X24691Y18933D2*
G1X24691Y19100D1*
G1X24747Y19128D1*
G1X24802Y19128D1*
G1X24858Y19100D1*
G1X24858Y18933D1*
G1X24802Y18906D1*
G1X24747Y18906D1*
G1X24525Y19017D1*
G1X24580Y19276D2*
G1X24525Y19303D1*
G1X24525Y19470D1*
G1X24580Y19498D1*
G1X24802Y19498D1*
G1X24858Y19470D1*
G1X24858Y19303D1*
G1X24802Y19276D1*
G1X23508Y15648D2*
G1X23508Y15870D1*
G1X23731Y15648D1*
G1X23786Y15648D1*
G1X23842Y15676D1*
G1X23842Y15842D1*
G1X23786Y15870D1*
G1X23508Y16157D2*
G1X23564Y16212D1*
G1X23620Y16240D1*
G1X23731Y16240D1*
G1X23786Y16212D1*
G1X23842Y16157D1*
G1X23842Y16101D1*
G1X23786Y16046D1*
G1X23731Y16018D1*
G1X23620Y16018D1*
G1X23564Y16046D1*
G1X23508Y16101D1*
G1X23508Y16157D1*
G1X23620Y16388D2*
G1X23620Y16610D1*
G1X23842Y16499D1*
G1X23842Y16444D1*
G1X23508Y16444D1*
G1X23508Y16897D2*
G1X23564Y16952D1*
G1X23620Y16980D1*
G1X23731Y16980D1*
G1X23786Y16952D1*
G1X23842Y16897D1*
G1X23842Y16841D1*
G1X23786Y16786D1*
G1X23731Y16758D1*
G1X23620Y16758D1*
G1X23564Y16786D1*
G1X23508Y16841D1*
G1X23508Y16897D1*
G1X23397Y17128D2*
G1X23397Y17350D1*
G1X23508Y17498D2*
G1X23675Y17498D1*
G1X23731Y17526D1*
G1X23731Y17692D1*
G1X23508Y17692D1*
G1X23508Y17979D2*
G1X23564Y18035D1*
G1X23620Y18062D1*
G1X23731Y18062D1*
G1X23786Y18035D1*
G1X23842Y17979D1*
G1X23842Y17923D1*
G1X23786Y17868D1*
G1X23731Y17840D1*
G1X23620Y17840D1*
G1X23564Y17868D1*
G1X23508Y17923D1*
G1X23508Y17979D1*
G1X23508Y18349D2*
G1X23564Y18405D1*
G1X23620Y18432D1*
G1X23731Y18432D1*
G1X23786Y18405D1*
G1X23842Y18349D1*
G1X23842Y18293D1*
G1X23786Y18238D1*
G1X23731Y18210D1*
G1X23620Y18210D1*
G1X23564Y18238D1*
G1X23508Y18293D1*
G1X23508Y18349D1*
G1X23508Y18580D2*
G1X23508Y18691D1*
G1X23508Y18636D2*
G1X23842Y18636D1*
G1X23786Y18691D1*
G1X23397Y18894D2*
G1X23397Y19117D1*
G1X23564Y19264D2*
G1X23508Y19292D1*
G1X23508Y19459D1*
G1X23564Y19487D1*
G1X23786Y19487D1*
G1X23842Y19459D1*
G1X23842Y19292D1*
G1X23786Y19264D1*
G1X15716Y26564D2*
G1X15772Y26536D1*
G1X15827Y26536D1*
G1X15883Y26564D1*
G1X15883Y26731D1*
G1X15827Y26759D1*
G1X15772Y26759D1*
G1X15716Y26731D1*
G1X15716Y26564D1*
G1X15661Y26536D1*
G1X15605Y26536D1*
G1X15550Y26564D1*
G1X15550Y26731D1*
G1X15605Y26759D1*
G1X15661Y26759D1*
G1X15716Y26731D1*
G1X15550Y26906D2*
G1X15550Y27017D1*
G1X15550Y26962D2*
G1X15883Y26962D1*
G1X15827Y27017D1*
G1X15716Y27304D2*
G1X15550Y27221D1*
G1X15716Y27443D2*
G1X15716Y27276D1*
G1X15772Y27221D1*
G1X15827Y27221D1*
G1X15883Y27276D1*
G1X15883Y27443D1*
G1X15550Y27443D1*
G1X14533Y26839D2*
G1X14867Y26839D1*
G1X14811Y26895D1*
G1X14700Y26951D1*
G1X14811Y27006D1*
G1X14867Y27062D1*
G1X14533Y27062D1*
G1X14867Y27209D2*
G1X14533Y27209D1*
G1X14589Y27265D1*
G1X14811Y27376D1*
G1X14867Y27432D1*
G1X14533Y27432D1*
G1X18222Y27081D2*
G1X18222Y26281D1*
G1X19722Y26281D1*
G1X19722Y27081D1*
G1X18222Y27081D1*
G1X13437Y17376D2*
G1X17937Y17376D1*
G1X17937Y19876D1*
G1X13437Y19876D1*
G1X13437Y17376D1*
G1X9792Y28911D2*
G1X9792Y29911D1*
G1X11792Y29911D1*
G1X11792Y28911D1*
G1X9792Y28911D1*
G1X23511Y20958D2*
G54D31*
G1X23622Y20958D1*
G1X23567Y20958D2*
G1X23567Y20625D1*
G1X23622Y20681D1*
G1X23865Y20625D2*
G1X23865Y20903D1*
G1X23893Y20958D1*
G1X24060Y20958D1*
G1X24088Y20903D1*
G1X24088Y20625D1*
G1X22136Y20367D2*
G1X22192Y20312D1*
G1X22220Y20256D1*
G1X22220Y20145D1*
G1X22192Y20089D1*
G1X22136Y20034D1*
G1X22081Y20034D1*
G1X22025Y20089D1*
G1X21997Y20145D1*
G1X21997Y20256D1*
G1X22025Y20312D1*
G1X22081Y20367D1*
G1X22136Y20367D1*
G1X22407Y20256D2*
G1X22630Y20256D1*
G1X22518Y20034D1*
G1X22463Y20034D1*
G1X22463Y20367D1*
G1X23012Y20201D2*
G1X22845Y20201D1*
G1X22817Y20256D1*
G1X22817Y20312D1*
G1X22845Y20367D1*
G1X23012Y20367D1*
G1X23040Y20312D1*
G1X23040Y20256D1*
G1X22928Y20034D1*
G1X23450Y20312D2*
G1X23422Y20367D1*
G1X23255Y20367D1*
G1X23227Y20312D1*
G1X23227Y20201D1*
G1X23283Y20145D1*
G1X23450Y20145D1*
G1X23450Y20034D1*
G1X23227Y20034D1*
G1X23665Y20201D2*
G1X23832Y20201D1*
G1X23860Y20145D1*
G1X23860Y20089D1*
G1X23832Y20034D1*
G1X23665Y20034D1*
G1X23637Y20089D1*
G1X23637Y20145D1*
G1X23748Y20367D1*
G1X24047Y20367D2*
G1X24047Y20034D1*
G1X24103Y20089D1*
G1X24158Y20201D1*
G1X24214Y20089D1*
G1X24270Y20034D1*
G1X24270Y20367D1*
G1X6764Y22717D2*
G1X6764Y22939D1*
G1X6986Y22828D1*
G1X6986Y22772D1*
G1X6653Y22772D1*
G1X6986Y23127D2*
G1X6653Y23127D1*
G1X6708Y23182D1*
G1X6930Y23293D1*
G1X6986Y23349D1*
G1X6653Y23349D1*
G1X6708Y23537D2*
G1X6653Y23564D1*
G1X6653Y23731D1*
G1X6708Y23759D1*
G1X6930Y23759D1*
G1X6986Y23731D1*
G1X6986Y23564D1*
G1X6930Y23537D1*
G1X7269Y22690D2*
G1X7269Y22523D1*
G1X7214Y22495D1*
G1X7158Y22495D1*
G1X7102Y22523D1*
G1X7102Y22690D1*
G1X7158Y22718D1*
G1X7214Y22718D1*
G1X7436Y22607D1*
G1X7436Y22905D2*
G1X7102Y22905D1*
G1X7158Y22961D1*
G1X7380Y23072D1*
G1X7436Y23128D1*
G1X7102Y23128D1*
G1X7102Y23510D2*
G1X7158Y23538D1*
G1X7380Y23538D1*
G1X7436Y23510D1*
G1X7436Y23343D1*
G1X7380Y23315D1*
G1X7158Y23315D1*
G1X7102Y23343D1*
G1X7102Y23510D1*
G1X7158Y23725D2*
G1X7102Y23753D1*
G1X7102Y23920D1*
G1X7158Y23948D1*
G1X7380Y23948D1*
G1X7436Y23920D1*
G1X7436Y23753D1*
G1X7380Y23725D1*
G1X8002Y24337D2*
G1X8002Y24448D1*
G1X8002Y24392D2*
G1X8336Y24392D1*
G1X8280Y24448D1*
G1X8169Y17475D2*
G1X8169Y17309D1*
G1X8114Y17281D1*
G1X8058Y17281D1*
G1X8002Y17309D1*
G1X8002Y17475D1*
G1X8058Y17503D1*
G1X8114Y17503D1*
G1X8336Y17392D1*
G1X28685Y27361D2*
G1X28685Y27250D1*
G1X28685Y27305D2*
G1X28352Y27305D1*
G1X28407Y27250D1*
G1X28352Y27007D2*
G1X28685Y27007D1*
G1X28630Y26951D1*
G1X28407Y26840D1*
G1X28352Y26784D1*
G1X28685Y26784D1*
G1X28630Y26597D2*
G1X28685Y26569D1*
G1X28685Y26402D1*
G1X28630Y26374D1*
G1X28407Y26374D1*
G1X28352Y26402D1*
G1X28352Y26569D1*
G1X28407Y26597D1*
G1X28235Y27853D2*
G1X28180Y27798D1*
G1X28124Y27770D1*
G1X28013Y27770D1*
G1X27958Y27798D1*
G1X27902Y27853D1*
G1X27902Y27909D1*
G1X27958Y27964D1*
G1X28013Y27992D1*
G1X28124Y27992D1*
G1X28180Y27964D1*
G1X28235Y27909D1*
G1X28235Y27853D1*
G1X28235Y27582D2*
G1X28235Y27471D1*
G1X28235Y27527D2*
G1X27902Y27527D1*
G1X27958Y27471D1*
G1X27902Y27228D2*
G1X28235Y27228D1*
G1X28180Y27172D1*
G1X27958Y27061D1*
G1X27902Y27005D1*
G1X28235Y27005D1*
G1X28235Y26623D2*
G1X28180Y26595D1*
G1X27958Y26595D1*
G1X27902Y26623D1*
G1X27902Y26790D1*
G1X27958Y26818D1*
G1X28180Y26818D1*
G1X28235Y26790D1*
G1X28235Y26623D1*
G1X28180Y26408D2*
G1X28235Y26380D1*
G1X28235Y26213D1*
G1X28180Y26185D1*
G1X27958Y26185D1*
G1X27902Y26213D1*
G1X27902Y26380D1*
G1X27958Y26408D1*
G1X27335Y26047D2*
G1X27335Y25936D1*
G1X27335Y25991D2*
G1X27002Y25991D1*
G1X27058Y25936D1*
G1X27335Y37429D2*
G1X27280Y37373D1*
G1X27224Y37345D1*
G1X27113Y37345D1*
G1X27058Y37373D1*
G1X27002Y37429D1*
G1X27002Y37484D1*
G1X27058Y37540D1*
G1X27113Y37568D1*
G1X27224Y37568D1*
G1X27280Y37540D1*
G1X27335Y37484D1*
G1X27335Y37429D1*
G1X27335Y37158D2*
G1X27335Y37047D1*
G1X27335Y37102D2*
G1X27002Y37102D1*
G1X27058Y37047D1*
G1X28685Y19072D2*
G1X28685Y18850D1*
G1X28463Y19072D1*
G1X28407Y19072D1*
G1X28352Y19044D1*
G1X28352Y18878D1*
G1X28407Y18850D1*
G1X28352Y18662D2*
G1X28685Y18662D1*
G1X28630Y18607D1*
G1X28407Y18496D1*
G1X28352Y18440D1*
G1X28685Y18440D1*
G1X28630Y18252D2*
G1X28685Y18224D1*
G1X28685Y18058D1*
G1X28630Y18030D1*
G1X28407Y18030D1*
G1X28352Y18058D1*
G1X28352Y18224D1*
G1X28407Y18252D1*
G1X28069Y19266D2*
G1X28013Y19293D1*
G1X27958Y19293D1*
G1X27902Y19266D1*
G1X27902Y19099D1*
G1X27958Y19071D1*
G1X28013Y19071D1*
G1X28069Y19099D1*
G1X28069Y19266D1*
G1X28124Y19293D1*
G1X28180Y19293D1*
G1X28235Y19266D1*
G1X28235Y19099D1*
G1X28180Y19071D1*
G1X28124Y19071D1*
G1X28069Y19099D1*
G1X27902Y18883D2*
G1X28235Y18883D1*
G1X28180Y18828D1*
G1X27958Y18717D1*
G1X27902Y18661D1*
G1X28235Y18661D1*
G1X28235Y18279D2*
G1X28180Y18251D1*
G1X27958Y18251D1*
G1X27902Y18279D1*
G1X27902Y18446D1*
G1X27958Y18473D1*
G1X28180Y18473D1*
G1X28235Y18446D1*
G1X28235Y18279D1*
G1X28180Y18063D2*
G1X28235Y18036D1*
G1X28235Y17869D1*
G1X28180Y17841D1*
G1X27958Y17841D1*
G1X27902Y17869D1*
G1X27902Y18036D1*
G1X27958Y18063D1*
G1X27335Y17452D2*
G1X27335Y17341D1*
G1X27335Y17397D2*
G1X27002Y17397D1*
G1X27058Y17341D1*
G1X27169Y26480D2*
G1X27113Y26508D1*
G1X27058Y26508D1*
G1X27002Y26480D1*
G1X27002Y26313D1*
G1X27058Y26286D1*
G1X27113Y26286D1*
G1X27169Y26313D1*
G1X27169Y26480D1*
G1X27224Y26508D1*
G1X27280Y26508D1*
G1X27335Y26480D1*
G1X27335Y26313D1*
G1X27280Y26286D1*
G1X27224Y26286D1*
G1X27169Y26313D1*
G1X6708Y31946D2*
G1X6653Y31891D1*
G1X6653Y31780D1*
G1X6708Y31724D1*
G1X6764Y31724D1*
G1X6875Y31835D1*
G1X6986Y31724D1*
G1X6986Y31946D1*
G1X6986Y32134D2*
G1X6653Y32134D1*
G1X6708Y32190D1*
G1X6930Y32301D1*
G1X6986Y32356D1*
G1X6653Y32356D1*
G1X6708Y32544D2*
G1X6653Y32572D1*
G1X6653Y32738D1*
G1X6708Y32766D1*
G1X6930Y32766D1*
G1X6986Y32738D1*
G1X6986Y32572D1*
G1X6930Y32544D1*
G1X7269Y31531D2*
G1X7325Y31503D1*
G1X7380Y31503D1*
G1X7436Y31531D1*
G1X7436Y31697D1*
G1X7380Y31725D1*
G1X7325Y31725D1*
G1X7269Y31697D1*
G1X7269Y31531D1*
G1X7214Y31503D1*
G1X7158Y31503D1*
G1X7102Y31531D1*
G1X7102Y31697D1*
G1X7158Y31725D1*
G1X7214Y31725D1*
G1X7269Y31697D1*
G1X7436Y31913D2*
G1X7102Y31913D1*
G1X7158Y31968D1*
G1X7380Y32079D1*
G1X7436Y32135D1*
G1X7102Y32135D1*
G1X7102Y32517D2*
G1X7158Y32545D1*
G1X7380Y32545D1*
G1X7436Y32517D1*
G1X7436Y32351D1*
G1X7380Y32323D1*
G1X7158Y32323D1*
G1X7102Y32351D1*
G1X7102Y32517D1*
G1X7158Y32733D2*
G1X7102Y32761D1*
G1X7102Y32927D1*
G1X7158Y32955D1*
G1X7380Y32955D1*
G1X7436Y32927D1*
G1X7436Y32761D1*
G1X7380Y32733D1*
G1X8002Y33344D2*
G1X8002Y33455D1*
G1X8002Y33399D2*
G1X8336Y33399D1*
G1X8280Y33455D1*
G1X8169Y24316D2*
G1X8225Y24288D1*
G1X8280Y24288D1*
G1X8336Y24316D1*
G1X8336Y24483D1*
G1X8280Y24511D1*
G1X8225Y24511D1*
G1X8169Y24483D1*
G1X8169Y24316D1*
G1X8114Y24288D1*
G1X8058Y24288D1*
G1X8002Y24316D1*
G1X8002Y24483D1*
G1X8058Y24511D1*
G1X8114Y24511D1*
G1X8169Y24483D1*
G1X24442Y20481D2*
G1X22442Y20481D1*
G1X22442Y21231D1*
G1X24442Y21231D1*
G1X24442Y20481D1*
G1X24192Y21231D2*
G1X24192Y20481D1*
G1X27668Y36541D2*
G1X26668Y36541D1*
G1X26668Y26441D1*
G1X27668Y26441D1*
G1X27668Y26991D1*
G1X27668Y27991D1*
G1X27668Y28991D1*
G1X27668Y29991D1*
G1X27668Y30991D1*
G1X27668Y32991D1*
G1X27668Y34991D1*
G1X27668Y36541D1*
G1X27668Y25947D2*
G1X26668Y25947D1*
G1X26668Y17847D1*
G1X27668Y17847D1*
G1X27668Y18397D1*
G1X27668Y19397D1*
G1X27668Y20397D1*
G1X27668Y21397D1*
G1X27668Y22397D1*
G1X27668Y24397D1*
G1X27668Y25947D1*
G1X7670Y24849D2*
G1X8670Y24849D1*
G1X8670Y32949D1*
G1X7670Y32949D1*
G1X7670Y32399D1*
G1X7670Y31399D1*
G1X7670Y30399D1*
G1X7670Y29399D1*
G1X7670Y28399D1*
G1X7670Y26399D1*
G1X7670Y24849D1*
G1X7670Y17842D2*
G1X8670Y17842D1*
G1X8670Y23942D1*
G1X7670Y23942D1*
G1X7670Y23392D1*
G1X7670Y22392D1*
G1X7670Y21392D1*
G1X7670Y20392D1*
G1X7670Y19392D1*
G1X7670Y17842D1*
G1X15302Y23046D2*
G54D41*
G1X14562Y23046D1*
G1X14562Y22726D1*
G1X15302Y22726D1*
G1X15302Y23046D1*
G1X18622Y27581D2*
G1X17882Y27581D1*
G1X17882Y27261D1*
G1X18622Y27261D1*
G1X18622Y27581D1*
G1X19127Y27661D2*
G1X19127Y28401D1*
G1X18807Y28401D1*
G1X18807Y27661D1*
G1X19127Y27661D1*
G1X20057Y26136D2*
G1X19317Y26136D1*
G1X19317Y25816D1*
G1X20057Y25816D1*
G1X20057Y26136D1*
G1X14542Y24321D2*
G1X14542Y23581D1*
G1X14862Y23581D1*
G1X14862Y24321D1*
G1X14542Y24321D1*
G1X17882Y28401D2*
G1X17882Y27661D1*
G1X18202Y27661D1*
G1X18202Y28401D1*
G1X17882Y28401D1*
G1X14127Y21706D2*
G1X14127Y22446D1*
G1X13807Y22446D1*
G1X13807Y21706D1*
G1X14127Y21706D1*
G1X15702Y28486D2*
G1X15702Y29226D1*
G1X15382Y29226D1*
G1X15382Y28486D1*
G1X15702Y28486D1*
G1X16647Y21706D2*
G1X15907Y21706D1*
G1X15907Y21386D1*
G1X16647Y21386D1*
G1X16647Y21706D1*
G1X24352Y18311D2*
G1X24352Y19051D1*
G1X24032Y19051D1*
G1X24032Y18311D1*
G1X24352Y18311D1*
G1X14127Y23111D2*
G1X14127Y23851D1*
G1X13807Y23851D1*
G1X13807Y23111D1*
G1X14127Y23111D1*
G1X15207Y25781D2*
G1X15947Y25781D1*
G1X15947Y26101D1*
G1X15207Y26101D1*
G1X15207Y25781D1*
G1X10712Y27466D2*
G1X11452Y27466D1*
G1X11452Y27786D1*
G1X10712Y27786D1*
G1X10712Y27466D1*
G1X17557Y21386D2*
G1X18297Y21386D1*
G1X18297Y21706D1*
G1X17557Y21706D1*
G1X17557Y21386D1*
G1X18704Y23194D2*
G1X17964Y23194D1*
G1X17964Y22874D1*
G1X18704Y22874D1*
G1X18704Y23194D1*
G1X25092Y19296D2*
G1X25092Y20036D1*
G1X24772Y20036D1*
G1X24772Y19296D1*
G1X25092Y19296D1*
G1X17467Y20581D2*
G1X17467Y21321D1*
G1X17147Y21321D1*
G1X17147Y20581D1*
G1X17467Y20581D1*
G1X15462Y26996D2*
G1X15462Y26256D1*
G1X15782Y26256D1*
G1X15782Y26996D1*
G1X15462Y26996D1*
G1X19327Y25361D2*
G1X20067Y25361D1*
G1X20067Y25681D1*
G1X19327Y25681D1*
G1X19327Y25361D1*
G1X14562Y24576D2*
G1X15302Y24576D1*
G1X15302Y24896D1*
G1X14562Y24896D1*
G1X14562Y24576D1*
G1X13387Y21181D2*
G1X14127Y21181D1*
G1X14127Y21501D1*
G1X13387Y21501D1*
G1X13387Y21181D1*
G1X19522Y27241D2*
G1X19522Y27981D1*
G1X19202Y27981D1*
G1X19202Y27241D1*
G1X19522Y27241D1*
G1X16607Y26996D2*
G1X16607Y26256D1*
G1X16927Y26256D1*
G1X16927Y26996D1*
G1X16607Y26996D1*
G1X18704Y23579D2*
G1X17964Y23579D1*
G1X17964Y23259D1*
G1X18704Y23259D1*
G1X18704Y23579D1*
G1X17467Y21706D2*
G1X16727Y21706D1*
G1X16727Y21386D1*
G1X17467Y21386D1*
G1X17467Y21706D1*
G1X19327Y24971D2*
G1X20067Y24971D1*
G1X20067Y25291D1*
G1X19327Y25291D1*
G1X19327Y24971D1*
G1X15207Y25416D2*
G1X15947Y25416D1*
G1X15947Y25736D1*
G1X15207Y25736D1*
G1X15207Y25416D1*
G1X24352Y23206D2*
G1X23612Y23206D1*
G1X23612Y22886D1*
G1X24352Y22886D1*
G1X24352Y23206D1*
G1X16727Y21801D2*
G1X17467Y21801D1*
G1X17467Y22121D1*
G1X16727Y22121D1*
G1X16727Y21801D1*
G1X13387Y22641D2*
G1X14127Y22641D1*
G1X14127Y22961D1*
G1X13387Y22961D1*
G1X13387Y22641D1*
G1X22612Y18656D2*
G1X23352Y18656D1*
G1X23352Y18976D1*
G1X22612Y18976D1*
G1X22612Y18656D1*
G1X15842Y26996D2*
G1X15842Y26256D1*
G1X16162Y26256D1*
G1X16162Y26996D1*
G1X15842Y26996D1*
G1X16212Y23131D2*
G1X16212Y23871D1*
G1X15892Y23871D1*
G1X15892Y23131D1*
G1X16212Y23131D1*
G1X15207Y25051D2*
G1X15947Y25051D1*
G1X15947Y25371D1*
G1X15207Y25371D1*
G1X15207Y25051D1*
G1X14112Y25321D2*
G1X14112Y24581D1*
G1X14432Y24581D1*
G1X14432Y25321D1*
G1X14112Y25321D1*
G1X17047Y22416D2*
G1X17047Y23156D1*
G1X16727Y23156D1*
G1X16727Y22416D1*
G1X17047Y22416D1*
G1X16597Y23131D2*
G1X16597Y23871D1*
G1X16277Y23871D1*
G1X16277Y23131D1*
G1X16597Y23131D1*
G1X15382Y28336D2*
G1X15382Y27596D1*
G1X15702Y27596D1*
G1X15702Y28336D1*
G1X15382Y28336D1*
G1X15797Y20581D2*
G1X16537Y20581D1*
G1X16537Y20901D1*
G1X15797Y20901D1*
G1X15797Y20581D1*
G1X17467Y22416D2*
G1X17467Y23156D1*
G1X17147Y23156D1*
G1X17147Y22416D1*
G1X17467Y22416D1*
G1X13687Y21706D2*
G1X13687Y22446D1*
G1X13367Y22446D1*
G1X13367Y21706D1*
G1X13687Y21706D1*
G1X16332Y29226D2*
G1X16332Y28486D1*
G1X16652Y28486D1*
G1X16652Y29226D1*
G1X16332Y29226D1*
G1X16207Y24021D2*
G1X16207Y24761D1*
G1X15887Y24761D1*
G1X15887Y24021D1*
G1X16207Y24021D1*
G1X17047Y20581D2*
G1X17047Y21321D1*
G1X16727Y21321D1*
G1X16727Y20581D1*
G1X17047Y20581D1*
G1X14877Y20581D2*
G1X15617Y20581D1*
G1X15617Y20901D1*
G1X14877Y20901D1*
G1X14877Y20581D1*
G1X16237Y26996D2*
G1X16237Y26256D1*
G1X16557Y26256D1*
G1X16557Y26996D1*
G1X16237Y26996D1*
G1X15827Y23131D2*
G1X15827Y23871D1*
G1X15507Y23871D1*
G1X15507Y23131D1*
G1X15827Y23131D1*
G1X15377Y26256D2*
G1X15377Y26996D1*
G1X15057Y26996D1*
G1X15057Y26256D1*
G1X15377Y26256D1*
G1X20072Y24881D2*
G1X19332Y24881D1*
G1X19332Y24561D1*
G1X20072Y24561D1*
G1X20072Y24881D1*
G1X14562Y23126D2*
G1X15302Y23126D1*
G1X15302Y23446D1*
G1X14562Y23446D1*
G1X14562Y23126D1*
G54D12*
G1X11292Y28171D3*
G1X10732Y28171D3*
G54D11*
G1X14722Y22886D3*
G1X15142Y22886D3*
G1X18042Y27421D3*
G1X18462Y27421D3*
G1X18967Y28241D3*
G1X18967Y27821D3*
G1X19492Y24721D3*
G1X19912Y24721D3*
G1X15217Y26836D3*
G1X15217Y26416D3*
G1X15667Y23711D3*
G1X15667Y23291D3*
G1X23192Y18816D3*
G1X22772Y18816D3*
G1X24932Y19876D3*
G1X24932Y19456D3*
G1X23772Y23046D3*
G1X24192Y23046D3*
G1X13967Y22286D3*
G1X13967Y21866D3*
G1X13967Y23691D3*
G1X13967Y23271D3*
G1X15142Y24736D3*
G1X14722Y24736D3*
G1X15542Y29066D3*
G1X15542Y28646D3*
G1X16067Y21546D3*
G1X16487Y21546D3*
G1X16887Y21546D3*
G1X17307Y21546D3*
G1X17307Y21161D3*
G1X17307Y20741D3*
G1X19362Y27821D3*
G1X19362Y27401D3*
G1X14702Y23741D3*
G1X14702Y24161D3*
G1X15142Y23286D3*
G1X14722Y23286D3*
G1X19477Y25976D3*
G1X19897Y25976D3*
G1X18042Y27821D3*
G1X18042Y28241D3*
G1X16002Y26416D3*
G1X16002Y26836D3*
G1X15622Y26416D3*
G1X15622Y26836D3*
G1X13967Y21341D3*
G1X13547Y21341D3*
G1X13967Y22801D3*
G1X13547Y22801D3*
G1X14272Y24741D3*
G1X14272Y25161D3*
G1X16047Y24601D3*
G1X16047Y24181D3*
G1X15787Y25941D3*
G1X15367Y25941D3*
G1X13527Y22286D3*
G1X13527Y21866D3*
G1X16052Y23711D3*
G1X16052Y23291D3*
G1X16437Y23711D3*
G1X16437Y23291D3*
G1X15457Y20741D3*
G1X15037Y20741D3*
G1X15542Y27756D3*
G1X15542Y28176D3*
G1X16492Y28646D3*
G1X16492Y29066D3*
G1X16887Y21161D3*
G1X16887Y20741D3*
G1X16887Y22996D3*
G1X16887Y22576D3*
G1X16377Y20741D3*
G1X15957Y20741D3*
G1X17307Y21961D3*
G1X16887Y21961D3*
G1X17307Y22996D3*
G1X17307Y22576D3*
G1X18137Y21546D3*
G1X17717Y21546D3*
G1X19907Y25521D3*
G1X19487Y25521D3*
G1X19907Y25131D3*
G1X19487Y25131D3*
G1X24192Y18891D3*
G1X24192Y18471D3*
G1X18124Y23419D3*
G1X18544Y23419D3*
G1X18124Y23034D3*
G1X18544Y23034D3*
G1X16397Y26416D3*
G1X16397Y26836D3*
G1X16767Y26416D3*
G1X16767Y26836D3*
G1X15787Y25211D3*
G1X15367Y25211D3*
G1X15787Y25576D3*
G1X15367Y25576D3*
G1X11292Y27626D3*
G1X10872Y27626D3*
G54D10*
G1X15142Y23721D3*
G1X15142Y24281D3*
G1X18502Y28381D3*
G1X18502Y27821D3*
G54D48*
G1X8170Y22392D3*
G1X8170Y21392D3*
G1X8170Y20392D3*
G1X8170Y19392D3*
G1X8170Y18392D3*
G1X8170Y31399D3*
G1X8170Y30399D3*
G1X8170Y29399D3*
G1X8170Y28399D3*
G1X8170Y27399D3*
G1X8170Y26399D3*
G1X8170Y25399D3*
G1X27168Y19397D3*
G1X27168Y20397D3*
G1X27168Y21397D3*
G1X27168Y22397D3*
G1X27168Y23397D3*
G1X27168Y24397D3*
G1X27168Y25397D3*
G1X27168Y27991D3*
G1X27168Y28991D3*
G1X27168Y29991D3*
G1X27168Y30991D3*
G1X27168Y31991D3*
G1X27168Y32991D3*
G1X27168Y33991D3*
G1X27168Y34991D3*
G1X27168Y35991D3*
G54D49*
G1X8170Y23392D3*
G1X8170Y32399D3*
G1X27168Y18397D3*
G1X27168Y26991D3*
G54D50*
G1X14012Y18451D3*
G1X17362Y18451D3*
G54D51*
G1X15707Y18196D3*
G54D17*
G1X10292Y29411D3*
G1X11292Y29411D3*
G54D52*
G1X19362Y26681D3*
G1X18572Y26681D3*
G54D53*
G1X23692Y21836D3*
G1X23192Y21836D3*
G1X22692Y21836D3*
G1X22692Y19876D3*
G1X23192Y19876D3*
G1X23692Y19876D3*
G1X24192Y19876D3*
G54D54*
G1X24192Y21836D3*
G54D55*
G1X15962Y27756D3*
G1X16492Y27756D3*
G1X16492Y28176D3*
G1X15962Y28176D3*
G54D26*
G1X19432Y28931D3*
M2*
