*
%LPD*%
%LNS2-LP_APPLIC_BOARD_VERS2.SMB*%
%FSLAX24Y24*%
%MOIN*%
%AD*%
%ADD11R,0.022X0.022*%
%ADD34C,0.069*%
%ADD37C,0.08*%
%ADD48O,0.0787X0.0618*%
%ADD49R,0.0787X0.0618*%
%ADD58R,0.06X0.21*%
G54D11*
%SRX1Y1I0.0J0.0*%
G1X9557Y18391D3*
G1X9977Y18391D3*
G1X9552Y20391D3*
G1X9972Y20391D3*
G1X9547Y21396D3*
G1X9967Y21396D3*
G1X9557Y22391D3*
G1X9977Y22391D3*
G1X9552Y23391D3*
G1X9972Y23391D3*
G1X25512Y21396D3*
G1X25932Y21396D3*
G1X25507Y25396D3*
G1X25927Y25396D3*
G1X25507Y28991D3*
G1X25927Y28991D3*
G1X25512Y26991D3*
G1X25932Y26991D3*
G1X25512Y31991D3*
G1X25932Y31991D3*
G1X25512Y29991D3*
G1X25932Y29991D3*
G1X25512Y30991D3*
G1X25932Y30991D3*
G54D48*
G1X8170Y22392D3*
G1X8170Y21392D3*
G1X8170Y20392D3*
G1X8170Y19392D3*
G1X8170Y18392D3*
G1X8170Y31399D3*
G1X8170Y30399D3*
G1X8170Y29399D3*
G1X8170Y28399D3*
G1X8170Y27399D3*
G1X8170Y26399D3*
G1X8170Y25399D3*
G1X27168Y19397D3*
G1X27168Y20397D3*
G1X27168Y21397D3*
G1X27168Y22397D3*
G1X27168Y23397D3*
G1X27168Y24397D3*
G1X27168Y25397D3*
G1X27168Y27991D3*
G1X27168Y28991D3*
G1X27168Y29991D3*
G1X27168Y30991D3*
G1X27168Y31991D3*
G1X27168Y32991D3*
G1X27168Y33991D3*
G1X27168Y34991D3*
G1X27168Y35991D3*
G54D49*
G1X8170Y23392D3*
G1X8170Y32399D3*
G1X27168Y18397D3*
G1X27168Y26991D3*
G54D34*
G1X10292Y29411D3*
G1X11292Y29411D3*
G54D37*
G1X19432Y28931D3*
G54D58*
G1X14007Y18456D3*
G1X17357Y18456D3*
M2*
