*
%LPD*%
%LNS2-LP_APPLIC_BOARD_VERS2.FAB*%
%FSLAX24Y24*%
%MOIN*%
%AD*%
%ADD27C,0.001*%
%ADD28C,0.02*%
%ADD29C,0.01*%
G54D27*
%SRX1Y1I0.0J0.0*%
G1X25935Y-22967D2*
G1X25935Y-24050D1*
G1X38435Y-24050D1*
G1X38435Y-22967D1*
G1X25935Y-22967D1*
G1X7292Y36816D2*
G1X9522Y36816D1*
G1X9522Y32726D1*
G1X25762Y32726D1*
G1X25762Y36816D1*
G1X27992Y36816D1*
G1X27992Y17376D1*
G1X7292Y17376D1*
G1X7292Y36816D1*
G1X25935Y-31633D2*
G1X25935Y-32717D1*
G1X38435Y-32717D1*
G1X38435Y-31633D1*
G1X25935Y-31633D1*
G1X28018Y-29467D2*
G1X28018Y-30550D1*
G1X36352Y-30550D1*
G1X36352Y-29467D1*
G1X28018Y-29467D1*
G1X25935Y-27300D2*
G1X25935Y-28383D1*
G1X38435Y-28383D1*
G1X38435Y-27300D1*
G1X25935Y-27300D1*
G1X23852Y-25133D2*
G1X23852Y-26217D1*
G1X40518Y-26217D1*
G1X40518Y-25133D1*
G1X23852Y-25133D1*
G1X45881Y-11092D2*
G54D28*
G1X46131Y-11092D1*
G1X46214Y-11008D1*
G1X46214Y-10925D1*
G1X46131Y-10842D1*
G1X45881Y-10842D1*
G1X45881Y-11342D1*
G1X45439Y-10842D2*
G1X45439Y-11258D1*
G1X45397Y-11342D1*
G1X45147Y-11342D1*
G1X45106Y-11258D1*
G1X45106Y-10842D1*
G1X44664Y-11342D2*
G1X44414Y-11092D1*
G1X44664Y-10842D1*
G1X44331Y-10842D2*
G1X44331Y-11342D1*
G1X43889Y-11258D2*
G1X43847Y-11342D1*
G1X43597Y-11342D1*
G1X43556Y-11258D1*
G1X43556Y-10925D1*
G1X43597Y-10842D1*
G1X43847Y-10842D1*
G1X43889Y-10925D1*
G1X43114Y-11175D2*
G1X42781Y-11175D1*
G1X43114Y-11342D2*
G1X43114Y-11092D1*
G1X42989Y-10842D1*
G1X42906Y-10842D1*
G1X42781Y-11092D1*
G1X42781Y-11342D1*
G1X42172Y-11342D2*
G1X42172Y-10842D1*
G1X42339Y-10842D2*
G1X42006Y-10842D1*
G1X41564Y-10925D2*
G1X41522Y-10842D1*
G1X41272Y-10842D1*
G1X41231Y-10925D1*
G1X41231Y-11008D1*
G1X41272Y-11092D1*
G1X41522Y-11092D1*
G1X41564Y-11175D1*
G1X41564Y-11258D1*
G1X41522Y-11342D1*
G1X41272Y-11342D1*
G1X41231Y-11258D1*
G1X39535Y-11342D2*
G1X39535Y-10842D1*
G1X39493Y-11342D2*
G1X39743Y-11342D1*
G1X39827Y-11175D1*
G1X39827Y-11008D1*
G1X39743Y-10842D1*
G1X39493Y-10842D1*
G1X38927Y-11092D2*
G1X39052Y-11342D1*
G1X38718Y-11092D2*
G1X38968Y-11092D1*
G1X39052Y-11008D1*
G1X39052Y-10925D1*
G1X38968Y-10842D1*
G1X38718Y-10842D1*
G1X38718Y-11342D1*
G1X38277Y-11175D2*
G1X37943Y-11175D1*
G1X38277Y-11342D2*
G1X38277Y-11092D1*
G1X38152Y-10842D1*
G1X38068Y-10842D1*
G1X37943Y-11092D1*
G1X37943Y-11342D1*
G1X37210Y-11342D2*
G1X37168Y-11258D1*
G1X37168Y-10925D1*
G1X37210Y-10842D1*
G1X37460Y-10842D1*
G1X37502Y-10925D1*
G1X37502Y-11258D1*
G1X37460Y-11342D1*
G1X37210Y-11342D1*
G1X36435Y-11342D2*
G1X36435Y-10842D1*
G1X36393Y-11342D2*
G1X36643Y-11342D1*
G1X36727Y-11258D1*
G1X36727Y-11175D1*
G1X36685Y-11092D1*
G1X36435Y-11092D2*
G1X36685Y-11092D1*
G1X36727Y-11008D1*
G1X36727Y-10925D1*
G1X36643Y-10842D1*
G1X36393Y-10842D1*
G1X40110Y-39008D2*
G54D29*
G1X40110Y-38508D1*
G1X40068Y-39008D2*
G1X40318Y-39008D1*
G1X40402Y-38925D1*
G1X40402Y-38842D1*
G1X40360Y-38758D1*
G1X40110Y-38758D2*
G1X40360Y-38758D1*
G1X40402Y-38675D1*
G1X40402Y-38592D1*
G1X40318Y-38508D1*
G1X40068Y-38508D1*
G1X39827Y-38592D2*
G1X39785Y-38508D1*
G1X39535Y-38508D1*
G1X39493Y-38592D1*
G1X39493Y-38675D1*
G1X39535Y-38758D1*
G1X39785Y-38758D1*
G1X39827Y-38842D1*
G1X39827Y-38925D1*
G1X39785Y-39008D1*
G1X39535Y-39008D1*
G1X39493Y-38925D1*
G1X39252Y-38592D2*
G1X39210Y-38508D1*
G1X38960Y-38508D1*
G1X38918Y-38592D1*
G1X38918Y-38675D1*
G1X38960Y-38758D1*
G1X39210Y-38758D1*
G1X39252Y-38842D1*
G1X39252Y-38925D1*
G1X39210Y-39008D1*
G1X38960Y-39008D1*
G1X38918Y-38925D1*
G1X38593Y-39008D2*
G1X38677Y-39008D1*
G1X38677Y-38925D1*
G1X38593Y-38925D1*
G1X38593Y-39008D1*
G1X38268Y-39008D2*
G1X38102Y-39008D1*
G1X38185Y-39008D2*
G1X38185Y-38508D1*
G1X38102Y-38592D1*
G1X37777Y-38758D2*
G1X37443Y-38758D1*
G1X37202Y-39008D2*
G1X37035Y-39008D1*
G1X37118Y-39008D2*
G1X37118Y-38508D1*
G1X37035Y-38592D1*
G1X36710Y-38592D2*
G1X36668Y-38508D1*
G1X36418Y-38508D1*
G1X36377Y-38592D1*
G1X36377Y-38675D1*
G1X36418Y-38758D1*
G1X36668Y-38758D1*
G1X36710Y-38842D1*
G1X36710Y-38925D1*
G1X36668Y-39008D1*
G1X36418Y-39008D1*
G1X36377Y-38925D1*
G1X36010Y-38758D2*
G1X36135Y-39008D1*
G1X35802Y-38758D2*
G1X36052Y-38758D1*
G1X36135Y-38675D1*
G1X36135Y-38592D1*
G1X36052Y-38508D1*
G1X35802Y-38508D1*
G1X35802Y-39008D1*
G1X35477Y-38758D2*
G1X35227Y-38758D1*
G1X35560Y-39008D2*
G1X35227Y-39008D1*
G1X35227Y-38508D1*
G1X35560Y-38508D1*
G1X34985Y-38508D2*
G1X34985Y-38675D1*
G1X34818Y-39008D1*
G1X34652Y-38675D1*
G1X34652Y-38508D1*
G1X34410Y-39175D2*
G1X34077Y-39175D1*
G1X33543Y-39008D2*
G1X33543Y-38508D1*
G1X33502Y-39008D2*
G1X33752Y-39008D1*
G1X33835Y-38842D1*
G1X33835Y-38675D1*
G1X33752Y-38508D1*
G1X33502Y-38508D1*
G1X33135Y-38758D2*
G1X33260Y-39008D1*
G1X32927Y-38758D2*
G1X33177Y-38758D1*
G1X33260Y-38675D1*
G1X33260Y-38592D1*
G1X33177Y-38508D1*
G1X32927Y-38508D1*
G1X32927Y-39008D1*
G1X32685Y-38842D2*
G1X32352Y-38842D1*
G1X32685Y-39008D2*
G1X32685Y-38758D1*
G1X32560Y-38508D1*
G1X32477Y-38508D1*
G1X32352Y-38758D1*
G1X32352Y-39008D1*
G1X31818Y-39008D2*
G1X31777Y-38925D1*
G1X31777Y-38592D1*
G1X31818Y-38508D1*
G1X32068Y-38508D1*
G1X32110Y-38592D1*
G1X32110Y-38925D1*
G1X32068Y-39008D1*
G1X31818Y-39008D1*
G1X31243Y-39008D2*
G1X31243Y-38508D1*
G1X31202Y-39008D2*
G1X31452Y-39008D1*
G1X31535Y-38925D1*
G1X31535Y-38842D1*
G1X31493Y-38758D1*
G1X31243Y-38758D2*
G1X31493Y-38758D1*
G1X31535Y-38675D1*
G1X31535Y-38592D1*
G1X31452Y-38508D1*
G1X31202Y-38508D1*
G1X30960Y-39175D2*
G1X30627Y-39175D1*
G1X30385Y-38925D2*
G1X30343Y-39008D1*
G1X30093Y-39008D1*
G1X30052Y-38925D1*
G1X30052Y-38592D1*
G1X30093Y-38508D1*
G1X30343Y-38508D1*
G1X30385Y-38592D1*
G1X29810Y-39008D2*
G1X29643Y-39008D1*
G1X29727Y-39008D2*
G1X29727Y-38508D1*
G1X29810Y-38508D2*
G1X29643Y-38508D1*
G1X29318Y-39008D2*
G1X29027Y-39008D1*
G1X29027Y-38508D1*
G1X28452Y-38758D2*
G1X28702Y-38758D1*
G1X28785Y-38675D1*
G1X28785Y-38592D1*
G1X28702Y-38508D1*
G1X28452Y-38508D1*
G1X28452Y-39008D1*
G1X27877Y-38758D2*
G1X28127Y-38758D1*
G1X28210Y-38675D1*
G1X28210Y-38592D1*
G1X28127Y-38508D1*
G1X27877Y-38508D1*
G1X27877Y-39008D1*
G1X27635Y-38842D2*
G1X27302Y-38842D1*
G1X27635Y-39008D2*
G1X27635Y-38758D1*
G1X27510Y-38508D1*
G1X27427Y-38508D1*
G1X27302Y-38758D1*
G1X27302Y-39008D1*
G1X27060Y-39175D2*
G1X26727Y-39175D1*
G1X26152Y-38758D2*
G1X26402Y-38758D1*
G1X26485Y-38675D1*
G1X26485Y-38592D1*
G1X26402Y-38508D1*
G1X26152Y-38508D1*
G1X26152Y-39008D1*
G1X25910Y-39008D2*
G1X25618Y-39008D1*
G1X25618Y-38508D1*
G1X25377Y-38758D2*
G1X25043Y-38758D1*
G1X24802Y-39008D2*
G1X24468Y-39008D1*
G1X24802Y-38675D1*
G1X24802Y-38592D1*
G1X24760Y-38508D1*
G1X24510Y-38508D1*
G1X24468Y-38592D1*
G1X24227Y-38592D2*
G1X24185Y-38508D1*
G1X23935Y-38508D1*
G1X23893Y-38592D1*
G1X23893Y-38675D1*
G1X23935Y-38758D1*
G1X24185Y-38758D1*
G1X24227Y-38842D1*
G1X24227Y-38925D1*
G1X24185Y-39008D1*
G1X23935Y-39008D1*
G1X23893Y-38925D1*
G1X48081Y-15842D2*
G1X47831Y-15842D1*
G1X47789Y-15758D1*
G1X47789Y-15592D1*
G1X47831Y-15508D1*
G1X48081Y-15508D1*
G1X48122Y-15592D1*
G1X48122Y-15675D1*
G1X47789Y-15675D1*
G1X47547Y-15842D2*
G1X47547Y-15592D1*
G1X47506Y-15508D1*
G1X47256Y-15508D1*
G1X47256Y-15842D1*
G1X46722Y-15842D2*
G1X46681Y-15758D1*
G1X46681Y-15592D1*
G1X46722Y-15508D1*
G1X46972Y-15508D1*
G1X47014Y-15592D1*
G1X47014Y-15758D1*
G1X46972Y-15842D1*
G1X46722Y-15842D1*
G1X46439Y-15342D2*
G1X46439Y-15842D1*
G1X46356Y-15758D1*
G1X46189Y-15425D1*
G1X46106Y-15342D1*
G1X46106Y-15842D1*
G1X45018Y-15592D2*
G1X45018Y-15508D1*
G1X45102Y-15508D1*
G1X45102Y-15592D1*
G1X45018Y-15592D1*
G1X45018Y-15842D2*
G1X45018Y-15758D1*
G1X45102Y-15758D1*
G1X45102Y-15842D1*
G1X45018Y-15842D1*
G1X43931Y-15842D2*
G1X43931Y-15592D1*
G1X43889Y-15508D1*
G1X43639Y-15508D1*
G1X43639Y-15842D1*
G1X43106Y-15842D2*
G1X43064Y-15758D1*
G1X43064Y-15592D1*
G1X43106Y-15508D1*
G1X43356Y-15508D1*
G1X43397Y-15592D1*
G1X43397Y-15758D1*
G1X43356Y-15842D1*
G1X43106Y-15842D1*
G1X42739Y-15342D2*
G1X42739Y-15341D1*
G1X42739Y-15342D1*
G1X42822Y-15842D2*
G1X42656Y-15842D1*
G1X42739Y-15842D2*
G1X42739Y-15508D1*
G1X42656Y-15508D1*
G1X42331Y-15508D2*
G1X42081Y-15508D1*
G1X42372Y-15842D2*
G1X42206Y-15842D1*
G1X42164Y-15758D1*
G1X42164Y-15342D1*
G1X41839Y-15508D2*
G1X41589Y-15508D1*
G1X41547Y-15592D1*
G1X41547Y-15758D1*
G1X41589Y-15842D1*
G1X41839Y-15842D1*
G1X41264Y-15842D2*
G1X41014Y-15842D1*
G1X40972Y-15758D1*
G1X40972Y-15592D1*
G1X41014Y-15508D1*
G1X41264Y-15508D1*
G1X41306Y-15592D1*
G1X41306Y-15675D1*
G1X40972Y-15675D1*
G1X40689Y-15508D2*
G1X40439Y-15508D1*
G1X40731Y-15842D2*
G1X40564Y-15842D1*
G1X40522Y-15758D1*
G1X40522Y-15342D1*
G1X39906Y-15842D2*
G1X39864Y-15758D1*
G1X39864Y-15592D1*
G1X39906Y-15508D1*
G1X40156Y-15508D1*
G1X40197Y-15592D1*
G1X40197Y-15758D1*
G1X40156Y-15842D1*
G1X39906Y-15842D1*
G1X39622Y-15508D2*
G1X39456Y-15508D1*
G1X39414Y-15592D1*
G1X39331Y-15592D1*
G1X39331Y-15508D2*
G1X39331Y-15842D1*
G1X38756Y-15592D2*
G1X39006Y-15592D1*
G1X39089Y-15508D1*
G1X39089Y-15425D1*
G1X39006Y-15342D1*
G1X38756Y-15342D1*
G1X38756Y-15842D1*
G1X37502Y-15508D2*
G1X37668Y-15508D1*
G1X37710Y-15592D1*
G1X37710Y-15758D1*
G1X37752Y-15842D1*
G1X37460Y-15842D1*
G1X37418Y-15758D1*
G1X37460Y-15675D1*
G1X37710Y-15675D1*
G1X37093Y-15342D2*
G1X37093Y-15341D1*
G1X37094Y-15341D1*
G1X37094Y-15342D1*
G1X37093Y-15342D1*
G1X37177Y-15842D2*
G1X37010Y-15842D1*
G1X37093Y-15842D2*
G1X37093Y-15508D1*
G1X37010Y-15508D1*
G1X36727Y-15342D2*
G1X36727Y-15508D1*
G1X36560Y-15842D1*
G1X36393Y-15508D1*
G1X36393Y-15342D1*
G1X54206Y-14008D2*
G1X53956Y-14008D1*
G1X53914Y-14092D1*
G1X53956Y-14175D1*
G1X54206Y-14175D1*
G1X54247Y-14258D1*
G1X54206Y-14342D1*
G1X53956Y-14342D1*
G1X53506Y-14342D2*
G1X53506Y-14092D1*
G1X53672Y-14342D2*
G1X53672Y-14092D1*
G1X53631Y-14008D1*
G1X53547Y-14008D1*
G1X53506Y-14092D1*
G1X53464Y-14008D1*
G1X53381Y-14008D1*
G1X53339Y-14092D1*
G1X53339Y-14342D1*
G1X53097Y-14342D2*
G1X53097Y-14092D1*
G1X53056Y-14008D1*
G1X52806Y-14008D1*
G1X52806Y-14342D2*
G1X52806Y-13842D1*
G1X52272Y-14342D2*
G1X52231Y-14258D1*
G1X52231Y-14092D1*
G1X52272Y-14008D1*
G1X52522Y-14008D1*
G1X52564Y-14092D1*
G1X52564Y-14258D1*
G1X52522Y-14342D1*
G1X52272Y-14342D1*
G1X51018Y-14342D2*
G1X50935Y-14258D1*
G1X50893Y-14175D1*
G1X50893Y-14008D1*
G1X50935Y-13925D1*
G1X51018Y-13842D1*
G1X51102Y-13842D1*
G1X51185Y-13925D1*
G1X51227Y-14008D1*
G1X51227Y-14175D1*
G1X51185Y-14258D1*
G1X51102Y-14342D1*
G1X51018Y-14342D1*
G1X50443Y-14342D2*
G1X50360Y-14258D1*
G1X50318Y-14175D1*
G1X50318Y-14008D1*
G1X50360Y-13925D1*
G1X50443Y-13842D1*
G1X50527Y-13842D1*
G1X50610Y-13925D1*
G1X50652Y-14008D1*
G1X50652Y-14175D1*
G1X50610Y-14258D1*
G1X50527Y-14342D1*
G1X50443Y-14342D1*
G1X49868Y-14342D2*
G1X49785Y-14258D1*
G1X49743Y-14175D1*
G1X49743Y-14008D1*
G1X49785Y-13925D1*
G1X49868Y-13842D1*
G1X49952Y-13842D1*
G1X50035Y-13925D1*
G1X50077Y-14008D1*
G1X50077Y-14175D1*
G1X50035Y-14258D1*
G1X49952Y-14342D1*
G1X49868Y-14342D1*
G1X49293Y-14342D2*
G1X49210Y-14258D1*
G1X49168Y-14175D1*
G1X49168Y-14008D1*
G1X49210Y-13925D1*
G1X49293Y-13842D1*
G1X49377Y-13842D1*
G1X49460Y-13925D1*
G1X49502Y-14008D1*
G1X49502Y-14175D1*
G1X49460Y-14258D1*
G1X49377Y-14342D1*
G1X49293Y-14342D1*
G1X48718Y-14342D2*
G1X48635Y-14258D1*
G1X48593Y-14175D1*
G1X48593Y-14008D1*
G1X48635Y-13925D1*
G1X48718Y-13842D1*
G1X48802Y-13842D1*
G1X48885Y-13925D1*
G1X48927Y-14008D1*
G1X48927Y-14175D1*
G1X48885Y-14258D1*
G1X48802Y-14342D1*
G1X48718Y-14342D1*
G1X48143Y-14342D2*
G1X48060Y-14258D1*
G1X48018Y-14175D1*
G1X48018Y-14008D1*
G1X48060Y-13925D1*
G1X48143Y-13842D1*
G1X48227Y-13842D1*
G1X48310Y-13925D1*
G1X48352Y-14008D1*
G1X48352Y-14175D1*
G1X48310Y-14258D1*
G1X48227Y-14342D1*
G1X48143Y-14342D1*
G1X47693Y-14342D2*
G1X47777Y-14342D1*
G1X47777Y-14258D1*
G1X47693Y-14258D1*
G1X47693Y-14342D1*
G1X47160Y-14342D2*
G1X47077Y-14258D1*
G1X47035Y-14175D1*
G1X47035Y-14008D1*
G1X47077Y-13925D1*
G1X47160Y-13842D1*
G1X47243Y-13842D1*
G1X47327Y-13925D1*
G1X47368Y-14008D1*
G1X47368Y-14175D1*
G1X47327Y-14258D1*
G1X47243Y-14342D1*
G1X47160Y-14342D1*
G1X46460Y-14258D2*
G1X46502Y-14342D1*
G1X46752Y-14342D1*
G1X46793Y-14258D1*
G1X46793Y-14092D1*
G1X46710Y-14008D1*
G1X46460Y-14008D1*
G1X46460Y-13842D1*
G1X46793Y-13842D1*
G1X46218Y-14008D2*
G1X45885Y-14008D1*
G1X46218Y-14175D2*
G1X45885Y-14175D1*
G1X44797Y-14092D2*
G1X44547Y-14092D1*
G1X44881Y-14342D2*
G1X44547Y-14342D1*
G1X44547Y-13842D1*
G1X44881Y-13842D1*
G1X44306Y-14258D2*
G1X44264Y-14342D1*
G1X44014Y-14342D1*
G1X43972Y-14258D1*
G1X43972Y-13925D1*
G1X44014Y-13842D1*
G1X44264Y-13842D1*
G1X44306Y-13925D1*
G1X43731Y-13842D2*
G1X43731Y-14342D1*
G1X43647Y-14258D1*
G1X43481Y-13925D1*
G1X43397Y-13842D1*
G1X43397Y-14342D1*
G1X43156Y-14175D2*
G1X42822Y-14175D1*
G1X43156Y-14342D2*
G1X43156Y-14092D1*
G1X43031Y-13842D1*
G1X42947Y-13842D1*
G1X42822Y-14092D1*
G1X42822Y-14342D1*
G1X42289Y-14342D2*
G1X42289Y-13842D1*
G1X42247Y-14342D2*
G1X42497Y-14342D1*
G1X42581Y-14175D1*
G1X42581Y-14008D1*
G1X42497Y-13842D1*
G1X42247Y-13842D1*
G1X41922Y-14092D2*
G1X41672Y-14092D1*
G1X42006Y-14342D2*
G1X41672Y-14342D1*
G1X41672Y-13842D1*
G1X42006Y-13842D1*
G1X41097Y-14092D2*
G1X41347Y-14092D1*
G1X41431Y-14008D1*
G1X41431Y-13925D1*
G1X41347Y-13842D1*
G1X41097Y-13842D1*
G1X41097Y-14342D1*
G1X40856Y-14342D2*
G1X40856Y-13842D1*
G1X40772Y-13925D1*
G1X40689Y-14092D1*
G1X40606Y-13925D1*
G1X40522Y-13842D1*
G1X40522Y-14342D1*
G1X40281Y-14342D2*
G1X40114Y-14342D1*
G1X40197Y-14342D2*
G1X40197Y-13842D1*
G1X40281Y-13842D2*
G1X40114Y-13842D1*
G1X38735Y-14342D2*
G1X38735Y-13842D1*
G1X38693Y-14342D2*
G1X38943Y-14342D1*
G1X39027Y-14175D1*
G1X39027Y-14008D1*
G1X38943Y-13842D1*
G1X38693Y-13842D1*
G1X38327Y-14092D2*
G1X38452Y-14342D1*
G1X38118Y-14092D2*
G1X38368Y-14092D1*
G1X38452Y-14008D1*
G1X38452Y-13925D1*
G1X38368Y-13842D1*
G1X38118Y-13842D1*
G1X38118Y-14342D1*
G1X37877Y-14175D2*
G1X37543Y-14175D1*
G1X37877Y-14342D2*
G1X37877Y-14092D1*
G1X37752Y-13842D1*
G1X37668Y-13842D1*
G1X37543Y-14092D1*
G1X37543Y-14342D1*
G1X37010Y-14342D2*
G1X36968Y-14258D1*
G1X36968Y-13925D1*
G1X37010Y-13842D1*
G1X37260Y-13842D1*
G1X37302Y-13925D1*
G1X37302Y-14258D1*
G1X37260Y-14342D1*
G1X37010Y-14342D1*
G1X36435Y-14342D2*
G1X36435Y-13842D1*
G1X36393Y-14342D2*
G1X36643Y-14342D1*
G1X36727Y-14258D1*
G1X36727Y-14175D1*
G1X36685Y-14092D1*
G1X36435Y-14092D2*
G1X36685Y-14092D1*
G1X36727Y-14008D1*
G1X36727Y-13925D1*
G1X36643Y-13842D1*
G1X36393Y-13842D1*
G1X63504Y-12623D2*
G1X63254Y-12623D1*
G1X63212Y-12707D1*
G1X63254Y-12790D1*
G1X63504Y-12790D1*
G1X63546Y-12873D1*
G1X63504Y-12957D1*
G1X63254Y-12957D1*
G1X62971Y-12957D2*
G1X62804Y-12957D1*
G1X62887Y-12957D2*
G1X62887Y-12457D1*
G1X62804Y-12457D1*
G1X62437Y-12457D2*
G1X62437Y-12456D1*
G1X62438Y-12456D1*
G1X62438Y-12457D1*
G1X62437Y-12457D1*
G1X62521Y-12957D2*
G1X62354Y-12957D1*
G1X62437Y-12957D2*
G1X62437Y-12623D1*
G1X62354Y-12623D1*
G1X61904Y-12957D2*
G1X61904Y-12707D1*
G1X62071Y-12957D2*
G1X62071Y-12707D1*
G1X62029Y-12623D1*
G1X61946Y-12623D1*
G1X61904Y-12707D1*
G1X61862Y-12623D1*
G1X61779Y-12623D1*
G1X61737Y-12707D1*
G1X61737Y-12957D1*
G1X60733Y-12790D2*
G1X60400Y-12790D1*
G1X60567Y-12457D1*
G1X60650Y-12457D1*
G1X60650Y-12957D1*
G1X60158Y-12707D2*
G1X59825Y-12707D1*
G1X59583Y-12457D2*
G1X59333Y-12957D1*
G1X58883Y-12540D2*
G1X58883Y-12873D1*
G1X59050Y-12707D2*
G1X58717Y-12707D1*
G1X57629Y-12957D2*
G1X57712Y-12790D1*
G1X57712Y-12623D1*
G1X57629Y-12457D1*
G1X57262Y-12623D2*
G1X57012Y-12623D1*
G1X56971Y-12707D1*
G1X57012Y-12790D1*
G1X57262Y-12790D1*
G1X57304Y-12873D1*
G1X57262Y-12957D1*
G1X57012Y-12957D1*
G1X56729Y-12957D2*
G1X56562Y-12957D1*
G1X56646Y-12957D2*
G1X56646Y-12457D1*
G1X56562Y-12457D1*
G1X56195Y-12457D2*
G1X56195Y-12456D1*
G1X56196Y-12456D1*
G1X56196Y-12457D1*
G1X56195Y-12457D1*
G1X56279Y-12957D2*
G1X56112Y-12957D1*
G1X56196Y-12957D2*
G1X56196Y-12623D1*
G1X56112Y-12623D1*
G1X55662Y-12957D2*
G1X55662Y-12707D1*
G1X55829Y-12957D2*
G1X55829Y-12707D1*
G1X55787Y-12623D1*
G1X55704Y-12623D1*
G1X55662Y-12707D1*
G1X55621Y-12623D1*
G1X55537Y-12623D1*
G1X55496Y-12707D1*
G1X55496Y-12957D1*
G1X55254Y-12957D2*
G1X55171Y-12790D1*
G1X55171Y-12623D1*
G1X55254Y-12457D1*
G1X54554Y-12957D2*
G1X54471Y-12873D1*
G1X54429Y-12790D1*
G1X54429Y-12623D1*
G1X54471Y-12540D1*
G1X54554Y-12457D1*
G1X54637Y-12457D1*
G1X54721Y-12540D1*
G1X54762Y-12623D1*
G1X54762Y-12790D1*
G1X54721Y-12873D1*
G1X54637Y-12957D1*
G1X54554Y-12957D1*
G1X53979Y-12957D2*
G1X53896Y-12873D1*
G1X53854Y-12790D1*
G1X53854Y-12623D1*
G1X53896Y-12540D1*
G1X53979Y-12457D1*
G1X54062Y-12457D1*
G1X54146Y-12540D1*
G1X54187Y-12623D1*
G1X54187Y-12790D1*
G1X54146Y-12873D1*
G1X54062Y-12957D1*
G1X53979Y-12957D1*
G1X53404Y-12957D2*
G1X53321Y-12873D1*
G1X53279Y-12790D1*
G1X53279Y-12623D1*
G1X53321Y-12540D1*
G1X53404Y-12457D1*
G1X53487Y-12457D1*
G1X53571Y-12540D1*
G1X53612Y-12623D1*
G1X53612Y-12790D1*
G1X53571Y-12873D1*
G1X53487Y-12957D1*
G1X53404Y-12957D1*
G1X52829Y-12957D2*
G1X52746Y-12873D1*
G1X52704Y-12790D1*
G1X52704Y-12623D1*
G1X52746Y-12540D1*
G1X52829Y-12457D1*
G1X52912Y-12457D1*
G1X52996Y-12540D1*
G1X53037Y-12623D1*
G1X53037Y-12790D1*
G1X52996Y-12873D1*
G1X52912Y-12957D1*
G1X52829Y-12957D1*
G1X52254Y-12957D2*
G1X52171Y-12873D1*
G1X52129Y-12790D1*
G1X52129Y-12623D1*
G1X52171Y-12540D1*
G1X52254Y-12457D1*
G1X52337Y-12457D1*
G1X52421Y-12540D1*
G1X52462Y-12623D1*
G1X52462Y-12790D1*
G1X52421Y-12873D1*
G1X52337Y-12957D1*
G1X52254Y-12957D1*
G1X51554Y-12873D2*
G1X51596Y-12957D1*
G1X51846Y-12957D1*
G1X51887Y-12873D1*
G1X51887Y-12707D1*
G1X51804Y-12623D1*
G1X51554Y-12623D1*
G1X51554Y-12457D1*
G1X51887Y-12457D1*
G1X51229Y-12957D2*
G1X51312Y-12957D1*
G1X51312Y-12873D1*
G1X51229Y-12873D1*
G1X51229Y-12957D1*
G1X50904Y-12790D2*
G1X50571Y-12790D1*
G1X50737Y-12457D1*
G1X50821Y-12457D1*
G1X50821Y-12957D1*
G1X50037Y-12707D2*
G1X50287Y-12707D1*
G1X50329Y-12790D1*
G1X50329Y-12873D1*
G1X50287Y-12957D1*
G1X50037Y-12957D1*
G1X49996Y-12873D1*
G1X49996Y-12790D1*
G1X50162Y-12457D1*
G1X49754Y-12623D2*
G1X49421Y-12623D1*
G1X49754Y-12790D2*
G1X49421Y-12790D1*
G1X48417Y-12540D2*
G1X48375Y-12457D1*
G1X48125Y-12457D1*
G1X48083Y-12540D1*
G1X48083Y-12623D1*
G1X48125Y-12707D1*
G1X48375Y-12707D1*
G1X48417Y-12790D1*
G1X48417Y-12873D1*
G1X48375Y-12957D1*
G1X48125Y-12957D1*
G1X48083Y-12873D1*
G1X47842Y-12540D2*
G1X47800Y-12457D1*
G1X47550Y-12457D1*
G1X47508Y-12540D1*
G1X47508Y-12623D1*
G1X47550Y-12707D1*
G1X47800Y-12707D1*
G1X47842Y-12790D1*
G1X47842Y-12873D1*
G1X47800Y-12957D1*
G1X47550Y-12957D1*
G1X47508Y-12873D1*
G1X47183Y-12707D2*
G1X46933Y-12707D1*
G1X47267Y-12957D2*
G1X46933Y-12957D1*
G1X46933Y-12457D1*
G1X47267Y-12457D1*
G1X46692Y-12457D2*
G1X46692Y-12957D1*
G1X46608Y-12873D1*
G1X46442Y-12540D1*
G1X46358Y-12457D1*
G1X46358Y-12957D1*
G1X46117Y-12957D2*
G1X45867Y-12707D1*
G1X46117Y-12457D1*
G1X45783Y-12457D2*
G1X45783Y-12957D1*
G1X45542Y-12873D2*
G1X45500Y-12957D1*
G1X45250Y-12957D1*
G1X45208Y-12873D1*
G1X45208Y-12540D1*
G1X45250Y-12457D1*
G1X45500Y-12457D1*
G1X45542Y-12540D1*
G1X44967Y-12957D2*
G1X44800Y-12957D1*
G1X44883Y-12957D2*
G1X44883Y-12457D1*
G1X44967Y-12457D2*
G1X44800Y-12457D1*
G1X44475Y-12707D2*
G1X44142Y-12707D1*
G1X44475Y-12957D2*
G1X44475Y-12457D1*
G1X44142Y-12957D2*
G1X44142Y-12457D1*
G1X43733Y-12957D2*
G1X43733Y-12457D1*
G1X43900Y-12457D2*
G1X43567Y-12457D1*
G1X42271Y-12957D2*
G1X42271Y-12457D1*
G1X42229Y-12957D2*
G1X42479Y-12957D1*
G1X42562Y-12790D1*
G1X42562Y-12623D1*
G1X42479Y-12457D1*
G1X42229Y-12457D1*
G1X41862Y-12707D2*
G1X41987Y-12957D1*
G1X41654Y-12707D2*
G1X41904Y-12707D1*
G1X41987Y-12623D1*
G1X41987Y-12540D1*
G1X41904Y-12457D1*
G1X41654Y-12457D1*
G1X41654Y-12957D1*
G1X41412Y-12790D2*
G1X41079Y-12790D1*
G1X41412Y-12957D2*
G1X41412Y-12707D1*
G1X41287Y-12457D1*
G1X41204Y-12457D1*
G1X41079Y-12707D1*
G1X41079Y-12957D1*
G1X40546Y-12957D2*
G1X40504Y-12873D1*
G1X40504Y-12540D1*
G1X40546Y-12457D1*
G1X40796Y-12457D1*
G1X40837Y-12540D1*
G1X40837Y-12873D1*
G1X40796Y-12957D1*
G1X40546Y-12957D1*
G1X39971Y-12957D2*
G1X39971Y-12457D1*
G1X39929Y-12957D2*
G1X40179Y-12957D1*
G1X40262Y-12873D1*
G1X40262Y-12790D1*
G1X40221Y-12707D1*
G1X39971Y-12707D2*
G1X40221Y-12707D1*
G1X40262Y-12623D1*
G1X40262Y-12540D1*
G1X40179Y-12457D1*
G1X39929Y-12457D1*
G1X38925Y-12957D2*
G1X38633Y-12957D1*
G1X38633Y-12457D1*
G1X38392Y-12790D2*
G1X38058Y-12790D1*
G1X38392Y-12957D2*
G1X38392Y-12707D1*
G1X38267Y-12457D1*
G1X38183Y-12457D1*
G1X38058Y-12707D1*
G1X38058Y-12957D1*
G1X37650Y-12957D2*
G1X37650Y-12457D1*
G1X37817Y-12457D2*
G1X37483Y-12457D1*
G1X36950Y-12957D2*
G1X36908Y-12873D1*
G1X36908Y-12540D1*
G1X36950Y-12457D1*
G1X37200Y-12457D1*
G1X37242Y-12540D1*
G1X37242Y-12873D1*
G1X37200Y-12957D1*
G1X36950Y-12957D1*
G1X36500Y-12957D2*
G1X36500Y-12457D1*
G1X36667Y-12457D2*
G1X36333Y-12457D1*
G1X40110Y-36842D2*
G1X40110Y-36342D1*
G1X40068Y-36842D2*
G1X40318Y-36842D1*
G1X40402Y-36758D1*
G1X40402Y-36675D1*
G1X40360Y-36592D1*
G1X40110Y-36592D2*
G1X40360Y-36592D1*
G1X40402Y-36508D1*
G1X40402Y-36425D1*
G1X40318Y-36342D1*
G1X40068Y-36342D1*
G1X39493Y-36592D2*
G1X39743Y-36592D1*
G1X39827Y-36508D1*
G1X39827Y-36425D1*
G1X39743Y-36342D1*
G1X39493Y-36342D1*
G1X39493Y-36842D1*
G1X39252Y-36425D2*
G1X39210Y-36342D1*
G1X38960Y-36342D1*
G1X38918Y-36425D1*
G1X38918Y-36508D1*
G1X38960Y-36592D1*
G1X39210Y-36592D1*
G1X39252Y-36675D1*
G1X39252Y-36758D1*
G1X39210Y-36842D1*
G1X38960Y-36842D1*
G1X38918Y-36758D1*
G1X38593Y-36842D2*
G1X38677Y-36842D1*
G1X38677Y-36758D1*
G1X38593Y-36758D1*
G1X38593Y-36842D1*
G1X38268Y-36842D2*
G1X38102Y-36842D1*
G1X38185Y-36842D2*
G1X38185Y-36342D1*
G1X38102Y-36425D1*
G1X37777Y-36592D2*
G1X37443Y-36592D1*
G1X37202Y-36842D2*
G1X37035Y-36842D1*
G1X37118Y-36842D2*
G1X37118Y-36342D1*
G1X37035Y-36425D1*
G1X36710Y-36425D2*
G1X36668Y-36342D1*
G1X36418Y-36342D1*
G1X36377Y-36425D1*
G1X36377Y-36508D1*
G1X36418Y-36592D1*
G1X36668Y-36592D1*
G1X36710Y-36675D1*
G1X36710Y-36758D1*
G1X36668Y-36842D1*
G1X36418Y-36842D1*
G1X36377Y-36758D1*
G1X36010Y-36592D2*
G1X36135Y-36842D1*
G1X35802Y-36592D2*
G1X36052Y-36592D1*
G1X36135Y-36508D1*
G1X36135Y-36425D1*
G1X36052Y-36342D1*
G1X35802Y-36342D1*
G1X35802Y-36842D1*
G1X35477Y-36592D2*
G1X35227Y-36592D1*
G1X35560Y-36842D2*
G1X35227Y-36842D1*
G1X35227Y-36342D1*
G1X35560Y-36342D1*
G1X34985Y-36342D2*
G1X34985Y-36508D1*
G1X34818Y-36842D1*
G1X34652Y-36508D1*
G1X34652Y-36342D1*
G1X34410Y-37008D2*
G1X34077Y-37008D1*
G1X33543Y-36842D2*
G1X33543Y-36342D1*
G1X33502Y-36842D2*
G1X33752Y-36842D1*
G1X33835Y-36675D1*
G1X33835Y-36508D1*
G1X33752Y-36342D1*
G1X33502Y-36342D1*
G1X33135Y-36592D2*
G1X33260Y-36842D1*
G1X32927Y-36592D2*
G1X33177Y-36592D1*
G1X33260Y-36508D1*
G1X33260Y-36425D1*
G1X33177Y-36342D1*
G1X32927Y-36342D1*
G1X32927Y-36842D1*
G1X32685Y-36675D2*
G1X32352Y-36675D1*
G1X32685Y-36842D2*
G1X32685Y-36592D1*
G1X32560Y-36342D1*
G1X32477Y-36342D1*
G1X32352Y-36592D1*
G1X32352Y-36842D1*
G1X31818Y-36842D2*
G1X31777Y-36758D1*
G1X31777Y-36425D1*
G1X31818Y-36342D1*
G1X32068Y-36342D1*
G1X32110Y-36425D1*
G1X32110Y-36758D1*
G1X32068Y-36842D1*
G1X31818Y-36842D1*
G1X31243Y-36842D2*
G1X31243Y-36342D1*
G1X31202Y-36842D2*
G1X31452Y-36842D1*
G1X31535Y-36758D1*
G1X31535Y-36675D1*
G1X31493Y-36592D1*
G1X31243Y-36592D2*
G1X31493Y-36592D1*
G1X31535Y-36508D1*
G1X31535Y-36425D1*
G1X31452Y-36342D1*
G1X31202Y-36342D1*
G1X30960Y-37008D2*
G1X30627Y-37008D1*
G1X30385Y-36758D2*
G1X30343Y-36842D1*
G1X30093Y-36842D1*
G1X30052Y-36758D1*
G1X30052Y-36425D1*
G1X30093Y-36342D1*
G1X30343Y-36342D1*
G1X30385Y-36425D1*
G1X29810Y-36842D2*
G1X29643Y-36842D1*
G1X29727Y-36842D2*
G1X29727Y-36342D1*
G1X29810Y-36342D2*
G1X29643Y-36342D1*
G1X29318Y-36842D2*
G1X29027Y-36842D1*
G1X29027Y-36342D1*
G1X28452Y-36592D2*
G1X28702Y-36592D1*
G1X28785Y-36508D1*
G1X28785Y-36425D1*
G1X28702Y-36342D1*
G1X28452Y-36342D1*
G1X28452Y-36842D1*
G1X27877Y-36592D2*
G1X28127Y-36592D1*
G1X28210Y-36508D1*
G1X28210Y-36425D1*
G1X28127Y-36342D1*
G1X27877Y-36342D1*
G1X27877Y-36842D1*
G1X27635Y-36675D2*
G1X27302Y-36675D1*
G1X27635Y-36842D2*
G1X27635Y-36592D1*
G1X27510Y-36342D1*
G1X27427Y-36342D1*
G1X27302Y-36592D1*
G1X27302Y-36842D1*
G1X27060Y-37008D2*
G1X26727Y-37008D1*
G1X26152Y-36592D2*
G1X26402Y-36592D1*
G1X26485Y-36508D1*
G1X26485Y-36425D1*
G1X26402Y-36342D1*
G1X26152Y-36342D1*
G1X26152Y-36842D1*
G1X25910Y-36842D2*
G1X25618Y-36842D1*
G1X25618Y-36342D1*
G1X25377Y-36592D2*
G1X25043Y-36592D1*
G1X24802Y-36842D2*
G1X24468Y-36842D1*
G1X24802Y-36508D1*
G1X24802Y-36425D1*
G1X24760Y-36342D1*
G1X24510Y-36342D1*
G1X24468Y-36425D1*
G1X24227Y-36425D2*
G1X24185Y-36342D1*
G1X23935Y-36342D1*
G1X23893Y-36425D1*
G1X23893Y-36508D1*
G1X23935Y-36592D1*
G1X24185Y-36592D1*
G1X24227Y-36675D1*
G1X24227Y-36758D1*
G1X24185Y-36842D1*
G1X23935Y-36842D1*
G1X23893Y-36758D1*
G1X43664Y-34675D2*
G1X43747Y-34508D1*
G1X43747Y-34342D1*
G1X43664Y-34175D1*
G1X43339Y-34342D2*
G1X43172Y-34675D1*
G1X43089Y-34842D2*
G1X43172Y-34675D1*
G1X43006Y-34342D1*
G1X42764Y-34342D2*
G1X42597Y-34342D1*
G1X42556Y-34425D1*
G1X42472Y-34425D1*
G1X42472Y-34342D2*
G1X42472Y-34675D1*
G1X41939Y-34675D2*
G1X41939Y-34175D1*
G1X41897Y-34675D2*
G1X42147Y-34675D1*
G1X42231Y-34508D1*
G1X42231Y-34342D1*
G1X42147Y-34175D1*
G1X41897Y-34175D1*
G1X41656Y-34675D2*
G1X41572Y-34508D1*
G1X41572Y-34342D1*
G1X41656Y-34175D1*
G1X40110Y-34675D2*
G1X40110Y-34175D1*
G1X40068Y-34675D2*
G1X40318Y-34675D1*
G1X40402Y-34592D1*
G1X40402Y-34508D1*
G1X40360Y-34425D1*
G1X40110Y-34425D2*
G1X40360Y-34425D1*
G1X40402Y-34342D1*
G1X40402Y-34258D1*
G1X40318Y-34175D1*
G1X40068Y-34175D1*
G1X39827Y-34675D2*
G1X39827Y-34175D1*
G1X39743Y-34258D1*
G1X39660Y-34425D1*
G1X39577Y-34258D1*
G1X39493Y-34175D1*
G1X39493Y-34675D1*
G1X39252Y-34258D2*
G1X39210Y-34175D1*
G1X38960Y-34175D1*
G1X38918Y-34258D1*
G1X38918Y-34342D1*
G1X38960Y-34425D1*
G1X39210Y-34425D1*
G1X39252Y-34508D1*
G1X39252Y-34592D1*
G1X39210Y-34675D1*
G1X38960Y-34675D1*
G1X38918Y-34592D1*
G1X38593Y-34675D2*
G1X38677Y-34675D1*
G1X38677Y-34592D1*
G1X38593Y-34592D1*
G1X38593Y-34675D1*
G1X38268Y-34675D2*
G1X38102Y-34675D1*
G1X38185Y-34675D2*
G1X38185Y-34175D1*
G1X38102Y-34258D1*
G1X37777Y-34425D2*
G1X37443Y-34425D1*
G1X37202Y-34675D2*
G1X37035Y-34675D1*
G1X37118Y-34675D2*
G1X37118Y-34175D1*
G1X37035Y-34258D1*
G1X36710Y-34258D2*
G1X36668Y-34175D1*
G1X36418Y-34175D1*
G1X36377Y-34258D1*
G1X36377Y-34342D1*
G1X36418Y-34425D1*
G1X36668Y-34425D1*
G1X36710Y-34508D1*
G1X36710Y-34592D1*
G1X36668Y-34675D1*
G1X36418Y-34675D1*
G1X36377Y-34592D1*
G1X36010Y-34425D2*
G1X36135Y-34675D1*
G1X35802Y-34425D2*
G1X36052Y-34425D1*
G1X36135Y-34342D1*
G1X36135Y-34258D1*
G1X36052Y-34175D1*
G1X35802Y-34175D1*
G1X35802Y-34675D1*
G1X35477Y-34425D2*
G1X35227Y-34425D1*
G1X35560Y-34675D2*
G1X35227Y-34675D1*
G1X35227Y-34175D1*
G1X35560Y-34175D1*
G1X34985Y-34175D2*
G1X34985Y-34342D1*
G1X34818Y-34675D1*
G1X34652Y-34342D1*
G1X34652Y-34175D1*
G1X34410Y-34842D2*
G1X34077Y-34842D1*
G1X33543Y-34675D2*
G1X33543Y-34175D1*
G1X33502Y-34675D2*
G1X33752Y-34675D1*
G1X33835Y-34508D1*
G1X33835Y-34342D1*
G1X33752Y-34175D1*
G1X33502Y-34175D1*
G1X33135Y-34425D2*
G1X33260Y-34675D1*
G1X32927Y-34425D2*
G1X33177Y-34425D1*
G1X33260Y-34342D1*
G1X33260Y-34258D1*
G1X33177Y-34175D1*
G1X32927Y-34175D1*
G1X32927Y-34675D1*
G1X32685Y-34508D2*
G1X32352Y-34508D1*
G1X32685Y-34675D2*
G1X32685Y-34425D1*
G1X32560Y-34175D1*
G1X32477Y-34175D1*
G1X32352Y-34425D1*
G1X32352Y-34675D1*
G1X31818Y-34675D2*
G1X31777Y-34592D1*
G1X31777Y-34258D1*
G1X31818Y-34175D1*
G1X32068Y-34175D1*
G1X32110Y-34258D1*
G1X32110Y-34592D1*
G1X32068Y-34675D1*
G1X31818Y-34675D1*
G1X31243Y-34675D2*
G1X31243Y-34175D1*
G1X31202Y-34675D2*
G1X31452Y-34675D1*
G1X31535Y-34592D1*
G1X31535Y-34508D1*
G1X31493Y-34425D1*
G1X31243Y-34425D2*
G1X31493Y-34425D1*
G1X31535Y-34342D1*
G1X31535Y-34258D1*
G1X31452Y-34175D1*
G1X31202Y-34175D1*
G1X30960Y-34842D2*
G1X30627Y-34842D1*
G1X30385Y-34592D2*
G1X30343Y-34675D1*
G1X30093Y-34675D1*
G1X30052Y-34592D1*
G1X30052Y-34258D1*
G1X30093Y-34175D1*
G1X30343Y-34175D1*
G1X30385Y-34258D1*
G1X29810Y-34675D2*
G1X29643Y-34675D1*
G1X29727Y-34675D2*
G1X29727Y-34175D1*
G1X29810Y-34175D2*
G1X29643Y-34175D1*
G1X29318Y-34675D2*
G1X29027Y-34675D1*
G1X29027Y-34175D1*
G1X28452Y-34425D2*
G1X28702Y-34425D1*
G1X28785Y-34342D1*
G1X28785Y-34258D1*
G1X28702Y-34175D1*
G1X28452Y-34175D1*
G1X28452Y-34675D1*
G1X27877Y-34425D2*
G1X28127Y-34425D1*
G1X28210Y-34342D1*
G1X28210Y-34258D1*
G1X28127Y-34175D1*
G1X27877Y-34175D1*
G1X27877Y-34675D1*
G1X27635Y-34508D2*
G1X27302Y-34508D1*
G1X27635Y-34675D2*
G1X27635Y-34425D1*
G1X27510Y-34175D1*
G1X27427Y-34175D1*
G1X27302Y-34425D1*
G1X27302Y-34675D1*
G1X27060Y-34842D2*
G1X26727Y-34842D1*
G1X26152Y-34425D2*
G1X26402Y-34425D1*
G1X26485Y-34342D1*
G1X26485Y-34258D1*
G1X26402Y-34175D1*
G1X26152Y-34175D1*
G1X26152Y-34675D1*
G1X25910Y-34675D2*
G1X25618Y-34675D1*
G1X25618Y-34175D1*
G1X25377Y-34425D2*
G1X25043Y-34425D1*
G1X24802Y-34675D2*
G1X24468Y-34675D1*
G1X24802Y-34342D1*
G1X24802Y-34258D1*
G1X24760Y-34175D1*
G1X24510Y-34175D1*
G1X24468Y-34258D1*
G1X24227Y-34258D2*
G1X24185Y-34175D1*
G1X23935Y-34175D1*
G1X23893Y-34258D1*
G1X23893Y-34342D1*
G1X23935Y-34425D1*
G1X24185Y-34425D1*
G1X24227Y-34508D1*
G1X24227Y-34592D1*
G1X24185Y-34675D1*
G1X23935Y-34675D1*
G1X23893Y-34592D1*
G1X61481Y-32508D2*
G1X61564Y-32342D1*
G1X61564Y-32175D1*
G1X61481Y-32008D1*
G1X61156Y-32508D2*
G1X60906Y-32508D1*
G1X60947Y-32425D1*
G1X61114Y-32258D1*
G1X61156Y-32175D1*
G1X60906Y-32175D1*
G1X60372Y-32508D2*
G1X60331Y-32425D1*
G1X60331Y-32258D1*
G1X60372Y-32175D1*
G1X60622Y-32175D1*
G1X60664Y-32258D1*
G1X60664Y-32425D1*
G1X60622Y-32508D1*
G1X60372Y-32508D1*
G1X60089Y-32508D2*
G1X60006Y-32342D1*
G1X60006Y-32175D1*
G1X60089Y-32008D1*
G1X59389Y-32508D2*
G1X59306Y-32425D1*
G1X59264Y-32342D1*
G1X59264Y-32175D1*
G1X59306Y-32092D1*
G1X59389Y-32008D1*
G1X59472Y-32008D1*
G1X59556Y-32092D1*
G1X59597Y-32175D1*
G1X59597Y-32342D1*
G1X59556Y-32425D1*
G1X59472Y-32508D1*
G1X59389Y-32508D1*
G1X58814Y-32508D2*
G1X58731Y-32425D1*
G1X58689Y-32342D1*
G1X58689Y-32175D1*
G1X58731Y-32092D1*
G1X58814Y-32008D1*
G1X58897Y-32008D1*
G1X58981Y-32092D1*
G1X59022Y-32175D1*
G1X59022Y-32342D1*
G1X58981Y-32425D1*
G1X58897Y-32508D1*
G1X58814Y-32508D1*
G1X58364Y-32508D2*
G1X58447Y-32508D1*
G1X58447Y-32425D1*
G1X58364Y-32425D1*
G1X58364Y-32508D1*
G1X57831Y-32508D2*
G1X57747Y-32425D1*
G1X57706Y-32342D1*
G1X57706Y-32175D1*
G1X57747Y-32092D1*
G1X57831Y-32008D1*
G1X57914Y-32008D1*
G1X57997Y-32092D1*
G1X58039Y-32175D1*
G1X58039Y-32342D1*
G1X57997Y-32425D1*
G1X57914Y-32508D1*
G1X57831Y-32508D1*
G1X56618Y-32508D2*
G1X56702Y-32342D1*
G1X56702Y-32175D1*
G1X56618Y-32008D1*
G1X56252Y-32175D2*
G1X56002Y-32175D1*
G1X55960Y-32258D1*
G1X56002Y-32342D1*
G1X56252Y-32342D1*
G1X56293Y-32425D1*
G1X56252Y-32508D1*
G1X56002Y-32508D1*
G1X55718Y-32508D2*
G1X55552Y-32508D1*
G1X55635Y-32508D2*
G1X55635Y-32008D1*
G1X55552Y-32008D1*
G1X55184Y-32009D2*
G1X55184Y-32008D1*
G1X55185Y-32008D1*
G1X55185Y-32009D1*
G1X55184Y-32009D1*
G1X55268Y-32508D2*
G1X55102Y-32508D1*
G1X55185Y-32508D2*
G1X55185Y-32175D1*
G1X55102Y-32175D1*
G1X54652Y-32508D2*
G1X54652Y-32258D1*
G1X54818Y-32508D2*
G1X54818Y-32258D1*
G1X54777Y-32175D1*
G1X54693Y-32175D1*
G1X54652Y-32258D1*
G1X54610Y-32175D1*
G1X54527Y-32175D1*
G1X54485Y-32258D1*
G1X54485Y-32508D1*
G1X54243Y-32508D2*
G1X54160Y-32342D1*
G1X54160Y-32175D1*
G1X54243Y-32008D1*
G1X53543Y-32508D2*
G1X53460Y-32425D1*
G1X53418Y-32342D1*
G1X53418Y-32175D1*
G1X53460Y-32092D1*
G1X53543Y-32008D1*
G1X53627Y-32008D1*
G1X53710Y-32092D1*
G1X53752Y-32175D1*
G1X53752Y-32342D1*
G1X53710Y-32425D1*
G1X53627Y-32508D1*
G1X53543Y-32508D1*
G1X52968Y-32508D2*
G1X52885Y-32425D1*
G1X52843Y-32342D1*
G1X52843Y-32175D1*
G1X52885Y-32092D1*
G1X52968Y-32008D1*
G1X53052Y-32008D1*
G1X53135Y-32092D1*
G1X53177Y-32175D1*
G1X53177Y-32342D1*
G1X53135Y-32425D1*
G1X53052Y-32508D1*
G1X52968Y-32508D1*
G1X52393Y-32508D2*
G1X52310Y-32425D1*
G1X52268Y-32342D1*
G1X52268Y-32175D1*
G1X52310Y-32092D1*
G1X52393Y-32008D1*
G1X52477Y-32008D1*
G1X52560Y-32092D1*
G1X52602Y-32175D1*
G1X52602Y-32342D1*
G1X52560Y-32425D1*
G1X52477Y-32508D1*
G1X52393Y-32508D1*
G1X51818Y-32508D2*
G1X51735Y-32425D1*
G1X51693Y-32342D1*
G1X51693Y-32175D1*
G1X51735Y-32092D1*
G1X51818Y-32008D1*
G1X51902Y-32008D1*
G1X51985Y-32092D1*
G1X52027Y-32175D1*
G1X52027Y-32342D1*
G1X51985Y-32425D1*
G1X51902Y-32508D1*
G1X51818Y-32508D1*
G1X51243Y-32508D2*
G1X51160Y-32425D1*
G1X51118Y-32342D1*
G1X51118Y-32175D1*
G1X51160Y-32092D1*
G1X51243Y-32008D1*
G1X51327Y-32008D1*
G1X51410Y-32092D1*
G1X51452Y-32175D1*
G1X51452Y-32342D1*
G1X51410Y-32425D1*
G1X51327Y-32508D1*
G1X51243Y-32508D1*
G1X50543Y-32425D2*
G1X50585Y-32508D1*
G1X50835Y-32508D1*
G1X50877Y-32425D1*
G1X50877Y-32258D1*
G1X50793Y-32175D1*
G1X50543Y-32175D1*
G1X50543Y-32008D1*
G1X50877Y-32008D1*
G1X50218Y-32508D2*
G1X50302Y-32508D1*
G1X50302Y-32425D1*
G1X50218Y-32425D1*
G1X50218Y-32508D1*
G1X49893Y-32508D2*
G1X49727Y-32508D1*
G1X49810Y-32508D2*
G1X49810Y-32008D1*
G1X49727Y-32092D1*
G1X47181Y-32508D2*
G1X47264Y-32342D1*
G1X47264Y-32175D1*
G1X47181Y-32008D1*
G1X46856Y-32508D2*
G1X46689Y-32508D1*
G1X46772Y-32508D2*
G1X46772Y-32008D1*
G1X46689Y-32008D1*
G1X46156Y-32175D2*
G1X46322Y-32175D1*
G1X46364Y-32258D1*
G1X46364Y-32425D1*
G1X46406Y-32508D1*
G1X46114Y-32508D1*
G1X46072Y-32425D1*
G1X46114Y-32342D1*
G1X46364Y-32342D1*
G1X45831Y-32508D2*
G1X45831Y-32258D1*
G1X45789Y-32175D1*
G1X45539Y-32175D1*
G1X45539Y-32508D1*
G1X45089Y-32675D2*
G1X45256Y-32675D1*
G1X45297Y-32592D1*
G1X45297Y-32175D1*
G1X45047Y-32175D1*
G1X45006Y-32258D1*
G1X45006Y-32425D1*
G1X45047Y-32508D1*
G1X45297Y-32508D1*
G1X44680Y-32009D2*
G1X44680Y-32008D1*
G1X44681Y-32008D1*
G1X44681Y-32009D1*
G1X44680Y-32009D1*
G1X44764Y-32508D2*
G1X44597Y-32508D1*
G1X44681Y-32508D2*
G1X44681Y-32175D1*
G1X44597Y-32175D1*
G1X44314Y-32092D2*
G1X44272Y-32008D1*
G1X44022Y-32008D1*
G1X43981Y-32092D1*
G1X43981Y-32175D1*
G1X44022Y-32258D1*
G1X44272Y-32258D1*
G1X44314Y-32342D1*
G1X44314Y-32425D1*
G1X44272Y-32508D1*
G1X44022Y-32508D1*
G1X43981Y-32425D1*
G1X43739Y-32508D2*
G1X43656Y-32342D1*
G1X43656Y-32175D1*
G1X43739Y-32008D1*
G1X42318Y-32508D2*
G1X42318Y-32008D1*
G1X42485Y-32008D2*
G1X42152Y-32008D1*
G1X41618Y-32508D2*
G1X41577Y-32425D1*
G1X41577Y-32092D1*
G1X41618Y-32008D1*
G1X41868Y-32008D1*
G1X41910Y-32092D1*
G1X41910Y-32425D1*
G1X41868Y-32508D1*
G1X41618Y-32508D1*
G1X41043Y-32508D2*
G1X41043Y-32008D1*
G1X41002Y-32508D2*
G1X41252Y-32508D1*
G1X41335Y-32425D1*
G1X41335Y-32342D1*
G1X41293Y-32258D1*
G1X41043Y-32258D2*
G1X41293Y-32258D1*
G1X41335Y-32175D1*
G1X41335Y-32092D1*
G1X41252Y-32008D1*
G1X41002Y-32008D1*
G1X40677Y-32508D2*
G1X40760Y-32508D1*
G1X40760Y-32425D1*
G1X40677Y-32425D1*
G1X40677Y-32508D1*
G1X40352Y-32508D2*
G1X40185Y-32508D1*
G1X40268Y-32508D2*
G1X40268Y-32008D1*
G1X40185Y-32092D1*
G1X39860Y-32258D2*
G1X39527Y-32258D1*
G1X39285Y-32508D2*
G1X39118Y-32508D1*
G1X39202Y-32508D2*
G1X39202Y-32008D1*
G1X39118Y-32092D1*
G1X38793Y-32092D2*
G1X38752Y-32008D1*
G1X38502Y-32008D1*
G1X38460Y-32092D1*
G1X38460Y-32175D1*
G1X38502Y-32258D1*
G1X38752Y-32258D1*
G1X38793Y-32342D1*
G1X38793Y-32425D1*
G1X38752Y-32508D1*
G1X38502Y-32508D1*
G1X38460Y-32425D1*
G1X38093Y-32258D2*
G1X38218Y-32508D1*
G1X37885Y-32258D2*
G1X38135Y-32258D1*
G1X38218Y-32175D1*
G1X38218Y-32092D1*
G1X38135Y-32008D1*
G1X37885Y-32008D1*
G1X37885Y-32508D1*
G1X37560Y-32258D2*
G1X37310Y-32258D1*
G1X37643Y-32508D2*
G1X37310Y-32508D1*
G1X37310Y-32008D1*
G1X37643Y-32008D1*
G1X37068Y-32008D2*
G1X37068Y-32175D1*
G1X36902Y-32508D1*
G1X36735Y-32175D1*
G1X36735Y-32008D1*
G1X36493Y-32675D2*
G1X36160Y-32675D1*
G1X35627Y-32508D2*
G1X35627Y-32008D1*
G1X35585Y-32508D2*
G1X35835Y-32508D1*
G1X35918Y-32342D1*
G1X35918Y-32175D1*
G1X35835Y-32008D1*
G1X35585Y-32008D1*
G1X35218Y-32258D2*
G1X35343Y-32508D1*
G1X35010Y-32258D2*
G1X35260Y-32258D1*
G1X35343Y-32175D1*
G1X35343Y-32092D1*
G1X35260Y-32008D1*
G1X35010Y-32008D1*
G1X35010Y-32508D1*
G1X34768Y-32342D2*
G1X34435Y-32342D1*
G1X34768Y-32508D2*
G1X34768Y-32258D1*
G1X34643Y-32008D1*
G1X34560Y-32008D1*
G1X34435Y-32258D1*
G1X34435Y-32508D1*
G1X33902Y-32508D2*
G1X33860Y-32425D1*
G1X33860Y-32092D1*
G1X33902Y-32008D1*
G1X34152Y-32008D1*
G1X34193Y-32092D1*
G1X34193Y-32425D1*
G1X34152Y-32508D1*
G1X33902Y-32508D1*
G1X33327Y-32508D2*
G1X33327Y-32008D1*
G1X33285Y-32508D2*
G1X33535Y-32508D1*
G1X33618Y-32425D1*
G1X33618Y-32342D1*
G1X33577Y-32258D1*
G1X33327Y-32258D2*
G1X33577Y-32258D1*
G1X33618Y-32175D1*
G1X33618Y-32092D1*
G1X33535Y-32008D1*
G1X33285Y-32008D1*
G1X33043Y-32675D2*
G1X32710Y-32675D1*
G1X32468Y-32425D2*
G1X32427Y-32508D1*
G1X32177Y-32508D1*
G1X32135Y-32425D1*
G1X32135Y-32092D1*
G1X32177Y-32008D1*
G1X32427Y-32008D1*
G1X32468Y-32092D1*
G1X31893Y-32508D2*
G1X31727Y-32508D1*
G1X31810Y-32508D2*
G1X31810Y-32008D1*
G1X31893Y-32008D2*
G1X31727Y-32008D1*
G1X31402Y-32508D2*
G1X31110Y-32508D1*
G1X31110Y-32008D1*
G1X30535Y-32258D2*
G1X30785Y-32258D1*
G1X30868Y-32175D1*
G1X30868Y-32092D1*
G1X30785Y-32008D1*
G1X30535Y-32008D1*
G1X30535Y-32508D1*
G1X29960Y-32258D2*
G1X30210Y-32258D1*
G1X30293Y-32175D1*
G1X30293Y-32092D1*
G1X30210Y-32008D1*
G1X29960Y-32008D1*
G1X29960Y-32508D1*
G1X29718Y-32342D2*
G1X29385Y-32342D1*
G1X29718Y-32508D2*
G1X29718Y-32258D1*
G1X29593Y-32008D1*
G1X29510Y-32008D1*
G1X29385Y-32258D1*
G1X29385Y-32508D1*
G1X29143Y-32675D2*
G1X28810Y-32675D1*
G1X28235Y-32258D2*
G1X28485Y-32258D1*
G1X28568Y-32175D1*
G1X28568Y-32092D1*
G1X28485Y-32008D1*
G1X28235Y-32008D1*
G1X28235Y-32508D1*
G1X27993Y-32508D2*
G1X27702Y-32508D1*
G1X27702Y-32008D1*
G1X27460Y-32258D2*
G1X27127Y-32258D1*
G1X26885Y-32508D2*
G1X26552Y-32508D1*
G1X26885Y-32175D1*
G1X26885Y-32092D1*
G1X26843Y-32008D1*
G1X26593Y-32008D1*
G1X26552Y-32092D1*
G1X26310Y-32092D2*
G1X26268Y-32008D1*
G1X26018Y-32008D1*
G1X25977Y-32092D1*
G1X25977Y-32175D1*
G1X26018Y-32258D1*
G1X26268Y-32258D1*
G1X26310Y-32342D1*
G1X26310Y-32425D1*
G1X26268Y-32508D1*
G1X26018Y-32508D1*
G1X25977Y-32425D1*
G1X57277Y-30342D2*
G1X57360Y-30175D1*
G1X57360Y-30008D1*
G1X57277Y-29842D1*
G1X56910Y-30008D2*
G1X56660Y-30008D1*
G1X56618Y-30092D1*
G1X56660Y-30175D1*
G1X56910Y-30175D1*
G1X56952Y-30258D1*
G1X56910Y-30342D1*
G1X56660Y-30342D1*
G1X56377Y-30342D2*
G1X56210Y-30342D1*
G1X56293Y-30342D2*
G1X56293Y-29842D1*
G1X56210Y-29842D1*
G1X55843Y-29842D2*
G1X55843Y-29841D1*
G1X55844Y-29841D1*
G1X55844Y-29842D1*
G1X55843Y-29842D1*
G1X55927Y-30342D2*
G1X55760Y-30342D1*
G1X55843Y-30342D2*
G1X55843Y-30008D1*
G1X55760Y-30008D1*
G1X55310Y-30342D2*
G1X55310Y-30092D1*
G1X55477Y-30342D2*
G1X55477Y-30092D1*
G1X55435Y-30008D1*
G1X55352Y-30008D1*
G1X55310Y-30092D1*
G1X55268Y-30008D1*
G1X55185Y-30008D1*
G1X55143Y-30092D1*
G1X55143Y-30342D1*
G1X54902Y-30342D2*
G1X54818Y-30175D1*
G1X54818Y-30008D1*
G1X54902Y-29842D1*
G1X54202Y-30342D2*
G1X54118Y-30258D1*
G1X54077Y-30175D1*
G1X54077Y-30008D1*
G1X54118Y-29925D1*
G1X54202Y-29842D1*
G1X54285Y-29842D1*
G1X54368Y-29925D1*
G1X54410Y-30008D1*
G1X54410Y-30175D1*
G1X54368Y-30258D1*
G1X54285Y-30342D1*
G1X54202Y-30342D1*
G1X53627Y-30342D2*
G1X53543Y-30258D1*
G1X53502Y-30175D1*
G1X53502Y-30008D1*
G1X53543Y-29925D1*
G1X53627Y-29842D1*
G1X53710Y-29842D1*
G1X53793Y-29925D1*
G1X53835Y-30008D1*
G1X53835Y-30175D1*
G1X53793Y-30258D1*
G1X53710Y-30342D1*
G1X53627Y-30342D1*
G1X53052Y-30342D2*
G1X52968Y-30258D1*
G1X52927Y-30175D1*
G1X52927Y-30008D1*
G1X52968Y-29925D1*
G1X53052Y-29842D1*
G1X53135Y-29842D1*
G1X53218Y-29925D1*
G1X53260Y-30008D1*
G1X53260Y-30175D1*
G1X53218Y-30258D1*
G1X53135Y-30342D1*
G1X53052Y-30342D1*
G1X52477Y-30342D2*
G1X52393Y-30258D1*
G1X52352Y-30175D1*
G1X52352Y-30008D1*
G1X52393Y-29925D1*
G1X52477Y-29842D1*
G1X52560Y-29842D1*
G1X52643Y-29925D1*
G1X52685Y-30008D1*
G1X52685Y-30175D1*
G1X52643Y-30258D1*
G1X52560Y-30342D1*
G1X52477Y-30342D1*
G1X51902Y-30342D2*
G1X51818Y-30258D1*
G1X51777Y-30175D1*
G1X51777Y-30008D1*
G1X51818Y-29925D1*
G1X51902Y-29842D1*
G1X51985Y-29842D1*
G1X52068Y-29925D1*
G1X52110Y-30008D1*
G1X52110Y-30175D1*
G1X52068Y-30258D1*
G1X51985Y-30342D1*
G1X51902Y-30342D1*
G1X51327Y-30342D2*
G1X51243Y-30258D1*
G1X51202Y-30175D1*
G1X51202Y-30008D1*
G1X51243Y-29925D1*
G1X51327Y-29842D1*
G1X51410Y-29842D1*
G1X51493Y-29925D1*
G1X51535Y-30008D1*
G1X51535Y-30175D1*
G1X51493Y-30258D1*
G1X51410Y-30342D1*
G1X51327Y-30342D1*
G1X50877Y-30342D2*
G1X50960Y-30342D1*
G1X50960Y-30258D1*
G1X50877Y-30258D1*
G1X50877Y-30342D1*
G1X50510Y-30092D2*
G1X50552Y-30008D1*
G1X50552Y-29925D1*
G1X50510Y-29842D1*
G1X50260Y-29842D1*
G1X50218Y-29925D1*
G1X50218Y-30008D1*
G1X50260Y-30092D1*
G1X50510Y-30092D1*
G1X50552Y-30175D1*
G1X50552Y-30258D1*
G1X50510Y-30342D1*
G1X50260Y-30342D1*
G1X50218Y-30258D1*
G1X50218Y-30175D1*
G1X50260Y-30092D1*
G1X49977Y-30175D2*
G1X49643Y-30175D1*
G1X49810Y-29842D1*
G1X49893Y-29842D1*
G1X49893Y-30342D1*
G1X34206Y-30175D2*
G1X33872Y-30175D1*
G1X34039Y-29842D1*
G1X34122Y-29842D1*
G1X34122Y-30342D1*
G1X33631Y-30092D2*
G1X33297Y-30092D1*
G1X32931Y-30092D2*
G1X33056Y-30342D1*
G1X32722Y-30092D2*
G1X32972Y-30092D1*
G1X33056Y-30008D1*
G1X33056Y-29925D1*
G1X32972Y-29842D1*
G1X32722Y-29842D1*
G1X32722Y-30342D1*
G1X32397Y-30092D2*
G1X32147Y-30092D1*
G1X32147Y-30342D2*
G1X32147Y-29842D1*
G1X32481Y-29842D1*
G1X30935Y-30508D2*
G1X31102Y-30508D1*
G1X31143Y-30425D1*
G1X31143Y-30008D1*
G1X30893Y-30008D1*
G1X30852Y-30092D1*
G1X30852Y-30258D1*
G1X30893Y-30342D1*
G1X31143Y-30342D1*
G1X30568Y-30342D2*
G1X30318Y-30342D1*
G1X30277Y-30258D1*
G1X30277Y-30092D1*
G1X30318Y-30008D1*
G1X30568Y-30008D1*
G1X30610Y-30092D1*
G1X30610Y-30175D1*
G1X30277Y-30175D1*
G1X29743Y-30508D2*
G1X29743Y-30008D1*
G1X29993Y-30008D1*
G1X30035Y-30092D1*
G1X30035Y-30258D1*
G1X29993Y-30342D1*
G1X29743Y-30342D1*
G1X29460Y-30342D2*
G1X29210Y-30342D1*
G1X29168Y-30258D1*
G1X29168Y-30092D1*
G1X29210Y-30008D1*
G1X29460Y-30008D1*
G1X29502Y-30092D1*
G1X29502Y-30175D1*
G1X29168Y-30175D1*
G1X28927Y-30008D2*
G1X28760Y-30008D1*
G1X28718Y-30092D1*
G1X28635Y-30092D1*
G1X28635Y-30008D2*
G1X28635Y-30342D1*
G1X28060Y-30092D2*
G1X28310Y-30092D1*
G1X28393Y-30008D1*
G1X28393Y-29925D1*
G1X28310Y-29842D1*
G1X28060Y-29842D1*
G1X28060Y-30342D1*
G1X56618Y-28175D2*
G1X56702Y-28008D1*
G1X56702Y-27842D1*
G1X56618Y-27675D1*
G1X56252Y-27842D2*
G1X56002Y-27842D1*
G1X55960Y-27925D1*
G1X56002Y-28008D1*
G1X56252Y-28008D1*
G1X56293Y-28092D1*
G1X56252Y-28175D1*
G1X56002Y-28175D1*
G1X55718Y-28175D2*
G1X55552Y-28175D1*
G1X55635Y-28175D2*
G1X55635Y-27675D1*
G1X55552Y-27675D1*
G1X55184Y-27675D3*
G1X55184Y-27675D2*
G1X55185Y-27675D1*
G1X55184Y-27675D1*
G1X55268Y-28175D2*
G1X55102Y-28175D1*
G1X55185Y-28175D2*
G1X55185Y-27842D1*
G1X55102Y-27842D1*
G1X54652Y-28175D2*
G1X54652Y-27925D1*
G1X54818Y-28175D2*
G1X54818Y-27925D1*
G1X54777Y-27842D1*
G1X54693Y-27842D1*
G1X54652Y-27925D1*
G1X54610Y-27842D1*
G1X54527Y-27842D1*
G1X54485Y-27925D1*
G1X54485Y-28175D1*
G1X54243Y-28175D2*
G1X54160Y-28008D1*
G1X54160Y-27842D1*
G1X54243Y-27675D1*
G1X53543Y-28175D2*
G1X53460Y-28092D1*
G1X53418Y-28008D1*
G1X53418Y-27842D1*
G1X53460Y-27758D1*
G1X53543Y-27675D1*
G1X53627Y-27675D1*
G1X53710Y-27758D1*
G1X53752Y-27842D1*
G1X53752Y-28008D1*
G1X53710Y-28092D1*
G1X53627Y-28175D1*
G1X53543Y-28175D1*
G1X52968Y-28175D2*
G1X52885Y-28092D1*
G1X52843Y-28008D1*
G1X52843Y-27842D1*
G1X52885Y-27758D1*
G1X52968Y-27675D1*
G1X53052Y-27675D1*
G1X53135Y-27758D1*
G1X53177Y-27842D1*
G1X53177Y-28008D1*
G1X53135Y-28092D1*
G1X53052Y-28175D1*
G1X52968Y-28175D1*
G1X52393Y-28175D2*
G1X52310Y-28092D1*
G1X52268Y-28008D1*
G1X52268Y-27842D1*
G1X52310Y-27758D1*
G1X52393Y-27675D1*
G1X52477Y-27675D1*
G1X52560Y-27758D1*
G1X52602Y-27842D1*
G1X52602Y-28008D1*
G1X52560Y-28092D1*
G1X52477Y-28175D1*
G1X52393Y-28175D1*
G1X51818Y-28175D2*
G1X51735Y-28092D1*
G1X51693Y-28008D1*
G1X51693Y-27842D1*
G1X51735Y-27758D1*
G1X51818Y-27675D1*
G1X51902Y-27675D1*
G1X51985Y-27758D1*
G1X52027Y-27842D1*
G1X52027Y-28008D1*
G1X51985Y-28092D1*
G1X51902Y-28175D1*
G1X51818Y-28175D1*
G1X51243Y-28175D2*
G1X51160Y-28092D1*
G1X51118Y-28008D1*
G1X51118Y-27842D1*
G1X51160Y-27758D1*
G1X51243Y-27675D1*
G1X51327Y-27675D1*
G1X51410Y-27758D1*
G1X51452Y-27842D1*
G1X51452Y-28008D1*
G1X51410Y-28092D1*
G1X51327Y-28175D1*
G1X51243Y-28175D1*
G1X50543Y-28092D2*
G1X50585Y-28175D1*
G1X50835Y-28175D1*
G1X50877Y-28092D1*
G1X50877Y-27925D1*
G1X50793Y-27842D1*
G1X50543Y-27842D1*
G1X50543Y-27675D1*
G1X50877Y-27675D1*
G1X50218Y-28175D2*
G1X50302Y-28175D1*
G1X50302Y-28092D1*
G1X50218Y-28092D1*
G1X50218Y-28175D1*
G1X49893Y-28175D2*
G1X49727Y-28175D1*
G1X49810Y-28175D2*
G1X49810Y-27675D1*
G1X49727Y-27758D1*
G1X47181Y-28175D2*
G1X47264Y-28008D1*
G1X47264Y-27842D1*
G1X47181Y-27675D1*
G1X46856Y-28175D2*
G1X46689Y-28175D1*
G1X46772Y-28175D2*
G1X46772Y-27675D1*
G1X46689Y-27675D1*
G1X46156Y-27842D2*
G1X46322Y-27842D1*
G1X46364Y-27925D1*
G1X46364Y-28092D1*
G1X46406Y-28175D1*
G1X46114Y-28175D1*
G1X46072Y-28092D1*
G1X46114Y-28008D1*
G1X46364Y-28008D1*
G1X45831Y-28175D2*
G1X45831Y-27925D1*
G1X45789Y-27842D1*
G1X45539Y-27842D1*
G1X45539Y-28175D1*
G1X45089Y-28342D2*
G1X45256Y-28342D1*
G1X45297Y-28258D1*
G1X45297Y-27842D1*
G1X45047Y-27842D1*
G1X45006Y-27925D1*
G1X45006Y-28092D1*
G1X45047Y-28175D1*
G1X45297Y-28175D1*
G1X44680Y-27675D3*
G1X44680Y-27675D2*
G1X44681Y-27675D1*
G1X44680Y-27675D1*
G1X44764Y-28175D2*
G1X44597Y-28175D1*
G1X44681Y-28175D2*
G1X44681Y-27842D1*
G1X44597Y-27842D1*
G1X44314Y-27758D2*
G1X44272Y-27675D1*
G1X44022Y-27675D1*
G1X43981Y-27758D1*
G1X43981Y-27842D1*
G1X44022Y-27925D1*
G1X44272Y-27925D1*
G1X44314Y-28008D1*
G1X44314Y-28092D1*
G1X44272Y-28175D1*
G1X44022Y-28175D1*
G1X43981Y-28092D1*
G1X43739Y-28175D2*
G1X43656Y-28008D1*
G1X43656Y-27842D1*
G1X43739Y-27675D1*
G1X42193Y-28175D2*
G1X42193Y-27675D1*
G1X42152Y-28175D2*
G1X42402Y-28175D1*
G1X42485Y-28008D1*
G1X42485Y-27842D1*
G1X42402Y-27675D1*
G1X42152Y-27675D1*
G1X41910Y-27675D2*
G1X41910Y-28175D1*
G1X41827Y-28092D1*
G1X41660Y-27758D1*
G1X41577Y-27675D1*
G1X41577Y-28175D1*
G1X41168Y-27925D2*
G1X41335Y-27925D1*
G1X41335Y-28092D1*
G1X41293Y-28175D1*
G1X41043Y-28175D1*
G1X41002Y-28092D1*
G1X41002Y-27758D1*
G1X41043Y-27675D1*
G1X41293Y-27675D1*
G1X41335Y-27758D1*
G1X40677Y-28175D2*
G1X40760Y-28175D1*
G1X40760Y-28092D1*
G1X40677Y-28092D1*
G1X40677Y-28175D1*
G1X40352Y-28175D2*
G1X40185Y-28175D1*
G1X40268Y-28175D2*
G1X40268Y-27675D1*
G1X40185Y-27758D1*
G1X39860Y-27925D2*
G1X39527Y-27925D1*
G1X39285Y-28175D2*
G1X39118Y-28175D1*
G1X39202Y-28175D2*
G1X39202Y-27675D1*
G1X39118Y-27758D1*
G1X38793Y-27758D2*
G1X38752Y-27675D1*
G1X38502Y-27675D1*
G1X38460Y-27758D1*
G1X38460Y-27842D1*
G1X38502Y-27925D1*
G1X38752Y-27925D1*
G1X38793Y-28008D1*
G1X38793Y-28092D1*
G1X38752Y-28175D1*
G1X38502Y-28175D1*
G1X38460Y-28092D1*
G1X38093Y-27925D2*
G1X38218Y-28175D1*
G1X37885Y-27925D2*
G1X38135Y-27925D1*
G1X38218Y-27842D1*
G1X38218Y-27758D1*
G1X38135Y-27675D1*
G1X37885Y-27675D1*
G1X37885Y-28175D1*
G1X37560Y-27925D2*
G1X37310Y-27925D1*
G1X37643Y-28175D2*
G1X37310Y-28175D1*
G1X37310Y-27675D1*
G1X37643Y-27675D1*
G1X37068Y-27675D2*
G1X37068Y-27842D1*
G1X36902Y-28175D1*
G1X36735Y-27842D1*
G1X36735Y-27675D1*
G1X36493Y-28342D2*
G1X36160Y-28342D1*
G1X35627Y-28175D2*
G1X35627Y-27675D1*
G1X35585Y-28175D2*
G1X35835Y-28175D1*
G1X35918Y-28008D1*
G1X35918Y-27842D1*
G1X35835Y-27675D1*
G1X35585Y-27675D1*
G1X35218Y-27925D2*
G1X35343Y-28175D1*
G1X35010Y-27925D2*
G1X35260Y-27925D1*
G1X35343Y-27842D1*
G1X35343Y-27758D1*
G1X35260Y-27675D1*
G1X35010Y-27675D1*
G1X35010Y-28175D1*
G1X34768Y-28008D2*
G1X34435Y-28008D1*
G1X34768Y-28175D2*
G1X34768Y-27925D1*
G1X34643Y-27675D1*
G1X34560Y-27675D1*
G1X34435Y-27925D1*
G1X34435Y-28175D1*
G1X33902Y-28175D2*
G1X33860Y-28092D1*
G1X33860Y-27758D1*
G1X33902Y-27675D1*
G1X34152Y-27675D1*
G1X34193Y-27758D1*
G1X34193Y-28092D1*
G1X34152Y-28175D1*
G1X33902Y-28175D1*
G1X33327Y-28175D2*
G1X33327Y-27675D1*
G1X33285Y-28175D2*
G1X33535Y-28175D1*
G1X33618Y-28092D1*
G1X33618Y-28008D1*
G1X33577Y-27925D1*
G1X33327Y-27925D2*
G1X33577Y-27925D1*
G1X33618Y-27842D1*
G1X33618Y-27758D1*
G1X33535Y-27675D1*
G1X33285Y-27675D1*
G1X33043Y-28342D2*
G1X32710Y-28342D1*
G1X32468Y-28092D2*
G1X32427Y-28175D1*
G1X32177Y-28175D1*
G1X32135Y-28092D1*
G1X32135Y-27758D1*
G1X32177Y-27675D1*
G1X32427Y-27675D1*
G1X32468Y-27758D1*
G1X31893Y-28175D2*
G1X31727Y-28175D1*
G1X31810Y-28175D2*
G1X31810Y-27675D1*
G1X31893Y-27675D2*
G1X31727Y-27675D1*
G1X31402Y-28175D2*
G1X31110Y-28175D1*
G1X31110Y-27675D1*
G1X30535Y-27925D2*
G1X30785Y-27925D1*
G1X30868Y-27842D1*
G1X30868Y-27758D1*
G1X30785Y-27675D1*
G1X30535Y-27675D1*
G1X30535Y-28175D1*
G1X29960Y-27925D2*
G1X30210Y-27925D1*
G1X30293Y-27842D1*
G1X30293Y-27758D1*
G1X30210Y-27675D1*
G1X29960Y-27675D1*
G1X29960Y-28175D1*
G1X29718Y-28008D2*
G1X29385Y-28008D1*
G1X29718Y-28175D2*
G1X29718Y-27925D1*
G1X29593Y-27675D1*
G1X29510Y-27675D1*
G1X29385Y-27925D1*
G1X29385Y-28175D1*
G1X29143Y-28342D2*
G1X28810Y-28342D1*
G1X28235Y-27925D2*
G1X28485Y-27925D1*
G1X28568Y-27842D1*
G1X28568Y-27758D1*
G1X28485Y-27675D1*
G1X28235Y-27675D1*
G1X28235Y-28175D1*
G1X27993Y-28175D2*
G1X27702Y-28175D1*
G1X27702Y-27675D1*
G1X27460Y-27925D2*
G1X27127Y-27925D1*
G1X26885Y-28175D2*
G1X26552Y-28175D1*
G1X26885Y-27842D1*
G1X26885Y-27758D1*
G1X26843Y-27675D1*
G1X26593Y-27675D1*
G1X26552Y-27758D1*
G1X26310Y-27758D2*
G1X26268Y-27675D1*
G1X26018Y-27675D1*
G1X25977Y-27758D1*
G1X25977Y-27842D1*
G1X26018Y-27925D1*
G1X26268Y-27925D1*
G1X26310Y-28008D1*
G1X26310Y-28092D1*
G1X26268Y-28175D1*
G1X26018Y-28175D1*
G1X25977Y-28092D1*
G1X57193Y-26008D2*
G1X57277Y-25842D1*
G1X57277Y-25675D1*
G1X57193Y-25508D1*
G1X56827Y-25675D2*
G1X56577Y-25675D1*
G1X56535Y-25758D1*
G1X56577Y-25842D1*
G1X56827Y-25842D1*
G1X56868Y-25925D1*
G1X56827Y-26008D1*
G1X56577Y-26008D1*
G1X56293Y-26008D2*
G1X56127Y-26008D1*
G1X56210Y-26008D2*
G1X56210Y-25508D1*
G1X56127Y-25508D1*
G1X55759Y-25509D2*
G1X55759Y-25508D1*
G1X55760Y-25508D1*
G1X55760Y-25509D1*
G1X55759Y-25509D1*
G1X55843Y-26008D2*
G1X55677Y-26008D1*
G1X55760Y-26008D2*
G1X55760Y-25675D1*
G1X55677Y-25675D1*
G1X55227Y-26008D2*
G1X55227Y-25758D1*
G1X55393Y-26008D2*
G1X55393Y-25758D1*
G1X55352Y-25675D1*
G1X55268Y-25675D1*
G1X55227Y-25758D1*
G1X55185Y-25675D1*
G1X55102Y-25675D1*
G1X55060Y-25758D1*
G1X55060Y-26008D1*
G1X54818Y-26008D2*
G1X54735Y-25842D1*
G1X54735Y-25675D1*
G1X54818Y-25508D1*
G1X54118Y-26008D2*
G1X54035Y-25925D1*
G1X53993Y-25842D1*
G1X53993Y-25675D1*
G1X54035Y-25592D1*
G1X54118Y-25508D1*
G1X54202Y-25508D1*
G1X54285Y-25592D1*
G1X54327Y-25675D1*
G1X54327Y-25842D1*
G1X54285Y-25925D1*
G1X54202Y-26008D1*
G1X54118Y-26008D1*
G1X53543Y-26008D2*
G1X53460Y-25925D1*
G1X53418Y-25842D1*
G1X53418Y-25675D1*
G1X53460Y-25592D1*
G1X53543Y-25508D1*
G1X53627Y-25508D1*
G1X53710Y-25592D1*
G1X53752Y-25675D1*
G1X53752Y-25842D1*
G1X53710Y-25925D1*
G1X53627Y-26008D1*
G1X53543Y-26008D1*
G1X52968Y-26008D2*
G1X52885Y-25925D1*
G1X52843Y-25842D1*
G1X52843Y-25675D1*
G1X52885Y-25592D1*
G1X52968Y-25508D1*
G1X53052Y-25508D1*
G1X53135Y-25592D1*
G1X53177Y-25675D1*
G1X53177Y-25842D1*
G1X53135Y-25925D1*
G1X53052Y-26008D1*
G1X52968Y-26008D1*
G1X52393Y-26008D2*
G1X52310Y-25925D1*
G1X52268Y-25842D1*
G1X52268Y-25675D1*
G1X52310Y-25592D1*
G1X52393Y-25508D1*
G1X52477Y-25508D1*
G1X52560Y-25592D1*
G1X52602Y-25675D1*
G1X52602Y-25842D1*
G1X52560Y-25925D1*
G1X52477Y-26008D1*
G1X52393Y-26008D1*
G1X51818Y-26008D2*
G1X51735Y-25925D1*
G1X51693Y-25842D1*
G1X51693Y-25675D1*
G1X51735Y-25592D1*
G1X51818Y-25508D1*
G1X51902Y-25508D1*
G1X51985Y-25592D1*
G1X52027Y-25675D1*
G1X52027Y-25842D1*
G1X51985Y-25925D1*
G1X51902Y-26008D1*
G1X51818Y-26008D1*
G1X51243Y-26008D2*
G1X51160Y-25925D1*
G1X51118Y-25842D1*
G1X51118Y-25675D1*
G1X51160Y-25592D1*
G1X51243Y-25508D1*
G1X51327Y-25508D1*
G1X51410Y-25592D1*
G1X51452Y-25675D1*
G1X51452Y-25842D1*
G1X51410Y-25925D1*
G1X51327Y-26008D1*
G1X51243Y-26008D1*
G1X50793Y-26008D2*
G1X50877Y-26008D1*
G1X50877Y-25925D1*
G1X50793Y-25925D1*
G1X50793Y-26008D1*
G1X50468Y-26008D2*
G1X50135Y-26008D1*
G1X50468Y-25675D1*
G1X50468Y-25592D1*
G1X50427Y-25508D1*
G1X50177Y-25508D1*
G1X50135Y-25592D1*
G1X49893Y-26008D2*
G1X49727Y-26008D1*
G1X49810Y-26008D2*
G1X49810Y-25508D1*
G1X49727Y-25592D1*
G1X28972Y-25842D2*
G1X28639Y-25842D1*
G1X28806Y-25508D1*
G1X28889Y-25508D1*
G1X28889Y-26008D1*
G1X28397Y-25758D2*
G1X28064Y-25758D1*
G1X27697Y-25758D2*
G1X27822Y-26008D1*
G1X27489Y-25758D2*
G1X27739Y-25758D1*
G1X27822Y-25675D1*
G1X27822Y-25592D1*
G1X27739Y-25508D1*
G1X27489Y-25508D1*
G1X27489Y-26008D1*
G1X27164Y-25758D2*
G1X26914Y-25758D1*
G1X26914Y-26008D2*
G1X26914Y-25508D1*
G1X27247Y-25508D1*
G1X25868Y-26008D2*
G1X25618Y-26008D1*
G1X25577Y-25925D1*
G1X25577Y-25758D1*
G1X25618Y-25675D1*
G1X25868Y-25675D1*
G1X25910Y-25758D1*
G1X25910Y-25842D1*
G1X25577Y-25842D1*
G1X25335Y-25675D2*
G1X25168Y-25675D1*
G1X25127Y-25758D1*
G1X25043Y-25758D1*
G1X25043Y-25675D2*
G1X25043Y-26008D1*
G1X24510Y-26008D2*
G1X24468Y-25925D1*
G1X24468Y-25758D1*
G1X24510Y-25675D1*
G1X24760Y-25675D1*
G1X24802Y-25758D1*
G1X24802Y-25925D1*
G1X24760Y-26008D1*
G1X24510Y-26008D1*
G1X24227Y-25925D2*
G1X24185Y-26008D1*
G1X23935Y-26008D1*
G1X23893Y-25925D1*
G1X23893Y-25592D1*
G1X23935Y-25508D1*
G1X24185Y-25508D1*
G1X24227Y-25592D1*
G1X61481Y-23842D2*
G1X61564Y-23675D1*
G1X61564Y-23508D1*
G1X61481Y-23342D1*
G1X61156Y-23842D2*
G1X60906Y-23842D1*
G1X60947Y-23758D1*
G1X61114Y-23592D1*
G1X61156Y-23508D1*
G1X60906Y-23508D1*
G1X60372Y-23842D2*
G1X60331Y-23758D1*
G1X60331Y-23592D1*
G1X60372Y-23508D1*
G1X60622Y-23508D1*
G1X60664Y-23592D1*
G1X60664Y-23758D1*
G1X60622Y-23842D1*
G1X60372Y-23842D1*
G1X60089Y-23842D2*
G1X60006Y-23675D1*
G1X60006Y-23508D1*
G1X60089Y-23342D1*
G1X59389Y-23842D2*
G1X59306Y-23758D1*
G1X59264Y-23675D1*
G1X59264Y-23508D1*
G1X59306Y-23425D1*
G1X59389Y-23342D1*
G1X59472Y-23342D1*
G1X59556Y-23425D1*
G1X59597Y-23508D1*
G1X59597Y-23675D1*
G1X59556Y-23758D1*
G1X59472Y-23842D1*
G1X59389Y-23842D1*
G1X58814Y-23842D2*
G1X58731Y-23758D1*
G1X58689Y-23675D1*
G1X58689Y-23508D1*
G1X58731Y-23425D1*
G1X58814Y-23342D1*
G1X58897Y-23342D1*
G1X58981Y-23425D1*
G1X59022Y-23508D1*
G1X59022Y-23675D1*
G1X58981Y-23758D1*
G1X58897Y-23842D1*
G1X58814Y-23842D1*
G1X58364Y-23842D2*
G1X58447Y-23842D1*
G1X58447Y-23758D1*
G1X58364Y-23758D1*
G1X58364Y-23842D1*
G1X57831Y-23842D2*
G1X57747Y-23758D1*
G1X57706Y-23675D1*
G1X57706Y-23508D1*
G1X57747Y-23425D1*
G1X57831Y-23342D1*
G1X57914Y-23342D1*
G1X57997Y-23425D1*
G1X58039Y-23508D1*
G1X58039Y-23675D1*
G1X57997Y-23758D1*
G1X57914Y-23842D1*
G1X57831Y-23842D1*
G1X56618Y-23842D2*
G1X56702Y-23675D1*
G1X56702Y-23508D1*
G1X56618Y-23342D1*
G1X56252Y-23508D2*
G1X56002Y-23508D1*
G1X55960Y-23592D1*
G1X56002Y-23675D1*
G1X56252Y-23675D1*
G1X56293Y-23758D1*
G1X56252Y-23842D1*
G1X56002Y-23842D1*
G1X55718Y-23842D2*
G1X55552Y-23842D1*
G1X55635Y-23842D2*
G1X55635Y-23342D1*
G1X55552Y-23342D1*
G1X55184Y-23342D2*
G1X55184Y-23341D1*
G1X55185Y-23341D1*
G1X55185Y-23342D1*
G1X55184Y-23342D1*
G1X55268Y-23842D2*
G1X55102Y-23842D1*
G1X55185Y-23842D2*
G1X55185Y-23508D1*
G1X55102Y-23508D1*
G1X54652Y-23842D2*
G1X54652Y-23592D1*
G1X54818Y-23842D2*
G1X54818Y-23592D1*
G1X54777Y-23508D1*
G1X54693Y-23508D1*
G1X54652Y-23592D1*
G1X54610Y-23508D1*
G1X54527Y-23508D1*
G1X54485Y-23592D1*
G1X54485Y-23842D1*
G1X54243Y-23842D2*
G1X54160Y-23675D1*
G1X54160Y-23508D1*
G1X54243Y-23342D1*
G1X53543Y-23842D2*
G1X53460Y-23758D1*
G1X53418Y-23675D1*
G1X53418Y-23508D1*
G1X53460Y-23425D1*
G1X53543Y-23342D1*
G1X53627Y-23342D1*
G1X53710Y-23425D1*
G1X53752Y-23508D1*
G1X53752Y-23675D1*
G1X53710Y-23758D1*
G1X53627Y-23842D1*
G1X53543Y-23842D1*
G1X52968Y-23842D2*
G1X52885Y-23758D1*
G1X52843Y-23675D1*
G1X52843Y-23508D1*
G1X52885Y-23425D1*
G1X52968Y-23342D1*
G1X53052Y-23342D1*
G1X53135Y-23425D1*
G1X53177Y-23508D1*
G1X53177Y-23675D1*
G1X53135Y-23758D1*
G1X53052Y-23842D1*
G1X52968Y-23842D1*
G1X52393Y-23842D2*
G1X52310Y-23758D1*
G1X52268Y-23675D1*
G1X52268Y-23508D1*
G1X52310Y-23425D1*
G1X52393Y-23342D1*
G1X52477Y-23342D1*
G1X52560Y-23425D1*
G1X52602Y-23508D1*
G1X52602Y-23675D1*
G1X52560Y-23758D1*
G1X52477Y-23842D1*
G1X52393Y-23842D1*
G1X51818Y-23842D2*
G1X51735Y-23758D1*
G1X51693Y-23675D1*
G1X51693Y-23508D1*
G1X51735Y-23425D1*
G1X51818Y-23342D1*
G1X51902Y-23342D1*
G1X51985Y-23425D1*
G1X52027Y-23508D1*
G1X52027Y-23675D1*
G1X51985Y-23758D1*
G1X51902Y-23842D1*
G1X51818Y-23842D1*
G1X51243Y-23842D2*
G1X51160Y-23758D1*
G1X51118Y-23675D1*
G1X51118Y-23508D1*
G1X51160Y-23425D1*
G1X51243Y-23342D1*
G1X51327Y-23342D1*
G1X51410Y-23425D1*
G1X51452Y-23508D1*
G1X51452Y-23675D1*
G1X51410Y-23758D1*
G1X51327Y-23842D1*
G1X51243Y-23842D1*
G1X50543Y-23758D2*
G1X50585Y-23842D1*
G1X50835Y-23842D1*
G1X50877Y-23758D1*
G1X50877Y-23592D1*
G1X50793Y-23508D1*
G1X50543Y-23508D1*
G1X50543Y-23342D1*
G1X50877Y-23342D1*
G1X50218Y-23842D2*
G1X50302Y-23842D1*
G1X50302Y-23758D1*
G1X50218Y-23758D1*
G1X50218Y-23842D1*
G1X49893Y-23842D2*
G1X49727Y-23842D1*
G1X49810Y-23842D2*
G1X49810Y-23342D1*
G1X49727Y-23425D1*
G1X47181Y-23842D2*
G1X47264Y-23675D1*
G1X47264Y-23508D1*
G1X47181Y-23342D1*
G1X46856Y-23842D2*
G1X46689Y-23842D1*
G1X46772Y-23842D2*
G1X46772Y-23342D1*
G1X46689Y-23342D1*
G1X46156Y-23508D2*
G1X46322Y-23508D1*
G1X46364Y-23592D1*
G1X46364Y-23758D1*
G1X46406Y-23842D1*
G1X46114Y-23842D1*
G1X46072Y-23758D1*
G1X46114Y-23675D1*
G1X46364Y-23675D1*
G1X45831Y-23842D2*
G1X45831Y-23592D1*
G1X45789Y-23508D1*
G1X45539Y-23508D1*
G1X45539Y-23842D1*
G1X45089Y-24008D2*
G1X45256Y-24008D1*
G1X45297Y-23925D1*
G1X45297Y-23508D1*
G1X45047Y-23508D1*
G1X45006Y-23592D1*
G1X45006Y-23758D1*
G1X45047Y-23842D1*
G1X45297Y-23842D1*
G1X44680Y-23342D2*
G1X44680Y-23341D1*
G1X44681Y-23341D1*
G1X44681Y-23342D1*
G1X44680Y-23342D1*
G1X44764Y-23842D2*
G1X44597Y-23842D1*
G1X44681Y-23842D2*
G1X44681Y-23508D1*
G1X44597Y-23508D1*
G1X44314Y-23425D2*
G1X44272Y-23342D1*
G1X44022Y-23342D1*
G1X43981Y-23425D1*
G1X43981Y-23508D1*
G1X44022Y-23592D1*
G1X44272Y-23592D1*
G1X44314Y-23675D1*
G1X44314Y-23758D1*
G1X44272Y-23842D1*
G1X44022Y-23842D1*
G1X43981Y-23758D1*
G1X43739Y-23842D2*
G1X43656Y-23675D1*
G1X43656Y-23508D1*
G1X43739Y-23342D1*
G1X42152Y-23592D2*
G1X42402Y-23592D1*
G1X42485Y-23508D1*
G1X42485Y-23425D1*
G1X42402Y-23342D1*
G1X42152Y-23342D1*
G1X42152Y-23842D1*
G1X41618Y-23842D2*
G1X41577Y-23758D1*
G1X41577Y-23425D1*
G1X41618Y-23342D1*
G1X41868Y-23342D1*
G1X41910Y-23425D1*
G1X41910Y-23758D1*
G1X41868Y-23842D1*
G1X41618Y-23842D1*
G1X41168Y-23842D2*
G1X41168Y-23342D1*
G1X41335Y-23342D2*
G1X41002Y-23342D1*
G1X40677Y-23842D2*
G1X40760Y-23842D1*
G1X40760Y-23758D1*
G1X40677Y-23758D1*
G1X40677Y-23842D1*
G1X40352Y-23842D2*
G1X40185Y-23842D1*
G1X40268Y-23842D2*
G1X40268Y-23342D1*
G1X40185Y-23425D1*
G1X39860Y-23592D2*
G1X39527Y-23592D1*
G1X39285Y-23842D2*
G1X39118Y-23842D1*
G1X39202Y-23842D2*
G1X39202Y-23342D1*
G1X39118Y-23425D1*
G1X38793Y-23425D2*
G1X38752Y-23342D1*
G1X38502Y-23342D1*
G1X38460Y-23425D1*
G1X38460Y-23508D1*
G1X38502Y-23592D1*
G1X38752Y-23592D1*
G1X38793Y-23675D1*
G1X38793Y-23758D1*
G1X38752Y-23842D1*
G1X38502Y-23842D1*
G1X38460Y-23758D1*
G1X38093Y-23592D2*
G1X38218Y-23842D1*
G1X37885Y-23592D2*
G1X38135Y-23592D1*
G1X38218Y-23508D1*
G1X38218Y-23425D1*
G1X38135Y-23342D1*
G1X37885Y-23342D1*
G1X37885Y-23842D1*
G1X37560Y-23592D2*
G1X37310Y-23592D1*
G1X37643Y-23842D2*
G1X37310Y-23842D1*
G1X37310Y-23342D1*
G1X37643Y-23342D1*
G1X37068Y-23342D2*
G1X37068Y-23508D1*
G1X36902Y-23842D1*
G1X36735Y-23508D1*
G1X36735Y-23342D1*
G1X36493Y-24008D2*
G1X36160Y-24008D1*
G1X35627Y-23842D2*
G1X35627Y-23342D1*
G1X35585Y-23842D2*
G1X35835Y-23842D1*
G1X35918Y-23675D1*
G1X35918Y-23508D1*
G1X35835Y-23342D1*
G1X35585Y-23342D1*
G1X35218Y-23592D2*
G1X35343Y-23842D1*
G1X35010Y-23592D2*
G1X35260Y-23592D1*
G1X35343Y-23508D1*
G1X35343Y-23425D1*
G1X35260Y-23342D1*
G1X35010Y-23342D1*
G1X35010Y-23842D1*
G1X34768Y-23675D2*
G1X34435Y-23675D1*
G1X34768Y-23842D2*
G1X34768Y-23592D1*
G1X34643Y-23342D1*
G1X34560Y-23342D1*
G1X34435Y-23592D1*
G1X34435Y-23842D1*
G1X33902Y-23842D2*
G1X33860Y-23758D1*
G1X33860Y-23425D1*
G1X33902Y-23342D1*
G1X34152Y-23342D1*
G1X34193Y-23425D1*
G1X34193Y-23758D1*
G1X34152Y-23842D1*
G1X33902Y-23842D1*
G1X33327Y-23842D2*
G1X33327Y-23342D1*
G1X33285Y-23842D2*
G1X33535Y-23842D1*
G1X33618Y-23758D1*
G1X33618Y-23675D1*
G1X33577Y-23592D1*
G1X33327Y-23592D2*
G1X33577Y-23592D1*
G1X33618Y-23508D1*
G1X33618Y-23425D1*
G1X33535Y-23342D1*
G1X33285Y-23342D1*
G1X33043Y-24008D2*
G1X32710Y-24008D1*
G1X32468Y-23758D2*
G1X32427Y-23842D1*
G1X32177Y-23842D1*
G1X32135Y-23758D1*
G1X32135Y-23425D1*
G1X32177Y-23342D1*
G1X32427Y-23342D1*
G1X32468Y-23425D1*
G1X31893Y-23842D2*
G1X31727Y-23842D1*
G1X31810Y-23842D2*
G1X31810Y-23342D1*
G1X31893Y-23342D2*
G1X31727Y-23342D1*
G1X31402Y-23842D2*
G1X31110Y-23842D1*
G1X31110Y-23342D1*
G1X30535Y-23592D2*
G1X30785Y-23592D1*
G1X30868Y-23508D1*
G1X30868Y-23425D1*
G1X30785Y-23342D1*
G1X30535Y-23342D1*
G1X30535Y-23842D1*
G1X29960Y-23592D2*
G1X30210Y-23592D1*
G1X30293Y-23508D1*
G1X30293Y-23425D1*
G1X30210Y-23342D1*
G1X29960Y-23342D1*
G1X29960Y-23842D1*
G1X29718Y-23675D2*
G1X29385Y-23675D1*
G1X29718Y-23842D2*
G1X29718Y-23592D1*
G1X29593Y-23342D1*
G1X29510Y-23342D1*
G1X29385Y-23592D1*
G1X29385Y-23842D1*
G1X29143Y-24008D2*
G1X28810Y-24008D1*
G1X28235Y-23592D2*
G1X28485Y-23592D1*
G1X28568Y-23508D1*
G1X28568Y-23425D1*
G1X28485Y-23342D1*
G1X28235Y-23342D1*
G1X28235Y-23842D1*
G1X27993Y-23842D2*
G1X27702Y-23842D1*
G1X27702Y-23342D1*
G1X27460Y-23592D2*
G1X27127Y-23592D1*
G1X26885Y-23842D2*
G1X26552Y-23842D1*
G1X26885Y-23508D1*
G1X26885Y-23425D1*
G1X26843Y-23342D1*
G1X26593Y-23342D1*
G1X26552Y-23425D1*
G1X26310Y-23425D2*
G1X26268Y-23342D1*
G1X26018Y-23342D1*
G1X25977Y-23425D1*
G1X25977Y-23508D1*
G1X26018Y-23592D1*
G1X26268Y-23592D1*
G1X26310Y-23675D1*
G1X26310Y-23758D1*
G1X26268Y-23842D1*
G1X26018Y-23842D1*
G1X25977Y-23758D1*
G1X43664Y-21675D2*
G1X43747Y-21508D1*
G1X43747Y-21342D1*
G1X43664Y-21175D1*
G1X43339Y-21342D2*
G1X43172Y-21675D1*
G1X43089Y-21842D2*
G1X43172Y-21675D1*
G1X43006Y-21342D1*
G1X42764Y-21342D2*
G1X42597Y-21342D1*
G1X42556Y-21425D1*
G1X42472Y-21425D1*
G1X42472Y-21342D2*
G1X42472Y-21675D1*
G1X41939Y-21675D2*
G1X41939Y-21175D1*
G1X41897Y-21675D2*
G1X42147Y-21675D1*
G1X42231Y-21508D1*
G1X42231Y-21342D1*
G1X42147Y-21175D1*
G1X41897Y-21175D1*
G1X41656Y-21675D2*
G1X41572Y-21508D1*
G1X41572Y-21342D1*
G1X41656Y-21175D1*
G1X40235Y-21675D2*
G1X40235Y-21175D1*
G1X40402Y-21175D2*
G1X40068Y-21175D1*
G1X39827Y-21675D2*
G1X39827Y-21175D1*
G1X39743Y-21258D1*
G1X39660Y-21425D1*
G1X39577Y-21258D1*
G1X39493Y-21175D1*
G1X39493Y-21675D1*
G1X39252Y-21258D2*
G1X39210Y-21175D1*
G1X38960Y-21175D1*
G1X38918Y-21258D1*
G1X38918Y-21342D1*
G1X38960Y-21425D1*
G1X39210Y-21425D1*
G1X39252Y-21508D1*
G1X39252Y-21592D1*
G1X39210Y-21675D1*
G1X38960Y-21675D1*
G1X38918Y-21592D1*
G1X38593Y-21675D2*
G1X38677Y-21675D1*
G1X38677Y-21592D1*
G1X38593Y-21592D1*
G1X38593Y-21675D1*
G1X38268Y-21675D2*
G1X38102Y-21675D1*
G1X38185Y-21675D2*
G1X38185Y-21175D1*
G1X38102Y-21258D1*
G1X37777Y-21425D2*
G1X37443Y-21425D1*
G1X37202Y-21675D2*
G1X37035Y-21675D1*
G1X37118Y-21675D2*
G1X37118Y-21175D1*
G1X37035Y-21258D1*
G1X36710Y-21258D2*
G1X36668Y-21175D1*
G1X36418Y-21175D1*
G1X36377Y-21258D1*
G1X36377Y-21342D1*
G1X36418Y-21425D1*
G1X36668Y-21425D1*
G1X36710Y-21508D1*
G1X36710Y-21592D1*
G1X36668Y-21675D1*
G1X36418Y-21675D1*
G1X36377Y-21592D1*
G1X36010Y-21425D2*
G1X36135Y-21675D1*
G1X35802Y-21425D2*
G1X36052Y-21425D1*
G1X36135Y-21342D1*
G1X36135Y-21258D1*
G1X36052Y-21175D1*
G1X35802Y-21175D1*
G1X35802Y-21675D1*
G1X35477Y-21425D2*
G1X35227Y-21425D1*
G1X35560Y-21675D2*
G1X35227Y-21675D1*
G1X35227Y-21175D1*
G1X35560Y-21175D1*
G1X34985Y-21175D2*
G1X34985Y-21342D1*
G1X34818Y-21675D1*
G1X34652Y-21342D1*
G1X34652Y-21175D1*
G1X34410Y-21842D2*
G1X34077Y-21842D1*
G1X33543Y-21675D2*
G1X33543Y-21175D1*
G1X33502Y-21675D2*
G1X33752Y-21675D1*
G1X33835Y-21508D1*
G1X33835Y-21342D1*
G1X33752Y-21175D1*
G1X33502Y-21175D1*
G1X33135Y-21425D2*
G1X33260Y-21675D1*
G1X32927Y-21425D2*
G1X33177Y-21425D1*
G1X33260Y-21342D1*
G1X33260Y-21258D1*
G1X33177Y-21175D1*
G1X32927Y-21175D1*
G1X32927Y-21675D1*
G1X32685Y-21508D2*
G1X32352Y-21508D1*
G1X32685Y-21675D2*
G1X32685Y-21425D1*
G1X32560Y-21175D1*
G1X32477Y-21175D1*
G1X32352Y-21425D1*
G1X32352Y-21675D1*
G1X31818Y-21675D2*
G1X31777Y-21592D1*
G1X31777Y-21258D1*
G1X31818Y-21175D1*
G1X32068Y-21175D1*
G1X32110Y-21258D1*
G1X32110Y-21592D1*
G1X32068Y-21675D1*
G1X31818Y-21675D1*
G1X31243Y-21675D2*
G1X31243Y-21175D1*
G1X31202Y-21675D2*
G1X31452Y-21675D1*
G1X31535Y-21592D1*
G1X31535Y-21508D1*
G1X31493Y-21425D1*
G1X31243Y-21425D2*
G1X31493Y-21425D1*
G1X31535Y-21342D1*
G1X31535Y-21258D1*
G1X31452Y-21175D1*
G1X31202Y-21175D1*
G1X30960Y-21842D2*
G1X30627Y-21842D1*
G1X30385Y-21592D2*
G1X30343Y-21675D1*
G1X30093Y-21675D1*
G1X30052Y-21592D1*
G1X30052Y-21258D1*
G1X30093Y-21175D1*
G1X30343Y-21175D1*
G1X30385Y-21258D1*
G1X29810Y-21675D2*
G1X29643Y-21675D1*
G1X29727Y-21675D2*
G1X29727Y-21175D1*
G1X29810Y-21175D2*
G1X29643Y-21175D1*
G1X29318Y-21675D2*
G1X29027Y-21675D1*
G1X29027Y-21175D1*
G1X28452Y-21425D2*
G1X28702Y-21425D1*
G1X28785Y-21342D1*
G1X28785Y-21258D1*
G1X28702Y-21175D1*
G1X28452Y-21175D1*
G1X28452Y-21675D1*
G1X27877Y-21425D2*
G1X28127Y-21425D1*
G1X28210Y-21342D1*
G1X28210Y-21258D1*
G1X28127Y-21175D1*
G1X27877Y-21175D1*
G1X27877Y-21675D1*
G1X27635Y-21508D2*
G1X27302Y-21508D1*
G1X27635Y-21675D2*
G1X27635Y-21425D1*
G1X27510Y-21175D1*
G1X27427Y-21175D1*
G1X27302Y-21425D1*
G1X27302Y-21675D1*
G1X27060Y-21842D2*
G1X26727Y-21842D1*
G1X26152Y-21425D2*
G1X26402Y-21425D1*
G1X26485Y-21342D1*
G1X26485Y-21258D1*
G1X26402Y-21175D1*
G1X26152Y-21175D1*
G1X26152Y-21675D1*
G1X25910Y-21675D2*
G1X25618Y-21675D1*
G1X25618Y-21175D1*
G1X25377Y-21425D2*
G1X25043Y-21425D1*
G1X24802Y-21675D2*
G1X24468Y-21675D1*
G1X24802Y-21342D1*
G1X24802Y-21258D1*
G1X24760Y-21175D1*
G1X24510Y-21175D1*
G1X24468Y-21258D1*
G1X24227Y-21258D2*
G1X24185Y-21175D1*
G1X23935Y-21175D1*
G1X23893Y-21258D1*
G1X23893Y-21342D1*
G1X23935Y-21425D1*
G1X24185Y-21425D1*
G1X24227Y-21508D1*
G1X24227Y-21592D1*
G1X24185Y-21675D1*
G1X23935Y-21675D1*
G1X23893Y-21592D1*
G1X40235Y-19508D2*
G1X40235Y-19008D1*
G1X40402Y-19008D2*
G1X40068Y-19008D1*
G1X39493Y-19258D2*
G1X39743Y-19258D1*
G1X39827Y-19175D1*
G1X39827Y-19092D1*
G1X39743Y-19008D1*
G1X39493Y-19008D1*
G1X39493Y-19508D1*
G1X39252Y-19092D2*
G1X39210Y-19008D1*
G1X38960Y-19008D1*
G1X38918Y-19092D1*
G1X38918Y-19175D1*
G1X38960Y-19258D1*
G1X39210Y-19258D1*
G1X39252Y-19342D1*
G1X39252Y-19425D1*
G1X39210Y-19508D1*
G1X38960Y-19508D1*
G1X38918Y-19425D1*
G1X38593Y-19508D2*
G1X38677Y-19508D1*
G1X38677Y-19425D1*
G1X38593Y-19425D1*
G1X38593Y-19508D1*
G1X38268Y-19508D2*
G1X38102Y-19508D1*
G1X38185Y-19508D2*
G1X38185Y-19008D1*
G1X38102Y-19092D1*
G1X37777Y-19258D2*
G1X37443Y-19258D1*
G1X37202Y-19508D2*
G1X37035Y-19508D1*
G1X37118Y-19508D2*
G1X37118Y-19008D1*
G1X37035Y-19092D1*
G1X36710Y-19092D2*
G1X36668Y-19008D1*
G1X36418Y-19008D1*
G1X36377Y-19092D1*
G1X36377Y-19175D1*
G1X36418Y-19258D1*
G1X36668Y-19258D1*
G1X36710Y-19342D1*
G1X36710Y-19425D1*
G1X36668Y-19508D1*
G1X36418Y-19508D1*
G1X36377Y-19425D1*
G1X36010Y-19258D2*
G1X36135Y-19508D1*
G1X35802Y-19258D2*
G1X36052Y-19258D1*
G1X36135Y-19175D1*
G1X36135Y-19092D1*
G1X36052Y-19008D1*
G1X35802Y-19008D1*
G1X35802Y-19508D1*
G1X35477Y-19258D2*
G1X35227Y-19258D1*
G1X35560Y-19508D2*
G1X35227Y-19508D1*
G1X35227Y-19008D1*
G1X35560Y-19008D1*
G1X34985Y-19008D2*
G1X34985Y-19175D1*
G1X34818Y-19508D1*
G1X34652Y-19175D1*
G1X34652Y-19008D1*
G1X34410Y-19675D2*
G1X34077Y-19675D1*
G1X33543Y-19508D2*
G1X33543Y-19008D1*
G1X33502Y-19508D2*
G1X33752Y-19508D1*
G1X33835Y-19342D1*
G1X33835Y-19175D1*
G1X33752Y-19008D1*
G1X33502Y-19008D1*
G1X33135Y-19258D2*
G1X33260Y-19508D1*
G1X32927Y-19258D2*
G1X33177Y-19258D1*
G1X33260Y-19175D1*
G1X33260Y-19092D1*
G1X33177Y-19008D1*
G1X32927Y-19008D1*
G1X32927Y-19508D1*
G1X32685Y-19342D2*
G1X32352Y-19342D1*
G1X32685Y-19508D2*
G1X32685Y-19258D1*
G1X32560Y-19008D1*
G1X32477Y-19008D1*
G1X32352Y-19258D1*
G1X32352Y-19508D1*
G1X31818Y-19508D2*
G1X31777Y-19425D1*
G1X31777Y-19092D1*
G1X31818Y-19008D1*
G1X32068Y-19008D1*
G1X32110Y-19092D1*
G1X32110Y-19425D1*
G1X32068Y-19508D1*
G1X31818Y-19508D1*
G1X31243Y-19508D2*
G1X31243Y-19008D1*
G1X31202Y-19508D2*
G1X31452Y-19508D1*
G1X31535Y-19425D1*
G1X31535Y-19342D1*
G1X31493Y-19258D1*
G1X31243Y-19258D2*
G1X31493Y-19258D1*
G1X31535Y-19175D1*
G1X31535Y-19092D1*
G1X31452Y-19008D1*
G1X31202Y-19008D1*
G1X30960Y-19675D2*
G1X30627Y-19675D1*
G1X30385Y-19425D2*
G1X30343Y-19508D1*
G1X30093Y-19508D1*
G1X30052Y-19425D1*
G1X30052Y-19092D1*
G1X30093Y-19008D1*
G1X30343Y-19008D1*
G1X30385Y-19092D1*
G1X29810Y-19508D2*
G1X29643Y-19508D1*
G1X29727Y-19508D2*
G1X29727Y-19008D1*
G1X29810Y-19008D2*
G1X29643Y-19008D1*
G1X29318Y-19508D2*
G1X29027Y-19508D1*
G1X29027Y-19008D1*
G1X28452Y-19258D2*
G1X28702Y-19258D1*
G1X28785Y-19175D1*
G1X28785Y-19092D1*
G1X28702Y-19008D1*
G1X28452Y-19008D1*
G1X28452Y-19508D1*
G1X27877Y-19258D2*
G1X28127Y-19258D1*
G1X28210Y-19175D1*
G1X28210Y-19092D1*
G1X28127Y-19008D1*
G1X27877Y-19008D1*
G1X27877Y-19508D1*
G1X27635Y-19342D2*
G1X27302Y-19342D1*
G1X27635Y-19508D2*
G1X27635Y-19258D1*
G1X27510Y-19008D1*
G1X27427Y-19008D1*
G1X27302Y-19258D1*
G1X27302Y-19508D1*
G1X27060Y-19675D2*
G1X26727Y-19675D1*
G1X26152Y-19258D2*
G1X26402Y-19258D1*
G1X26485Y-19175D1*
G1X26485Y-19092D1*
G1X26402Y-19008D1*
G1X26152Y-19008D1*
G1X26152Y-19508D1*
G1X25910Y-19508D2*
G1X25618Y-19508D1*
G1X25618Y-19008D1*
G1X25377Y-19258D2*
G1X25043Y-19258D1*
G1X24802Y-19508D2*
G1X24468Y-19508D1*
G1X24802Y-19175D1*
G1X24802Y-19092D1*
G1X24760Y-19008D1*
G1X24510Y-19008D1*
G1X24468Y-19092D1*
G1X24227Y-19092D2*
G1X24185Y-19008D1*
G1X23935Y-19008D1*
G1X23893Y-19092D1*
G1X23893Y-19175D1*
G1X23935Y-19258D1*
G1X24185Y-19258D1*
G1X24227Y-19342D1*
G1X24227Y-19425D1*
G1X24185Y-19508D1*
G1X23935Y-19508D1*
G1X23893Y-19425D1*
G1X40235Y-17342D2*
G1X40235Y-16842D1*
G1X40402Y-16842D2*
G1X40068Y-16842D1*
G1X39827Y-16925D2*
G1X39785Y-16842D1*
G1X39535Y-16842D1*
G1X39493Y-16925D1*
G1X39493Y-17008D1*
G1X39535Y-17092D1*
G1X39785Y-17092D1*
G1X39827Y-17175D1*
G1X39827Y-17258D1*
G1X39785Y-17342D1*
G1X39535Y-17342D1*
G1X39493Y-17258D1*
G1X39252Y-16925D2*
G1X39210Y-16842D1*
G1X38960Y-16842D1*
G1X38918Y-16925D1*
G1X38918Y-17008D1*
G1X38960Y-17092D1*
G1X39210Y-17092D1*
G1X39252Y-17175D1*
G1X39252Y-17258D1*
G1X39210Y-17342D1*
G1X38960Y-17342D1*
G1X38918Y-17258D1*
G1X38593Y-17342D2*
G1X38677Y-17342D1*
G1X38677Y-17258D1*
G1X38593Y-17258D1*
G1X38593Y-17342D1*
G1X38268Y-17342D2*
G1X38102Y-17342D1*
G1X38185Y-17342D2*
G1X38185Y-16842D1*
G1X38102Y-16925D1*
G1X37777Y-17092D2*
G1X37443Y-17092D1*
G1X37202Y-17342D2*
G1X37035Y-17342D1*
G1X37118Y-17342D2*
G1X37118Y-16842D1*
G1X37035Y-16925D1*
G1X36710Y-16925D2*
G1X36668Y-16842D1*
G1X36418Y-16842D1*
G1X36377Y-16925D1*
G1X36377Y-17008D1*
G1X36418Y-17092D1*
G1X36668Y-17092D1*
G1X36710Y-17175D1*
G1X36710Y-17258D1*
G1X36668Y-17342D1*
G1X36418Y-17342D1*
G1X36377Y-17258D1*
G1X36010Y-17092D2*
G1X36135Y-17342D1*
G1X35802Y-17092D2*
G1X36052Y-17092D1*
G1X36135Y-17008D1*
G1X36135Y-16925D1*
G1X36052Y-16842D1*
G1X35802Y-16842D1*
G1X35802Y-17342D1*
G1X35477Y-17092D2*
G1X35227Y-17092D1*
G1X35560Y-17342D2*
G1X35227Y-17342D1*
G1X35227Y-16842D1*
G1X35560Y-16842D1*
G1X34985Y-16842D2*
G1X34985Y-17008D1*
G1X34818Y-17342D1*
G1X34652Y-17008D1*
G1X34652Y-16842D1*
G1X34410Y-17508D2*
G1X34077Y-17508D1*
G1X33543Y-17342D2*
G1X33543Y-16842D1*
G1X33502Y-17342D2*
G1X33752Y-17342D1*
G1X33835Y-17175D1*
G1X33835Y-17008D1*
G1X33752Y-16842D1*
G1X33502Y-16842D1*
G1X33135Y-17092D2*
G1X33260Y-17342D1*
G1X32927Y-17092D2*
G1X33177Y-17092D1*
G1X33260Y-17008D1*
G1X33260Y-16925D1*
G1X33177Y-16842D1*
G1X32927Y-16842D1*
G1X32927Y-17342D1*
G1X32685Y-17175D2*
G1X32352Y-17175D1*
G1X32685Y-17342D2*
G1X32685Y-17092D1*
G1X32560Y-16842D1*
G1X32477Y-16842D1*
G1X32352Y-17092D1*
G1X32352Y-17342D1*
G1X31818Y-17342D2*
G1X31777Y-17258D1*
G1X31777Y-16925D1*
G1X31818Y-16842D1*
G1X32068Y-16842D1*
G1X32110Y-16925D1*
G1X32110Y-17258D1*
G1X32068Y-17342D1*
G1X31818Y-17342D1*
G1X31243Y-17342D2*
G1X31243Y-16842D1*
G1X31202Y-17342D2*
G1X31452Y-17342D1*
G1X31535Y-17258D1*
G1X31535Y-17175D1*
G1X31493Y-17092D1*
G1X31243Y-17092D2*
G1X31493Y-17092D1*
G1X31535Y-17008D1*
G1X31535Y-16925D1*
G1X31452Y-16842D1*
G1X31202Y-16842D1*
G1X30960Y-17508D2*
G1X30627Y-17508D1*
G1X30385Y-17258D2*
G1X30343Y-17342D1*
G1X30093Y-17342D1*
G1X30052Y-17258D1*
G1X30052Y-16925D1*
G1X30093Y-16842D1*
G1X30343Y-16842D1*
G1X30385Y-16925D1*
G1X29810Y-17342D2*
G1X29643Y-17342D1*
G1X29727Y-17342D2*
G1X29727Y-16842D1*
G1X29810Y-16842D2*
G1X29643Y-16842D1*
G1X29318Y-17342D2*
G1X29027Y-17342D1*
G1X29027Y-16842D1*
G1X28452Y-17092D2*
G1X28702Y-17092D1*
G1X28785Y-17008D1*
G1X28785Y-16925D1*
G1X28702Y-16842D1*
G1X28452Y-16842D1*
G1X28452Y-17342D1*
G1X27877Y-17092D2*
G1X28127Y-17092D1*
G1X28210Y-17008D1*
G1X28210Y-16925D1*
G1X28127Y-16842D1*
G1X27877Y-16842D1*
G1X27877Y-17342D1*
G1X27635Y-17175D2*
G1X27302Y-17175D1*
G1X27635Y-17342D2*
G1X27635Y-17092D1*
G1X27510Y-16842D1*
G1X27427Y-16842D1*
G1X27302Y-17092D1*
G1X27302Y-17342D1*
G1X27060Y-17508D2*
G1X26727Y-17508D1*
G1X26152Y-17092D2*
G1X26402Y-17092D1*
G1X26485Y-17008D1*
G1X26485Y-16925D1*
G1X26402Y-16842D1*
G1X26152Y-16842D1*
G1X26152Y-17342D1*
G1X25910Y-17342D2*
G1X25618Y-17342D1*
G1X25618Y-16842D1*
G1X25377Y-17092D2*
G1X25043Y-17092D1*
G1X24802Y-17342D2*
G1X24468Y-17342D1*
G1X24802Y-17008D1*
G1X24802Y-16925D1*
G1X24760Y-16842D1*
G1X24510Y-16842D1*
G1X24468Y-16925D1*
G1X24227Y-16925D2*
G1X24185Y-16842D1*
G1X23935Y-16842D1*
G1X23893Y-16925D1*
G1X23893Y-17008D1*
G1X23935Y-17092D1*
G1X24185Y-17092D1*
G1X24227Y-17175D1*
G1X24227Y-17258D1*
G1X24185Y-17342D1*
G1X23935Y-17342D1*
G1X23893Y-17258D1*
M2*
