M48
INCH,TZ
FMAT,2
ICI,OFF
T01C.01F2S1
T02C.04F2S1
T03C.042F2S1
%
T01
G05
X25057Y29991
X12522Y29356
X13102Y29356
X13572Y29356
X13992Y29356
X14392Y29356
X14782Y29356
X15132Y29356
X15472Y29356
X15772Y29356
X16662Y29356
X16042Y29351
X16357Y29351
X16872Y29146
X14572Y29046
X14982Y29046
X15332Y29046
X15912Y29046
X16212Y29046
X25057Y28991
X17097Y28911
X16812Y28866
X14297Y28771
X12522Y28766
X13097Y28756
X13742Y28756
X17327Y28656
X17057Y28626
X18507Y28621
X18037Y28441
X17402Y28291
X16052Y28246
X14292Y28236
X10492Y28176
X13092Y28176
X13747Y28176
X15877Y28101
X12522Y28056
X14292Y27876
X16582Y27826
X21062Y27786
X16402Y27686
X10677Y27626
X12522Y27616
X13737Y27571
X13092Y27566
X14287Y27526
X18682Y27421
X19817Y27421
X12522Y27206
X14292Y27166
X16767Y27031
X16002Y27016
X15622Y27011
X16397Y27016
X13092Y26996
X13742Y26991
X25167Y26991
X14952Y26836
X12522Y26736
X14287Y26686
X13747Y26441
X13082Y26426
X12522Y26266
X14282Y26166
X16982Y26016
X18587Y25976
X20097Y25976
X15192Y25946
X13752Y25886
X13082Y25856
X12522Y25806
X16770Y25804
X25507Y25791
X14282Y25786
X15192Y25571
X20102Y25526
X17052Y25476
X17392Y25476
X17682Y25476
X17952Y25476
X12522Y25396
X14277Y25396
X19082Y25321
X13752Y25306
X13082Y25276
X15182Y25211
X17052Y25196
X17392Y25196
X17682Y25196
X17952Y25196
X20112Y25136
X18867Y25126
X16352Y25071
X13932Y24986
X19087Y24931
X12522Y24896
X17392Y24886
X17682Y24886
X17952Y24886
X17052Y24866
X18877Y24731
X12872Y24656
X13302Y24656
X13712Y24646
X17052Y24576
X17392Y24576
X17682Y24576
X17952Y24576
X12522Y24476
X18234Y24339
X13712Y24236
X14522Y24166
X12872Y24106
X13302Y24106
X16047Y24026
X12522Y24016
X17517Y23896
X13642Y23866
X12872Y23646
X13302Y23636
X12522Y23606
X13642Y23506
X18724Y23419
X15387Y23291
X14537Y23286
X16052Y23131
X16437Y23126
X11572Y23081
X14317Y23081
X18719Y23034
X23192Y22781
X22692Y22431
X10387Y22391
X18712Y22336
X12522Y22326
X12872Y22326
X13182Y22326
X14712Y22326
X15082Y22326
X15812Y22316
X16172Y22316
X14352Y22306
X15492Y22306
X18042Y22316
X18402Y22316
X18662Y21936
X18042Y21916
X18342Y21916
X12857Y21906
X13182Y21906
X14352Y21906
X14712Y21906
X15082Y21906
X15492Y21896
X15812Y21896
X16172Y21906
X12517Y21856
X21137Y21586
X14707Y21431
X14352Y21426
X15082Y21431
X15477Y21431
X15807Y21431
X18517Y21431
X13187Y21421
X12892Y21416
X18312Y21281
X17987Y21266
X17632Y21241
X16547Y21146
X15822Y21071
X16177Y21071
X14352Y21066
X14712Y21066
X15102Y21066
X15492Y21066
X24012Y21016
X23277Y21011
X18807Y20996
X12552Y20986
X12892Y20986
X13642Y20981
X13277Y20976
X17987Y20921
X17632Y20901
X18807Y20551
X22927Y20486
X18257Y20426
X17712Y20376
X14092Y20366
X12897Y20361
X13247Y20361
X13637Y20361
X15392Y20361
X16012Y20361
X17242Y20366
X14517Y20356
X14987Y20356
X16407Y20356
X16787Y20356
X21902Y20311
X18802Y20141
X15402Y20096
X16022Y20076
X14512Y20041
X14072Y20036
X14982Y20036
X12562Y20031
X12882Y20031
X13222Y20031
X13642Y20031
X18247Y19931
X16842Y19926
X17302Y19926
X17772Y19921
X16402Y19916
X15402Y19776
X16017Y19736
X18807Y19686
X14977Y19461
X13212Y19456
X13632Y19456
X14522Y19456
X15402Y19456
X12552Y19446
X12872Y19446
X16022Y19426
X16442Y19426
X16857Y19421
X17777Y19416
X18242Y19416
X18807Y19271
X15412Y19136
X16022Y19116
X24932Y19021
X14972Y18976
X14522Y18966
X13627Y18956
X12552Y18946
X12852Y18946
X13192Y18946
X17772Y18911
X18242Y18911
X16862Y18896
X16442Y18886
X18807Y18876
X15352Y18851
X16072Y18816
X12847Y18471
X13627Y18471
X15357Y18471
X22572Y18816
X12552Y18466
X13192Y18466
X14522Y18466
X14972Y18466
X16072Y18446
X18812Y18426
X16862Y18396
X17772Y18396
X18247Y18396
X16442Y18386
X24192Y18266
X15352Y18146
X16072Y18096
X13182Y18036
X13627Y18036
X14522Y18036
X14962Y18036
X12547Y18026
X12832Y18026
X18817Y17971
X16862Y17926
X17782Y17926
X18242Y17926
X16447Y17911
X15352Y17811
X16077Y17791
X12847Y17541
X13182Y17541
X12552Y17536
X13632Y17536
X17782Y17536
X18242Y17526
X16077Y17516
X16437Y17516
X16867Y17511
X18812Y17516
X14512Y17506
X14962Y17506
X15352Y17506
T03
X27168Y35991
X27168Y34991
X27168Y33991
X27168Y32991
X8170Y32399
X27168Y31991
X8170Y31399
X27168Y30991
X8170Y30399
X27168Y29991
X8170Y29399
X27168Y28991
X8170Y28399
X27168Y27991
X8170Y27399
X27168Y26991
X8170Y26399
X8170Y25399
X27168Y25397
X27168Y24397
X27168Y23397
X8170Y23392
X27168Y22397
X8170Y22392
X27168Y21397
X8170Y21392
X27168Y20397
X8170Y20392
X27168Y19397
X8170Y19392
X27168Y18397
X8170Y18392
T02
X10292Y29411
X11292Y29411
X19432Y28931
M30
