G04 Layer_Color=128*
%FSLAX44Y44*%
%MOMM*%
G71*
G01*
G75*
%ADD73C,0.0508*%
D73*
X23500Y106000D02*
X33700D01*
X28600Y100900D02*
Y111100D01*
X48900Y106000D02*
X59100D01*
X54000Y100900D02*
Y111100D01*
X81900Y269300D02*
X92100D01*
X87000Y264200D02*
Y274400D01*
X81900Y294700D02*
X92100D01*
X87000Y289600D02*
Y299800D01*
X32900Y217900D02*
X43100D01*
X38000Y212800D02*
Y223000D01*
X32900Y192500D02*
X43100D01*
X38000Y187400D02*
Y197600D01*
X32900Y243300D02*
X43100D01*
X38000Y238200D02*
Y248400D01*
X32900Y268700D02*
X43100D01*
X38000Y263600D02*
Y273800D01*
X32900Y294100D02*
X43100D01*
X38000Y289000D02*
Y299200D01*
X32900Y319500D02*
X43100D01*
X38000Y314400D02*
Y324600D01*
X356000Y182500D02*
X359000D01*
X357500Y181000D02*
Y184000D01*
X374500Y197500D02*
X377500D01*
X376000Y196000D02*
Y199000D01*
X313500Y220000D02*
X316500D01*
X315000Y218500D02*
Y221500D01*
X403500Y120000D02*
X406500D01*
X405000Y118500D02*
Y121500D01*
X268500Y345000D02*
X271500D01*
X270000Y343500D02*
Y346500D01*
X258500Y335000D02*
X261500D01*
X260000Y333500D02*
Y336500D01*
X320500Y255000D02*
X323500D01*
X322000Y253500D02*
Y256500D01*
X151500Y98000D02*
X154500D01*
X153000Y96500D02*
Y99500D01*
X153500Y208000D02*
X156500D01*
X155000Y206500D02*
Y209500D01*
X153500Y189000D02*
X156500D01*
X155000Y187500D02*
Y190500D01*
X150500Y322999D02*
X153500D01*
X152000Y321499D02*
Y324499D01*
X194500Y315000D02*
X197500D01*
X196000Y313500D02*
Y316500D01*
X258500Y315000D02*
X261500D01*
X260000Y313500D02*
Y316500D01*
X258500Y299000D02*
X261500D01*
X260000Y297500D02*
Y300500D01*
X312000Y91500D02*
X315000D01*
X313500Y90000D02*
Y93000D01*
X308500Y111000D02*
X311500D01*
X310000Y109500D02*
Y112500D01*
X193500Y197000D02*
X196500D01*
X195000Y195500D02*
Y198500D01*
X304500Y123000D02*
X307500D01*
X306000Y121500D02*
Y124500D01*
X304500Y135000D02*
X307500D01*
X306000Y133500D02*
Y136500D01*
X146500Y247000D02*
X149500D01*
X148000Y245500D02*
Y248500D01*
X159500Y247000D02*
X162500D01*
X161000Y245500D02*
Y248500D01*
X304500Y297000D02*
X307500D01*
X306000Y295500D02*
Y298500D01*
X304500Y283000D02*
X307500D01*
X306000Y281500D02*
Y284500D01*
X248500Y429500D02*
X251500D01*
X250000Y428000D02*
Y431000D01*
X239500Y287000D02*
X242500D01*
X241000Y285500D02*
Y288500D01*
X218500Y300000D02*
X221500D01*
X220000Y298500D02*
Y301500D01*
X214500Y240000D02*
X217500D01*
X216000Y238500D02*
Y241500D01*
X210500Y305000D02*
X213500D01*
X212000Y303500D02*
Y306500D01*
X244500Y250000D02*
X247500D01*
X246000Y248500D02*
Y251500D01*
X244500Y240000D02*
X247500D01*
X246000Y238500D02*
Y241500D01*
X226500Y295000D02*
X229500D01*
X228000Y293500D02*
Y296500D01*
X234500Y240000D02*
X237500D01*
X236000Y238500D02*
Y241500D01*
X224500Y240000D02*
X227500D01*
X226000Y238500D02*
Y241500D01*
X202500Y310000D02*
X205500D01*
X204000Y308500D02*
Y311500D01*
X204500Y240000D02*
X207500D01*
X206000Y238500D02*
Y241500D01*
X90500Y323000D02*
X93500D01*
X92000Y321500D02*
Y324500D01*
X63500Y427000D02*
X66500D01*
X65000Y425500D02*
Y428500D01*
X141500Y521000D02*
X144500D01*
X143000Y519500D02*
Y522500D01*
X196000Y439500D02*
X199000D01*
X197500Y438000D02*
Y441000D01*
X236000Y409500D02*
X239000D01*
X237500Y408000D02*
Y411000D01*
X146000Y404500D02*
X149000D01*
X147500Y403000D02*
Y406000D01*
X216000Y452000D02*
X219000D01*
X217500Y450500D02*
Y453500D01*
X256000Y93000D02*
X259000D01*
X257500Y91500D02*
Y94500D01*
X256000Y58000D02*
X259000D01*
X257500Y56500D02*
Y59500D01*
X198500Y73000D02*
X201500D01*
X200000Y71500D02*
Y74500D01*
X178500Y78000D02*
X181500D01*
X180000Y76500D02*
Y79500D01*
X246000Y95500D02*
X249000D01*
X247500Y94000D02*
Y97000D01*
X151000Y20500D02*
X154000D01*
X152500Y19000D02*
Y22000D01*
X108500Y90500D02*
X111500D01*
X110000Y89000D02*
Y92000D01*
X344500Y103000D02*
X347500D01*
X346000Y101500D02*
Y104500D01*
X362000Y78000D02*
X365000D01*
X363500Y76500D02*
Y79500D01*
X206000Y118000D02*
X209000D01*
X207500Y116500D02*
Y119500D01*
X251000Y48000D02*
X254000D01*
X252500Y46500D02*
Y49500D01*
X208500Y55500D02*
X211500D01*
X210000Y54000D02*
Y57000D01*
X246000Y439500D02*
X249000D01*
X247500Y438000D02*
Y441000D01*
X246000Y449500D02*
X249000D01*
X247500Y448000D02*
Y451000D01*
X246000Y459500D02*
X249000D01*
X247500Y458000D02*
Y461000D01*
X196000Y409500D02*
X199000D01*
X197500Y408000D02*
Y411000D01*
X206000Y409500D02*
X209000D01*
X207500Y408000D02*
Y411000D01*
X216000Y409500D02*
X219000D01*
X217500Y408000D02*
Y411000D01*
X226000Y409500D02*
X229000D01*
X227500Y408000D02*
Y411000D01*
X166000Y372000D02*
X169000D01*
X167500Y370500D02*
Y373500D01*
X151000Y367000D02*
X154000D01*
X152500Y365500D02*
Y368500D01*
X216000Y494500D02*
X219000D01*
X217500Y493000D02*
Y496000D01*
X261000Y487000D02*
X264000D01*
X262500Y485500D02*
Y488500D01*
X258500Y514500D02*
X261500D01*
X260000Y513000D02*
Y516000D01*
X258500Y524500D02*
X261500D01*
X260000Y523000D02*
Y526000D01*
X216000Y524500D02*
X219000D01*
X217500Y523000D02*
Y526000D01*
X206000Y524500D02*
X209000D01*
X207500Y523000D02*
Y526000D01*
X96000Y474500D02*
X99000D01*
X97500Y473000D02*
Y476000D01*
X123500Y457000D02*
X126500D01*
X125000Y455500D02*
Y458500D01*
X111000Y427000D02*
X114000D01*
X112500Y425500D02*
Y428500D01*
X196000Y584500D02*
X199000D01*
X197500Y583000D02*
Y586000D01*
X206000Y584500D02*
X209000D01*
X207500Y583000D02*
Y586000D01*
X216000Y584500D02*
X219000D01*
X217500Y583000D02*
Y586000D01*
X226000Y584500D02*
X229000D01*
X227500Y583000D02*
Y586000D01*
X236000Y584500D02*
X239000D01*
X237500Y583000D02*
Y586000D01*
X246000Y584500D02*
X249000D01*
X247500Y583000D02*
Y586000D01*
X256000Y584500D02*
X259000D01*
X257500Y583000D02*
Y586000D01*
X256000Y574500D02*
X259000D01*
X257500Y573000D02*
Y576000D01*
X246000Y544500D02*
X249000D01*
X247500Y543000D02*
Y546000D01*
X246000Y534500D02*
X249000D01*
X247500Y533000D02*
Y536000D01*
X236000Y544500D02*
X239000D01*
X237500Y543000D02*
Y546000D01*
X236000Y534500D02*
X239000D01*
X237500Y533000D02*
Y536000D01*
X226000Y574500D02*
X229000D01*
X227500Y573000D02*
Y576000D01*
X236000Y564500D02*
X239000D01*
X237500Y563000D02*
Y566000D01*
X226000Y554500D02*
X229000D01*
X227500Y553000D02*
Y556000D01*
X206000Y554500D02*
X209000D01*
X207500Y553000D02*
Y556000D01*
X206000Y544500D02*
X209000D01*
X207500Y543000D02*
Y546000D01*
X216000Y544500D02*
X219000D01*
X217500Y543000D02*
Y546000D01*
X226000Y534500D02*
X229000D01*
X227500Y533000D02*
Y536000D01*
X216000Y554500D02*
X219000D01*
X217500Y553000D02*
Y556000D01*
X226000Y544500D02*
X229000D01*
X227500Y543000D02*
Y546000D01*
X236000Y554500D02*
X239000D01*
X237500Y553000D02*
Y556000D01*
X246000Y554500D02*
X249000D01*
X247500Y553000D02*
Y556000D01*
X236000Y574500D02*
X239000D01*
X237500Y573000D02*
Y576000D01*
X246000Y574500D02*
X249000D01*
X247500Y573000D02*
Y576000D01*
X226000Y564500D02*
X229000D01*
X227500Y563000D02*
Y566000D01*
X246000Y564500D02*
X249000D01*
X247500Y563000D02*
Y566000D01*
X216000Y534500D02*
X219000D01*
X217500Y533000D02*
Y536000D01*
X206000Y534500D02*
X209000D01*
X207500Y533000D02*
Y536000D01*
X268500Y599500D02*
X271500D01*
X270000Y598000D02*
Y601000D01*
X278500Y599500D02*
X281500D01*
X280000Y598000D02*
Y601000D01*
X288500Y599500D02*
X291500D01*
X290000Y598000D02*
Y601000D01*
X298500Y599500D02*
X301500D01*
X300000Y598000D02*
Y601000D01*
X308500Y599500D02*
X311500D01*
X310000Y598000D02*
Y601000D01*
X318500Y599500D02*
X321500D01*
X320000Y598000D02*
Y601000D01*
X278500Y589500D02*
X281500D01*
X280000Y588000D02*
Y591000D01*
X288500Y589500D02*
X291500D01*
X290000Y588000D02*
Y591000D01*
X298500Y589500D02*
X301500D01*
X300000Y588000D02*
Y591000D01*
X308500Y589500D02*
X311500D01*
X310000Y588000D02*
Y591000D01*
X318500Y589500D02*
X321500D01*
X320000Y588000D02*
Y591000D01*
X288500Y579500D02*
X291500D01*
X290000Y578000D02*
Y581000D01*
X298500Y579500D02*
X301500D01*
X300000Y578000D02*
Y581000D01*
X308500Y579500D02*
X311500D01*
X310000Y578000D02*
Y581000D01*
X318500Y579500D02*
X321500D01*
X320000Y578000D02*
Y581000D01*
X288500Y569500D02*
X291500D01*
X290000Y568000D02*
Y571000D01*
X298500Y569500D02*
X301500D01*
X300000Y568000D02*
Y571000D01*
X308500Y569500D02*
X311500D01*
X310000Y568000D02*
Y571000D01*
X318500Y569500D02*
X321500D01*
X320000Y568000D02*
Y571000D01*
X298500Y559500D02*
X301500D01*
X300000Y558000D02*
Y561000D01*
X308500Y559500D02*
X311500D01*
X310000Y558000D02*
Y561000D01*
X318500Y559500D02*
X321500D01*
X320000Y558000D02*
Y561000D01*
X298500Y549500D02*
X301500D01*
X300000Y548000D02*
Y551000D01*
X308500Y549500D02*
X311500D01*
X310000Y548000D02*
Y551000D01*
X318500Y549500D02*
X321500D01*
X320000Y548000D02*
Y551000D01*
X318500Y539500D02*
X321500D01*
X320000Y538000D02*
Y541000D01*
X308500Y539500D02*
X311500D01*
X310000Y538000D02*
Y541000D01*
X298500Y539500D02*
X301500D01*
X300000Y538000D02*
Y541000D01*
X318500Y529500D02*
X321500D01*
X320000Y528000D02*
Y531000D01*
X308500Y529500D02*
X311500D01*
X310000Y528000D02*
Y531000D01*
X298500Y529500D02*
X301500D01*
X300000Y528000D02*
Y531000D01*
X288500Y529500D02*
X291500D01*
X290000Y528000D02*
Y531000D01*
X288500Y519500D02*
X291500D01*
X290000Y518000D02*
Y521000D01*
X298500Y519500D02*
X301500D01*
X300000Y518000D02*
Y521000D01*
X308500Y519500D02*
X311500D01*
X310000Y518000D02*
Y521000D01*
X318500Y519500D02*
X321500D01*
X320000Y518000D02*
Y521000D01*
X318500Y509500D02*
X321500D01*
X320000Y508000D02*
Y511000D01*
X308500Y509500D02*
X311500D01*
X310000Y508000D02*
Y511000D01*
X298500Y509500D02*
X301500D01*
X300000Y508000D02*
Y511000D01*
X288500Y509500D02*
X291500D01*
X290000Y508000D02*
Y511000D01*
X278500Y509500D02*
X281500D01*
X280000Y508000D02*
Y511000D01*
X278500Y499500D02*
X281500D01*
X280000Y498000D02*
Y501000D01*
X288500Y499500D02*
X291500D01*
X290000Y498000D02*
Y501000D01*
X298500Y499500D02*
X301500D01*
X300000Y498000D02*
Y501000D01*
X308500Y499500D02*
X311500D01*
X310000Y498000D02*
Y501000D01*
X318500Y499500D02*
X321500D01*
X320000Y498000D02*
Y501000D01*
X278500Y489500D02*
X281500D01*
X280000Y488000D02*
Y491000D01*
X288500Y489500D02*
X291500D01*
X290000Y488000D02*
Y491000D01*
X298500Y489500D02*
X301500D01*
X300000Y488000D02*
Y491000D01*
X308500Y489500D02*
X311500D01*
X310000Y488000D02*
Y491000D01*
X318500Y489500D02*
X321500D01*
X320000Y488000D02*
Y491000D01*
X278500Y479500D02*
X281500D01*
X280000Y478000D02*
Y481000D01*
X288500Y479500D02*
X291500D01*
X290000Y478000D02*
Y481000D01*
X298500Y479500D02*
X301500D01*
X300000Y478000D02*
Y481000D01*
X308500Y479500D02*
X311500D01*
X310000Y478000D02*
Y481000D01*
X318500Y479500D02*
X321500D01*
X320000Y478000D02*
Y481000D01*
X288500Y469500D02*
X291500D01*
X290000Y468000D02*
Y471000D01*
X278500Y469500D02*
X281500D01*
X280000Y468000D02*
Y471000D01*
X288500Y459500D02*
X291500D01*
X290000Y458000D02*
Y461000D01*
X278500Y459500D02*
X281500D01*
X280000Y458000D02*
Y461000D01*
X278500Y449500D02*
X281500D01*
X280000Y448000D02*
Y451000D01*
X288500Y449500D02*
X291500D01*
X290000Y448000D02*
Y451000D01*
X268500Y459500D02*
X271500D01*
X270000Y458000D02*
Y461000D01*
X268500Y449500D02*
X271500D01*
X270000Y448000D02*
Y451000D01*
X258500Y449500D02*
X261500D01*
X260000Y448000D02*
Y451000D01*
X258500Y439500D02*
X261500D01*
X260000Y438000D02*
Y441000D01*
X226000Y524500D02*
X229000D01*
X227500Y523000D02*
Y526000D01*
X196000Y524500D02*
X199000D01*
X197500Y523000D02*
Y526000D01*
X196000Y514500D02*
X199000D01*
X197500Y513000D02*
Y516000D01*
X196000Y504500D02*
X199000D01*
X197500Y503000D02*
Y506000D01*
X196000Y494500D02*
X199000D01*
X197500Y493000D02*
Y496000D01*
X158500Y589500D02*
X161500D01*
X160000Y588000D02*
Y591000D01*
X158500Y599500D02*
X161500D01*
X160000Y598000D02*
Y601000D01*
X158500Y579500D02*
X161500D01*
X160000Y578000D02*
Y581000D01*
X148500Y579500D02*
X151500D01*
X150000Y578000D02*
Y581000D01*
X148500Y589500D02*
X151500D01*
X150000Y588000D02*
Y591000D01*
X148500Y599500D02*
X151500D01*
X150000Y598000D02*
Y601000D01*
X138500Y599500D02*
X141500D01*
X140000Y598000D02*
Y601000D01*
X128500Y599500D02*
X131500D01*
X130000Y598000D02*
Y601000D01*
X118500Y599500D02*
X121500D01*
X120000Y598000D02*
Y601000D01*
X138500Y579500D02*
X141500D01*
X140000Y578000D02*
Y581000D01*
X138500Y589500D02*
X141500D01*
X140000Y588000D02*
Y591000D01*
X128500Y589500D02*
X131500D01*
X130000Y588000D02*
Y591000D01*
X118500Y589500D02*
X121500D01*
X120000Y588000D02*
Y591000D01*
X118500Y579500D02*
X121500D01*
X120000Y578000D02*
Y581000D01*
X128500Y579500D02*
X131500D01*
X130000Y578000D02*
Y581000D01*
X138500Y569500D02*
X141500D01*
X140000Y568000D02*
Y571000D01*
X128500Y569500D02*
X131500D01*
X130000Y568000D02*
Y571000D01*
X118500Y569500D02*
X121500D01*
X120000Y568000D02*
Y571000D01*
X118500Y559500D02*
X121500D01*
X120000Y558000D02*
Y561000D01*
X128500Y559500D02*
X131500D01*
X130000Y558000D02*
Y561000D01*
X138500Y559500D02*
X141500D01*
X140000Y558000D02*
Y561000D01*
X148500Y559500D02*
X151500D01*
X150000Y558000D02*
Y561000D01*
X148500Y549500D02*
X151500D01*
X150000Y548000D02*
Y551000D01*
X138500Y549500D02*
X141500D01*
X140000Y548000D02*
Y551000D01*
X128500Y549500D02*
X131500D01*
X130000Y548000D02*
Y551000D01*
X118500Y549500D02*
X121500D01*
X120000Y548000D02*
Y551000D01*
X118500Y539500D02*
X121500D01*
X120000Y538000D02*
Y541000D01*
X128500Y539500D02*
X131500D01*
X130000Y538000D02*
Y541000D01*
X138500Y539500D02*
X141500D01*
X140000Y538000D02*
Y541000D01*
X148500Y539500D02*
X151500D01*
X150000Y538000D02*
Y541000D01*
X226000Y494500D02*
X229000D01*
X227500Y493000D02*
Y496000D01*
X161000Y45500D02*
X164000D01*
X162500Y44000D02*
Y47000D01*
X334500Y255000D02*
X337500D01*
X336000Y253500D02*
Y256500D01*
X18500Y142500D02*
X21500D01*
X20000Y141000D02*
Y144000D01*
X218500Y677000D02*
X221500D01*
X220000Y675500D02*
Y678500D01*
X218500Y692000D02*
X221500D01*
X220000Y690500D02*
Y693500D01*
X218500Y662000D02*
X221500D01*
X220000Y660500D02*
Y663500D01*
X218500Y647000D02*
X221500D01*
X220000Y645500D02*
Y648500D01*
X218500Y632000D02*
X221500D01*
X220000Y630500D02*
Y633500D01*
X218500Y617000D02*
X221500D01*
X220000Y615500D02*
Y618500D01*
X233500Y692000D02*
X236500D01*
X235000Y690500D02*
Y693500D01*
X263500Y692000D02*
X266500D01*
X265000Y690500D02*
Y693500D01*
X248500Y692000D02*
X251500D01*
X250000Y690500D02*
Y693500D01*
X308500Y692000D02*
X311500D01*
X310000Y690500D02*
Y693500D01*
X323500Y692000D02*
X326500D01*
X325000Y690500D02*
Y693500D01*
X293500Y692000D02*
X296500D01*
X295000Y690500D02*
Y693500D01*
X278500Y692000D02*
X281500D01*
X280000Y690500D02*
Y693500D01*
X368500Y692000D02*
X371500D01*
X370000Y690500D02*
Y693500D01*
X383500Y692000D02*
X386500D01*
X385000Y690500D02*
Y693500D01*
X353500Y692000D02*
X356500D01*
X355000Y690500D02*
Y693500D01*
X338500Y692000D02*
X341500D01*
X340000Y690500D02*
Y693500D01*
X398500Y694000D02*
X401500D01*
X400000Y692500D02*
Y695500D01*
X398500Y709000D02*
X401500D01*
X400000Y707500D02*
Y710500D01*
X398500Y739000D02*
X401500D01*
X400000Y737500D02*
Y740500D01*
X398500Y724000D02*
X401500D01*
X400000Y722500D02*
Y725500D01*
X383500Y742000D02*
X386500D01*
X385000Y740500D02*
Y743500D01*
X338500Y742000D02*
X341500D01*
X340000Y740500D02*
Y743500D01*
X353500Y742000D02*
X356500D01*
X355000Y740500D02*
Y743500D01*
X368500Y742000D02*
X371500D01*
X370000Y740500D02*
Y743500D01*
X278500Y742000D02*
X281500D01*
X280000Y740500D02*
Y743500D01*
X293500Y742000D02*
X296500D01*
X295000Y740500D02*
Y743500D01*
X323500Y742000D02*
X326500D01*
X325000Y740500D02*
Y743500D01*
X308500Y742000D02*
X311500D01*
X310000Y740500D02*
Y743500D01*
X248500Y742000D02*
X251500D01*
X250000Y740500D02*
Y743500D01*
X263500Y742000D02*
X266500D01*
X265000Y740500D02*
Y743500D01*
X233500Y742000D02*
X236500D01*
X235000Y740500D02*
Y743500D01*
X218500Y742000D02*
X221500D01*
X220000Y740500D02*
Y743500D01*
X173500Y742000D02*
X176500D01*
X175000Y740500D02*
Y743500D01*
X188500Y742000D02*
X191500D01*
X190000Y740500D02*
Y743500D01*
X203500Y742000D02*
X206500D01*
X205000Y740500D02*
Y743500D01*
X113500Y742000D02*
X116500D01*
X115000Y740500D02*
Y743500D01*
X128500Y742000D02*
X131500D01*
X130000Y740500D02*
Y743500D01*
X158500Y742000D02*
X161500D01*
X160000Y740500D02*
Y743500D01*
X143500Y742000D02*
X146500D01*
X145000Y740500D02*
Y743500D01*
X83500Y742000D02*
X86500D01*
X85000Y740500D02*
Y743500D01*
X98500Y742000D02*
X101500D01*
X100000Y740500D02*
Y743500D01*
X68500Y742000D02*
X71500D01*
X70000Y740500D02*
Y743500D01*
X53500Y742000D02*
X56500D01*
X55000Y740500D02*
Y743500D01*
X53500Y792000D02*
X56500D01*
X55000Y790500D02*
Y793500D01*
X68500Y792000D02*
X71500D01*
X70000Y790500D02*
Y793500D01*
X98500Y792000D02*
X101500D01*
X100000Y790500D02*
Y793500D01*
X83500Y792000D02*
X86500D01*
X85000Y790500D02*
Y793500D01*
X143500Y792000D02*
X146500D01*
X145000Y790500D02*
Y793500D01*
X158500Y792000D02*
X161500D01*
X160000Y790500D02*
Y793500D01*
X128500Y792000D02*
X131500D01*
X130000Y790500D02*
Y793500D01*
X113500Y792000D02*
X116500D01*
X115000Y790500D02*
Y793500D01*
X203500Y792000D02*
X206500D01*
X205000Y790500D02*
Y793500D01*
X188500Y792000D02*
X191500D01*
X190000Y790500D02*
Y793500D01*
X173500Y792000D02*
X176500D01*
X175000Y790500D02*
Y793500D01*
X218500Y792000D02*
X221500D01*
X220000Y790500D02*
Y793500D01*
X233500Y792000D02*
X236500D01*
X235000Y790500D02*
Y793500D01*
X263500Y792000D02*
X266500D01*
X265000Y790500D02*
Y793500D01*
X248500Y792000D02*
X251500D01*
X250000Y790500D02*
Y793500D01*
X308500Y792000D02*
X311500D01*
X310000Y790500D02*
Y793500D01*
X323500Y792000D02*
X326500D01*
X325000Y790500D02*
Y793500D01*
X293500Y792000D02*
X296500D01*
X295000Y790500D02*
Y793500D01*
X278500Y792000D02*
X281500D01*
X280000Y790500D02*
Y793500D01*
X368500Y792000D02*
X371500D01*
X370000Y790500D02*
Y793500D01*
X353500Y792000D02*
X356500D01*
X355000Y790500D02*
Y793500D01*
X338500Y792000D02*
X341500D01*
X340000Y790500D02*
Y793500D01*
X383500Y792000D02*
X386500D01*
X385000Y790500D02*
Y793500D01*
X53500Y842000D02*
X56500D01*
X55000Y840500D02*
Y843500D01*
X68500Y842000D02*
X71500D01*
X70000Y840500D02*
Y843500D01*
X98500Y842000D02*
X101500D01*
X100000Y840500D02*
Y843500D01*
X83500Y842000D02*
X86500D01*
X85000Y840500D02*
Y843500D01*
X143500Y842000D02*
X146500D01*
X145000Y840500D02*
Y843500D01*
X158500Y842000D02*
X161500D01*
X160000Y840500D02*
Y843500D01*
X128500Y842000D02*
X131500D01*
X130000Y840500D02*
Y843500D01*
X113500Y842000D02*
X116500D01*
X115000Y840500D02*
Y843500D01*
X203500Y842000D02*
X206500D01*
X205000Y840500D02*
Y843500D01*
X188500Y842000D02*
X191500D01*
X190000Y840500D02*
Y843500D01*
X173500Y842000D02*
X176500D01*
X175000Y840500D02*
Y843500D01*
X218500Y842000D02*
X221500D01*
X220000Y840500D02*
Y843500D01*
X233500Y842000D02*
X236500D01*
X235000Y840500D02*
Y843500D01*
X263500Y842000D02*
X266500D01*
X265000Y840500D02*
Y843500D01*
X248500Y842000D02*
X251500D01*
X250000Y840500D02*
Y843500D01*
X308500Y842000D02*
X311500D01*
X310000Y840500D02*
Y843500D01*
X323500Y842000D02*
X326500D01*
X325000Y840500D02*
Y843500D01*
X293500Y842000D02*
X296500D01*
X295000Y840500D02*
Y843500D01*
X278500Y842000D02*
X281500D01*
X280000Y840500D02*
Y843500D01*
X368500Y842000D02*
X371500D01*
X370000Y840500D02*
Y843500D01*
X353500Y842000D02*
X356500D01*
X355000Y840500D02*
Y843500D01*
X338500Y842000D02*
X341500D01*
X340000Y840500D02*
Y843500D01*
X383500Y842000D02*
X386500D01*
X385000Y840500D02*
Y843500D01*
X398500Y824000D02*
X401500D01*
X400000Y822500D02*
Y825500D01*
X398500Y839000D02*
X401500D01*
X400000Y837500D02*
Y840500D01*
X398500Y809000D02*
X401500D01*
X400000Y807500D02*
Y810500D01*
X398500Y794000D02*
X401500D01*
X400000Y792500D02*
Y795500D01*
X48500Y752000D02*
X51500D01*
X50000Y750500D02*
Y753500D01*
X48500Y767000D02*
X51500D01*
X50000Y765500D02*
Y768500D01*
X48500Y782000D02*
X51500D01*
X50000Y780500D02*
Y783500D01*
X8500Y52000D02*
X11500D01*
X10000Y50500D02*
Y53500D01*
X8500Y152000D02*
X11500D01*
X10000Y150500D02*
Y153500D01*
X8500Y252000D02*
X11500D01*
X10000Y250500D02*
Y253500D01*
X8500Y352000D02*
X11500D01*
X10000Y350500D02*
Y353500D01*
X33500Y402000D02*
X36500D01*
X35000Y400500D02*
Y403500D01*
X8500Y452000D02*
X11500D01*
X10000Y450500D02*
Y453500D01*
X33500Y502000D02*
X36500D01*
X35000Y500500D02*
Y503500D01*
X8500Y552000D02*
X11500D01*
X10000Y550500D02*
Y553500D01*
X58500Y52000D02*
X61500D01*
X60000Y50500D02*
Y53500D01*
X83500Y102000D02*
X86500D01*
X85000Y100500D02*
Y103500D01*
X83500Y202000D02*
X86500D01*
X85000Y200500D02*
Y203500D01*
X58500Y252000D02*
X61500D01*
X60000Y250500D02*
Y253500D01*
X58500Y552000D02*
X61500D01*
X60000Y550500D02*
Y553500D01*
X108500Y152000D02*
X111500D01*
X110000Y150500D02*
Y153500D01*
X108500Y252000D02*
X111500D01*
X110000Y250500D02*
Y253500D01*
X108500Y552000D02*
X111500D01*
X110000Y550500D02*
Y553500D01*
X258500Y252000D02*
X261500D01*
X260000Y250500D02*
Y253500D01*
X308500Y52000D02*
X311500D01*
X310000Y50500D02*
Y53500D01*
X333500Y102000D02*
X336500D01*
X335000Y100500D02*
Y103500D01*
X308500Y152000D02*
X311500D01*
X310000Y150500D02*
Y153500D01*
X308500Y252000D02*
X311500D01*
X310000Y250500D02*
Y253500D01*
X308500Y352000D02*
X311500D01*
X310000Y350500D02*
Y353500D01*
X333500Y402000D02*
X336500D01*
X335000Y400500D02*
Y403500D01*
X308500Y452000D02*
X311500D01*
X310000Y450500D02*
Y453500D01*
X333500Y502000D02*
X336500D01*
X335000Y500500D02*
Y503500D01*
X358500Y52000D02*
X361500D01*
X360000Y50500D02*
Y53500D01*
X358500Y152000D02*
X361500D01*
X360000Y150500D02*
Y153500D01*
X358500Y252000D02*
X361500D01*
X360000Y250500D02*
Y253500D01*
X383500Y302000D02*
X386500D01*
X385000Y300500D02*
Y303500D01*
X358500Y352000D02*
X361500D01*
X360000Y350500D02*
Y353500D01*
X383500Y402000D02*
X386500D01*
X385000Y400500D02*
Y403500D01*
X358500Y452000D02*
X361500D01*
X360000Y450500D02*
Y453500D01*
X383500Y502000D02*
X386500D01*
X385000Y500500D02*
Y503500D01*
X358500Y552000D02*
X361500D01*
X360000Y550500D02*
Y553500D01*
X408500Y52000D02*
X411500D01*
X410000Y50500D02*
Y53500D01*
X408500Y152000D02*
X411500D01*
X410000Y150500D02*
Y153500D01*
X408500Y252000D02*
X411500D01*
X410000Y250500D02*
Y253500D01*
X408500Y352000D02*
X411500D01*
X410000Y350500D02*
Y353500D01*
X408500Y452000D02*
X411500D01*
X410000Y450500D02*
Y453500D01*
X408500Y552000D02*
X411500D01*
X410000Y550500D02*
Y553500D01*
X163000Y459000D02*
X166000D01*
X164500Y457500D02*
Y460500D01*
X163000Y470000D02*
X166000D01*
X164500Y468500D02*
Y471500D01*
X174000Y459000D02*
X177000D01*
X175500Y457500D02*
Y460500D01*
X174000Y470000D02*
X177000D01*
X175500Y468500D02*
Y471500D01*
M02*
