G04 Layer_Color=2752767*
%FSLAX44Y44*%
%MOMM*%
G71*
G01*
G75*
%ADD73C,0.0508*%
%ADD74C,0.0677*%
D73*
X26568Y103968D02*
Y108032D01*
X30632D01*
Y103968D01*
X26568D01*
X51968D02*
Y108032D01*
X56032D01*
Y103968D01*
X51968D01*
X84968Y267268D02*
Y271332D01*
X89032D01*
Y267268D01*
X84968D01*
Y292668D02*
Y296732D01*
X89032D01*
Y292668D01*
X84968D01*
X35968Y215868D02*
Y219932D01*
X40032D01*
Y215868D01*
X35968D01*
Y190468D02*
Y194532D01*
X40032D01*
Y190468D01*
X35968D01*
Y241268D02*
Y245332D01*
X40032D01*
Y241268D01*
X35968D01*
Y266668D02*
Y270732D01*
X40032D01*
Y266668D01*
X35968D01*
Y292068D02*
Y296132D01*
X40032D01*
Y292068D01*
X35968D01*
Y317468D02*
Y321532D01*
X40032D01*
Y317468D01*
X35968D01*
D74*
X359532Y182500D02*
G03*
X359532Y182500I-2032J0D01*
G01*
X378032Y197500D02*
G03*
X378032Y197500I-2032J0D01*
G01*
X317032Y220000D02*
G03*
X317032Y220000I-2032J0D01*
G01*
X407032Y120000D02*
G03*
X407032Y120000I-2032J0D01*
G01*
X272032Y345000D02*
G03*
X272032Y345000I-2032J0D01*
G01*
X262032Y335000D02*
G03*
X262032Y335000I-2032J0D01*
G01*
X324032Y255000D02*
G03*
X324032Y255000I-2032J0D01*
G01*
X155032Y98000D02*
G03*
X155032Y98000I-2032J0D01*
G01*
X157032Y208000D02*
G03*
X157032Y208000I-2032J0D01*
G01*
Y189000D02*
G03*
X157032Y189000I-2032J0D01*
G01*
X154032Y322999D02*
G03*
X154032Y322999I-2032J0D01*
G01*
X198032Y315000D02*
G03*
X198032Y315000I-2032J0D01*
G01*
X262032D02*
G03*
X262032Y315000I-2032J0D01*
G01*
Y299000D02*
G03*
X262032Y299000I-2032J0D01*
G01*
X315532Y91500D02*
G03*
X315532Y91500I-2032J0D01*
G01*
X312032Y111000D02*
G03*
X312032Y111000I-2032J0D01*
G01*
X197032Y197000D02*
G03*
X197032Y197000I-2032J0D01*
G01*
X308032Y123000D02*
G03*
X308032Y123000I-2032J0D01*
G01*
Y135000D02*
G03*
X308032Y135000I-2032J0D01*
G01*
X150032Y247000D02*
G03*
X150032Y247000I-2032J0D01*
G01*
X163032D02*
G03*
X163032Y247000I-2032J0D01*
G01*
X308032Y297000D02*
G03*
X308032Y297000I-2032J0D01*
G01*
Y283000D02*
G03*
X308032Y283000I-2032J0D01*
G01*
X252032Y429500D02*
G03*
X252032Y429500I-2032J0D01*
G01*
X243032Y287000D02*
G03*
X243032Y287000I-2032J0D01*
G01*
X222032Y300000D02*
G03*
X222032Y300000I-2032J0D01*
G01*
X218032Y240000D02*
G03*
X218032Y240000I-2032J0D01*
G01*
X214032Y305000D02*
G03*
X214032Y305000I-2032J0D01*
G01*
X248032Y250000D02*
G03*
X248032Y250000I-2032J0D01*
G01*
Y240000D02*
G03*
X248032Y240000I-2032J0D01*
G01*
X230032Y295000D02*
G03*
X230032Y295000I-2032J0D01*
G01*
X238032Y240000D02*
G03*
X238032Y240000I-2032J0D01*
G01*
X228032D02*
G03*
X228032Y240000I-2032J0D01*
G01*
X206032Y310000D02*
G03*
X206032Y310000I-2032J0D01*
G01*
X208032Y240000D02*
G03*
X208032Y240000I-2032J0D01*
G01*
X94032Y323000D02*
G03*
X94032Y323000I-2032J0D01*
G01*
X67032Y427000D02*
G03*
X67032Y427000I-2032J0D01*
G01*
X145032Y521000D02*
G03*
X145032Y521000I-2032J0D01*
G01*
X199532Y439500D02*
G03*
X199532Y439500I-2032J0D01*
G01*
X239532Y409500D02*
G03*
X239532Y409500I-2032J0D01*
G01*
X149532Y404500D02*
G03*
X149532Y404500I-2032J0D01*
G01*
X219532Y452000D02*
G03*
X219532Y452000I-2032J0D01*
G01*
X259532Y93000D02*
G03*
X259532Y93000I-2032J0D01*
G01*
Y58000D02*
G03*
X259532Y58000I-2032J0D01*
G01*
X202032Y73000D02*
G03*
X202032Y73000I-2032J0D01*
G01*
X182032Y78000D02*
G03*
X182032Y78000I-2032J0D01*
G01*
X249532Y95500D02*
G03*
X249532Y95500I-2032J0D01*
G01*
X154532Y20500D02*
G03*
X154532Y20500I-2032J0D01*
G01*
X112032Y90500D02*
G03*
X112032Y90500I-2032J0D01*
G01*
X348032Y103000D02*
G03*
X348032Y103000I-2032J0D01*
G01*
X365532Y78000D02*
G03*
X365532Y78000I-2032J0D01*
G01*
X209532Y118000D02*
G03*
X209532Y118000I-2032J0D01*
G01*
X254532Y48000D02*
G03*
X254532Y48000I-2032J0D01*
G01*
X212032Y55500D02*
G03*
X212032Y55500I-2032J0D01*
G01*
X249532Y439500D02*
G03*
X249532Y439500I-2032J0D01*
G01*
Y449500D02*
G03*
X249532Y449500I-2032J0D01*
G01*
Y459500D02*
G03*
X249532Y459500I-2032J0D01*
G01*
X199532Y409500D02*
G03*
X199532Y409500I-2032J0D01*
G01*
X209532D02*
G03*
X209532Y409500I-2032J0D01*
G01*
X219532D02*
G03*
X219532Y409500I-2032J0D01*
G01*
X229532Y409500D02*
G03*
X229532Y409500I-2032J0D01*
G01*
X169532Y372000D02*
G03*
X169532Y372000I-2032J0D01*
G01*
X154532Y367000D02*
G03*
X154532Y367000I-2032J0D01*
G01*
X219532Y494500D02*
G03*
X219532Y494500I-2032J0D01*
G01*
X264532Y487000D02*
G03*
X264532Y487000I-2032J0D01*
G01*
X262032Y514500D02*
G03*
X262032Y514500I-2032J0D01*
G01*
Y524500D02*
G03*
X262032Y524500I-2032J0D01*
G01*
X219532D02*
G03*
X219532Y524500I-2032J0D01*
G01*
X209532D02*
G03*
X209532Y524500I-2032J0D01*
G01*
X99532Y474500D02*
G03*
X99532Y474500I-2032J0D01*
G01*
X127032Y457000D02*
G03*
X127032Y457000I-2032J0D01*
G01*
X114532Y427000D02*
G03*
X114532Y427000I-2032J0D01*
G01*
X199532Y584500D02*
G03*
X199532Y584500I-2032J0D01*
G01*
X209532D02*
G03*
X209532Y584500I-2032J0D01*
G01*
X219532D02*
G03*
X219532Y584500I-2032J0D01*
G01*
X229532D02*
G03*
X229532Y584500I-2032J0D01*
G01*
X239532D02*
G03*
X239532Y584500I-2032J0D01*
G01*
X249532D02*
G03*
X249532Y584500I-2032J0D01*
G01*
X259532D02*
G03*
X259532Y584500I-2032J0D01*
G01*
Y574500D02*
G03*
X259532Y574500I-2032J0D01*
G01*
X249532Y544500D02*
G03*
X249532Y544500I-2032J0D01*
G01*
Y534500D02*
G03*
X249532Y534500I-2032J0D01*
G01*
X239532Y544500D02*
G03*
X239532Y544500I-2032J0D01*
G01*
Y534500D02*
G03*
X239532Y534500I-2032J0D01*
G01*
X229532Y574500D02*
G03*
X229532Y574500I-2032J0D01*
G01*
X239532Y564500D02*
G03*
X239532Y564500I-2032J0D01*
G01*
X229532Y554500D02*
G03*
X229532Y554500I-2032J0D01*
G01*
X209532D02*
G03*
X209532Y554500I-2032J0D01*
G01*
Y544500D02*
G03*
X209532Y544500I-2032J0D01*
G01*
X219532D02*
G03*
X219532Y544500I-2032J0D01*
G01*
X229532Y534500D02*
G03*
X229532Y534500I-2032J0D01*
G01*
X219532Y554500D02*
G03*
X219532Y554500I-2032J0D01*
G01*
X229532Y544500D02*
G03*
X229532Y544500I-2032J0D01*
G01*
X239532Y554500D02*
G03*
X239532Y554500I-2032J0D01*
G01*
X249532D02*
G03*
X249532Y554500I-2032J0D01*
G01*
X239532Y574500D02*
G03*
X239532Y574500I-2032J0D01*
G01*
X249532D02*
G03*
X249532Y574500I-2032J0D01*
G01*
X229532Y564500D02*
G03*
X229532Y564500I-2032J0D01*
G01*
X249532D02*
G03*
X249532Y564500I-2032J0D01*
G01*
X219532Y534500D02*
G03*
X219532Y534500I-2032J0D01*
G01*
X209532D02*
G03*
X209532Y534500I-2032J0D01*
G01*
X272032Y599500D02*
G03*
X272032Y599500I-2032J0D01*
G01*
X282032D02*
G03*
X282032Y599500I-2032J0D01*
G01*
X292032D02*
G03*
X292032Y599500I-2032J0D01*
G01*
X302032D02*
G03*
X302032Y599500I-2032J0D01*
G01*
X312032D02*
G03*
X312032Y599500I-2032J0D01*
G01*
X322032D02*
G03*
X322032Y599500I-2032J0D01*
G01*
X282032Y589500D02*
G03*
X282032Y589500I-2032J0D01*
G01*
X292032D02*
G03*
X292032Y589500I-2032J0D01*
G01*
X302032D02*
G03*
X302032Y589500I-2032J0D01*
G01*
X312032D02*
G03*
X312032Y589500I-2032J0D01*
G01*
X322032D02*
G03*
X322032Y589500I-2032J0D01*
G01*
X292032Y579500D02*
G03*
X292032Y579500I-2032J0D01*
G01*
X302032D02*
G03*
X302032Y579500I-2032J0D01*
G01*
X312032D02*
G03*
X312032Y579500I-2032J0D01*
G01*
X322032D02*
G03*
X322032Y579500I-2032J0D01*
G01*
X292032Y569500D02*
G03*
X292032Y569500I-2032J0D01*
G01*
X302032D02*
G03*
X302032Y569500I-2032J0D01*
G01*
X312032D02*
G03*
X312032Y569500I-2032J0D01*
G01*
X322032D02*
G03*
X322032Y569500I-2032J0D01*
G01*
X302032Y559500D02*
G03*
X302032Y559500I-2032J0D01*
G01*
X312032D02*
G03*
X312032Y559500I-2032J0D01*
G01*
X322032D02*
G03*
X322032Y559500I-2032J0D01*
G01*
X302032Y549500D02*
G03*
X302032Y549500I-2032J0D01*
G01*
X312032D02*
G03*
X312032Y549500I-2032J0D01*
G01*
X322032D02*
G03*
X322032Y549500I-2032J0D01*
G01*
Y539500D02*
G03*
X322032Y539500I-2032J0D01*
G01*
X312032D02*
G03*
X312032Y539500I-2032J0D01*
G01*
X302032D02*
G03*
X302032Y539500I-2032J0D01*
G01*
X322032Y529500D02*
G03*
X322032Y529500I-2032J0D01*
G01*
X312032D02*
G03*
X312032Y529500I-2032J0D01*
G01*
X302032D02*
G03*
X302032Y529500I-2032J0D01*
G01*
X292032D02*
G03*
X292032Y529500I-2032J0D01*
G01*
Y519500D02*
G03*
X292032Y519500I-2032J0D01*
G01*
X302032D02*
G03*
X302032Y519500I-2032J0D01*
G01*
X312032D02*
G03*
X312032Y519500I-2032J0D01*
G01*
X322032D02*
G03*
X322032Y519500I-2032J0D01*
G01*
Y509500D02*
G03*
X322032Y509500I-2032J0D01*
G01*
X312032D02*
G03*
X312032Y509500I-2032J0D01*
G01*
X302032D02*
G03*
X302032Y509500I-2032J0D01*
G01*
X292032D02*
G03*
X292032Y509500I-2032J0D01*
G01*
X282032D02*
G03*
X282032Y509500I-2032J0D01*
G01*
Y499500D02*
G03*
X282032Y499500I-2032J0D01*
G01*
X292032D02*
G03*
X292032Y499500I-2032J0D01*
G01*
X302032D02*
G03*
X302032Y499500I-2032J0D01*
G01*
X312032D02*
G03*
X312032Y499500I-2032J0D01*
G01*
X322032D02*
G03*
X322032Y499500I-2032J0D01*
G01*
X282032Y489500D02*
G03*
X282032Y489500I-2032J0D01*
G01*
X292032D02*
G03*
X292032Y489500I-2032J0D01*
G01*
X302032D02*
G03*
X302032Y489500I-2032J0D01*
G01*
X312032D02*
G03*
X312032Y489500I-2032J0D01*
G01*
X322032D02*
G03*
X322032Y489500I-2032J0D01*
G01*
X282032Y479500D02*
G03*
X282032Y479500I-2032J0D01*
G01*
X292032D02*
G03*
X292032Y479500I-2032J0D01*
G01*
X302032D02*
G03*
X302032Y479500I-2032J0D01*
G01*
X312032D02*
G03*
X312032Y479500I-2032J0D01*
G01*
X322032D02*
G03*
X322032Y479500I-2032J0D01*
G01*
X292032Y469500D02*
G03*
X292032Y469500I-2032J0D01*
G01*
X282032D02*
G03*
X282032Y469500I-2032J0D01*
G01*
X292032Y459500D02*
G03*
X292032Y459500I-2032J0D01*
G01*
X282032D02*
G03*
X282032Y459500I-2032J0D01*
G01*
Y449500D02*
G03*
X282032Y449500I-2032J0D01*
G01*
X292032D02*
G03*
X292032Y449500I-2032J0D01*
G01*
X272032Y459500D02*
G03*
X272032Y459500I-2032J0D01*
G01*
Y449500D02*
G03*
X272032Y449500I-2032J0D01*
G01*
X262032D02*
G03*
X262032Y449500I-2032J0D01*
G01*
Y439500D02*
G03*
X262032Y439500I-2032J0D01*
G01*
X229532Y524500D02*
G03*
X229532Y524500I-2032J0D01*
G01*
X199532D02*
G03*
X199532Y524500I-2032J0D01*
G01*
Y514500D02*
G03*
X199532Y514500I-2032J0D01*
G01*
Y504500D02*
G03*
X199532Y504500I-2032J0D01*
G01*
Y494500D02*
G03*
X199532Y494500I-2032J0D01*
G01*
X162032Y589500D02*
G03*
X162032Y589500I-2032J0D01*
G01*
Y599500D02*
G03*
X162032Y599500I-2032J0D01*
G01*
Y579500D02*
G03*
X162032Y579500I-2032J0D01*
G01*
X152032D02*
G03*
X152032Y579500I-2032J0D01*
G01*
Y589500D02*
G03*
X152032Y589500I-2032J0D01*
G01*
Y599500D02*
G03*
X152032Y599500I-2032J0D01*
G01*
X142032D02*
G03*
X142032Y599500I-2032J0D01*
G01*
X132032D02*
G03*
X132032Y599500I-2032J0D01*
G01*
X122032D02*
G03*
X122032Y599500I-2032J0D01*
G01*
X142032Y579500D02*
G03*
X142032Y579500I-2032J0D01*
G01*
Y589500D02*
G03*
X142032Y589500I-2032J0D01*
G01*
X132032D02*
G03*
X132032Y589500I-2032J0D01*
G01*
X122032D02*
G03*
X122032Y589500I-2032J0D01*
G01*
Y579500D02*
G03*
X122032Y579500I-2032J0D01*
G01*
X132032D02*
G03*
X132032Y579500I-2032J0D01*
G01*
X142032Y569500D02*
G03*
X142032Y569500I-2032J0D01*
G01*
X132032D02*
G03*
X132032Y569500I-2032J0D01*
G01*
X122032D02*
G03*
X122032Y569500I-2032J0D01*
G01*
Y559500D02*
G03*
X122032Y559500I-2032J0D01*
G01*
X132032D02*
G03*
X132032Y559500I-2032J0D01*
G01*
X142032D02*
G03*
X142032Y559500I-2032J0D01*
G01*
X152032D02*
G03*
X152032Y559500I-2032J0D01*
G01*
Y549500D02*
G03*
X152032Y549500I-2032J0D01*
G01*
X142032D02*
G03*
X142032Y549500I-2032J0D01*
G01*
X132032D02*
G03*
X132032Y549500I-2032J0D01*
G01*
X122032D02*
G03*
X122032Y549500I-2032J0D01*
G01*
Y539500D02*
G03*
X122032Y539500I-2032J0D01*
G01*
X132032D02*
G03*
X132032Y539500I-2032J0D01*
G01*
X142032D02*
G03*
X142032Y539500I-2032J0D01*
G01*
X152032D02*
G03*
X152032Y539500I-2032J0D01*
G01*
X229532Y494500D02*
G03*
X229532Y494500I-2032J0D01*
G01*
X164532Y45500D02*
G03*
X164532Y45500I-2032J0D01*
G01*
X338032Y255000D02*
G03*
X338032Y255000I-2032J0D01*
G01*
X22032Y142500D02*
G03*
X22032Y142500I-2032J0D01*
G01*
X222032Y677000D02*
G03*
X222032Y677000I-2032J0D01*
G01*
Y692000D02*
G03*
X222032Y692000I-2032J0D01*
G01*
Y662000D02*
G03*
X222032Y662000I-2032J0D01*
G01*
Y647000D02*
G03*
X222032Y647000I-2032J0D01*
G01*
Y632000D02*
G03*
X222032Y632000I-2032J0D01*
G01*
Y617000D02*
G03*
X222032Y617000I-2032J0D01*
G01*
X237032Y692000D02*
G03*
X237032Y692000I-2032J0D01*
G01*
X267032D02*
G03*
X267032Y692000I-2032J0D01*
G01*
X252032D02*
G03*
X252032Y692000I-2032J0D01*
G01*
X312032D02*
G03*
X312032Y692000I-2032J0D01*
G01*
X327032D02*
G03*
X327032Y692000I-2032J0D01*
G01*
X297032D02*
G03*
X297032Y692000I-2032J0D01*
G01*
X282032D02*
G03*
X282032Y692000I-2032J0D01*
G01*
X372032D02*
G03*
X372032Y692000I-2032J0D01*
G01*
X387032D02*
G03*
X387032Y692000I-2032J0D01*
G01*
X357032D02*
G03*
X357032Y692000I-2032J0D01*
G01*
X342032D02*
G03*
X342032Y692000I-2032J0D01*
G01*
X402032Y694000D02*
G03*
X402032Y694000I-2032J0D01*
G01*
Y709000D02*
G03*
X402032Y709000I-2032J0D01*
G01*
Y739000D02*
G03*
X402032Y739000I-2032J0D01*
G01*
Y724000D02*
G03*
X402032Y724000I-2032J0D01*
G01*
X387032Y742000D02*
G03*
X387032Y742000I-2032J0D01*
G01*
X342032D02*
G03*
X342032Y742000I-2032J0D01*
G01*
X357032D02*
G03*
X357032Y742000I-2032J0D01*
G01*
X372032D02*
G03*
X372032Y742000I-2032J0D01*
G01*
X282032D02*
G03*
X282032Y742000I-2032J0D01*
G01*
X297032D02*
G03*
X297032Y742000I-2032J0D01*
G01*
X327032D02*
G03*
X327032Y742000I-2032J0D01*
G01*
X312032D02*
G03*
X312032Y742000I-2032J0D01*
G01*
X252032D02*
G03*
X252032Y742000I-2032J0D01*
G01*
X267032D02*
G03*
X267032Y742000I-2032J0D01*
G01*
X237032D02*
G03*
X237032Y742000I-2032J0D01*
G01*
X222032D02*
G03*
X222032Y742000I-2032J0D01*
G01*
X177032D02*
G03*
X177032Y742000I-2032J0D01*
G01*
X192032D02*
G03*
X192032Y742000I-2032J0D01*
G01*
X207032D02*
G03*
X207032Y742000I-2032J0D01*
G01*
X117032D02*
G03*
X117032Y742000I-2032J0D01*
G01*
X132032D02*
G03*
X132032Y742000I-2032J0D01*
G01*
X162032D02*
G03*
X162032Y742000I-2032J0D01*
G01*
X147032D02*
G03*
X147032Y742000I-2032J0D01*
G01*
X87032D02*
G03*
X87032Y742000I-2032J0D01*
G01*
X102032D02*
G03*
X102032Y742000I-2032J0D01*
G01*
X72032D02*
G03*
X72032Y742000I-2032J0D01*
G01*
X57032D02*
G03*
X57032Y742000I-2032J0D01*
G01*
Y792000D02*
G03*
X57032Y792000I-2032J0D01*
G01*
X72032D02*
G03*
X72032Y792000I-2032J0D01*
G01*
X102032D02*
G03*
X102032Y792000I-2032J0D01*
G01*
X87032D02*
G03*
X87032Y792000I-2032J0D01*
G01*
X147032D02*
G03*
X147032Y792000I-2032J0D01*
G01*
X162032D02*
G03*
X162032Y792000I-2032J0D01*
G01*
X132032D02*
G03*
X132032Y792000I-2032J0D01*
G01*
X117032D02*
G03*
X117032Y792000I-2032J0D01*
G01*
X207032D02*
G03*
X207032Y792000I-2032J0D01*
G01*
X192032D02*
G03*
X192032Y792000I-2032J0D01*
G01*
X177032D02*
G03*
X177032Y792000I-2032J0D01*
G01*
X222032D02*
G03*
X222032Y792000I-2032J0D01*
G01*
X237032D02*
G03*
X237032Y792000I-2032J0D01*
G01*
X267032D02*
G03*
X267032Y792000I-2032J0D01*
G01*
X252032D02*
G03*
X252032Y792000I-2032J0D01*
G01*
X312032D02*
G03*
X312032Y792000I-2032J0D01*
G01*
X327032D02*
G03*
X327032Y792000I-2032J0D01*
G01*
X297032D02*
G03*
X297032Y792000I-2032J0D01*
G01*
X282032D02*
G03*
X282032Y792000I-2032J0D01*
G01*
X372032D02*
G03*
X372032Y792000I-2032J0D01*
G01*
X357032D02*
G03*
X357032Y792000I-2032J0D01*
G01*
X342032D02*
G03*
X342032Y792000I-2032J0D01*
G01*
X387032D02*
G03*
X387032Y792000I-2032J0D01*
G01*
X57032Y842000D02*
G03*
X57032Y842000I-2032J0D01*
G01*
X72032D02*
G03*
X72032Y842000I-2032J0D01*
G01*
X102032D02*
G03*
X102032Y842000I-2032J0D01*
G01*
X87032D02*
G03*
X87032Y842000I-2032J0D01*
G01*
X147032D02*
G03*
X147032Y842000I-2032J0D01*
G01*
X162032D02*
G03*
X162032Y842000I-2032J0D01*
G01*
X132032D02*
G03*
X132032Y842000I-2032J0D01*
G01*
X117032D02*
G03*
X117032Y842000I-2032J0D01*
G01*
X207032D02*
G03*
X207032Y842000I-2032J0D01*
G01*
X192032D02*
G03*
X192032Y842000I-2032J0D01*
G01*
X177032D02*
G03*
X177032Y842000I-2032J0D01*
G01*
X222032D02*
G03*
X222032Y842000I-2032J0D01*
G01*
X237032D02*
G03*
X237032Y842000I-2032J0D01*
G01*
X267032D02*
G03*
X267032Y842000I-2032J0D01*
G01*
X252032D02*
G03*
X252032Y842000I-2032J0D01*
G01*
X312032D02*
G03*
X312032Y842000I-2032J0D01*
G01*
X327032D02*
G03*
X327032Y842000I-2032J0D01*
G01*
X297032D02*
G03*
X297032Y842000I-2032J0D01*
G01*
X282032D02*
G03*
X282032Y842000I-2032J0D01*
G01*
X372032D02*
G03*
X372032Y842000I-2032J0D01*
G01*
X357032D02*
G03*
X357032Y842000I-2032J0D01*
G01*
X342032D02*
G03*
X342032Y842000I-2032J0D01*
G01*
X387032D02*
G03*
X387032Y842000I-2032J0D01*
G01*
X402032Y824000D02*
G03*
X402032Y824000I-2032J0D01*
G01*
Y839000D02*
G03*
X402032Y839000I-2032J0D01*
G01*
Y809000D02*
G03*
X402032Y809000I-2032J0D01*
G01*
Y794000D02*
G03*
X402032Y794000I-2032J0D01*
G01*
X52032Y752000D02*
G03*
X52032Y752000I-2032J0D01*
G01*
Y767000D02*
G03*
X52032Y767000I-2032J0D01*
G01*
Y782000D02*
G03*
X52032Y782000I-2032J0D01*
G01*
X12032Y52000D02*
G03*
X12032Y52000I-2032J0D01*
G01*
Y152000D02*
G03*
X12032Y152000I-2032J0D01*
G01*
Y252000D02*
G03*
X12032Y252000I-2032J0D01*
G01*
Y352000D02*
G03*
X12032Y352000I-2032J0D01*
G01*
X37032Y402000D02*
G03*
X37032Y402000I-2032J0D01*
G01*
X12032Y452000D02*
G03*
X12032Y452000I-2032J0D01*
G01*
X37032Y502000D02*
G03*
X37032Y502000I-2032J0D01*
G01*
X12032Y552000D02*
G03*
X12032Y552000I-2032J0D01*
G01*
X62032Y52000D02*
G03*
X62032Y52000I-2032J0D01*
G01*
X87032Y102000D02*
G03*
X87032Y102000I-2032J0D01*
G01*
Y202000D02*
G03*
X87032Y202000I-2032J0D01*
G01*
X62032Y252000D02*
G03*
X62032Y252000I-2032J0D01*
G01*
Y552000D02*
G03*
X62032Y552000I-2032J0D01*
G01*
X112032Y152000D02*
G03*
X112032Y152000I-2032J0D01*
G01*
Y252000D02*
G03*
X112032Y252000I-2032J0D01*
G01*
Y552000D02*
G03*
X112032Y552000I-2032J0D01*
G01*
X262032Y252000D02*
G03*
X262032Y252000I-2032J0D01*
G01*
X312032Y52000D02*
G03*
X312032Y52000I-2032J0D01*
G01*
X337032Y102000D02*
G03*
X337032Y102000I-2032J0D01*
G01*
X312032Y152000D02*
G03*
X312032Y152000I-2032J0D01*
G01*
Y252000D02*
G03*
X312032Y252000I-2032J0D01*
G01*
Y352000D02*
G03*
X312032Y352000I-2032J0D01*
G01*
X337032Y402000D02*
G03*
X337032Y402000I-2032J0D01*
G01*
X312032Y452000D02*
G03*
X312032Y452000I-2032J0D01*
G01*
X337032Y502000D02*
G03*
X337032Y502000I-2032J0D01*
G01*
X362032Y52000D02*
G03*
X362032Y52000I-2032J0D01*
G01*
Y152000D02*
G03*
X362032Y152000I-2032J0D01*
G01*
Y252000D02*
G03*
X362032Y252000I-2032J0D01*
G01*
X387032Y302000D02*
G03*
X387032Y302000I-2032J0D01*
G01*
X362032Y352000D02*
G03*
X362032Y352000I-2032J0D01*
G01*
X387032Y402000D02*
G03*
X387032Y402000I-2032J0D01*
G01*
X362032Y452000D02*
G03*
X362032Y452000I-2032J0D01*
G01*
X387032Y502000D02*
G03*
X387032Y502000I-2032J0D01*
G01*
X362032Y552000D02*
G03*
X362032Y552000I-2032J0D01*
G01*
X412032Y52000D02*
G03*
X412032Y52000I-2032J0D01*
G01*
Y152000D02*
G03*
X412032Y152000I-2032J0D01*
G01*
Y252000D02*
G03*
X412032Y252000I-2032J0D01*
G01*
Y352000D02*
G03*
X412032Y352000I-2032J0D01*
G01*
Y452000D02*
G03*
X412032Y452000I-2032J0D01*
G01*
Y552000D02*
G03*
X412032Y552000I-2032J0D01*
G01*
X166532Y459000D02*
G03*
X166532Y459000I-2032J0D01*
G01*
Y470000D02*
G03*
X166532Y470000I-2032J0D01*
G01*
X177532Y459000D02*
G03*
X177532Y459000I-2032J0D01*
G01*
Y470000D02*
G03*
X177532Y470000I-2032J0D01*
G01*
M02*
