G04 Layer_Color=8388736*
%FSLAX44Y44*%
%MOMM*%
G71*
G01*
G75*
%ADD45R,0.8032X1.1032*%
%ADD46R,2.1032X1.3032*%
%ADD47R,1.7032X1.5032*%
%ADD48R,0.3032X0.3032*%
%ADD49R,1.1032X0.8032*%
%ADD50R,0.8032X2.2032*%
%ADD51R,1.0032X1.0032*%
%ADD52R,0.8032X1.2032*%
%ADD53R,1.2032X1.6532*%
%ADD54R,2.2032X0.8032*%
%ADD55R,1.0032X1.0032*%
%ADD56R,1.2032X0.8032*%
%ADD57R,0.5032X1.6032*%
%ADD58R,1.6032X0.5032*%
%ADD59R,1.5032X1.7032*%
%ADD60R,0.8032X0.7032*%
%ADD61R,0.5032X0.7532*%
%ADD62R,0.7532X0.5032*%
%ADD63C,1.2032*%
%ADD64R,0.7032X0.8032*%
%ADD65R,2.0032X1.6032*%
%ADD66R,0.4532X0.7032*%
%ADD67R,0.7032X0.4532*%
%ADD68R,2.9032X2.9032*%
%ADD69C,2.0032*%
%ADD70R,2.0032X2.0032*%
%ADD71R,2.0032X2.0032*%
%ADD72C,0.8032*%
D45*
X342500Y195000D02*
D03*
X357500D02*
D03*
X342500Y170000D02*
D03*
X357500D02*
D03*
X77500Y192000D02*
D03*
X62500D02*
D03*
X281500Y283000D02*
D03*
X296500D02*
D03*
Y297000D02*
D03*
X281500D02*
D03*
X197500Y105500D02*
D03*
X182500D02*
D03*
Y118000D02*
D03*
X197500D02*
D03*
X222500Y55500D02*
D03*
X237500D02*
D03*
X281500Y123000D02*
D03*
X296500D02*
D03*
Y135000D02*
D03*
X281500D02*
D03*
X142500Y100500D02*
D03*
X127500D02*
D03*
X197060Y20500D02*
D03*
X182060D02*
D03*
X197060Y33000D02*
D03*
X182060D02*
D03*
X197060Y45500D02*
D03*
X182060D02*
D03*
X237500Y95500D02*
D03*
X222500D02*
D03*
X371000Y103000D02*
D03*
X356000D02*
D03*
X212500Y569500D02*
D03*
X197500D02*
D03*
X187500D02*
D03*
X172500D02*
D03*
D46*
X322500Y195000D02*
D03*
Y170000D02*
D03*
D47*
X270000Y360500D02*
D03*
Y379500D02*
D03*
X270000Y559500D02*
D03*
Y540500D02*
D03*
D48*
X220000Y607000D02*
D03*
D49*
X336000Y245500D02*
D03*
Y230500D02*
D03*
X322000D02*
D03*
Y245500D02*
D03*
X322500Y282500D02*
D03*
Y267500D02*
D03*
X162500Y73000D02*
D03*
Y58000D02*
D03*
X162500Y98000D02*
D03*
Y83000D02*
D03*
X257500Y68000D02*
D03*
Y83000D02*
D03*
X62500Y140000D02*
D03*
Y155000D02*
D03*
X110000Y65500D02*
D03*
Y80500D02*
D03*
X267500Y38000D02*
D03*
Y23000D02*
D03*
X255000D02*
D03*
Y38000D02*
D03*
X338500Y68000D02*
D03*
Y83000D02*
D03*
X388500D02*
D03*
Y68000D02*
D03*
X161000Y256500D02*
D03*
Y271500D02*
D03*
X148000D02*
D03*
Y256500D02*
D03*
X135000D02*
D03*
Y271500D02*
D03*
X152500Y377000D02*
D03*
Y392000D02*
D03*
X112500Y437000D02*
D03*
Y452000D02*
D03*
X240000Y484500D02*
D03*
Y499500D02*
D03*
X172500Y582000D02*
D03*
Y597000D02*
D03*
D50*
X375000Y238000D02*
D03*
X351000D02*
D03*
D51*
X337500Y267500D02*
D03*
Y282500D02*
D03*
D52*
X144500Y85000D02*
D03*
X125500D02*
D03*
X135000Y61000D02*
D03*
X180060Y89250D02*
D03*
X199060D02*
D03*
Y61750D02*
D03*
X189560D02*
D03*
X180060D02*
D03*
X323000Y87500D02*
D03*
X304000D02*
D03*
X313500Y63500D02*
D03*
X373000Y87500D02*
D03*
X354000D02*
D03*
X363500Y63500D02*
D03*
D53*
X222000Y75500D02*
D03*
X238000D02*
D03*
D54*
X280000Y88000D02*
D03*
Y64000D02*
D03*
D55*
X32500Y142500D02*
D03*
X47500D02*
D03*
D56*
X140060Y40000D02*
D03*
Y21000D02*
D03*
X164060Y30500D02*
D03*
X239060Y21000D02*
D03*
Y40000D02*
D03*
X215060Y30500D02*
D03*
D57*
X271500Y152000D02*
D03*
X266500D02*
D03*
X261500D02*
D03*
X256500D02*
D03*
X251500D02*
D03*
X246500D02*
D03*
X241500D02*
D03*
X236500D02*
D03*
X231500D02*
D03*
X226500D02*
D03*
X221500D02*
D03*
X216500D02*
D03*
X211500D02*
D03*
X206500D02*
D03*
X201500D02*
D03*
X196500D02*
D03*
Y266000D02*
D03*
X201500D02*
D03*
X206500D02*
D03*
X211500D02*
D03*
X216500D02*
D03*
X221500D02*
D03*
X226500D02*
D03*
X231500D02*
D03*
X236500D02*
D03*
X241500D02*
D03*
X246500D02*
D03*
X251500D02*
D03*
X256500D02*
D03*
X261500D02*
D03*
X266500D02*
D03*
X271500D02*
D03*
D58*
X177000Y171500D02*
D03*
Y176500D02*
D03*
Y181500D02*
D03*
Y186500D02*
D03*
Y191500D02*
D03*
Y196500D02*
D03*
Y201500D02*
D03*
Y206500D02*
D03*
Y211500D02*
D03*
Y216500D02*
D03*
Y221500D02*
D03*
Y226500D02*
D03*
Y231500D02*
D03*
Y236500D02*
D03*
Y241500D02*
D03*
Y246500D02*
D03*
X291000D02*
D03*
Y241500D02*
D03*
Y236500D02*
D03*
Y231500D02*
D03*
Y226500D02*
D03*
Y221500D02*
D03*
Y216500D02*
D03*
Y211500D02*
D03*
Y206500D02*
D03*
Y201500D02*
D03*
Y196500D02*
D03*
Y191500D02*
D03*
Y186500D02*
D03*
Y181500D02*
D03*
Y176500D02*
D03*
Y171500D02*
D03*
D59*
X244500Y335000D02*
D03*
X225500D02*
D03*
X147000Y422000D02*
D03*
X128000D02*
D03*
X189500Y549500D02*
D03*
X170500D02*
D03*
D60*
X167500Y382000D02*
D03*
Y392000D02*
D03*
X135000Y437000D02*
D03*
Y447000D02*
D03*
X125000Y437000D02*
D03*
Y447000D02*
D03*
X175000Y519500D02*
D03*
Y529500D02*
D03*
X185000Y519500D02*
D03*
Y529500D02*
D03*
X197500Y429500D02*
D03*
Y419500D02*
D03*
X207500Y429500D02*
D03*
Y419500D02*
D03*
X217500Y429500D02*
D03*
Y419500D02*
D03*
X227500Y429500D02*
D03*
Y419500D02*
D03*
X217500Y474500D02*
D03*
Y484500D02*
D03*
X252500Y497000D02*
D03*
Y487000D02*
D03*
X257500Y472000D02*
D03*
Y462000D02*
D03*
X217500Y504500D02*
D03*
Y514500D02*
D03*
X207500Y504500D02*
D03*
Y514500D02*
D03*
X287500Y544500D02*
D03*
Y554500D02*
D03*
X187500Y587000D02*
D03*
Y597000D02*
D03*
D61*
X156750Y404500D02*
D03*
X168250D02*
D03*
X118250Y484500D02*
D03*
X106750D02*
D03*
X248250Y472000D02*
D03*
X236750D02*
D03*
X239250Y524500D02*
D03*
X250750D02*
D03*
D62*
X137500Y381250D02*
D03*
Y392750D02*
D03*
X125000Y405250D02*
D03*
Y393750D02*
D03*
X237500Y418750D02*
D03*
Y430250D02*
D03*
X227500Y503750D02*
D03*
Y515250D02*
D03*
X270000D02*
D03*
Y503750D02*
D03*
D63*
X122500Y367000D02*
D03*
D64*
X117500Y464500D02*
D03*
X107500D02*
D03*
X117500Y474500D02*
D03*
X107500D02*
D03*
X162500Y510500D02*
D03*
X152500D02*
D03*
X162500Y520500D02*
D03*
X152500D02*
D03*
X227500Y439500D02*
D03*
X237500D02*
D03*
X227500Y449500D02*
D03*
X237500D02*
D03*
X227500Y459500D02*
D03*
X237500D02*
D03*
X240000Y514500D02*
D03*
X250000D02*
D03*
X270000Y524500D02*
D03*
X280000D02*
D03*
X270000Y574500D02*
D03*
X280000D02*
D03*
X230000Y597000D02*
D03*
X240000D02*
D03*
X200000D02*
D03*
X210000D02*
D03*
X162500Y569500D02*
D03*
X152500D02*
D03*
D65*
X195500Y360000D02*
D03*
X239500D02*
D03*
X195500Y384000D02*
D03*
X239500D02*
D03*
D66*
X157500Y446500D02*
D03*
X162500D02*
D03*
X167500D02*
D03*
X172500D02*
D03*
X177500D02*
D03*
X182500D02*
D03*
Y482500D02*
D03*
X177500D02*
D03*
X172500D02*
D03*
X167500D02*
D03*
X162500D02*
D03*
X157500D02*
D03*
D67*
X188000Y452000D02*
D03*
Y457000D02*
D03*
Y462000D02*
D03*
Y467000D02*
D03*
Y472000D02*
D03*
Y477000D02*
D03*
X152000D02*
D03*
Y472000D02*
D03*
Y467000D02*
D03*
Y462000D02*
D03*
Y457000D02*
D03*
Y452000D02*
D03*
D68*
X170000Y464500D02*
D03*
D69*
X28600Y106000D02*
D03*
X87000Y269300D02*
D03*
X38000Y217900D02*
D03*
Y243300D02*
D03*
Y268700D02*
D03*
Y294100D02*
D03*
Y319500D02*
D03*
D70*
X54000Y106000D02*
D03*
D71*
X87000Y294700D02*
D03*
X38000Y192500D02*
D03*
D72*
X164500Y459000D02*
D03*
Y470000D02*
D03*
X175500Y459000D02*
D03*
Y470000D02*
D03*
M02*
