G04 Layer_Color=8421504*
%FSLAX44Y44*%
%MOMM*%
G71*
G01*
G75*
%ADD10R,0.6000X0.9000*%
%ADD11R,1.9000X1.1000*%
%ADD12R,1.5000X1.3000*%
%ADD13R,0.1000X0.1000*%
%ADD14R,0.9000X0.6000*%
%ADD15R,0.6000X2.0000*%
%ADD16R,0.8000X0.8000*%
%ADD17R,0.6000X1.0000*%
%ADD18R,1.0000X1.4500*%
%ADD19R,2.0000X0.6000*%
%ADD20R,0.8000X0.8000*%
%ADD21R,1.0000X0.6000*%
%ADD22R,0.3000X1.4000*%
%ADD23R,1.4000X0.3000*%
%ADD24R,1.3000X1.5000*%
%ADD25R,0.6000X0.5000*%
%ADD26R,0.3000X0.5500*%
%ADD27R,0.5500X0.3000*%
%ADD28C,1.0000*%
%ADD29R,0.5000X0.6000*%
%ADD30R,1.8000X1.4000*%
%ADD31R,0.2500X0.5000*%
%ADD32R,0.5000X0.2500*%
%ADD33R,2.7000X2.7000*%
D10*
X342500Y195000D02*
D03*
X357500D02*
D03*
X342500Y170000D02*
D03*
X357500D02*
D03*
X77500Y192000D02*
D03*
X62500D02*
D03*
X281500Y283000D02*
D03*
X296500D02*
D03*
Y297000D02*
D03*
X281500D02*
D03*
X197500Y105500D02*
D03*
X182500D02*
D03*
Y118000D02*
D03*
X197500D02*
D03*
X222500Y55500D02*
D03*
X237500D02*
D03*
X281500Y123000D02*
D03*
X296500D02*
D03*
Y135000D02*
D03*
X281500D02*
D03*
X142500Y100500D02*
D03*
X127500D02*
D03*
X197060Y20500D02*
D03*
X182060D02*
D03*
X197060Y33000D02*
D03*
X182060D02*
D03*
X197060Y45500D02*
D03*
X182060D02*
D03*
X237500Y95500D02*
D03*
X222500D02*
D03*
X371000Y103000D02*
D03*
X356000D02*
D03*
X212500Y569500D02*
D03*
X197500D02*
D03*
X187500D02*
D03*
X172500D02*
D03*
D11*
X322500Y195000D02*
D03*
Y170000D02*
D03*
D12*
X270000Y360500D02*
D03*
Y379500D02*
D03*
X270000Y559500D02*
D03*
Y540500D02*
D03*
D13*
X220000Y607000D02*
D03*
D14*
X336000Y245500D02*
D03*
Y230500D02*
D03*
X322000D02*
D03*
Y245500D02*
D03*
X322500Y282500D02*
D03*
Y267500D02*
D03*
X162500Y73000D02*
D03*
Y58000D02*
D03*
X162500Y98000D02*
D03*
Y83000D02*
D03*
X257500Y68000D02*
D03*
Y83000D02*
D03*
X62500Y140000D02*
D03*
Y155000D02*
D03*
X110000Y65500D02*
D03*
Y80500D02*
D03*
X267500Y38000D02*
D03*
Y23000D02*
D03*
X255000D02*
D03*
Y38000D02*
D03*
X338500Y68000D02*
D03*
Y83000D02*
D03*
X388500D02*
D03*
Y68000D02*
D03*
X161000Y256500D02*
D03*
Y271500D02*
D03*
X148000D02*
D03*
Y256500D02*
D03*
X135000D02*
D03*
Y271500D02*
D03*
X152500Y377000D02*
D03*
Y392000D02*
D03*
X112500Y437000D02*
D03*
Y452000D02*
D03*
X240000Y484500D02*
D03*
Y499500D02*
D03*
X172500Y582000D02*
D03*
Y597000D02*
D03*
D15*
X375000Y238000D02*
D03*
X351000D02*
D03*
D16*
X337500Y267500D02*
D03*
Y282500D02*
D03*
D17*
X144500Y85000D02*
D03*
X125500D02*
D03*
X135000Y61000D02*
D03*
X180060Y89250D02*
D03*
X199060D02*
D03*
Y61750D02*
D03*
X189560D02*
D03*
X180060D02*
D03*
X323000Y87500D02*
D03*
X304000D02*
D03*
X313500Y63500D02*
D03*
X373000Y87500D02*
D03*
X354000D02*
D03*
X363500Y63500D02*
D03*
D18*
X222000Y75500D02*
D03*
X238000D02*
D03*
D19*
X280000Y88000D02*
D03*
Y64000D02*
D03*
D20*
X32500Y142500D02*
D03*
X47500D02*
D03*
D21*
X140060Y40000D02*
D03*
Y21000D02*
D03*
X164060Y30500D02*
D03*
X239060Y21000D02*
D03*
Y40000D02*
D03*
X215060Y30500D02*
D03*
D22*
X271500Y152000D02*
D03*
X266500D02*
D03*
X261500D02*
D03*
X256500D02*
D03*
X251500D02*
D03*
X246500D02*
D03*
X241500D02*
D03*
X236500D02*
D03*
X231500D02*
D03*
X226500D02*
D03*
X221500D02*
D03*
X216500D02*
D03*
X211500D02*
D03*
X206500D02*
D03*
X201500D02*
D03*
X196500D02*
D03*
Y266000D02*
D03*
X201500D02*
D03*
X206500D02*
D03*
X211500D02*
D03*
X216500D02*
D03*
X221500D02*
D03*
X226500D02*
D03*
X231500D02*
D03*
X236500D02*
D03*
X241500D02*
D03*
X246500D02*
D03*
X251500D02*
D03*
X256500D02*
D03*
X261500D02*
D03*
X266500D02*
D03*
X271500D02*
D03*
D23*
X177000Y171500D02*
D03*
Y176500D02*
D03*
Y181500D02*
D03*
Y186500D02*
D03*
Y191500D02*
D03*
Y196500D02*
D03*
Y201500D02*
D03*
Y206500D02*
D03*
Y211500D02*
D03*
Y216500D02*
D03*
Y221500D02*
D03*
Y226500D02*
D03*
Y231500D02*
D03*
Y236500D02*
D03*
Y241500D02*
D03*
Y246500D02*
D03*
X291000D02*
D03*
Y241500D02*
D03*
Y236500D02*
D03*
Y231500D02*
D03*
Y226500D02*
D03*
Y221500D02*
D03*
Y216500D02*
D03*
Y211500D02*
D03*
Y206500D02*
D03*
Y201500D02*
D03*
Y196500D02*
D03*
Y191500D02*
D03*
Y186500D02*
D03*
Y181500D02*
D03*
Y176500D02*
D03*
Y171500D02*
D03*
D24*
X244500Y335000D02*
D03*
X225500D02*
D03*
X147000Y422000D02*
D03*
X128000D02*
D03*
X189500Y549500D02*
D03*
X170500D02*
D03*
D25*
X167500Y382000D02*
D03*
Y392000D02*
D03*
X135000Y437000D02*
D03*
Y447000D02*
D03*
X125000Y437000D02*
D03*
Y447000D02*
D03*
X175000Y519500D02*
D03*
Y529500D02*
D03*
X185000Y519500D02*
D03*
Y529500D02*
D03*
X197500Y429500D02*
D03*
Y419500D02*
D03*
X207500Y429500D02*
D03*
Y419500D02*
D03*
X217500Y429500D02*
D03*
Y419500D02*
D03*
X227500Y429500D02*
D03*
Y419500D02*
D03*
X217500Y474500D02*
D03*
Y484500D02*
D03*
X252500Y497000D02*
D03*
Y487000D02*
D03*
X257500Y472000D02*
D03*
Y462000D02*
D03*
X217500Y504500D02*
D03*
Y514500D02*
D03*
X207500Y504500D02*
D03*
Y514500D02*
D03*
X287500Y544500D02*
D03*
Y554500D02*
D03*
X187500Y587000D02*
D03*
Y597000D02*
D03*
D26*
X156750Y404500D02*
D03*
X168250D02*
D03*
X118250Y484500D02*
D03*
X106750D02*
D03*
X248250Y472000D02*
D03*
X236750D02*
D03*
X239250Y524500D02*
D03*
X250750D02*
D03*
D27*
X137500Y381250D02*
D03*
Y392750D02*
D03*
X125000Y405250D02*
D03*
Y393750D02*
D03*
X237500Y418750D02*
D03*
Y430250D02*
D03*
X227500Y503750D02*
D03*
Y515250D02*
D03*
X270000D02*
D03*
Y503750D02*
D03*
D28*
X122500Y367000D02*
D03*
D29*
X117500Y464500D02*
D03*
X107500D02*
D03*
X117500Y474500D02*
D03*
X107500D02*
D03*
X162500Y510500D02*
D03*
X152500D02*
D03*
X162500Y520500D02*
D03*
X152500D02*
D03*
X227500Y439500D02*
D03*
X237500D02*
D03*
X227500Y449500D02*
D03*
X237500D02*
D03*
X227500Y459500D02*
D03*
X237500D02*
D03*
X240000Y514500D02*
D03*
X250000D02*
D03*
X270000Y524500D02*
D03*
X280000D02*
D03*
X270000Y574500D02*
D03*
X280000D02*
D03*
X230000Y597000D02*
D03*
X240000D02*
D03*
X200000D02*
D03*
X210000D02*
D03*
X162500Y569500D02*
D03*
X152500D02*
D03*
D30*
X195500Y360000D02*
D03*
X239500D02*
D03*
X195500Y384000D02*
D03*
X239500D02*
D03*
D31*
X157500Y446500D02*
D03*
X162500D02*
D03*
X167500D02*
D03*
X172500D02*
D03*
X177500D02*
D03*
X182500D02*
D03*
Y482500D02*
D03*
X177500D02*
D03*
X172500D02*
D03*
X167500D02*
D03*
X162500D02*
D03*
X157500D02*
D03*
D32*
X188000Y452000D02*
D03*
Y457000D02*
D03*
Y462000D02*
D03*
Y467000D02*
D03*
Y472000D02*
D03*
Y477000D02*
D03*
X152000D02*
D03*
Y472000D02*
D03*
Y467000D02*
D03*
Y462000D02*
D03*
Y457000D02*
D03*
Y452000D02*
D03*
D33*
X170000Y464500D02*
D03*
M02*
